M48
;DRILL file {KiCad 5.0.1-33cea8e~68~ubuntu18.04.1} date Fri 23 Nov 2018 03:31:14 PM EST
;FORMAT={3:3/ absolute / metric / suppress leading zeros}
FMAT,2
METRIC,TZ
T1C0.600
T2C0.800
T3C0.900
T4C1.000
T5C1.700
T6C2.000
%
G90
G05
M71
T1
X23400Y-76750
X25550Y-39350
X26610Y-81790
X31750Y-77000
X34500Y-67000
X34500Y-80000
X35050Y-86450
X35500Y-78250
X37000Y-67470
X40000Y-74750
X43750Y-68500
X44250Y-85150
X45100Y-36950
X48550Y-85850
X56850Y-35000
X58500Y-88500
T2
X25500Y-56500
X25500Y-61380
X34000Y-30250
X34000Y-32790
X34000Y-35330
X34000Y-37870
X34000Y-40410
X34000Y-42950
X34000Y-45490
X34000Y-48030
X34000Y-50570
X34000Y-53110
X34000Y-55650
X34000Y-58190
X34000Y-60730
X34000Y-63270
X41620Y-30250
X41620Y-32790
X41620Y-35330
X41620Y-37870
X41620Y-40410
X41620Y-42950
X41620Y-45490
X41620Y-48030
X41620Y-50570
X41620Y-53110
X41620Y-55650
X41620Y-58190
X41620Y-60730
X41620Y-63270
X38450Y-72150
X40450Y-72150
X26050Y-47300
X26050Y-49300
T3
X24400Y-68300
X26940Y-68300
T4
X63750Y-26770
X63750Y-29310
X63750Y-31850
X60300Y-36950
X60300Y-39490
X60300Y-42030
X60300Y-44570
X60300Y-47110
X60300Y-49650
X30250Y-30250
X30250Y-32790
X30250Y-35330
X30250Y-37870
X30250Y-40410
X30250Y-42950
X29250Y-79250
X29250Y-81790
X29250Y-84330
X31790Y-79250
X31790Y-81790
X31790Y-84330
X38250Y-77500
X38250Y-80040
X38250Y-82580
X38250Y-85120
X40790Y-77500
X40790Y-80040
X40790Y-82580
X40790Y-85120
X60250Y-54220
X60250Y-56760
X60250Y-59300
X60250Y-61840
X60250Y-64380
X60250Y-66920
X60250Y-69460
X60250Y-72000
T5
X50500Y-24150
X50500Y-30150
X50500Y-64700
X50500Y-70700
T6
X23500Y-22500
X23500Y-87500
X63500Y-22500
X63500Y-55000
T0
M30
