G04 #@! TF.GenerationSoftware,KiCad,Pcbnew,5.0.1-33cea8e~68~ubuntu18.04.1*
G04 #@! TF.CreationDate,2018-11-23T15:34:50-05:00*
G04 #@! TF.ProjectId,samn,73616D6E2E6B696361645F7063620000,6*
G04 #@! TF.SameCoordinates,Original*
G04 #@! TF.FileFunction,Copper,L2,Bot,Mixed*
G04 #@! TF.FilePolarity,Positive*
%FSLAX46Y46*%
G04 Gerber Fmt 4.6, Leading zero omitted, Abs format (unit mm)*
G04 Created by KiCad (PCBNEW 5.0.1-33cea8e~68~ubuntu18.04.1) date Fri 23 Nov 2018 03:34:50 PM EST*
%MOMM*%
%LPD*%
G01*
G04 APERTURE LIST*
G04 #@! TA.AperFunction,ComponentPad*
%ADD10R,1.700000X1.700000*%
G04 #@! TD*
G04 #@! TA.AperFunction,ComponentPad*
%ADD11O,1.700000X1.700000*%
G04 #@! TD*
G04 #@! TA.AperFunction,SMDPad,CuDef*
%ADD12C,2.000000*%
G04 #@! TD*
G04 #@! TA.AperFunction,Conductor*
%ADD13C,0.100000*%
G04 #@! TD*
G04 #@! TA.AperFunction,ComponentPad*
%ADD14C,1.900000*%
G04 #@! TD*
G04 #@! TA.AperFunction,SMDPad,CuDef*
%ADD15C,1.150000*%
G04 #@! TD*
G04 #@! TA.AperFunction,ComponentPad*
%ADD16C,1.800000*%
G04 #@! TD*
G04 #@! TA.AperFunction,ComponentPad*
%ADD17R,1.800000X1.800000*%
G04 #@! TD*
G04 #@! TA.AperFunction,ComponentPad*
%ADD18C,3.400000*%
G04 #@! TD*
G04 #@! TA.AperFunction,ComponentPad*
%ADD19C,1.500000*%
G04 #@! TD*
G04 #@! TA.AperFunction,ComponentPad*
%ADD20C,1.600000*%
G04 #@! TD*
G04 #@! TA.AperFunction,ComponentPad*
%ADD21R,1.600000X1.600000*%
G04 #@! TD*
G04 #@! TA.AperFunction,ComponentPad*
%ADD22O,2.400000X1.600000*%
G04 #@! TD*
G04 #@! TA.AperFunction,ComponentPad*
%ADD23R,2.400000X1.600000*%
G04 #@! TD*
G04 #@! TA.AperFunction,SMDPad,CuDef*
%ADD24R,0.650000X1.560000*%
G04 #@! TD*
G04 #@! TA.AperFunction,ViaPad*
%ADD25C,3.000000*%
G04 #@! TD*
G04 #@! TA.AperFunction,ViaPad*
%ADD26C,1.200000*%
G04 #@! TD*
G04 #@! TA.AperFunction,Conductor*
%ADD27C,0.400000*%
G04 #@! TD*
G04 #@! TA.AperFunction,Conductor*
%ADD28C,0.500000*%
G04 #@! TD*
G04 #@! TA.AperFunction,Conductor*
%ADD29C,0.600000*%
G04 #@! TD*
G04 #@! TA.AperFunction,Conductor*
%ADD30C,0.700000*%
G04 #@! TD*
G04 #@! TA.AperFunction,Conductor*
%ADD31C,0.900000*%
G04 #@! TD*
G04 #@! TA.AperFunction,Conductor*
%ADD32C,0.350000*%
G04 #@! TD*
G04 #@! TA.AperFunction,Conductor*
%ADD33C,0.800000*%
G04 #@! TD*
G04 #@! TA.AperFunction,Conductor*
%ADD34C,0.300000*%
G04 #@! TD*
G04 APERTURE END LIST*
D10*
G04 #@! TO.P,J5,1*
G04 #@! TO.N,GND*
X63750000Y-31850000D03*
D11*
G04 #@! TO.P,J5,2*
G04 #@! TO.N,+1V5*
X63750000Y-29310000D03*
G04 #@! TO.P,J5,3*
G04 #@! TO.N,Net-(J5-Pad3)*
X63750000Y-26770000D03*
G04 #@! TD*
D12*
G04 #@! TO.P,L1,1*
G04 #@! TO.N,+1V5*
X44200000Y-27450000D03*
D13*
G04 #@! TD*
G04 #@! TO.N,+1V5*
G04 #@! TO.C,L1*
G36*
X44341421Y-29005635D02*
X42644365Y-27308579D01*
X44058579Y-25894365D01*
X45755635Y-27591421D01*
X44341421Y-29005635D01*
X44341421Y-29005635D01*
G37*
D12*
G04 #@! TO.P,L1,2*
G04 #@! TO.N,Net-(L1-Pad2)*
X39950000Y-23250000D03*
D13*
G04 #@! TD*
G04 #@! TO.N,Net-(L1-Pad2)*
G04 #@! TO.C,L1*
G36*
X40091421Y-24805635D02*
X38394365Y-23108579D01*
X39808579Y-21694365D01*
X41505635Y-23391421D01*
X40091421Y-24805635D01*
X40091421Y-24805635D01*
G37*
D14*
G04 #@! TO.P,U3,1*
G04 #@! TO.N,GND*
X38250000Y-77500000D03*
G04 #@! TO.P,U3,2*
G04 #@! TO.N,+3V3*
X40790000Y-77500000D03*
G04 #@! TO.P,U3,3*
G04 #@! TO.N,Net-(U2-Pad12)*
X38250000Y-80040000D03*
G04 #@! TO.P,U3,4*
G04 #@! TO.N,Net-(U2-Pad13)*
X40790000Y-80040000D03*
G04 #@! TO.P,U3,5*
G04 #@! TO.N,SCK*
X38250000Y-82580000D03*
G04 #@! TO.P,U3,6*
G04 #@! TO.N,MOSI*
X40790000Y-82580000D03*
G04 #@! TO.P,U3,7*
G04 #@! TO.N,MISO*
X38250000Y-85120000D03*
G04 #@! TO.P,U3,8*
G04 #@! TO.N,Net-(J3-Pad4)*
X40790000Y-85120000D03*
G04 #@! TD*
D11*
G04 #@! TO.P,J4,6*
G04 #@! TO.N,MISO*
X31790000Y-84330000D03*
G04 #@! TO.P,J4,5*
G04 #@! TO.N,+3V3*
X29250000Y-84330000D03*
G04 #@! TO.P,J4,4*
G04 #@! TO.N,SCK*
X31790000Y-81790000D03*
G04 #@! TO.P,J4,3*
G04 #@! TO.N,MOSI*
X29250000Y-81790000D03*
G04 #@! TO.P,J4,2*
G04 #@! TO.N,Reset*
X31790000Y-79250000D03*
D10*
G04 #@! TO.P,J4,1*
G04 #@! TO.N,GND*
X29250000Y-79250000D03*
G04 #@! TD*
D13*
G04 #@! TO.N,+1V5*
G04 #@! TO.C,R7*
G36*
X61424505Y-31651204D02*
X61448773Y-31654804D01*
X61472572Y-31660765D01*
X61495671Y-31669030D01*
X61517850Y-31679520D01*
X61538893Y-31692132D01*
X61558599Y-31706747D01*
X61576777Y-31723223D01*
X61593253Y-31741401D01*
X61607868Y-31761107D01*
X61620480Y-31782150D01*
X61630970Y-31804329D01*
X61639235Y-31827428D01*
X61645196Y-31851227D01*
X61648796Y-31875495D01*
X61650000Y-31899999D01*
X61650000Y-32800001D01*
X61648796Y-32824505D01*
X61645196Y-32848773D01*
X61639235Y-32872572D01*
X61630970Y-32895671D01*
X61620480Y-32917850D01*
X61607868Y-32938893D01*
X61593253Y-32958599D01*
X61576777Y-32976777D01*
X61558599Y-32993253D01*
X61538893Y-33007868D01*
X61517850Y-33020480D01*
X61495671Y-33030970D01*
X61472572Y-33039235D01*
X61448773Y-33045196D01*
X61424505Y-33048796D01*
X61400001Y-33050000D01*
X60749999Y-33050000D01*
X60725495Y-33048796D01*
X60701227Y-33045196D01*
X60677428Y-33039235D01*
X60654329Y-33030970D01*
X60632150Y-33020480D01*
X60611107Y-33007868D01*
X60591401Y-32993253D01*
X60573223Y-32976777D01*
X60556747Y-32958599D01*
X60542132Y-32938893D01*
X60529520Y-32917850D01*
X60519030Y-32895671D01*
X60510765Y-32872572D01*
X60504804Y-32848773D01*
X60501204Y-32824505D01*
X60500000Y-32800001D01*
X60500000Y-31899999D01*
X60501204Y-31875495D01*
X60504804Y-31851227D01*
X60510765Y-31827428D01*
X60519030Y-31804329D01*
X60529520Y-31782150D01*
X60542132Y-31761107D01*
X60556747Y-31741401D01*
X60573223Y-31723223D01*
X60591401Y-31706747D01*
X60611107Y-31692132D01*
X60632150Y-31679520D01*
X60654329Y-31669030D01*
X60677428Y-31660765D01*
X60701227Y-31654804D01*
X60725495Y-31651204D01*
X60749999Y-31650000D01*
X61400001Y-31650000D01*
X61424505Y-31651204D01*
X61424505Y-31651204D01*
G37*
D15*
G04 #@! TD*
G04 #@! TO.P,R7,2*
G04 #@! TO.N,+1V5*
X61075000Y-32350000D03*
D13*
G04 #@! TO.N,Net-(R7-Pad1)*
G04 #@! TO.C,R7*
G36*
X59374505Y-31651204D02*
X59398773Y-31654804D01*
X59422572Y-31660765D01*
X59445671Y-31669030D01*
X59467850Y-31679520D01*
X59488893Y-31692132D01*
X59508599Y-31706747D01*
X59526777Y-31723223D01*
X59543253Y-31741401D01*
X59557868Y-31761107D01*
X59570480Y-31782150D01*
X59580970Y-31804329D01*
X59589235Y-31827428D01*
X59595196Y-31851227D01*
X59598796Y-31875495D01*
X59600000Y-31899999D01*
X59600000Y-32800001D01*
X59598796Y-32824505D01*
X59595196Y-32848773D01*
X59589235Y-32872572D01*
X59580970Y-32895671D01*
X59570480Y-32917850D01*
X59557868Y-32938893D01*
X59543253Y-32958599D01*
X59526777Y-32976777D01*
X59508599Y-32993253D01*
X59488893Y-33007868D01*
X59467850Y-33020480D01*
X59445671Y-33030970D01*
X59422572Y-33039235D01*
X59398773Y-33045196D01*
X59374505Y-33048796D01*
X59350001Y-33050000D01*
X58699999Y-33050000D01*
X58675495Y-33048796D01*
X58651227Y-33045196D01*
X58627428Y-33039235D01*
X58604329Y-33030970D01*
X58582150Y-33020480D01*
X58561107Y-33007868D01*
X58541401Y-32993253D01*
X58523223Y-32976777D01*
X58506747Y-32958599D01*
X58492132Y-32938893D01*
X58479520Y-32917850D01*
X58469030Y-32895671D01*
X58460765Y-32872572D01*
X58454804Y-32848773D01*
X58451204Y-32824505D01*
X58450000Y-32800001D01*
X58450000Y-31899999D01*
X58451204Y-31875495D01*
X58454804Y-31851227D01*
X58460765Y-31827428D01*
X58469030Y-31804329D01*
X58479520Y-31782150D01*
X58492132Y-31761107D01*
X58506747Y-31741401D01*
X58523223Y-31723223D01*
X58541401Y-31706747D01*
X58561107Y-31692132D01*
X58582150Y-31679520D01*
X58604329Y-31669030D01*
X58627428Y-31660765D01*
X58651227Y-31654804D01*
X58675495Y-31651204D01*
X58699999Y-31650000D01*
X59350001Y-31650000D01*
X59374505Y-31651204D01*
X59374505Y-31651204D01*
G37*
D15*
G04 #@! TD*
G04 #@! TO.P,R7,1*
G04 #@! TO.N,Net-(R7-Pad1)*
X59025000Y-32350000D03*
D16*
G04 #@! TO.P,LED_I1,2*
G04 #@! TO.N,Net-(LED_I1-Pad2)*
X26940000Y-68300000D03*
D17*
G04 #@! TO.P,LED_I1,1*
G04 #@! TO.N,GND*
X24400000Y-68300000D03*
G04 #@! TD*
D18*
G04 #@! TO.P,V1,2*
G04 #@! TO.N,GND*
X50500000Y-70700000D03*
X50500000Y-64700000D03*
G04 #@! TO.P,V1,1*
G04 #@! TO.N,Net-(J5-Pad3)*
X50500000Y-30150000D03*
X50500000Y-24150000D03*
G04 #@! TD*
D19*
G04 #@! TO.P,Y1,2*
G04 #@! TO.N,Net-(C6-Pad1)*
X25500000Y-61380000D03*
G04 #@! TO.P,Y1,1*
G04 #@! TO.N,Net-(C5-Pad1)*
X25500000Y-56500000D03*
G04 #@! TD*
D13*
G04 #@! TO.N,+3V3*
G04 #@! TO.C,C2*
G36*
X25124505Y-27151204D02*
X25148773Y-27154804D01*
X25172572Y-27160765D01*
X25195671Y-27169030D01*
X25217850Y-27179520D01*
X25238893Y-27192132D01*
X25258599Y-27206747D01*
X25276777Y-27223223D01*
X25293253Y-27241401D01*
X25307868Y-27261107D01*
X25320480Y-27282150D01*
X25330970Y-27304329D01*
X25339235Y-27327428D01*
X25345196Y-27351227D01*
X25348796Y-27375495D01*
X25350000Y-27399999D01*
X25350000Y-28300001D01*
X25348796Y-28324505D01*
X25345196Y-28348773D01*
X25339235Y-28372572D01*
X25330970Y-28395671D01*
X25320480Y-28417850D01*
X25307868Y-28438893D01*
X25293253Y-28458599D01*
X25276777Y-28476777D01*
X25258599Y-28493253D01*
X25238893Y-28507868D01*
X25217850Y-28520480D01*
X25195671Y-28530970D01*
X25172572Y-28539235D01*
X25148773Y-28545196D01*
X25124505Y-28548796D01*
X25100001Y-28550000D01*
X24449999Y-28550000D01*
X24425495Y-28548796D01*
X24401227Y-28545196D01*
X24377428Y-28539235D01*
X24354329Y-28530970D01*
X24332150Y-28520480D01*
X24311107Y-28507868D01*
X24291401Y-28493253D01*
X24273223Y-28476777D01*
X24256747Y-28458599D01*
X24242132Y-28438893D01*
X24229520Y-28417850D01*
X24219030Y-28395671D01*
X24210765Y-28372572D01*
X24204804Y-28348773D01*
X24201204Y-28324505D01*
X24200000Y-28300001D01*
X24200000Y-27399999D01*
X24201204Y-27375495D01*
X24204804Y-27351227D01*
X24210765Y-27327428D01*
X24219030Y-27304329D01*
X24229520Y-27282150D01*
X24242132Y-27261107D01*
X24256747Y-27241401D01*
X24273223Y-27223223D01*
X24291401Y-27206747D01*
X24311107Y-27192132D01*
X24332150Y-27179520D01*
X24354329Y-27169030D01*
X24377428Y-27160765D01*
X24401227Y-27154804D01*
X24425495Y-27151204D01*
X24449999Y-27150000D01*
X25100001Y-27150000D01*
X25124505Y-27151204D01*
X25124505Y-27151204D01*
G37*
D15*
G04 #@! TD*
G04 #@! TO.P,C2,2*
G04 #@! TO.N,+3V3*
X24775000Y-27850000D03*
D13*
G04 #@! TO.N,GND*
G04 #@! TO.C,C2*
G36*
X27174505Y-27151204D02*
X27198773Y-27154804D01*
X27222572Y-27160765D01*
X27245671Y-27169030D01*
X27267850Y-27179520D01*
X27288893Y-27192132D01*
X27308599Y-27206747D01*
X27326777Y-27223223D01*
X27343253Y-27241401D01*
X27357868Y-27261107D01*
X27370480Y-27282150D01*
X27380970Y-27304329D01*
X27389235Y-27327428D01*
X27395196Y-27351227D01*
X27398796Y-27375495D01*
X27400000Y-27399999D01*
X27400000Y-28300001D01*
X27398796Y-28324505D01*
X27395196Y-28348773D01*
X27389235Y-28372572D01*
X27380970Y-28395671D01*
X27370480Y-28417850D01*
X27357868Y-28438893D01*
X27343253Y-28458599D01*
X27326777Y-28476777D01*
X27308599Y-28493253D01*
X27288893Y-28507868D01*
X27267850Y-28520480D01*
X27245671Y-28530970D01*
X27222572Y-28539235D01*
X27198773Y-28545196D01*
X27174505Y-28548796D01*
X27150001Y-28550000D01*
X26499999Y-28550000D01*
X26475495Y-28548796D01*
X26451227Y-28545196D01*
X26427428Y-28539235D01*
X26404329Y-28530970D01*
X26382150Y-28520480D01*
X26361107Y-28507868D01*
X26341401Y-28493253D01*
X26323223Y-28476777D01*
X26306747Y-28458599D01*
X26292132Y-28438893D01*
X26279520Y-28417850D01*
X26269030Y-28395671D01*
X26260765Y-28372572D01*
X26254804Y-28348773D01*
X26251204Y-28324505D01*
X26250000Y-28300001D01*
X26250000Y-27399999D01*
X26251204Y-27375495D01*
X26254804Y-27351227D01*
X26260765Y-27327428D01*
X26269030Y-27304329D01*
X26279520Y-27282150D01*
X26292132Y-27261107D01*
X26306747Y-27241401D01*
X26323223Y-27223223D01*
X26341401Y-27206747D01*
X26361107Y-27192132D01*
X26382150Y-27179520D01*
X26404329Y-27169030D01*
X26427428Y-27160765D01*
X26451227Y-27154804D01*
X26475495Y-27151204D01*
X26499999Y-27150000D01*
X27150001Y-27150000D01*
X27174505Y-27151204D01*
X27174505Y-27151204D01*
G37*
D15*
G04 #@! TD*
G04 #@! TO.P,C2,1*
G04 #@! TO.N,GND*
X26825000Y-27850000D03*
D13*
G04 #@! TO.N,Net-(C3-Pad2)*
G04 #@! TO.C,C3*
G36*
X44924505Y-47201204D02*
X44948773Y-47204804D01*
X44972572Y-47210765D01*
X44995671Y-47219030D01*
X45017850Y-47229520D01*
X45038893Y-47242132D01*
X45058599Y-47256747D01*
X45076777Y-47273223D01*
X45093253Y-47291401D01*
X45107868Y-47311107D01*
X45120480Y-47332150D01*
X45130970Y-47354329D01*
X45139235Y-47377428D01*
X45145196Y-47401227D01*
X45148796Y-47425495D01*
X45150000Y-47449999D01*
X45150000Y-48100001D01*
X45148796Y-48124505D01*
X45145196Y-48148773D01*
X45139235Y-48172572D01*
X45130970Y-48195671D01*
X45120480Y-48217850D01*
X45107868Y-48238893D01*
X45093253Y-48258599D01*
X45076777Y-48276777D01*
X45058599Y-48293253D01*
X45038893Y-48307868D01*
X45017850Y-48320480D01*
X44995671Y-48330970D01*
X44972572Y-48339235D01*
X44948773Y-48345196D01*
X44924505Y-48348796D01*
X44900001Y-48350000D01*
X43999999Y-48350000D01*
X43975495Y-48348796D01*
X43951227Y-48345196D01*
X43927428Y-48339235D01*
X43904329Y-48330970D01*
X43882150Y-48320480D01*
X43861107Y-48307868D01*
X43841401Y-48293253D01*
X43823223Y-48276777D01*
X43806747Y-48258599D01*
X43792132Y-48238893D01*
X43779520Y-48217850D01*
X43769030Y-48195671D01*
X43760765Y-48172572D01*
X43754804Y-48148773D01*
X43751204Y-48124505D01*
X43750000Y-48100001D01*
X43750000Y-47449999D01*
X43751204Y-47425495D01*
X43754804Y-47401227D01*
X43760765Y-47377428D01*
X43769030Y-47354329D01*
X43779520Y-47332150D01*
X43792132Y-47311107D01*
X43806747Y-47291401D01*
X43823223Y-47273223D01*
X43841401Y-47256747D01*
X43861107Y-47242132D01*
X43882150Y-47229520D01*
X43904329Y-47219030D01*
X43927428Y-47210765D01*
X43951227Y-47204804D01*
X43975495Y-47201204D01*
X43999999Y-47200000D01*
X44900001Y-47200000D01*
X44924505Y-47201204D01*
X44924505Y-47201204D01*
G37*
D15*
G04 #@! TD*
G04 #@! TO.P,C3,2*
G04 #@! TO.N,Net-(C3-Pad2)*
X44450000Y-47775000D03*
D13*
G04 #@! TO.N,GND*
G04 #@! TO.C,C3*
G36*
X44924505Y-45151204D02*
X44948773Y-45154804D01*
X44972572Y-45160765D01*
X44995671Y-45169030D01*
X45017850Y-45179520D01*
X45038893Y-45192132D01*
X45058599Y-45206747D01*
X45076777Y-45223223D01*
X45093253Y-45241401D01*
X45107868Y-45261107D01*
X45120480Y-45282150D01*
X45130970Y-45304329D01*
X45139235Y-45327428D01*
X45145196Y-45351227D01*
X45148796Y-45375495D01*
X45150000Y-45399999D01*
X45150000Y-46050001D01*
X45148796Y-46074505D01*
X45145196Y-46098773D01*
X45139235Y-46122572D01*
X45130970Y-46145671D01*
X45120480Y-46167850D01*
X45107868Y-46188893D01*
X45093253Y-46208599D01*
X45076777Y-46226777D01*
X45058599Y-46243253D01*
X45038893Y-46257868D01*
X45017850Y-46270480D01*
X44995671Y-46280970D01*
X44972572Y-46289235D01*
X44948773Y-46295196D01*
X44924505Y-46298796D01*
X44900001Y-46300000D01*
X43999999Y-46300000D01*
X43975495Y-46298796D01*
X43951227Y-46295196D01*
X43927428Y-46289235D01*
X43904329Y-46280970D01*
X43882150Y-46270480D01*
X43861107Y-46257868D01*
X43841401Y-46243253D01*
X43823223Y-46226777D01*
X43806747Y-46208599D01*
X43792132Y-46188893D01*
X43779520Y-46167850D01*
X43769030Y-46145671D01*
X43760765Y-46122572D01*
X43754804Y-46098773D01*
X43751204Y-46074505D01*
X43750000Y-46050001D01*
X43750000Y-45399999D01*
X43751204Y-45375495D01*
X43754804Y-45351227D01*
X43760765Y-45327428D01*
X43769030Y-45304329D01*
X43779520Y-45282150D01*
X43792132Y-45261107D01*
X43806747Y-45241401D01*
X43823223Y-45223223D01*
X43841401Y-45206747D01*
X43861107Y-45192132D01*
X43882150Y-45179520D01*
X43904329Y-45169030D01*
X43927428Y-45160765D01*
X43951227Y-45154804D01*
X43975495Y-45151204D01*
X43999999Y-45150000D01*
X44900001Y-45150000D01*
X44924505Y-45151204D01*
X44924505Y-45151204D01*
G37*
D15*
G04 #@! TD*
G04 #@! TO.P,C3,1*
G04 #@! TO.N,GND*
X44450000Y-45725000D03*
D13*
G04 #@! TO.N,GND*
G04 #@! TO.C,C5*
G36*
X30124505Y-52801204D02*
X30148773Y-52804804D01*
X30172572Y-52810765D01*
X30195671Y-52819030D01*
X30217850Y-52829520D01*
X30238893Y-52842132D01*
X30258599Y-52856747D01*
X30276777Y-52873223D01*
X30293253Y-52891401D01*
X30307868Y-52911107D01*
X30320480Y-52932150D01*
X30330970Y-52954329D01*
X30339235Y-52977428D01*
X30345196Y-53001227D01*
X30348796Y-53025495D01*
X30350000Y-53049999D01*
X30350000Y-53700001D01*
X30348796Y-53724505D01*
X30345196Y-53748773D01*
X30339235Y-53772572D01*
X30330970Y-53795671D01*
X30320480Y-53817850D01*
X30307868Y-53838893D01*
X30293253Y-53858599D01*
X30276777Y-53876777D01*
X30258599Y-53893253D01*
X30238893Y-53907868D01*
X30217850Y-53920480D01*
X30195671Y-53930970D01*
X30172572Y-53939235D01*
X30148773Y-53945196D01*
X30124505Y-53948796D01*
X30100001Y-53950000D01*
X29199999Y-53950000D01*
X29175495Y-53948796D01*
X29151227Y-53945196D01*
X29127428Y-53939235D01*
X29104329Y-53930970D01*
X29082150Y-53920480D01*
X29061107Y-53907868D01*
X29041401Y-53893253D01*
X29023223Y-53876777D01*
X29006747Y-53858599D01*
X28992132Y-53838893D01*
X28979520Y-53817850D01*
X28969030Y-53795671D01*
X28960765Y-53772572D01*
X28954804Y-53748773D01*
X28951204Y-53724505D01*
X28950000Y-53700001D01*
X28950000Y-53049999D01*
X28951204Y-53025495D01*
X28954804Y-53001227D01*
X28960765Y-52977428D01*
X28969030Y-52954329D01*
X28979520Y-52932150D01*
X28992132Y-52911107D01*
X29006747Y-52891401D01*
X29023223Y-52873223D01*
X29041401Y-52856747D01*
X29061107Y-52842132D01*
X29082150Y-52829520D01*
X29104329Y-52819030D01*
X29127428Y-52810765D01*
X29151227Y-52804804D01*
X29175495Y-52801204D01*
X29199999Y-52800000D01*
X30100001Y-52800000D01*
X30124505Y-52801204D01*
X30124505Y-52801204D01*
G37*
D15*
G04 #@! TD*
G04 #@! TO.P,C5,2*
G04 #@! TO.N,GND*
X29650000Y-53375000D03*
D13*
G04 #@! TO.N,Net-(C5-Pad1)*
G04 #@! TO.C,C5*
G36*
X30124505Y-54851204D02*
X30148773Y-54854804D01*
X30172572Y-54860765D01*
X30195671Y-54869030D01*
X30217850Y-54879520D01*
X30238893Y-54892132D01*
X30258599Y-54906747D01*
X30276777Y-54923223D01*
X30293253Y-54941401D01*
X30307868Y-54961107D01*
X30320480Y-54982150D01*
X30330970Y-55004329D01*
X30339235Y-55027428D01*
X30345196Y-55051227D01*
X30348796Y-55075495D01*
X30350000Y-55099999D01*
X30350000Y-55750001D01*
X30348796Y-55774505D01*
X30345196Y-55798773D01*
X30339235Y-55822572D01*
X30330970Y-55845671D01*
X30320480Y-55867850D01*
X30307868Y-55888893D01*
X30293253Y-55908599D01*
X30276777Y-55926777D01*
X30258599Y-55943253D01*
X30238893Y-55957868D01*
X30217850Y-55970480D01*
X30195671Y-55980970D01*
X30172572Y-55989235D01*
X30148773Y-55995196D01*
X30124505Y-55998796D01*
X30100001Y-56000000D01*
X29199999Y-56000000D01*
X29175495Y-55998796D01*
X29151227Y-55995196D01*
X29127428Y-55989235D01*
X29104329Y-55980970D01*
X29082150Y-55970480D01*
X29061107Y-55957868D01*
X29041401Y-55943253D01*
X29023223Y-55926777D01*
X29006747Y-55908599D01*
X28992132Y-55888893D01*
X28979520Y-55867850D01*
X28969030Y-55845671D01*
X28960765Y-55822572D01*
X28954804Y-55798773D01*
X28951204Y-55774505D01*
X28950000Y-55750001D01*
X28950000Y-55099999D01*
X28951204Y-55075495D01*
X28954804Y-55051227D01*
X28960765Y-55027428D01*
X28969030Y-55004329D01*
X28979520Y-54982150D01*
X28992132Y-54961107D01*
X29006747Y-54941401D01*
X29023223Y-54923223D01*
X29041401Y-54906747D01*
X29061107Y-54892132D01*
X29082150Y-54879520D01*
X29104329Y-54869030D01*
X29127428Y-54860765D01*
X29151227Y-54854804D01*
X29175495Y-54851204D01*
X29199999Y-54850000D01*
X30100001Y-54850000D01*
X30124505Y-54851204D01*
X30124505Y-54851204D01*
G37*
D15*
G04 #@! TD*
G04 #@! TO.P,C5,1*
G04 #@! TO.N,Net-(C5-Pad1)*
X29650000Y-55425000D03*
D13*
G04 #@! TO.N,GND*
G04 #@! TO.C,C6*
G36*
X30124505Y-63051204D02*
X30148773Y-63054804D01*
X30172572Y-63060765D01*
X30195671Y-63069030D01*
X30217850Y-63079520D01*
X30238893Y-63092132D01*
X30258599Y-63106747D01*
X30276777Y-63123223D01*
X30293253Y-63141401D01*
X30307868Y-63161107D01*
X30320480Y-63182150D01*
X30330970Y-63204329D01*
X30339235Y-63227428D01*
X30345196Y-63251227D01*
X30348796Y-63275495D01*
X30350000Y-63299999D01*
X30350000Y-63950001D01*
X30348796Y-63974505D01*
X30345196Y-63998773D01*
X30339235Y-64022572D01*
X30330970Y-64045671D01*
X30320480Y-64067850D01*
X30307868Y-64088893D01*
X30293253Y-64108599D01*
X30276777Y-64126777D01*
X30258599Y-64143253D01*
X30238893Y-64157868D01*
X30217850Y-64170480D01*
X30195671Y-64180970D01*
X30172572Y-64189235D01*
X30148773Y-64195196D01*
X30124505Y-64198796D01*
X30100001Y-64200000D01*
X29199999Y-64200000D01*
X29175495Y-64198796D01*
X29151227Y-64195196D01*
X29127428Y-64189235D01*
X29104329Y-64180970D01*
X29082150Y-64170480D01*
X29061107Y-64157868D01*
X29041401Y-64143253D01*
X29023223Y-64126777D01*
X29006747Y-64108599D01*
X28992132Y-64088893D01*
X28979520Y-64067850D01*
X28969030Y-64045671D01*
X28960765Y-64022572D01*
X28954804Y-63998773D01*
X28951204Y-63974505D01*
X28950000Y-63950001D01*
X28950000Y-63299999D01*
X28951204Y-63275495D01*
X28954804Y-63251227D01*
X28960765Y-63227428D01*
X28969030Y-63204329D01*
X28979520Y-63182150D01*
X28992132Y-63161107D01*
X29006747Y-63141401D01*
X29023223Y-63123223D01*
X29041401Y-63106747D01*
X29061107Y-63092132D01*
X29082150Y-63079520D01*
X29104329Y-63069030D01*
X29127428Y-63060765D01*
X29151227Y-63054804D01*
X29175495Y-63051204D01*
X29199999Y-63050000D01*
X30100001Y-63050000D01*
X30124505Y-63051204D01*
X30124505Y-63051204D01*
G37*
D15*
G04 #@! TD*
G04 #@! TO.P,C6,2*
G04 #@! TO.N,GND*
X29650000Y-63625000D03*
D13*
G04 #@! TO.N,Net-(C6-Pad1)*
G04 #@! TO.C,C6*
G36*
X30124505Y-61001204D02*
X30148773Y-61004804D01*
X30172572Y-61010765D01*
X30195671Y-61019030D01*
X30217850Y-61029520D01*
X30238893Y-61042132D01*
X30258599Y-61056747D01*
X30276777Y-61073223D01*
X30293253Y-61091401D01*
X30307868Y-61111107D01*
X30320480Y-61132150D01*
X30330970Y-61154329D01*
X30339235Y-61177428D01*
X30345196Y-61201227D01*
X30348796Y-61225495D01*
X30350000Y-61249999D01*
X30350000Y-61900001D01*
X30348796Y-61924505D01*
X30345196Y-61948773D01*
X30339235Y-61972572D01*
X30330970Y-61995671D01*
X30320480Y-62017850D01*
X30307868Y-62038893D01*
X30293253Y-62058599D01*
X30276777Y-62076777D01*
X30258599Y-62093253D01*
X30238893Y-62107868D01*
X30217850Y-62120480D01*
X30195671Y-62130970D01*
X30172572Y-62139235D01*
X30148773Y-62145196D01*
X30124505Y-62148796D01*
X30100001Y-62150000D01*
X29199999Y-62150000D01*
X29175495Y-62148796D01*
X29151227Y-62145196D01*
X29127428Y-62139235D01*
X29104329Y-62130970D01*
X29082150Y-62120480D01*
X29061107Y-62107868D01*
X29041401Y-62093253D01*
X29023223Y-62076777D01*
X29006747Y-62058599D01*
X28992132Y-62038893D01*
X28979520Y-62017850D01*
X28969030Y-61995671D01*
X28960765Y-61972572D01*
X28954804Y-61948773D01*
X28951204Y-61924505D01*
X28950000Y-61900001D01*
X28950000Y-61249999D01*
X28951204Y-61225495D01*
X28954804Y-61201227D01*
X28960765Y-61177428D01*
X28969030Y-61154329D01*
X28979520Y-61132150D01*
X28992132Y-61111107D01*
X29006747Y-61091401D01*
X29023223Y-61073223D01*
X29041401Y-61056747D01*
X29061107Y-61042132D01*
X29082150Y-61029520D01*
X29104329Y-61019030D01*
X29127428Y-61010765D01*
X29151227Y-61004804D01*
X29175495Y-61001204D01*
X29199999Y-61000000D01*
X30100001Y-61000000D01*
X30124505Y-61001204D01*
X30124505Y-61001204D01*
G37*
D15*
G04 #@! TD*
G04 #@! TO.P,C6,1*
G04 #@! TO.N,Net-(C6-Pad1)*
X29650000Y-61575000D03*
D13*
G04 #@! TO.N,GND*
G04 #@! TO.C,C1*
G36*
X30724505Y-24801204D02*
X30748773Y-24804804D01*
X30772572Y-24810765D01*
X30795671Y-24819030D01*
X30817850Y-24829520D01*
X30838893Y-24842132D01*
X30858599Y-24856747D01*
X30876777Y-24873223D01*
X30893253Y-24891401D01*
X30907868Y-24911107D01*
X30920480Y-24932150D01*
X30930970Y-24954329D01*
X30939235Y-24977428D01*
X30945196Y-25001227D01*
X30948796Y-25025495D01*
X30950000Y-25049999D01*
X30950000Y-25950001D01*
X30948796Y-25974505D01*
X30945196Y-25998773D01*
X30939235Y-26022572D01*
X30930970Y-26045671D01*
X30920480Y-26067850D01*
X30907868Y-26088893D01*
X30893253Y-26108599D01*
X30876777Y-26126777D01*
X30858599Y-26143253D01*
X30838893Y-26157868D01*
X30817850Y-26170480D01*
X30795671Y-26180970D01*
X30772572Y-26189235D01*
X30748773Y-26195196D01*
X30724505Y-26198796D01*
X30700001Y-26200000D01*
X30049999Y-26200000D01*
X30025495Y-26198796D01*
X30001227Y-26195196D01*
X29977428Y-26189235D01*
X29954329Y-26180970D01*
X29932150Y-26170480D01*
X29911107Y-26157868D01*
X29891401Y-26143253D01*
X29873223Y-26126777D01*
X29856747Y-26108599D01*
X29842132Y-26088893D01*
X29829520Y-26067850D01*
X29819030Y-26045671D01*
X29810765Y-26022572D01*
X29804804Y-25998773D01*
X29801204Y-25974505D01*
X29800000Y-25950001D01*
X29800000Y-25049999D01*
X29801204Y-25025495D01*
X29804804Y-25001227D01*
X29810765Y-24977428D01*
X29819030Y-24954329D01*
X29829520Y-24932150D01*
X29842132Y-24911107D01*
X29856747Y-24891401D01*
X29873223Y-24873223D01*
X29891401Y-24856747D01*
X29911107Y-24842132D01*
X29932150Y-24829520D01*
X29954329Y-24819030D01*
X29977428Y-24810765D01*
X30001227Y-24804804D01*
X30025495Y-24801204D01*
X30049999Y-24800000D01*
X30700001Y-24800000D01*
X30724505Y-24801204D01*
X30724505Y-24801204D01*
G37*
D15*
G04 #@! TD*
G04 #@! TO.P,C1,2*
G04 #@! TO.N,GND*
X30375000Y-25500000D03*
D13*
G04 #@! TO.N,+1V5*
G04 #@! TO.C,C1*
G36*
X32774505Y-24801204D02*
X32798773Y-24804804D01*
X32822572Y-24810765D01*
X32845671Y-24819030D01*
X32867850Y-24829520D01*
X32888893Y-24842132D01*
X32908599Y-24856747D01*
X32926777Y-24873223D01*
X32943253Y-24891401D01*
X32957868Y-24911107D01*
X32970480Y-24932150D01*
X32980970Y-24954329D01*
X32989235Y-24977428D01*
X32995196Y-25001227D01*
X32998796Y-25025495D01*
X33000000Y-25049999D01*
X33000000Y-25950001D01*
X32998796Y-25974505D01*
X32995196Y-25998773D01*
X32989235Y-26022572D01*
X32980970Y-26045671D01*
X32970480Y-26067850D01*
X32957868Y-26088893D01*
X32943253Y-26108599D01*
X32926777Y-26126777D01*
X32908599Y-26143253D01*
X32888893Y-26157868D01*
X32867850Y-26170480D01*
X32845671Y-26180970D01*
X32822572Y-26189235D01*
X32798773Y-26195196D01*
X32774505Y-26198796D01*
X32750001Y-26200000D01*
X32099999Y-26200000D01*
X32075495Y-26198796D01*
X32051227Y-26195196D01*
X32027428Y-26189235D01*
X32004329Y-26180970D01*
X31982150Y-26170480D01*
X31961107Y-26157868D01*
X31941401Y-26143253D01*
X31923223Y-26126777D01*
X31906747Y-26108599D01*
X31892132Y-26088893D01*
X31879520Y-26067850D01*
X31869030Y-26045671D01*
X31860765Y-26022572D01*
X31854804Y-25998773D01*
X31851204Y-25974505D01*
X31850000Y-25950001D01*
X31850000Y-25049999D01*
X31851204Y-25025495D01*
X31854804Y-25001227D01*
X31860765Y-24977428D01*
X31869030Y-24954329D01*
X31879520Y-24932150D01*
X31892132Y-24911107D01*
X31906747Y-24891401D01*
X31923223Y-24873223D01*
X31941401Y-24856747D01*
X31961107Y-24842132D01*
X31982150Y-24829520D01*
X32004329Y-24819030D01*
X32027428Y-24810765D01*
X32051227Y-24804804D01*
X32075495Y-24801204D01*
X32099999Y-24800000D01*
X32750001Y-24800000D01*
X32774505Y-24801204D01*
X32774505Y-24801204D01*
G37*
D15*
G04 #@! TD*
G04 #@! TO.P,C1,1*
G04 #@! TO.N,+1V5*
X32425000Y-25500000D03*
D20*
G04 #@! TO.P,C4,2*
G04 #@! TO.N,GND*
X26050000Y-49300000D03*
D21*
G04 #@! TO.P,C4,1*
G04 #@! TO.N,+3V3*
X26050000Y-47300000D03*
G04 #@! TD*
D20*
G04 #@! TO.P,C7,2*
G04 #@! TO.N,GND*
X38450000Y-72150000D03*
D21*
G04 #@! TO.P,C7,1*
G04 #@! TO.N,+3V3*
X40450000Y-72150000D03*
G04 #@! TD*
D11*
G04 #@! TO.P,J1,6*
G04 #@! TO.N,Net-(J1-Pad6)*
X60300000Y-36950000D03*
G04 #@! TO.P,J1,5*
G04 #@! TO.N,Net-(J1-Pad5)*
X60300000Y-39490000D03*
G04 #@! TO.P,J1,4*
G04 #@! TO.N,Net-(J1-Pad4)*
X60300000Y-42030000D03*
G04 #@! TO.P,J1,3*
G04 #@! TO.N,Net-(J1-Pad3)*
X60300000Y-44570000D03*
G04 #@! TO.P,J1,2*
G04 #@! TO.N,Net-(J1-Pad2)*
X60300000Y-47110000D03*
D10*
G04 #@! TO.P,J1,1*
G04 #@! TO.N,Net-(J1-Pad1)*
X60300000Y-49650000D03*
G04 #@! TD*
D11*
G04 #@! TO.P,J3,6*
G04 #@! TO.N,Net-(J3-Pad6)*
X30250000Y-42950000D03*
G04 #@! TO.P,J3,5*
G04 #@! TO.N,Net-(J3-Pad5)*
X30250000Y-40410000D03*
G04 #@! TO.P,J3,4*
G04 #@! TO.N,Net-(J3-Pad4)*
X30250000Y-37870000D03*
G04 #@! TO.P,J3,3*
G04 #@! TO.N,Net-(J3-Pad3)*
X30250000Y-35330000D03*
G04 #@! TO.P,J3,2*
G04 #@! TO.N,Net-(J3-Pad2)*
X30250000Y-32790000D03*
D10*
G04 #@! TO.P,J3,1*
G04 #@! TO.N,Reset*
X30250000Y-30250000D03*
G04 #@! TD*
D11*
G04 #@! TO.P,J2,8*
G04 #@! TO.N,GND*
X60250000Y-54220000D03*
G04 #@! TO.P,J2,7*
G04 #@! TO.N,+3V3*
X60250000Y-56760000D03*
G04 #@! TO.P,J2,6*
G04 #@! TO.N,SCK*
X60250000Y-59300000D03*
G04 #@! TO.P,J2,5*
G04 #@! TO.N,MISO*
X60250000Y-61840000D03*
G04 #@! TO.P,J2,4*
G04 #@! TO.N,MOSI*
X60250000Y-64380000D03*
G04 #@! TO.P,J2,3*
G04 #@! TO.N,Net-(J2-Pad3)*
X60250000Y-66920000D03*
G04 #@! TO.P,J2,2*
G04 #@! TO.N,Net-(J2-Pad2)*
X60250000Y-69460000D03*
D10*
G04 #@! TO.P,J2,1*
G04 #@! TO.N,Net-(J2-Pad1)*
X60250000Y-72000000D03*
G04 #@! TD*
D22*
G04 #@! TO.P,U2,28*
G04 #@! TO.N,Net-(J1-Pad6)*
X41620000Y-30250000D03*
G04 #@! TO.P,U2,14*
G04 #@! TO.N,Net-(J2-Pad1)*
X34000000Y-63270000D03*
G04 #@! TO.P,U2,27*
G04 #@! TO.N,Net-(J1-Pad5)*
X41620000Y-32790000D03*
G04 #@! TO.P,U2,13*
G04 #@! TO.N,Net-(U2-Pad13)*
X34000000Y-60730000D03*
G04 #@! TO.P,U2,26*
G04 #@! TO.N,Net-(R7-Pad1)*
X41620000Y-35330000D03*
G04 #@! TO.P,U2,12*
G04 #@! TO.N,Net-(U2-Pad12)*
X34000000Y-58190000D03*
G04 #@! TO.P,U2,25*
G04 #@! TO.N,Net-(J1-Pad3)*
X41620000Y-37870000D03*
G04 #@! TO.P,U2,11*
G04 #@! TO.N,Net-(R4-Pad2)*
X34000000Y-55650000D03*
G04 #@! TO.P,U2,24*
G04 #@! TO.N,Net-(J1-Pad2)*
X41620000Y-40410000D03*
G04 #@! TO.P,U2,10*
G04 #@! TO.N,Net-(C6-Pad1)*
X34000000Y-53110000D03*
G04 #@! TO.P,U2,23*
G04 #@! TO.N,Net-(J1-Pad1)*
X41620000Y-42950000D03*
G04 #@! TO.P,U2,9*
G04 #@! TO.N,Net-(C5-Pad1)*
X34000000Y-50570000D03*
G04 #@! TO.P,U2,22*
G04 #@! TO.N,GND*
X41620000Y-45490000D03*
G04 #@! TO.P,U2,8*
X34000000Y-48030000D03*
G04 #@! TO.P,U2,21*
G04 #@! TO.N,Net-(C3-Pad2)*
X41620000Y-48030000D03*
G04 #@! TO.P,U2,7*
G04 #@! TO.N,+3V3*
X34000000Y-45490000D03*
G04 #@! TO.P,U2,20*
X41620000Y-50570000D03*
G04 #@! TO.P,U2,6*
G04 #@! TO.N,Net-(J3-Pad6)*
X34000000Y-42950000D03*
G04 #@! TO.P,U2,19*
G04 #@! TO.N,SCK*
X41620000Y-53110000D03*
G04 #@! TO.P,U2,5*
G04 #@! TO.N,Net-(J3-Pad5)*
X34000000Y-40410000D03*
G04 #@! TO.P,U2,18*
G04 #@! TO.N,MISO*
X41620000Y-55650000D03*
G04 #@! TO.P,U2,4*
G04 #@! TO.N,Net-(J3-Pad4)*
X34000000Y-37870000D03*
G04 #@! TO.P,U2,17*
G04 #@! TO.N,MOSI*
X41620000Y-58190000D03*
G04 #@! TO.P,U2,3*
G04 #@! TO.N,Net-(J3-Pad3)*
X34000000Y-35330000D03*
G04 #@! TO.P,U2,16*
G04 #@! TO.N,Net-(J2-Pad3)*
X41620000Y-60730000D03*
G04 #@! TO.P,U2,2*
G04 #@! TO.N,Net-(J3-Pad2)*
X34000000Y-32790000D03*
G04 #@! TO.P,U2,15*
G04 #@! TO.N,Net-(J2-Pad2)*
X41620000Y-63270000D03*
D23*
G04 #@! TO.P,U2,1*
G04 #@! TO.N,Reset*
X34000000Y-30250000D03*
G04 #@! TD*
D24*
G04 #@! TO.P,U1,5*
G04 #@! TO.N,+3V3*
X35837600Y-22295000D03*
G04 #@! TO.P,U1,6*
G04 #@! TO.N,+1V5*
X36787600Y-22295000D03*
G04 #@! TO.P,U1,4*
G04 #@! TO.N,Net-(R1-Pad2)*
X34887600Y-22295000D03*
G04 #@! TO.P,U1,3*
G04 #@! TO.N,+1V5*
X34887600Y-24995000D03*
G04 #@! TO.P,U1,2*
G04 #@! TO.N,GND*
X35837600Y-24995000D03*
G04 #@! TO.P,U1,1*
G04 #@! TO.N,Net-(L1-Pad2)*
X36787600Y-24995000D03*
G04 #@! TD*
D13*
G04 #@! TO.N,Net-(R4-Pad2)*
G04 #@! TO.C,R4*
G36*
X32024505Y-66201204D02*
X32048773Y-66204804D01*
X32072572Y-66210765D01*
X32095671Y-66219030D01*
X32117850Y-66229520D01*
X32138893Y-66242132D01*
X32158599Y-66256747D01*
X32176777Y-66273223D01*
X32193253Y-66291401D01*
X32207868Y-66311107D01*
X32220480Y-66332150D01*
X32230970Y-66354329D01*
X32239235Y-66377428D01*
X32245196Y-66401227D01*
X32248796Y-66425495D01*
X32250000Y-66449999D01*
X32250000Y-67350001D01*
X32248796Y-67374505D01*
X32245196Y-67398773D01*
X32239235Y-67422572D01*
X32230970Y-67445671D01*
X32220480Y-67467850D01*
X32207868Y-67488893D01*
X32193253Y-67508599D01*
X32176777Y-67526777D01*
X32158599Y-67543253D01*
X32138893Y-67557868D01*
X32117850Y-67570480D01*
X32095671Y-67580970D01*
X32072572Y-67589235D01*
X32048773Y-67595196D01*
X32024505Y-67598796D01*
X32000001Y-67600000D01*
X31349999Y-67600000D01*
X31325495Y-67598796D01*
X31301227Y-67595196D01*
X31277428Y-67589235D01*
X31254329Y-67580970D01*
X31232150Y-67570480D01*
X31211107Y-67557868D01*
X31191401Y-67543253D01*
X31173223Y-67526777D01*
X31156747Y-67508599D01*
X31142132Y-67488893D01*
X31129520Y-67467850D01*
X31119030Y-67445671D01*
X31110765Y-67422572D01*
X31104804Y-67398773D01*
X31101204Y-67374505D01*
X31100000Y-67350001D01*
X31100000Y-66449999D01*
X31101204Y-66425495D01*
X31104804Y-66401227D01*
X31110765Y-66377428D01*
X31119030Y-66354329D01*
X31129520Y-66332150D01*
X31142132Y-66311107D01*
X31156747Y-66291401D01*
X31173223Y-66273223D01*
X31191401Y-66256747D01*
X31211107Y-66242132D01*
X31232150Y-66229520D01*
X31254329Y-66219030D01*
X31277428Y-66210765D01*
X31301227Y-66204804D01*
X31325495Y-66201204D01*
X31349999Y-66200000D01*
X32000001Y-66200000D01*
X32024505Y-66201204D01*
X32024505Y-66201204D01*
G37*
D15*
G04 #@! TD*
G04 #@! TO.P,R4,2*
G04 #@! TO.N,Net-(R4-Pad2)*
X31675000Y-66900000D03*
D13*
G04 #@! TO.N,Net-(LED_I1-Pad2)*
G04 #@! TO.C,R4*
G36*
X29974505Y-66201204D02*
X29998773Y-66204804D01*
X30022572Y-66210765D01*
X30045671Y-66219030D01*
X30067850Y-66229520D01*
X30088893Y-66242132D01*
X30108599Y-66256747D01*
X30126777Y-66273223D01*
X30143253Y-66291401D01*
X30157868Y-66311107D01*
X30170480Y-66332150D01*
X30180970Y-66354329D01*
X30189235Y-66377428D01*
X30195196Y-66401227D01*
X30198796Y-66425495D01*
X30200000Y-66449999D01*
X30200000Y-67350001D01*
X30198796Y-67374505D01*
X30195196Y-67398773D01*
X30189235Y-67422572D01*
X30180970Y-67445671D01*
X30170480Y-67467850D01*
X30157868Y-67488893D01*
X30143253Y-67508599D01*
X30126777Y-67526777D01*
X30108599Y-67543253D01*
X30088893Y-67557868D01*
X30067850Y-67570480D01*
X30045671Y-67580970D01*
X30022572Y-67589235D01*
X29998773Y-67595196D01*
X29974505Y-67598796D01*
X29950001Y-67600000D01*
X29299999Y-67600000D01*
X29275495Y-67598796D01*
X29251227Y-67595196D01*
X29227428Y-67589235D01*
X29204329Y-67580970D01*
X29182150Y-67570480D01*
X29161107Y-67557868D01*
X29141401Y-67543253D01*
X29123223Y-67526777D01*
X29106747Y-67508599D01*
X29092132Y-67488893D01*
X29079520Y-67467850D01*
X29069030Y-67445671D01*
X29060765Y-67422572D01*
X29054804Y-67398773D01*
X29051204Y-67374505D01*
X29050000Y-67350001D01*
X29050000Y-66449999D01*
X29051204Y-66425495D01*
X29054804Y-66401227D01*
X29060765Y-66377428D01*
X29069030Y-66354329D01*
X29079520Y-66332150D01*
X29092132Y-66311107D01*
X29106747Y-66291401D01*
X29123223Y-66273223D01*
X29141401Y-66256747D01*
X29161107Y-66242132D01*
X29182150Y-66229520D01*
X29204329Y-66219030D01*
X29227428Y-66210765D01*
X29251227Y-66204804D01*
X29275495Y-66201204D01*
X29299999Y-66200000D01*
X29950001Y-66200000D01*
X29974505Y-66201204D01*
X29974505Y-66201204D01*
G37*
D15*
G04 #@! TD*
G04 #@! TO.P,R4,1*
G04 #@! TO.N,Net-(LED_I1-Pad2)*
X29625000Y-66900000D03*
D13*
G04 #@! TO.N,Net-(R1-Pad2)*
G04 #@! TO.C,R1*
G36*
X32774505Y-21051204D02*
X32798773Y-21054804D01*
X32822572Y-21060765D01*
X32845671Y-21069030D01*
X32867850Y-21079520D01*
X32888893Y-21092132D01*
X32908599Y-21106747D01*
X32926777Y-21123223D01*
X32943253Y-21141401D01*
X32957868Y-21161107D01*
X32970480Y-21182150D01*
X32980970Y-21204329D01*
X32989235Y-21227428D01*
X32995196Y-21251227D01*
X32998796Y-21275495D01*
X33000000Y-21299999D01*
X33000000Y-22200001D01*
X32998796Y-22224505D01*
X32995196Y-22248773D01*
X32989235Y-22272572D01*
X32980970Y-22295671D01*
X32970480Y-22317850D01*
X32957868Y-22338893D01*
X32943253Y-22358599D01*
X32926777Y-22376777D01*
X32908599Y-22393253D01*
X32888893Y-22407868D01*
X32867850Y-22420480D01*
X32845671Y-22430970D01*
X32822572Y-22439235D01*
X32798773Y-22445196D01*
X32774505Y-22448796D01*
X32750001Y-22450000D01*
X32099999Y-22450000D01*
X32075495Y-22448796D01*
X32051227Y-22445196D01*
X32027428Y-22439235D01*
X32004329Y-22430970D01*
X31982150Y-22420480D01*
X31961107Y-22407868D01*
X31941401Y-22393253D01*
X31923223Y-22376777D01*
X31906747Y-22358599D01*
X31892132Y-22338893D01*
X31879520Y-22317850D01*
X31869030Y-22295671D01*
X31860765Y-22272572D01*
X31854804Y-22248773D01*
X31851204Y-22224505D01*
X31850000Y-22200001D01*
X31850000Y-21299999D01*
X31851204Y-21275495D01*
X31854804Y-21251227D01*
X31860765Y-21227428D01*
X31869030Y-21204329D01*
X31879520Y-21182150D01*
X31892132Y-21161107D01*
X31906747Y-21141401D01*
X31923223Y-21123223D01*
X31941401Y-21106747D01*
X31961107Y-21092132D01*
X31982150Y-21079520D01*
X32004329Y-21069030D01*
X32027428Y-21060765D01*
X32051227Y-21054804D01*
X32075495Y-21051204D01*
X32099999Y-21050000D01*
X32750001Y-21050000D01*
X32774505Y-21051204D01*
X32774505Y-21051204D01*
G37*
D15*
G04 #@! TD*
G04 #@! TO.P,R1,2*
G04 #@! TO.N,Net-(R1-Pad2)*
X32425000Y-21750000D03*
D13*
G04 #@! TO.N,+3V3*
G04 #@! TO.C,R1*
G36*
X30724505Y-21051204D02*
X30748773Y-21054804D01*
X30772572Y-21060765D01*
X30795671Y-21069030D01*
X30817850Y-21079520D01*
X30838893Y-21092132D01*
X30858599Y-21106747D01*
X30876777Y-21123223D01*
X30893253Y-21141401D01*
X30907868Y-21161107D01*
X30920480Y-21182150D01*
X30930970Y-21204329D01*
X30939235Y-21227428D01*
X30945196Y-21251227D01*
X30948796Y-21275495D01*
X30950000Y-21299999D01*
X30950000Y-22200001D01*
X30948796Y-22224505D01*
X30945196Y-22248773D01*
X30939235Y-22272572D01*
X30930970Y-22295671D01*
X30920480Y-22317850D01*
X30907868Y-22338893D01*
X30893253Y-22358599D01*
X30876777Y-22376777D01*
X30858599Y-22393253D01*
X30838893Y-22407868D01*
X30817850Y-22420480D01*
X30795671Y-22430970D01*
X30772572Y-22439235D01*
X30748773Y-22445196D01*
X30724505Y-22448796D01*
X30700001Y-22450000D01*
X30049999Y-22450000D01*
X30025495Y-22448796D01*
X30001227Y-22445196D01*
X29977428Y-22439235D01*
X29954329Y-22430970D01*
X29932150Y-22420480D01*
X29911107Y-22407868D01*
X29891401Y-22393253D01*
X29873223Y-22376777D01*
X29856747Y-22358599D01*
X29842132Y-22338893D01*
X29829520Y-22317850D01*
X29819030Y-22295671D01*
X29810765Y-22272572D01*
X29804804Y-22248773D01*
X29801204Y-22224505D01*
X29800000Y-22200001D01*
X29800000Y-21299999D01*
X29801204Y-21275495D01*
X29804804Y-21251227D01*
X29810765Y-21227428D01*
X29819030Y-21204329D01*
X29829520Y-21182150D01*
X29842132Y-21161107D01*
X29856747Y-21141401D01*
X29873223Y-21123223D01*
X29891401Y-21106747D01*
X29911107Y-21092132D01*
X29932150Y-21079520D01*
X29954329Y-21069030D01*
X29977428Y-21060765D01*
X30001227Y-21054804D01*
X30025495Y-21051204D01*
X30049999Y-21050000D01*
X30700001Y-21050000D01*
X30724505Y-21051204D01*
X30724505Y-21051204D01*
G37*
D15*
G04 #@! TD*
G04 #@! TO.P,R1,1*
G04 #@! TO.N,+3V3*
X30375000Y-21750000D03*
D13*
G04 #@! TO.N,GND*
G04 #@! TO.C,R2*
G36*
X28624505Y-25051204D02*
X28648773Y-25054804D01*
X28672572Y-25060765D01*
X28695671Y-25069030D01*
X28717850Y-25079520D01*
X28738893Y-25092132D01*
X28758599Y-25106747D01*
X28776777Y-25123223D01*
X28793253Y-25141401D01*
X28807868Y-25161107D01*
X28820480Y-25182150D01*
X28830970Y-25204329D01*
X28839235Y-25227428D01*
X28845196Y-25251227D01*
X28848796Y-25275495D01*
X28850000Y-25299999D01*
X28850000Y-25950001D01*
X28848796Y-25974505D01*
X28845196Y-25998773D01*
X28839235Y-26022572D01*
X28830970Y-26045671D01*
X28820480Y-26067850D01*
X28807868Y-26088893D01*
X28793253Y-26108599D01*
X28776777Y-26126777D01*
X28758599Y-26143253D01*
X28738893Y-26157868D01*
X28717850Y-26170480D01*
X28695671Y-26180970D01*
X28672572Y-26189235D01*
X28648773Y-26195196D01*
X28624505Y-26198796D01*
X28600001Y-26200000D01*
X27699999Y-26200000D01*
X27675495Y-26198796D01*
X27651227Y-26195196D01*
X27627428Y-26189235D01*
X27604329Y-26180970D01*
X27582150Y-26170480D01*
X27561107Y-26157868D01*
X27541401Y-26143253D01*
X27523223Y-26126777D01*
X27506747Y-26108599D01*
X27492132Y-26088893D01*
X27479520Y-26067850D01*
X27469030Y-26045671D01*
X27460765Y-26022572D01*
X27454804Y-25998773D01*
X27451204Y-25974505D01*
X27450000Y-25950001D01*
X27450000Y-25299999D01*
X27451204Y-25275495D01*
X27454804Y-25251227D01*
X27460765Y-25227428D01*
X27469030Y-25204329D01*
X27479520Y-25182150D01*
X27492132Y-25161107D01*
X27506747Y-25141401D01*
X27523223Y-25123223D01*
X27541401Y-25106747D01*
X27561107Y-25092132D01*
X27582150Y-25079520D01*
X27604329Y-25069030D01*
X27627428Y-25060765D01*
X27651227Y-25054804D01*
X27675495Y-25051204D01*
X27699999Y-25050000D01*
X28600001Y-25050000D01*
X28624505Y-25051204D01*
X28624505Y-25051204D01*
G37*
D15*
G04 #@! TD*
G04 #@! TO.P,R2,2*
G04 #@! TO.N,GND*
X28150000Y-25625000D03*
D13*
G04 #@! TO.N,Net-(R1-Pad2)*
G04 #@! TO.C,R2*
G36*
X28624505Y-23001204D02*
X28648773Y-23004804D01*
X28672572Y-23010765D01*
X28695671Y-23019030D01*
X28717850Y-23029520D01*
X28738893Y-23042132D01*
X28758599Y-23056747D01*
X28776777Y-23073223D01*
X28793253Y-23091401D01*
X28807868Y-23111107D01*
X28820480Y-23132150D01*
X28830970Y-23154329D01*
X28839235Y-23177428D01*
X28845196Y-23201227D01*
X28848796Y-23225495D01*
X28850000Y-23249999D01*
X28850000Y-23900001D01*
X28848796Y-23924505D01*
X28845196Y-23948773D01*
X28839235Y-23972572D01*
X28830970Y-23995671D01*
X28820480Y-24017850D01*
X28807868Y-24038893D01*
X28793253Y-24058599D01*
X28776777Y-24076777D01*
X28758599Y-24093253D01*
X28738893Y-24107868D01*
X28717850Y-24120480D01*
X28695671Y-24130970D01*
X28672572Y-24139235D01*
X28648773Y-24145196D01*
X28624505Y-24148796D01*
X28600001Y-24150000D01*
X27699999Y-24150000D01*
X27675495Y-24148796D01*
X27651227Y-24145196D01*
X27627428Y-24139235D01*
X27604329Y-24130970D01*
X27582150Y-24120480D01*
X27561107Y-24107868D01*
X27541401Y-24093253D01*
X27523223Y-24076777D01*
X27506747Y-24058599D01*
X27492132Y-24038893D01*
X27479520Y-24017850D01*
X27469030Y-23995671D01*
X27460765Y-23972572D01*
X27454804Y-23948773D01*
X27451204Y-23924505D01*
X27450000Y-23900001D01*
X27450000Y-23249999D01*
X27451204Y-23225495D01*
X27454804Y-23201227D01*
X27460765Y-23177428D01*
X27469030Y-23154329D01*
X27479520Y-23132150D01*
X27492132Y-23111107D01*
X27506747Y-23091401D01*
X27523223Y-23073223D01*
X27541401Y-23056747D01*
X27561107Y-23042132D01*
X27582150Y-23029520D01*
X27604329Y-23019030D01*
X27627428Y-23010765D01*
X27651227Y-23004804D01*
X27675495Y-23001204D01*
X27699999Y-23000000D01*
X28600001Y-23000000D01*
X28624505Y-23001204D01*
X28624505Y-23001204D01*
G37*
D15*
G04 #@! TD*
G04 #@! TO.P,R2,1*
G04 #@! TO.N,Net-(R1-Pad2)*
X28150000Y-23575000D03*
D13*
G04 #@! TO.N,Reset*
G04 #@! TO.C,R5*
G36*
X22624505Y-81201204D02*
X22648773Y-81204804D01*
X22672572Y-81210765D01*
X22695671Y-81219030D01*
X22717850Y-81229520D01*
X22738893Y-81242132D01*
X22758599Y-81256747D01*
X22776777Y-81273223D01*
X22793253Y-81291401D01*
X22807868Y-81311107D01*
X22820480Y-81332150D01*
X22830970Y-81354329D01*
X22839235Y-81377428D01*
X22845196Y-81401227D01*
X22848796Y-81425495D01*
X22850000Y-81449999D01*
X22850000Y-82350001D01*
X22848796Y-82374505D01*
X22845196Y-82398773D01*
X22839235Y-82422572D01*
X22830970Y-82445671D01*
X22820480Y-82467850D01*
X22807868Y-82488893D01*
X22793253Y-82508599D01*
X22776777Y-82526777D01*
X22758599Y-82543253D01*
X22738893Y-82557868D01*
X22717850Y-82570480D01*
X22695671Y-82580970D01*
X22672572Y-82589235D01*
X22648773Y-82595196D01*
X22624505Y-82598796D01*
X22600001Y-82600000D01*
X21949999Y-82600000D01*
X21925495Y-82598796D01*
X21901227Y-82595196D01*
X21877428Y-82589235D01*
X21854329Y-82580970D01*
X21832150Y-82570480D01*
X21811107Y-82557868D01*
X21791401Y-82543253D01*
X21773223Y-82526777D01*
X21756747Y-82508599D01*
X21742132Y-82488893D01*
X21729520Y-82467850D01*
X21719030Y-82445671D01*
X21710765Y-82422572D01*
X21704804Y-82398773D01*
X21701204Y-82374505D01*
X21700000Y-82350001D01*
X21700000Y-81449999D01*
X21701204Y-81425495D01*
X21704804Y-81401227D01*
X21710765Y-81377428D01*
X21719030Y-81354329D01*
X21729520Y-81332150D01*
X21742132Y-81311107D01*
X21756747Y-81291401D01*
X21773223Y-81273223D01*
X21791401Y-81256747D01*
X21811107Y-81242132D01*
X21832150Y-81229520D01*
X21854329Y-81219030D01*
X21877428Y-81210765D01*
X21901227Y-81204804D01*
X21925495Y-81201204D01*
X21949999Y-81200000D01*
X22600001Y-81200000D01*
X22624505Y-81201204D01*
X22624505Y-81201204D01*
G37*
D15*
G04 #@! TD*
G04 #@! TO.P,R5,2*
G04 #@! TO.N,Reset*
X22275000Y-81900000D03*
D13*
G04 #@! TO.N,+3V3*
G04 #@! TO.C,R5*
G36*
X24674505Y-81201204D02*
X24698773Y-81204804D01*
X24722572Y-81210765D01*
X24745671Y-81219030D01*
X24767850Y-81229520D01*
X24788893Y-81242132D01*
X24808599Y-81256747D01*
X24826777Y-81273223D01*
X24843253Y-81291401D01*
X24857868Y-81311107D01*
X24870480Y-81332150D01*
X24880970Y-81354329D01*
X24889235Y-81377428D01*
X24895196Y-81401227D01*
X24898796Y-81425495D01*
X24900000Y-81449999D01*
X24900000Y-82350001D01*
X24898796Y-82374505D01*
X24895196Y-82398773D01*
X24889235Y-82422572D01*
X24880970Y-82445671D01*
X24870480Y-82467850D01*
X24857868Y-82488893D01*
X24843253Y-82508599D01*
X24826777Y-82526777D01*
X24808599Y-82543253D01*
X24788893Y-82557868D01*
X24767850Y-82570480D01*
X24745671Y-82580970D01*
X24722572Y-82589235D01*
X24698773Y-82595196D01*
X24674505Y-82598796D01*
X24650001Y-82600000D01*
X23999999Y-82600000D01*
X23975495Y-82598796D01*
X23951227Y-82595196D01*
X23927428Y-82589235D01*
X23904329Y-82580970D01*
X23882150Y-82570480D01*
X23861107Y-82557868D01*
X23841401Y-82543253D01*
X23823223Y-82526777D01*
X23806747Y-82508599D01*
X23792132Y-82488893D01*
X23779520Y-82467850D01*
X23769030Y-82445671D01*
X23760765Y-82422572D01*
X23754804Y-82398773D01*
X23751204Y-82374505D01*
X23750000Y-82350001D01*
X23750000Y-81449999D01*
X23751204Y-81425495D01*
X23754804Y-81401227D01*
X23760765Y-81377428D01*
X23769030Y-81354329D01*
X23779520Y-81332150D01*
X23792132Y-81311107D01*
X23806747Y-81291401D01*
X23823223Y-81273223D01*
X23841401Y-81256747D01*
X23861107Y-81242132D01*
X23882150Y-81229520D01*
X23904329Y-81219030D01*
X23927428Y-81210765D01*
X23951227Y-81204804D01*
X23975495Y-81201204D01*
X23999999Y-81200000D01*
X24650001Y-81200000D01*
X24674505Y-81201204D01*
X24674505Y-81201204D01*
G37*
D15*
G04 #@! TD*
G04 #@! TO.P,R5,1*
G04 #@! TO.N,+3V3*
X24325000Y-81900000D03*
D13*
G04 #@! TO.N,Net-(C6-Pad1)*
G04 #@! TO.C,R6*
G36*
X30124505Y-58951204D02*
X30148773Y-58954804D01*
X30172572Y-58960765D01*
X30195671Y-58969030D01*
X30217850Y-58979520D01*
X30238893Y-58992132D01*
X30258599Y-59006747D01*
X30276777Y-59023223D01*
X30293253Y-59041401D01*
X30307868Y-59061107D01*
X30320480Y-59082150D01*
X30330970Y-59104329D01*
X30339235Y-59127428D01*
X30345196Y-59151227D01*
X30348796Y-59175495D01*
X30350000Y-59199999D01*
X30350000Y-59850001D01*
X30348796Y-59874505D01*
X30345196Y-59898773D01*
X30339235Y-59922572D01*
X30330970Y-59945671D01*
X30320480Y-59967850D01*
X30307868Y-59988893D01*
X30293253Y-60008599D01*
X30276777Y-60026777D01*
X30258599Y-60043253D01*
X30238893Y-60057868D01*
X30217850Y-60070480D01*
X30195671Y-60080970D01*
X30172572Y-60089235D01*
X30148773Y-60095196D01*
X30124505Y-60098796D01*
X30100001Y-60100000D01*
X29199999Y-60100000D01*
X29175495Y-60098796D01*
X29151227Y-60095196D01*
X29127428Y-60089235D01*
X29104329Y-60080970D01*
X29082150Y-60070480D01*
X29061107Y-60057868D01*
X29041401Y-60043253D01*
X29023223Y-60026777D01*
X29006747Y-60008599D01*
X28992132Y-59988893D01*
X28979520Y-59967850D01*
X28969030Y-59945671D01*
X28960765Y-59922572D01*
X28954804Y-59898773D01*
X28951204Y-59874505D01*
X28950000Y-59850001D01*
X28950000Y-59199999D01*
X28951204Y-59175495D01*
X28954804Y-59151227D01*
X28960765Y-59127428D01*
X28969030Y-59104329D01*
X28979520Y-59082150D01*
X28992132Y-59061107D01*
X29006747Y-59041401D01*
X29023223Y-59023223D01*
X29041401Y-59006747D01*
X29061107Y-58992132D01*
X29082150Y-58979520D01*
X29104329Y-58969030D01*
X29127428Y-58960765D01*
X29151227Y-58954804D01*
X29175495Y-58951204D01*
X29199999Y-58950000D01*
X30100001Y-58950000D01*
X30124505Y-58951204D01*
X30124505Y-58951204D01*
G37*
D15*
G04 #@! TD*
G04 #@! TO.P,R6,2*
G04 #@! TO.N,Net-(C6-Pad1)*
X29650000Y-59525000D03*
D13*
G04 #@! TO.N,Net-(C5-Pad1)*
G04 #@! TO.C,R6*
G36*
X30124505Y-56901204D02*
X30148773Y-56904804D01*
X30172572Y-56910765D01*
X30195671Y-56919030D01*
X30217850Y-56929520D01*
X30238893Y-56942132D01*
X30258599Y-56956747D01*
X30276777Y-56973223D01*
X30293253Y-56991401D01*
X30307868Y-57011107D01*
X30320480Y-57032150D01*
X30330970Y-57054329D01*
X30339235Y-57077428D01*
X30345196Y-57101227D01*
X30348796Y-57125495D01*
X30350000Y-57149999D01*
X30350000Y-57800001D01*
X30348796Y-57824505D01*
X30345196Y-57848773D01*
X30339235Y-57872572D01*
X30330970Y-57895671D01*
X30320480Y-57917850D01*
X30307868Y-57938893D01*
X30293253Y-57958599D01*
X30276777Y-57976777D01*
X30258599Y-57993253D01*
X30238893Y-58007868D01*
X30217850Y-58020480D01*
X30195671Y-58030970D01*
X30172572Y-58039235D01*
X30148773Y-58045196D01*
X30124505Y-58048796D01*
X30100001Y-58050000D01*
X29199999Y-58050000D01*
X29175495Y-58048796D01*
X29151227Y-58045196D01*
X29127428Y-58039235D01*
X29104329Y-58030970D01*
X29082150Y-58020480D01*
X29061107Y-58007868D01*
X29041401Y-57993253D01*
X29023223Y-57976777D01*
X29006747Y-57958599D01*
X28992132Y-57938893D01*
X28979520Y-57917850D01*
X28969030Y-57895671D01*
X28960765Y-57872572D01*
X28954804Y-57848773D01*
X28951204Y-57824505D01*
X28950000Y-57800001D01*
X28950000Y-57149999D01*
X28951204Y-57125495D01*
X28954804Y-57101227D01*
X28960765Y-57077428D01*
X28969030Y-57054329D01*
X28979520Y-57032150D01*
X28992132Y-57011107D01*
X29006747Y-56991401D01*
X29023223Y-56973223D01*
X29041401Y-56956747D01*
X29061107Y-56942132D01*
X29082150Y-56929520D01*
X29104329Y-56919030D01*
X29127428Y-56910765D01*
X29151227Y-56904804D01*
X29175495Y-56901204D01*
X29199999Y-56900000D01*
X30100001Y-56900000D01*
X30124505Y-56901204D01*
X30124505Y-56901204D01*
G37*
D15*
G04 #@! TD*
G04 #@! TO.P,R6,1*
G04 #@! TO.N,Net-(C5-Pad1)*
X29650000Y-57475000D03*
D25*
G04 #@! TO.N,*
X23500000Y-22500000D03*
X23500000Y-87500000D03*
X63500000Y-55000000D03*
X63500000Y-22500000D03*
D26*
G04 #@! TO.N,Reset*
X31750000Y-77000030D03*
X23400010Y-76750000D03*
G04 #@! TO.N,+3V3*
X58500000Y-88500000D03*
X40000000Y-74750000D03*
G04 #@! TO.N,Net-(U2-Pad12)*
X34500000Y-67000000D03*
X35500000Y-78250000D03*
G04 #@! TO.N,SCK*
X34500000Y-80000000D03*
X35050004Y-86450000D03*
G04 #@! TO.N,MOSI*
X26610000Y-81790000D03*
X48550000Y-85850000D03*
G04 #@! TO.N,Net-(J3-Pad4)*
X44250000Y-85150000D03*
X25550000Y-39350000D03*
G04 #@! TO.N,Net-(J2-Pad1)*
X37000000Y-67470000D03*
X43750000Y-68500000D03*
G04 #@! TO.N,Net-(R7-Pad1)*
X56850000Y-35000000D03*
X45100000Y-36950000D03*
G04 #@! TD*
D27*
G04 #@! TO.N,Net-(C5-Pad1)*
X26575000Y-55425000D02*
X25500000Y-56500000D01*
X29650000Y-55425000D02*
X26575000Y-55425000D01*
X32280000Y-50570000D02*
X34000000Y-50570000D01*
X31550000Y-51300000D02*
X32280000Y-50570000D01*
X30498372Y-54801628D02*
X31550000Y-53750000D01*
D28*
X30273372Y-54801628D02*
X30498372Y-54801628D01*
D27*
X31550000Y-53750000D02*
X31550000Y-51300000D01*
D28*
X29650000Y-55425000D02*
X30273372Y-54801628D01*
D27*
X29650000Y-55425000D02*
X29650000Y-57475000D01*
G04 #@! TO.N,Net-(C6-Pad1)*
X29650000Y-61575000D02*
X29650000Y-59525000D01*
X29455000Y-61380000D02*
X29650000Y-61575000D01*
X25500000Y-61380000D02*
X29455000Y-61380000D01*
X31049989Y-55660011D02*
X33600000Y-53110000D01*
X33600000Y-53110000D02*
X34000000Y-53110000D01*
X31049989Y-58125011D02*
X31049989Y-55660011D01*
X29650000Y-59525000D02*
X31049989Y-58125011D01*
G04 #@! TO.N,Reset*
X34000000Y-30250000D02*
X30250000Y-30250000D01*
X23250000Y-76750000D02*
X23250000Y-76750000D01*
X31790000Y-77040030D02*
X31750000Y-77000030D01*
X31790000Y-79250000D02*
X31790000Y-77040030D01*
D29*
X22000000Y-37250000D02*
X22000000Y-75349990D01*
X30250000Y-30250000D02*
X29000000Y-30250000D01*
X29000000Y-30250000D02*
X22000000Y-37250000D01*
D27*
X22000000Y-75349990D02*
X22000000Y-75350000D01*
D29*
X22275000Y-77875010D02*
X22275000Y-78500000D01*
X22275000Y-78500000D02*
X22275000Y-81900000D01*
D27*
X21600010Y-77650000D02*
X22950010Y-76300000D01*
X21425000Y-77650000D02*
X21600010Y-77650000D01*
D29*
X22950010Y-76300000D02*
X23400010Y-76750000D01*
D27*
X21425000Y-77650000D02*
X22275000Y-78500000D01*
X21250000Y-77475000D02*
X21425000Y-77650000D01*
X21250000Y-76800000D02*
X21450010Y-76800000D01*
D29*
X22450010Y-75800000D02*
X22950010Y-76300000D01*
D27*
X21450010Y-76800000D02*
X22450010Y-75800000D01*
D29*
X22000000Y-75349990D02*
X22450010Y-75800000D01*
D27*
X21250000Y-76800000D02*
X21250000Y-77475000D01*
X21250000Y-76100000D02*
X21250000Y-76800000D01*
X21500000Y-76149990D02*
X22750010Y-77400000D01*
X21500000Y-75850000D02*
X21500000Y-76149990D01*
D29*
X22750010Y-77400000D02*
X22275000Y-77875010D01*
X23400010Y-76750000D02*
X22750010Y-77400000D01*
D27*
X21500000Y-75850000D02*
X21250000Y-76100000D01*
X22000000Y-75350000D02*
X21500000Y-75850000D01*
X21250000Y-76850010D02*
X22275000Y-77875010D01*
X21250000Y-76800000D02*
X21250000Y-76850010D01*
G04 #@! TO.N,+3V3*
X26000000Y-47250000D02*
X27200000Y-47250000D01*
X27200000Y-47250000D02*
X28960000Y-45490000D01*
X28960000Y-45490000D02*
X34000000Y-45490000D01*
D29*
X35837600Y-22295000D02*
X35837600Y-21115000D01*
D27*
X59757900Y-56760000D02*
X60250000Y-56760000D01*
X59757900Y-56760000D02*
X58699700Y-56760000D01*
X41620000Y-50570000D02*
X52509700Y-50570000D01*
X52509700Y-50570000D02*
X58699700Y-56760000D01*
X40790000Y-72490000D02*
X40450000Y-72150000D01*
D29*
X57250000Y-87250000D02*
X58500000Y-88500000D01*
D27*
X58500000Y-88500000D02*
X58500000Y-88500000D01*
D29*
X40790000Y-74750000D02*
X40000000Y-74750000D01*
D27*
X40790000Y-77500000D02*
X40790000Y-74750000D01*
X40790000Y-74750000D02*
X40790000Y-72490000D01*
D29*
X40000000Y-74750000D02*
X40000000Y-74750000D01*
D27*
X30375000Y-20675000D02*
X30375000Y-21750000D01*
X30700000Y-20350000D02*
X30375000Y-20675000D01*
X35350000Y-20350000D02*
X30700000Y-20350000D01*
X35837600Y-21115000D02*
X35837600Y-20837600D01*
X35837600Y-20837600D02*
X35350000Y-20350000D01*
D30*
X54500000Y-90000000D02*
X57250000Y-87250000D01*
X32950000Y-89900000D02*
X33050000Y-90000000D01*
X33050000Y-90000000D02*
X54500000Y-90000000D01*
D29*
X29450000Y-89450000D02*
X29250000Y-89250000D01*
X25100000Y-82675000D02*
X24325000Y-81900000D01*
X25100000Y-84900000D02*
X25100000Y-82675000D01*
D30*
X57250000Y-87250000D02*
X65950000Y-78550000D01*
X65950000Y-78550000D02*
X65950000Y-54350000D01*
D27*
X36200000Y-43690000D02*
X34400000Y-45490000D01*
X36200000Y-29081386D02*
X36200000Y-43690000D01*
X24775000Y-28275000D02*
X25850000Y-29350000D01*
X24775000Y-27850000D02*
X24775000Y-28275000D01*
X27700000Y-29350000D02*
X29150000Y-27900000D01*
X29150000Y-27900000D02*
X35018614Y-27900000D01*
X34400000Y-45490000D02*
X34000000Y-45490000D01*
X25850000Y-29350000D02*
X27700000Y-29350000D01*
X35018614Y-27900000D02*
X36200000Y-29081386D01*
X24775000Y-27050000D02*
X24775000Y-27850000D01*
X26450000Y-25375000D02*
X24775000Y-27050000D01*
X26450000Y-23000000D02*
X26450000Y-25375000D01*
X30375000Y-21750000D02*
X27700000Y-21750000D01*
X27700000Y-21750000D02*
X26450000Y-23000000D01*
D29*
X60250000Y-56760000D02*
X61099999Y-57609999D01*
X61099999Y-57609999D02*
X64890001Y-57609999D01*
X37097598Y-19800000D02*
X35850000Y-21047598D01*
X35850000Y-21047598D02*
X35850000Y-21300000D01*
X64890001Y-57609999D02*
X65950000Y-56550000D01*
X26850000Y-86650000D02*
X25100000Y-84900000D01*
D27*
X26850000Y-87050000D02*
X27050000Y-86850000D01*
D29*
X29500000Y-89300000D02*
X27050000Y-86850000D01*
X27050000Y-86850000D02*
X26850000Y-86650000D01*
D27*
X27000000Y-87950000D02*
X28300000Y-86650000D01*
X26850000Y-86650000D02*
X28300000Y-86650000D01*
X26850000Y-87950000D02*
X26850000Y-87050000D01*
X26850000Y-87950000D02*
X27000000Y-87950000D01*
X26850000Y-88700000D02*
X27200000Y-88700000D01*
X27200000Y-88700000D02*
X29250000Y-86650000D01*
D29*
X29250000Y-86650000D02*
X29250000Y-84330000D01*
D27*
X26850000Y-90000000D02*
X26850000Y-88700000D01*
X26850000Y-89900000D02*
X30100000Y-86650000D01*
X26850000Y-90000000D02*
X26850000Y-89900000D01*
X28100000Y-89600000D02*
X31050000Y-86650000D01*
X28100000Y-90000000D02*
X28100000Y-89600000D01*
X28100000Y-90000000D02*
X26850000Y-90000000D01*
X28700000Y-90000000D02*
X28800000Y-90000000D01*
X28800000Y-90000000D02*
X32150000Y-86650000D01*
X32150000Y-86650000D02*
X32500000Y-86650000D01*
X28700000Y-90000000D02*
X28100000Y-90000000D01*
X29850000Y-90000000D02*
X30050000Y-90000000D01*
X32950000Y-87100000D02*
X33050000Y-87200000D01*
X32500000Y-86650000D02*
X32950000Y-87100000D01*
X30050000Y-90000000D02*
X32950000Y-87100000D01*
X29850000Y-90000000D02*
X28700000Y-90000000D01*
X31100000Y-90000000D02*
X31400000Y-90000000D01*
X31400000Y-90000000D02*
X33050000Y-88350000D01*
X31100000Y-90000000D02*
X29850000Y-90000000D01*
X33050000Y-90000000D02*
X31100000Y-90000000D01*
X32350000Y-89700000D02*
X29300000Y-86650000D01*
X33050000Y-89700000D02*
X32350000Y-89700000D01*
X29300000Y-86650000D02*
X30100000Y-86650000D01*
X28300000Y-86650000D02*
X29300000Y-86650000D01*
X33050000Y-89700000D02*
X33050000Y-90000000D01*
X33050000Y-89050000D02*
X30650000Y-86650000D01*
X33050000Y-89250000D02*
X33050000Y-89050000D01*
X30650000Y-86650000D02*
X31050000Y-86650000D01*
X30100000Y-86650000D02*
X30650000Y-86650000D01*
X33050000Y-89250000D02*
X33050000Y-89700000D01*
X33050000Y-88350000D02*
X33050000Y-89250000D01*
X33050000Y-88050000D02*
X33050000Y-88000000D01*
X31700000Y-86650000D02*
X32150000Y-86650000D01*
X31050000Y-86650000D02*
X31700000Y-86650000D01*
X33050000Y-88000000D02*
X31700000Y-86650000D01*
X33050000Y-88050000D02*
X33050000Y-88350000D01*
X33050000Y-87200000D02*
X33050000Y-88050000D01*
X31100000Y-89700000D02*
X29250000Y-87850000D01*
X31100000Y-90000000D02*
X31100000Y-89700000D01*
D29*
X29250000Y-89250000D02*
X29250000Y-87850000D01*
X29250000Y-87850000D02*
X29250000Y-86650000D01*
D27*
X29300000Y-89250000D02*
X30050000Y-90000000D01*
X29250000Y-89250000D02*
X29300000Y-89250000D01*
X28400000Y-90000000D02*
X26850000Y-88450000D01*
X28700000Y-90000000D02*
X28400000Y-90000000D01*
X26850000Y-88700000D02*
X26850000Y-88450000D01*
X26850000Y-88450000D02*
X26850000Y-87950000D01*
D29*
X65950000Y-21300000D02*
X64450000Y-19800000D01*
D27*
X59650000Y-23450000D02*
X61200000Y-25000000D01*
X59600000Y-23400000D02*
X59650000Y-23450000D01*
D29*
X59600000Y-19800000D02*
X58200000Y-19800000D01*
D27*
X58200000Y-22000000D02*
X59650000Y-23450000D01*
X61100000Y-24900000D02*
X61200000Y-25000000D01*
D29*
X61100000Y-19800000D02*
X59600000Y-19800000D01*
D27*
X58200000Y-20950000D02*
X58800000Y-20950000D01*
X58800000Y-20950000D02*
X62850000Y-25000000D01*
X61200000Y-25000000D02*
X62850000Y-25000000D01*
X58200000Y-20950000D02*
X58200000Y-22000000D01*
X58200000Y-19800000D02*
X58200000Y-20950000D01*
D29*
X57300000Y-19800000D02*
X37097598Y-19800000D01*
X58200000Y-19800000D02*
X57300000Y-19800000D01*
D27*
X59900000Y-25000000D02*
X61200000Y-25000000D01*
X57300000Y-20950000D02*
X58200000Y-20950000D01*
X57300000Y-19800000D02*
X57300000Y-20950000D01*
X59600000Y-24700000D02*
X59600000Y-23150000D01*
X59600000Y-23150000D02*
X59600000Y-23400000D01*
X59600000Y-24700000D02*
X59900000Y-25000000D01*
X58150000Y-22050000D02*
X58200000Y-22000000D01*
X57300000Y-22050000D02*
X58150000Y-22050000D01*
X57300000Y-22050000D02*
X57300000Y-22400000D01*
X57300000Y-20950000D02*
X57300000Y-22050000D01*
X58150000Y-22050000D02*
X58150000Y-23250000D01*
X58150000Y-23250000D02*
X58200000Y-23300000D01*
X57300000Y-22400000D02*
X58200000Y-23300000D01*
X58200000Y-23300000D02*
X59600000Y-24700000D01*
X64300000Y-25000000D02*
X64650000Y-25000000D01*
X64650000Y-25000000D02*
X65950000Y-23700000D01*
D29*
X65950000Y-23700000D02*
X65950000Y-21300000D01*
D27*
X62850000Y-25000000D02*
X64300000Y-25000000D01*
X64700000Y-25100000D02*
X65950000Y-26350000D01*
X64700000Y-25000000D02*
X64700000Y-25100000D01*
D29*
X65950000Y-26350000D02*
X65950000Y-23700000D01*
D27*
X64700000Y-25000000D02*
X65650000Y-25000000D01*
D29*
X65950000Y-56550000D02*
X65950000Y-26350000D01*
D27*
X64300000Y-25000000D02*
X64700000Y-25000000D01*
X61350000Y-21500000D02*
X63050000Y-19800000D01*
X61100000Y-21500000D02*
X61350000Y-21500000D01*
D29*
X64450000Y-19800000D02*
X63050000Y-19800000D01*
D27*
X61100000Y-21500000D02*
X61100000Y-24900000D01*
D29*
X63050000Y-19800000D02*
X61100000Y-19800000D01*
D27*
X61100000Y-19800000D02*
X61100000Y-21500000D01*
X61050000Y-21450000D02*
X61100000Y-21500000D01*
X59600000Y-21450000D02*
X59600000Y-23150000D01*
X59600000Y-21450000D02*
X61050000Y-21450000D01*
X59600000Y-19800000D02*
X59600000Y-21450000D01*
G04 #@! TO.N,Net-(R1-Pad2)*
X28150000Y-23575000D02*
X32075000Y-23575000D01*
X32075000Y-23575000D02*
X32425000Y-23225000D01*
X32425000Y-23225000D02*
X32425000Y-21750000D01*
X32425000Y-21750000D02*
X32425000Y-21675000D01*
X34887600Y-21437600D02*
X34887600Y-22295000D01*
X34500010Y-21050010D02*
X34887600Y-21437600D01*
X32425000Y-21750000D02*
X33124990Y-21050010D01*
X33124990Y-21050010D02*
X34500010Y-21050010D01*
G04 #@! TO.N,GND*
X23950000Y-72550000D02*
X23950000Y-72700010D01*
X23950000Y-72700010D02*
X26849990Y-75600000D01*
X23950000Y-73950000D02*
X23950000Y-74050000D01*
X24000000Y-71300000D02*
X24000000Y-71350000D01*
X24000000Y-71350000D02*
X28400000Y-75750000D01*
D31*
X34000000Y-48030000D02*
X37020000Y-48030000D01*
X38450000Y-48030000D02*
X37020000Y-48030000D01*
D27*
X26000000Y-49250000D02*
X27131400Y-49250000D01*
X28351400Y-48030000D02*
X33600000Y-48030000D01*
X27131400Y-49250000D02*
X28351400Y-48030000D01*
D31*
X39560000Y-45490000D02*
X41620000Y-45490000D01*
X38450000Y-45490000D02*
X39560000Y-45490000D01*
D27*
X33600000Y-48030000D02*
X34000000Y-48030000D01*
X33600000Y-48030000D02*
X34000000Y-48030000D01*
X29650000Y-49650000D02*
X29650000Y-52700000D01*
X34000000Y-48030000D02*
X31270000Y-48030000D01*
X29650000Y-52700000D02*
X29650000Y-53375000D01*
X31270000Y-48030000D02*
X29650000Y-49650000D01*
X35837600Y-26175000D02*
X35837600Y-26000000D01*
D29*
X35837600Y-26000000D02*
X35837600Y-24995000D01*
D27*
X44215000Y-45490000D02*
X44450000Y-45725000D01*
X41620000Y-45490000D02*
X44215000Y-45490000D01*
D31*
X38450000Y-48030000D02*
X38450000Y-45490000D01*
D27*
X28850000Y-63625000D02*
X29650000Y-63625000D01*
X25175000Y-63625000D02*
X28850000Y-63625000D01*
X23450000Y-61900000D02*
X25175000Y-63625000D01*
X23450000Y-55500000D02*
X23450000Y-61900000D01*
X29650000Y-53375000D02*
X25575000Y-53375000D01*
X25575000Y-53375000D02*
X23450000Y-55500000D01*
X38250000Y-72350000D02*
X38450000Y-72150000D01*
X38250000Y-77500000D02*
X38250000Y-72350000D01*
X29925000Y-25950000D02*
X30375000Y-25500000D01*
X28150000Y-25625000D02*
X28475000Y-25950000D01*
X28475000Y-25950000D02*
X29925000Y-25950000D01*
X27825000Y-25950000D02*
X28150000Y-25625000D01*
D31*
X50500000Y-68295837D02*
X50500000Y-64700000D01*
X50500000Y-70700000D02*
X50500000Y-68295837D01*
X50500000Y-64700000D02*
X49500000Y-65700000D01*
X40650000Y-65700000D02*
X38900000Y-63950000D01*
X38450000Y-48030000D02*
X38450000Y-63500000D01*
X38450000Y-63500000D02*
X38900000Y-63950000D01*
X45750000Y-65200000D02*
X45750000Y-65600000D01*
X45650000Y-65700000D02*
X40650000Y-65700000D01*
X45750000Y-65600000D02*
X45650000Y-65700000D01*
D27*
X25175000Y-66225000D02*
X25175000Y-63625000D01*
X24400000Y-67000000D02*
X25175000Y-66225000D01*
X24400000Y-68300000D02*
X24400000Y-67000000D01*
D31*
X24400000Y-68300000D02*
X24400000Y-70250000D01*
D27*
X44625000Y-45550000D02*
X44450000Y-45725000D01*
X60250000Y-54220000D02*
X51580000Y-45550000D01*
X51580000Y-45550000D02*
X44625000Y-45550000D01*
X26825000Y-26950000D02*
X28150000Y-25625000D01*
X26825000Y-27850000D02*
X26825000Y-26950000D01*
D31*
X24400000Y-70250000D02*
X24550000Y-70400000D01*
D27*
X23950000Y-70700000D02*
X24400000Y-70250000D01*
X32600000Y-70400000D02*
X33400000Y-71200000D01*
X31200000Y-70400000D02*
X31200000Y-70500000D01*
X31200000Y-70500000D02*
X33150000Y-72450000D01*
X33400000Y-71200000D02*
X33400000Y-73900000D01*
X29950000Y-70450000D02*
X33400000Y-73900000D01*
X29950000Y-70400000D02*
X29950000Y-70450000D01*
X33400000Y-75200000D02*
X33400000Y-75550000D01*
X28800000Y-70600000D02*
X33400000Y-75200000D01*
X28800000Y-70400000D02*
X29950000Y-70400000D01*
X28800000Y-70400000D02*
X28800000Y-70600000D01*
X32500000Y-75550000D02*
X33400000Y-75550000D01*
X27350000Y-70400000D02*
X32500000Y-75550000D01*
X27350000Y-70400000D02*
X28800000Y-70400000D01*
X26250000Y-70650000D02*
X31150000Y-75550000D01*
X26250000Y-70400000D02*
X26250000Y-70650000D01*
X31150000Y-75550000D02*
X32500000Y-75550000D01*
X26250000Y-70400000D02*
X27350000Y-70400000D01*
D31*
X29250000Y-76450000D02*
X28350000Y-75550000D01*
X29250000Y-79250000D02*
X29250000Y-76450000D01*
D27*
X29650000Y-75500000D02*
X24550000Y-70400000D01*
X29700000Y-75500000D02*
X29650000Y-75500000D01*
D31*
X36368630Y-73100000D02*
X33250000Y-73100000D01*
X38450000Y-72150000D02*
X37318630Y-72150000D01*
X37318630Y-72150000D02*
X36368630Y-73100000D01*
D27*
X23950000Y-71950000D02*
X24150000Y-71950000D01*
X24150000Y-71950000D02*
X25700000Y-70400000D01*
X25700000Y-70400000D02*
X26250000Y-70400000D01*
X24550000Y-70400000D02*
X25700000Y-70400000D01*
X23950000Y-71950000D02*
X23950000Y-70700000D01*
X24350000Y-73400000D02*
X27350000Y-70400000D01*
X23950000Y-73400000D02*
X24350000Y-73400000D01*
X23950000Y-73400000D02*
X23950000Y-71950000D01*
X23950000Y-74050000D02*
X23950000Y-73400000D01*
X24750000Y-74450000D02*
X28800000Y-70400000D01*
X24350000Y-74450000D02*
X24750000Y-74450000D01*
X23950000Y-74050000D02*
X24350000Y-74450000D01*
X25400000Y-75350000D02*
X30350000Y-70400000D01*
X25250000Y-75350000D02*
X25400000Y-75350000D01*
X30350000Y-70400000D02*
X31200000Y-70400000D01*
X25250000Y-75350000D02*
X25450000Y-75550000D01*
X29950000Y-70400000D02*
X30350000Y-70400000D01*
X24350000Y-74450000D02*
X25250000Y-75350000D01*
X27450000Y-75200000D02*
X32250000Y-70400000D01*
X32250000Y-70400000D02*
X32600000Y-70400000D01*
X31200000Y-70400000D02*
X32250000Y-70400000D01*
X27450000Y-75550000D02*
X27450000Y-75200000D01*
X25450000Y-75550000D02*
X27450000Y-75550000D01*
X29600000Y-75000000D02*
X33400000Y-71200000D01*
X29600000Y-75550000D02*
X29600000Y-75000000D01*
X27450000Y-75550000D02*
X29600000Y-75550000D01*
X30800000Y-75550000D02*
X33250000Y-73100000D01*
X30750000Y-75550000D02*
X30800000Y-75550000D01*
X30750000Y-75550000D02*
X31150000Y-75550000D01*
X29600000Y-75550000D02*
X30750000Y-75550000D01*
X32550000Y-75550000D02*
X33400000Y-74700000D01*
X33400000Y-73900000D02*
X33400000Y-74700000D01*
X32500000Y-75550000D02*
X32550000Y-75550000D01*
X33400000Y-74700000D02*
X33400000Y-75200000D01*
D31*
X49500000Y-65700000D02*
X45800000Y-65700000D01*
D27*
X54050000Y-73550000D02*
X54850000Y-72750000D01*
X46100000Y-63400000D02*
X45750000Y-63750000D01*
X51750000Y-63400000D02*
X49150000Y-63400000D01*
X50250000Y-63400000D02*
X54500000Y-67650000D01*
X54500000Y-67650000D02*
X54500000Y-67750000D01*
X54500000Y-67750000D02*
X54650000Y-67900000D01*
X48450000Y-63400000D02*
X54850000Y-69800000D01*
X47550000Y-63400000D02*
X48450000Y-63400000D01*
X46900000Y-63400000D02*
X54850000Y-71350000D01*
X46700000Y-63400000D02*
X46900000Y-63400000D01*
X54850000Y-72750000D02*
X54850000Y-71350000D01*
X46700000Y-63400000D02*
X46100000Y-63400000D01*
X47550000Y-63400000D02*
X46700000Y-63400000D01*
X45850000Y-63750000D02*
X54850000Y-72750000D01*
X45750000Y-63750000D02*
X45850000Y-63750000D01*
X45750000Y-65250000D02*
X54050000Y-73550000D01*
X45750000Y-65200000D02*
X45750000Y-65250000D01*
X45750000Y-63750000D02*
X45750000Y-65200000D01*
X45800000Y-66850000D02*
X45950000Y-66850000D01*
X52500000Y-73550000D02*
X54050000Y-73550000D01*
X46150000Y-66900000D02*
X52500000Y-73250000D01*
X52500000Y-73250000D02*
X52500000Y-73550000D01*
X46050000Y-68300000D02*
X46050000Y-67000000D01*
X46050000Y-67000000D02*
X46150000Y-66900000D01*
X46150000Y-64050000D02*
X45850000Y-63750000D01*
X46150000Y-66900000D02*
X46150000Y-64050000D01*
X45800000Y-69750000D02*
X45800000Y-69450000D01*
X45800000Y-71300000D02*
X45950000Y-71300000D01*
X47950000Y-73300000D02*
X49350000Y-73300000D01*
X49350000Y-73300000D02*
X45800000Y-69750000D01*
X45950000Y-71300000D02*
X47950000Y-73300000D01*
X51300000Y-73550000D02*
X51050000Y-73300000D01*
X49350000Y-73300000D02*
X51050000Y-73300000D01*
X51050000Y-73300000D02*
X46050000Y-68300000D01*
X45800000Y-69750000D02*
X45800000Y-71500000D01*
X45800000Y-72700000D02*
X45800000Y-71500000D01*
X45800000Y-71500000D02*
X45800000Y-71300000D01*
X45800000Y-65700000D02*
X48100000Y-63400000D01*
X45800000Y-66850000D02*
X45800000Y-65700000D01*
X49150000Y-63400000D02*
X48100000Y-63400000D01*
X48100000Y-63400000D02*
X47550000Y-63400000D01*
X45800000Y-67050000D02*
X49450000Y-63400000D01*
X45800000Y-67400000D02*
X45800000Y-67050000D01*
X49450000Y-63400000D02*
X50250000Y-63400000D01*
X45800000Y-67400000D02*
X45800000Y-66850000D01*
X49150000Y-63400000D02*
X49450000Y-63400000D01*
X49650000Y-64700000D02*
X45800000Y-68550000D01*
X50500000Y-64700000D02*
X49650000Y-64700000D01*
X45800000Y-69450000D02*
X45800000Y-68550000D01*
X45800000Y-68550000D02*
X45800000Y-67400000D01*
X46300000Y-69750000D02*
X52200000Y-63850000D01*
X45800000Y-69750000D02*
X46300000Y-69750000D01*
X52200000Y-63850000D02*
X51750000Y-63400000D01*
X46350000Y-71500000D02*
X53100000Y-64750000D01*
X45800000Y-71500000D02*
X46350000Y-71500000D01*
X53100000Y-64750000D02*
X52200000Y-63850000D01*
X46600000Y-72950000D02*
X53950000Y-65600000D01*
X53950000Y-65600000D02*
X53100000Y-64750000D01*
X54850000Y-66500000D02*
X53950000Y-65600000D01*
X46050000Y-72950000D02*
X45800000Y-72700000D01*
X46050000Y-72950000D02*
X46600000Y-72950000D01*
X46650000Y-73550000D02*
X46050000Y-72950000D01*
X48100000Y-73550000D02*
X54850000Y-66800000D01*
X48000000Y-73550000D02*
X48100000Y-73550000D01*
X54850000Y-66800000D02*
X54850000Y-66500000D01*
X48000000Y-73550000D02*
X46650000Y-73550000D01*
X50450000Y-73150000D02*
X54850000Y-68750000D01*
X50450000Y-73550000D02*
X50450000Y-73150000D01*
X54850000Y-68750000D02*
X54850000Y-66800000D01*
X54850000Y-69800000D02*
X54850000Y-68750000D01*
X50450000Y-73550000D02*
X48000000Y-73550000D01*
X51300000Y-73550000D02*
X50450000Y-73550000D01*
X54850000Y-70750000D02*
X54850000Y-69800000D01*
X52050000Y-73550000D02*
X54850000Y-70750000D01*
X52000000Y-73550000D02*
X52500000Y-73550000D01*
X52000000Y-73550000D02*
X52050000Y-73550000D01*
X54850000Y-71350000D02*
X54850000Y-70750000D01*
X51300000Y-73550000D02*
X52000000Y-73550000D01*
D31*
X38450000Y-29700000D02*
X35800000Y-27050000D01*
X38450000Y-45490000D02*
X38450000Y-29700000D01*
D29*
X35837600Y-26887600D02*
X35837600Y-26000000D01*
X35850000Y-26900000D02*
X35837600Y-26887600D01*
X30850000Y-26950000D02*
X35800000Y-26950000D01*
X30375000Y-25500000D02*
X30375000Y-26475000D01*
X35800000Y-26950000D02*
X35850000Y-26900000D01*
X30375000Y-26475000D02*
X30850000Y-26950000D01*
D27*
X60250000Y-54220000D02*
X60480000Y-54220000D01*
X60480000Y-54220000D02*
X64700000Y-50000000D01*
X64700000Y-32800000D02*
X63750000Y-31850000D01*
X63750000Y-31850000D02*
X63750000Y-50650000D01*
X63750000Y-31850000D02*
X63600000Y-31850000D01*
X63600000Y-31850000D02*
X62850000Y-32600000D01*
X62850000Y-51550000D02*
X63750000Y-50650000D01*
X63750000Y-50650000D02*
X64700000Y-49700000D01*
X64700000Y-50000000D02*
X64700000Y-49700000D01*
X62850000Y-33450000D02*
X64650000Y-33450000D01*
X64650000Y-33450000D02*
X64700000Y-33500000D01*
X64700000Y-33500000D02*
X64700000Y-32800000D01*
X62850000Y-32600000D02*
X62850000Y-33450000D01*
X64650000Y-34700000D02*
X64700000Y-34750000D01*
X62850000Y-34700000D02*
X64650000Y-34700000D01*
X64700000Y-34750000D02*
X64700000Y-33500000D01*
X62850000Y-33450000D02*
X62850000Y-34700000D01*
X64700000Y-35900000D02*
X64700000Y-34750000D01*
X62850000Y-35900000D02*
X64700000Y-35900000D01*
X62850000Y-34700000D02*
X62850000Y-35900000D01*
X64650000Y-37100000D02*
X64700000Y-37150000D01*
X62850000Y-37100000D02*
X64650000Y-37100000D01*
X64700000Y-37150000D02*
X64700000Y-35900000D01*
X62850000Y-35900000D02*
X62850000Y-37100000D01*
X64700000Y-38350000D02*
X64700000Y-37150000D01*
X62850000Y-38350000D02*
X64700000Y-38350000D01*
X62850000Y-37100000D02*
X62850000Y-38350000D01*
X62850000Y-39550000D02*
X64700000Y-39550000D01*
X64700000Y-39550000D02*
X64700000Y-38350000D01*
X62850000Y-38350000D02*
X62850000Y-39550000D01*
X64700000Y-40750000D02*
X64700000Y-39550000D01*
X64650000Y-40700000D02*
X64700000Y-40750000D01*
X62850000Y-40700000D02*
X64650000Y-40700000D01*
X62850000Y-39550000D02*
X62850000Y-40700000D01*
X62850000Y-41900000D02*
X64700000Y-41900000D01*
X64700000Y-41900000D02*
X64700000Y-40750000D01*
X62850000Y-40700000D02*
X62850000Y-41900000D01*
X62850000Y-42850000D02*
X64600000Y-42850000D01*
X64700000Y-42950000D02*
X64700000Y-41900000D01*
X64600000Y-42850000D02*
X64700000Y-42950000D01*
X62850000Y-41900000D02*
X62850000Y-42850000D01*
X62850000Y-44100000D02*
X64500000Y-44100000D01*
X62850000Y-42850000D02*
X62850000Y-44100000D01*
X64600000Y-45400000D02*
X64700000Y-45500000D01*
X64700000Y-45500000D02*
X64700000Y-42950000D01*
X62850000Y-45400000D02*
X64600000Y-45400000D01*
X62850000Y-44100000D02*
X62850000Y-45400000D01*
X62850000Y-46450000D02*
X64700000Y-46450000D01*
X64700000Y-46450000D02*
X64700000Y-45500000D01*
X62850000Y-45400000D02*
X62850000Y-46450000D01*
X62850000Y-47400000D02*
X64700000Y-47400000D01*
X64700000Y-47400000D02*
X64700000Y-46450000D01*
X62850000Y-46450000D02*
X62850000Y-47400000D01*
X64650000Y-48500000D02*
X64700000Y-48550000D01*
X64700000Y-48550000D02*
X64700000Y-47400000D01*
X62850000Y-48500000D02*
X64650000Y-48500000D01*
X64700000Y-49700000D02*
X64700000Y-48550000D01*
X62850000Y-47400000D02*
X62850000Y-48500000D01*
X64650000Y-49750000D02*
X64700000Y-49700000D01*
X62850000Y-49750000D02*
X64650000Y-49750000D01*
X62850000Y-49750000D02*
X62850000Y-51550000D01*
X62850000Y-48500000D02*
X62850000Y-49750000D01*
G04 #@! TO.N,Net-(R4-Pad2)*
X30949990Y-62947892D02*
X30950010Y-62947912D01*
X30949990Y-62252108D02*
X30949990Y-62947892D01*
X30950010Y-60897912D02*
X30950010Y-62252088D01*
X30950010Y-59708604D02*
X30950010Y-60202088D01*
X30949990Y-60897892D02*
X30950010Y-60897912D01*
X33600000Y-55650000D02*
X31849999Y-57400001D01*
X30950010Y-62252088D02*
X30949990Y-62252108D01*
X34000000Y-55650000D02*
X33600000Y-55650000D01*
X30950010Y-62947912D02*
X30950010Y-66175010D01*
X30949990Y-60202108D02*
X30949990Y-60897892D01*
X31849999Y-57400001D02*
X31849999Y-58808615D01*
X30950010Y-66175010D02*
X31051628Y-66276628D01*
X31849999Y-58808615D02*
X30950010Y-59708604D01*
X31051628Y-66276628D02*
X31675000Y-66900000D01*
X30950010Y-60202088D02*
X30949990Y-60202108D01*
G04 #@! TO.N,Net-(U2-Pad12)*
X31750021Y-64250021D02*
X34500000Y-67000000D01*
X31750021Y-62616537D02*
X31750021Y-64250021D01*
X31750000Y-62616516D02*
X31750021Y-62616537D01*
X31750020Y-62583464D02*
X31750001Y-62583483D01*
X33600000Y-58190000D02*
X31750021Y-60039979D01*
X34000000Y-58190000D02*
X33600000Y-58190000D01*
X31750001Y-60533483D02*
X31750000Y-60566516D01*
X31750001Y-62583483D02*
X31750000Y-62616516D01*
X31750020Y-60533464D02*
X31750001Y-60533483D01*
X31750021Y-60566537D02*
X31750020Y-62583464D01*
X31750021Y-60039979D02*
X31750020Y-60533464D01*
X31750000Y-60566516D02*
X31750021Y-60566537D01*
X34500000Y-67000000D02*
X34500000Y-67000000D01*
X35500000Y-78250000D02*
X35500000Y-78250000D01*
X38250000Y-80040000D02*
X37488001Y-79278001D01*
X37488001Y-79278001D02*
X36528001Y-79278001D01*
X36528001Y-79278001D02*
X35500000Y-78250000D01*
G04 #@! TO.N,Net-(U2-Pad13)*
X35230000Y-60730000D02*
X34000000Y-60730000D01*
X40790000Y-80040000D02*
X41867630Y-80040000D01*
X36750000Y-62250000D02*
X35230000Y-60730000D01*
X42500000Y-79407630D02*
X42500000Y-70750000D01*
X41867630Y-80040000D02*
X42500000Y-79407630D01*
X36750000Y-65000000D02*
X36750000Y-62250000D01*
X42500000Y-70750000D02*
X36750000Y-65000000D01*
G04 #@! TO.N,SCK*
X59757900Y-59300000D02*
X60250000Y-59300000D01*
X58699700Y-59300000D02*
X52509700Y-53110000D01*
X52509700Y-53110000D02*
X41620000Y-53110000D01*
X59757900Y-59300000D02*
X58699700Y-59300000D01*
X38250000Y-82580000D02*
X35830000Y-82580000D01*
X35040000Y-81790000D02*
X31790000Y-81790000D01*
X35830000Y-82580000D02*
X35040000Y-81790000D01*
X37488001Y-81818001D02*
X36318001Y-81818001D01*
X38250000Y-82580000D02*
X37488001Y-81818001D01*
X36318001Y-81818001D02*
X34500000Y-80000000D01*
X34500000Y-80000000D02*
X34500000Y-80000000D01*
D29*
X54650011Y-88099989D02*
X36699993Y-88099989D01*
X64500000Y-78250000D02*
X54650011Y-88099989D01*
X35650003Y-87049999D02*
X35050004Y-86450000D01*
X64500000Y-63550000D02*
X64500000Y-78250000D01*
X60250000Y-59300000D02*
X64500000Y-63550000D01*
X36699993Y-88099989D02*
X35650003Y-87049999D01*
D27*
G04 #@! TO.N,MOSI*
X58699700Y-64380000D02*
X52509700Y-58190000D01*
X52509700Y-58190000D02*
X41620000Y-58190000D01*
X59757900Y-64380000D02*
X60250000Y-64380000D01*
X59757900Y-64380000D02*
X58699700Y-64380000D01*
X29250000Y-81790000D02*
X26610000Y-81790000D01*
X26610000Y-81790000D02*
X26610000Y-81790000D01*
X62500000Y-66630000D02*
X62500000Y-72748528D01*
X49398528Y-85850000D02*
X48550000Y-85850000D01*
X45280000Y-82580000D02*
X47950001Y-85250001D01*
X62500000Y-72748528D02*
X49398528Y-85850000D01*
X60250000Y-64380000D02*
X62500000Y-66630000D01*
X40790000Y-82580000D02*
X45280000Y-82580000D01*
X47950001Y-85250001D02*
X48550000Y-85850000D01*
G04 #@! TO.N,MISO*
X59757900Y-61840000D02*
X60250000Y-61840000D01*
X58699700Y-61840000D02*
X52509700Y-55650000D01*
X52509700Y-55650000D02*
X41620000Y-55650000D01*
X59757900Y-61840000D02*
X58699700Y-61840000D01*
X38250000Y-85120000D02*
X36130000Y-85120000D01*
X35340000Y-84330000D02*
X31790000Y-84330000D01*
X36130000Y-85120000D02*
X35340000Y-84330000D01*
X45000000Y-87250000D02*
X45000000Y-87250000D01*
X61452081Y-61840000D02*
X63500000Y-63887919D01*
X63500000Y-63887919D02*
X63500000Y-77750000D01*
X60250000Y-61840000D02*
X61452081Y-61840000D01*
X63500000Y-77750000D02*
X54000000Y-87250000D01*
X38250000Y-86500000D02*
X38250000Y-85120000D01*
X54000000Y-87250000D02*
X39000000Y-87250000D01*
X39000000Y-87250000D02*
X38250000Y-86500000D01*
G04 #@! TO.N,Net-(L1-Pad2)*
X39950000Y-25500000D02*
X39950000Y-23250000D01*
X36787600Y-24995000D02*
X36787600Y-26175000D01*
X37612600Y-27000000D02*
X38450000Y-27000000D01*
X36787600Y-26175000D02*
X37612600Y-27000000D01*
X39950000Y-23250000D02*
X39950000Y-24400000D01*
X39950000Y-24400000D02*
X37700000Y-26650000D01*
X39950000Y-23250000D02*
X39950000Y-23300000D01*
X37550000Y-25800000D02*
X38600000Y-26850000D01*
X37450000Y-25800000D02*
X37550000Y-25800000D01*
X38450000Y-27000000D02*
X38600000Y-26850000D01*
X37450000Y-25800000D02*
X37100000Y-26150000D01*
X38400000Y-25150000D02*
X39350000Y-26100000D01*
X38100000Y-25150000D02*
X38400000Y-25150000D01*
X39350000Y-26100000D02*
X39950000Y-25500000D01*
X38600000Y-26850000D02*
X39350000Y-26100000D01*
X38100000Y-25150000D02*
X37450000Y-25800000D01*
X38900000Y-24450000D02*
X39950000Y-25500000D01*
X38900000Y-24350000D02*
X38900000Y-24450000D01*
X38900000Y-24350000D02*
X38100000Y-25150000D01*
X39950000Y-23300000D02*
X38900000Y-24350000D01*
D32*
G04 #@! TO.N,+1V5*
X34887600Y-24995000D02*
X34887600Y-23815000D01*
X36787600Y-23475000D02*
X36787600Y-22295000D01*
X36612600Y-23650000D02*
X36787600Y-23475000D01*
X35052600Y-23650000D02*
X36612600Y-23650000D01*
X34887600Y-23815000D02*
X35052600Y-23650000D01*
D27*
X34887600Y-25712400D02*
X34887600Y-24995000D01*
X32425000Y-25500000D02*
X32925000Y-26000000D01*
X34600000Y-26000000D02*
X34887600Y-25712400D01*
X32925000Y-26000000D02*
X34600000Y-26000000D01*
D33*
X49650000Y-34350000D02*
X45250000Y-29950000D01*
X45250000Y-29950000D02*
X45250000Y-28500000D01*
X45250000Y-28500000D02*
X44200000Y-27450000D01*
X58150000Y-29350000D02*
X53150000Y-34350000D01*
X53150000Y-34350000D02*
X49650000Y-34350000D01*
D28*
X36787600Y-21312400D02*
X36787600Y-22295000D01*
X44200000Y-23250000D02*
X41650000Y-20700000D01*
X37400000Y-20700000D02*
X36787600Y-21312400D01*
X44200000Y-27450000D02*
X44200000Y-23250000D01*
D33*
X63650000Y-29350000D02*
X61700000Y-29350000D01*
X61700000Y-29350000D02*
X58150000Y-29350000D01*
D27*
X61075000Y-32350000D02*
X61100000Y-32325000D01*
X61100000Y-32325000D02*
X61100000Y-29950000D01*
X61100000Y-29950000D02*
X61450000Y-29600000D01*
X61450000Y-29600000D02*
X61700000Y-29350000D01*
X61300000Y-29750000D02*
X61450000Y-29600000D01*
X53550000Y-35250000D02*
X59050000Y-29750000D01*
X50250000Y-35250000D02*
X53550000Y-35250000D01*
X49650000Y-34350000D02*
X49500000Y-34500000D01*
X59050000Y-29750000D02*
X61300000Y-29750000D01*
X49500000Y-34500000D02*
X50250000Y-35250000D01*
X40050000Y-20700000D02*
X40150000Y-20700000D01*
D28*
X40050000Y-20700000D02*
X37400000Y-20700000D01*
X41650000Y-20700000D02*
X40050000Y-20700000D01*
D27*
X40150000Y-20700000D02*
X43950000Y-24500000D01*
G04 #@! TO.N,Net-(J2-Pad2)*
X52300000Y-62150000D02*
X59610000Y-69460000D01*
X59610000Y-69460000D02*
X60250000Y-69460000D01*
X41620000Y-63270000D02*
X42740000Y-62150000D01*
X42740000Y-62150000D02*
X52300000Y-62150000D01*
G04 #@! TO.N,Net-(J3-Pad2)*
X34000000Y-32790000D02*
X30250000Y-32790000D01*
G04 #@! TO.N,Net-(J2-Pad3)*
X58699700Y-66920000D02*
X52509700Y-60730000D01*
X52509700Y-60730000D02*
X41620000Y-60730000D01*
X60250000Y-66920000D02*
X58699700Y-66920000D01*
G04 #@! TO.N,Net-(J3-Pad3)*
X34000000Y-35330000D02*
X30250000Y-35330000D01*
G04 #@! TO.N,Net-(J3-Pad4)*
X34000000Y-37870000D02*
X30250000Y-37870000D01*
X42133502Y-85120000D02*
X42163502Y-85150000D01*
X40790000Y-85120000D02*
X42133502Y-85120000D01*
X42163502Y-85150000D02*
X44250000Y-85150000D01*
X44250000Y-85150000D02*
X44250000Y-85150000D01*
X29047919Y-37870000D02*
X27567919Y-39350000D01*
X30250000Y-37870000D02*
X29047919Y-37870000D01*
X27567919Y-39350000D02*
X25550000Y-39350000D01*
X25550000Y-39350000D02*
X25550000Y-39350000D01*
G04 #@! TO.N,Net-(J3-Pad5)*
X34000000Y-40410000D02*
X30250000Y-40410000D01*
G04 #@! TO.N,Net-(J3-Pad6)*
X34000000Y-42950000D02*
X30250000Y-42950000D01*
G04 #@! TO.N,Net-(C3-Pad2)*
X44195000Y-48030000D02*
X44450000Y-47775000D01*
X41620000Y-48030000D02*
X44195000Y-48030000D01*
G04 #@! TO.N,Net-(J1-Pad1)*
X59050000Y-49650000D02*
X60300000Y-49650000D01*
X44020000Y-43750000D02*
X53150000Y-43750000D01*
X53150000Y-43750000D02*
X59050000Y-49650000D01*
X41620000Y-42950000D02*
X43220000Y-42950000D01*
X43220000Y-42950000D02*
X44020000Y-43750000D01*
G04 #@! TO.N,Net-(J1-Pad2)*
X43220000Y-40410000D02*
X44860000Y-42050000D01*
X41620000Y-40410000D02*
X43220000Y-40410000D01*
X55240000Y-42050000D02*
X60300000Y-47110000D01*
X44860000Y-42050000D02*
X55240000Y-42050000D01*
G04 #@! TO.N,Net-(J1-Pad3)*
X45950000Y-40350000D02*
X56080000Y-40350000D01*
X41620000Y-37870000D02*
X43470000Y-37870000D01*
X56080000Y-40350000D02*
X60300000Y-44570000D01*
X43470000Y-37870000D02*
X45950000Y-40350000D01*
G04 #@! TO.N,Net-(J1-Pad5)*
X59097919Y-39490000D02*
X60300000Y-39490000D01*
X49700000Y-38650000D02*
X58257919Y-38650000D01*
X58257919Y-38650000D02*
X59097919Y-39490000D01*
X41620000Y-32790000D02*
X43840000Y-32790000D01*
X43840000Y-32790000D02*
X49700000Y-38650000D01*
G04 #@! TO.N,Net-(J2-Pad1)*
X34000000Y-64470000D02*
X37000000Y-67470000D01*
X34000000Y-63270000D02*
X34000000Y-64470000D01*
X37000000Y-67470000D02*
X37000000Y-67470000D01*
X43750000Y-68500000D02*
X43750000Y-68500000D01*
X45000000Y-69750000D02*
X43750000Y-68500000D01*
X47750000Y-76000000D02*
X45000000Y-73250000D01*
X57500000Y-76000000D02*
X47750000Y-76000000D01*
X45000000Y-73250000D02*
X45000000Y-69750000D01*
X60250000Y-72000000D02*
X60250000Y-73250000D01*
X60250000Y-73250000D02*
X57500000Y-76000000D01*
G04 #@! TO.N,Net-(J1-Pad6)*
X59097919Y-36950000D02*
X60300000Y-36950000D01*
X50060678Y-36950000D02*
X59097919Y-36950000D01*
X41620000Y-30250000D02*
X43360678Y-30250000D01*
X43360678Y-30250000D02*
X50060678Y-36950000D01*
G04 #@! TO.N,Net-(LED_I1-Pad2)*
X28225000Y-68300000D02*
X29625000Y-66900000D01*
X26940000Y-68300000D02*
X28225000Y-68300000D01*
G04 #@! TO.N,Net-(R7-Pad1)*
X43220000Y-35330000D02*
X45100000Y-36950000D01*
X41620000Y-35330000D02*
X43220000Y-35330000D01*
X44840000Y-36950000D02*
X45100000Y-36950000D01*
X58350000Y-32350000D02*
X56850000Y-33850000D01*
X59025000Y-32350000D02*
X58350000Y-32350000D01*
X56850000Y-33850000D02*
X56850000Y-35000000D01*
X56850000Y-35000000D02*
X56850000Y-35000000D01*
X45100000Y-36950000D02*
X44840000Y-36950000D01*
G04 #@! TO.N,Net-(J5-Pad3)*
X63750000Y-26770000D02*
X55350000Y-26770000D01*
X54650000Y-26350000D02*
X54750000Y-26450000D01*
X54650000Y-26570000D02*
X54450000Y-26770000D01*
X54650000Y-26350000D02*
X54650000Y-26570000D01*
X54450000Y-26770000D02*
X54120000Y-26770000D01*
X50250000Y-21100000D02*
X50750000Y-21100000D01*
X50250000Y-21100000D02*
X53100000Y-21100000D01*
X48450000Y-21100000D02*
X50250000Y-21100000D01*
X53250000Y-29850000D02*
X53150000Y-29850000D01*
X46200000Y-21100000D02*
X53550000Y-28450000D01*
X53550000Y-29550000D02*
X53250000Y-29850000D01*
X53150000Y-29850000D02*
X45350000Y-22050000D01*
X45350000Y-21950000D02*
X46200000Y-21100000D01*
X45350000Y-22050000D02*
X45350000Y-21950000D01*
X53550000Y-28450000D02*
X53550000Y-29550000D01*
X54120000Y-27880000D02*
X53550000Y-28450000D01*
X53150000Y-31600000D02*
X53100000Y-31650000D01*
X53150000Y-29850000D02*
X53150000Y-31600000D01*
X53100000Y-31450000D02*
X53100000Y-31650000D01*
X45350000Y-22050000D02*
X45350000Y-23700000D01*
X52700000Y-32600000D02*
X52350000Y-32600000D01*
X53100000Y-31650000D02*
X53100000Y-32200000D01*
X50750000Y-21100000D02*
X54450000Y-24800000D01*
X52450000Y-21100000D02*
X46650000Y-26900000D01*
X53100000Y-21100000D02*
X52450000Y-21100000D01*
X48150000Y-27550000D02*
X53850000Y-21850000D01*
X47300000Y-27550000D02*
X48150000Y-27550000D01*
X53850000Y-21850000D02*
X54650000Y-22650000D01*
X52350000Y-32600000D02*
X47300000Y-27550000D01*
X46650000Y-26900000D02*
X46650000Y-29200000D01*
X50050000Y-32600000D02*
X52700000Y-32600000D01*
X48850000Y-30800000D02*
X53500000Y-26150000D01*
X48250000Y-30800000D02*
X48850000Y-30800000D01*
X53500000Y-26150000D02*
X48450000Y-21100000D01*
X54120000Y-26770000D02*
X53500000Y-26150000D01*
X49550000Y-32020000D02*
X54120000Y-27450000D01*
X49550000Y-32100000D02*
X49550000Y-32020000D01*
X54120000Y-27450000D02*
X54120000Y-27880000D01*
X54120000Y-26770000D02*
X54120000Y-27450000D01*
X49550000Y-32100000D02*
X50050000Y-32600000D01*
X45900000Y-25450000D02*
X50250000Y-21100000D01*
X45900000Y-26150000D02*
X45900000Y-25450000D01*
X45900000Y-26150000D02*
X45350000Y-25600000D01*
X46650000Y-26900000D02*
X45900000Y-26150000D01*
X45600000Y-23950000D02*
X48450000Y-21100000D01*
X45600000Y-23950000D02*
X53100000Y-31450000D01*
X45350000Y-23700000D02*
X45600000Y-23950000D01*
X47600000Y-29950000D02*
X54650000Y-22900000D01*
X54650000Y-22650000D02*
X54650000Y-22900000D01*
X47400000Y-29950000D02*
X48250000Y-30800000D01*
X47400000Y-29950000D02*
X47600000Y-29950000D01*
X46650000Y-29200000D02*
X47400000Y-29950000D01*
X53500000Y-26150000D02*
X53550000Y-26150000D01*
X53550000Y-26150000D02*
X54650000Y-25050000D01*
X54650000Y-22900000D02*
X54650000Y-25050000D01*
X55230000Y-26770000D02*
X55350000Y-26770000D01*
X55120000Y-26770000D02*
X55350000Y-26770000D01*
X54650000Y-26350000D02*
X54700000Y-26350000D01*
X54700000Y-26350000D02*
X55120000Y-26770000D01*
X54120000Y-27450000D02*
X54800000Y-26770000D01*
X55350000Y-26770000D02*
X54800000Y-26770000D01*
X54800000Y-26770000D02*
X54450000Y-26770000D01*
X62930000Y-25950000D02*
X63750000Y-26770000D01*
X54650000Y-25950000D02*
X54650000Y-26350000D01*
X54650000Y-25050000D02*
X54650000Y-25950000D01*
X63070000Y-27450000D02*
X63750000Y-26770000D01*
X54550000Y-27450000D02*
X55230000Y-26770000D01*
X54120000Y-27880000D02*
X54550000Y-27450000D01*
X56000000Y-27350000D02*
X56100000Y-27450000D01*
X56000000Y-25950000D02*
X56000000Y-27350000D01*
X54550000Y-27450000D02*
X56100000Y-27450000D01*
X54650000Y-25950000D02*
X56000000Y-25950000D01*
X57450000Y-25950000D02*
X57450000Y-27400000D01*
X57450000Y-27400000D02*
X57400000Y-27450000D01*
X56100000Y-27450000D02*
X57400000Y-27450000D01*
X56000000Y-25950000D02*
X57450000Y-25950000D01*
X59050000Y-25950000D02*
X59050000Y-27200000D01*
X57450000Y-25950000D02*
X59050000Y-25950000D01*
X60350000Y-27400000D02*
X60400000Y-27450000D01*
X57400000Y-27450000D02*
X60400000Y-27450000D01*
X60350000Y-25950000D02*
X60350000Y-27400000D01*
X59050000Y-25950000D02*
X60350000Y-25950000D01*
X61550000Y-27350000D02*
X61650000Y-27450000D01*
X61550000Y-25950000D02*
X61550000Y-27350000D01*
X60400000Y-27450000D02*
X61650000Y-27450000D01*
X60350000Y-25950000D02*
X61550000Y-25950000D01*
X62300000Y-27400000D02*
X62250000Y-27450000D01*
X62250000Y-27450000D02*
X63070000Y-27450000D01*
X62300000Y-25950000D02*
X62930000Y-25950000D01*
X62300000Y-25950000D02*
X62300000Y-27400000D01*
X61650000Y-27450000D02*
X62250000Y-27450000D01*
X61550000Y-25950000D02*
X62300000Y-25950000D01*
X53100000Y-21100000D02*
X53400000Y-21400000D01*
D34*
X50650000Y-24150000D02*
X53400000Y-21400000D01*
X50500000Y-24150000D02*
X50650000Y-24150000D01*
D27*
X53400000Y-21400000D02*
X53850000Y-21850000D01*
D34*
X50300000Y-24150000D02*
X47100000Y-27350000D01*
X50500000Y-24150000D02*
X50300000Y-24150000D01*
D27*
X47300000Y-27550000D02*
X47100000Y-27350000D01*
X47100000Y-27350000D02*
X46650000Y-26900000D01*
D34*
X49050000Y-31600000D02*
X50500000Y-30150000D01*
D27*
X49050000Y-31600000D02*
X49550000Y-32100000D01*
X48250000Y-30800000D02*
X49050000Y-31600000D01*
D34*
X50500000Y-30100000D02*
X54650000Y-25950000D01*
X50500000Y-30150000D02*
X50500000Y-30100000D01*
X47450000Y-21100000D02*
X50500000Y-24150000D01*
X47250000Y-21100000D02*
X47450000Y-21100000D01*
D27*
X47250000Y-21100000D02*
X46200000Y-21100000D01*
X48450000Y-21100000D02*
X47250000Y-21100000D01*
D34*
X50500000Y-24260000D02*
X54120000Y-27880000D01*
X50500000Y-24150000D02*
X50500000Y-24260000D01*
X50500000Y-29800000D02*
X45350000Y-24650000D01*
X50500000Y-30150000D02*
X50500000Y-29800000D01*
D27*
X45350000Y-25600000D02*
X45350000Y-24650000D01*
X45350000Y-24650000D02*
X45350000Y-23600000D01*
D34*
X50750000Y-30150000D02*
X52950000Y-32350000D01*
X50500000Y-30150000D02*
X50750000Y-30150000D01*
D27*
X53100000Y-32200000D02*
X52950000Y-32350000D01*
X52950000Y-32350000D02*
X52700000Y-32600000D01*
G04 #@! TD*
M02*
