M48
;DRILL file {KiCad 5.0.2-bee76a0~70~ubuntu18.04.1} date Tue 08 Jan 2019 01:34:56 PM EST
;FORMAT={3:3/ absolute / metric / suppress leading zeros}
FMAT,2
METRIC,TZ
T1C0.300
T2C0.400
T3C0.800
T4C0.900
T5C1.000
T6C1.700
T7C3.000
%
G90
G05
T1
X44850Y-60550
X46702Y-65834
X46839Y-65034
X48778Y-69161
X49237Y-70067
X49841Y-68605
X50850Y-73458
X51461Y-68570
X51698Y-66928
X51757Y-73474
X52600Y-65399
X53278Y-78537
X54671Y-78124
X57701Y-72950
T2
X43950Y-67241
X47205Y-46044
X51680Y-57510
X51849Y-66026
X55302Y-68354
T3
X39175Y-49530
X39175Y-54410
X39800Y-82700
X41800Y-82700
T4
X37035Y-59875
X39575Y-59875
T5
X64900Y-43120
X64900Y-45660
X64900Y-48200
X37900Y-21200
X37900Y-23740
X37900Y-26280
X37900Y-28820
X40440Y-21200
X40440Y-23740
X40440Y-26280
X40440Y-28820
X57900Y-51950
X57900Y-54490
X57900Y-57030
X57900Y-59570
X57900Y-62110
X57900Y-64650
X60650Y-43160
X60650Y-45700
X57900Y-43160
X57900Y-45700
X63975Y-74753
X63975Y-77293
X63975Y-79833
X63975Y-82373
X63975Y-84913
X63975Y-87453
X60650Y-51950
X60650Y-54490
X60650Y-57030
X60650Y-59570
X60650Y-62110
X60650Y-64650
X41150Y-65987
X41150Y-68527
X41150Y-71067
X41150Y-73607
X41150Y-76147
X41150Y-78687
X61225Y-74753
X61225Y-77293
X61225Y-79833
X61225Y-82373
X61225Y-84913
X61225Y-87453
X64900Y-51950
X64900Y-54490
X64900Y-57030
X64900Y-59570
X38463Y-66000
X38463Y-68540
X38463Y-71080
X38463Y-73620
X38463Y-76160
X38463Y-78700
X58475Y-74753
X58475Y-77293
X58475Y-79833
X58475Y-82373
X58475Y-84913
X58475Y-87453
X58666Y-67700
X58666Y-70240
X61206Y-67700
X61206Y-70240
X63746Y-67700
X63746Y-70240
T6
X49600Y-39550
X49600Y-45550
X49600Y-80100
X49600Y-86100
T7
X37900Y-87700
X63900Y-37700
T0
M30
