G04 #@! TF.GenerationSoftware,KiCad,Pcbnew,5.0.2-bee76a0~70~ubuntu18.04.1*
G04 #@! TF.CreationDate,2019-01-08T13:34:53-05:00*
G04 #@! TF.ProjectId,samn_small,73616d6e-5f73-46d6-916c-6c2e6b696361,7*
G04 #@! TF.SameCoordinates,Original*
G04 #@! TF.FileFunction,Legend,Bot*
G04 #@! TF.FilePolarity,Positive*
%FSLAX46Y46*%
G04 Gerber Fmt 4.6, Leading zero omitted, Abs format (unit mm)*
G04 Created by KiCad (PCBNEW 5.0.2-bee76a0~70~ubuntu18.04.1) date Tue 08 Jan 2019 01:34:53 PM EST*
%MOMM*%
%LPD*%
G01*
G04 APERTURE LIST*
%ADD10C,0.150000*%
%ADD11C,0.120000*%
G04 APERTURE END LIST*
D10*
G04 #@! TO.C,U2*
X53275000Y-64500000D02*
X54700000Y-64500000D01*
X46025000Y-64275000D02*
X46350000Y-64275000D01*
X46025000Y-71525000D02*
X46350000Y-71525000D01*
X53275000Y-71525000D02*
X52950000Y-71525000D01*
X53275000Y-64275000D02*
X52950000Y-64275000D01*
X53275000Y-71525000D02*
X53275000Y-71200000D01*
X46025000Y-71525000D02*
X46025000Y-71200000D01*
X46025000Y-64275000D02*
X46025000Y-64600000D01*
X53275000Y-64275000D02*
X53275000Y-64500000D01*
D11*
G04 #@! TO.C,R7*
X46940000Y-60211252D02*
X46940000Y-59688748D01*
X48360000Y-60211252D02*
X48360000Y-59688748D01*
G04 #@! TO.C,C2*
X47110000Y-42688748D02*
X47110000Y-43211252D01*
X45690000Y-42688748D02*
X45690000Y-43211252D01*
G04 #@! TO.C,C3*
X45860000Y-73438748D02*
X45860000Y-73961252D01*
X44440000Y-73438748D02*
X44440000Y-73961252D01*
G04 #@! TO.C,C5*
X41615000Y-48016252D02*
X41615000Y-47493748D01*
X43035000Y-48016252D02*
X43035000Y-47493748D01*
G04 #@! TO.C,C6*
X43035000Y-55693748D02*
X43035000Y-56216252D01*
X41615000Y-55693748D02*
X41615000Y-56216252D01*
G04 #@! TO.C,C1*
X44860000Y-40688748D02*
X44860000Y-41211252D01*
X43440000Y-40688748D02*
X43440000Y-41211252D01*
G04 #@! TO.C,U1*
X41903200Y-35957800D02*
X44853200Y-35957800D01*
X43703200Y-39177800D02*
X41903200Y-39177800D01*
G04 #@! TO.C,R4*
X41690000Y-60461252D02*
X41690000Y-59938748D01*
X43110000Y-60461252D02*
X43110000Y-59938748D01*
G04 #@! TO.C,R1*
X40690000Y-41211252D02*
X40690000Y-40688748D01*
X42110000Y-41211252D02*
X42110000Y-40688748D01*
G04 #@! TO.C,R2*
X42638748Y-43240000D02*
X43161252Y-43240000D01*
X42638748Y-44660000D02*
X43161252Y-44660000D01*
G04 #@! TO.C,R5*
X50860000Y-59688748D02*
X50860000Y-60211252D01*
X49440000Y-59688748D02*
X49440000Y-60211252D01*
G04 #@! TO.C,R6*
X43035000Y-51593748D02*
X43035000Y-52116252D01*
X41615000Y-51593748D02*
X41615000Y-52116252D01*
G04 #@! TO.C,L1*
D10*
X51852380Y-36283333D02*
X51852380Y-35807142D01*
X50852380Y-35807142D01*
X51852380Y-37140476D02*
X51852380Y-36569047D01*
X51852380Y-36854761D02*
X50852380Y-36854761D01*
X50995238Y-36759523D01*
X51090476Y-36664285D01*
X51138095Y-36569047D01*
G04 #@! TO.C,U2*
X55161904Y-62902380D02*
X55161904Y-63711904D01*
X55114285Y-63807142D01*
X55066666Y-63854761D01*
X54971428Y-63902380D01*
X54780952Y-63902380D01*
X54685714Y-63854761D01*
X54638095Y-63807142D01*
X54590476Y-63711904D01*
X54590476Y-62902380D01*
X54161904Y-62997619D02*
X54114285Y-62950000D01*
X54019047Y-62902380D01*
X53780952Y-62902380D01*
X53685714Y-62950000D01*
X53638095Y-62997619D01*
X53590476Y-63092857D01*
X53590476Y-63188095D01*
X53638095Y-63330952D01*
X54209523Y-63902380D01*
X53590476Y-63902380D01*
G04 #@! TO.C,R7*
X46352380Y-60033333D02*
X45876190Y-59700000D01*
X46352380Y-59461904D02*
X45352380Y-59461904D01*
X45352380Y-59842857D01*
X45400000Y-59938095D01*
X45447619Y-59985714D01*
X45542857Y-60033333D01*
X45685714Y-60033333D01*
X45780952Y-59985714D01*
X45828571Y-59938095D01*
X45876190Y-59842857D01*
X45876190Y-59461904D01*
X45352380Y-60366666D02*
X45352380Y-61033333D01*
X46352380Y-60604761D01*
G04 #@! TO.C,C2*
X48507142Y-42533333D02*
X48554761Y-42485714D01*
X48602380Y-42342857D01*
X48602380Y-42247619D01*
X48554761Y-42104761D01*
X48459523Y-42009523D01*
X48364285Y-41961904D01*
X48173809Y-41914285D01*
X48030952Y-41914285D01*
X47840476Y-41961904D01*
X47745238Y-42009523D01*
X47650000Y-42104761D01*
X47602380Y-42247619D01*
X47602380Y-42342857D01*
X47650000Y-42485714D01*
X47697619Y-42533333D01*
X47697619Y-42914285D02*
X47650000Y-42961904D01*
X47602380Y-43057142D01*
X47602380Y-43295238D01*
X47650000Y-43390476D01*
X47697619Y-43438095D01*
X47792857Y-43485714D01*
X47888095Y-43485714D01*
X48030952Y-43438095D01*
X48602380Y-42866666D01*
X48602380Y-43485714D01*
G04 #@! TO.C,C3*
X43857142Y-73533333D02*
X43904761Y-73485714D01*
X43952380Y-73342857D01*
X43952380Y-73247619D01*
X43904761Y-73104761D01*
X43809523Y-73009523D01*
X43714285Y-72961904D01*
X43523809Y-72914285D01*
X43380952Y-72914285D01*
X43190476Y-72961904D01*
X43095238Y-73009523D01*
X43000000Y-73104761D01*
X42952380Y-73247619D01*
X42952380Y-73342857D01*
X43000000Y-73485714D01*
X43047619Y-73533333D01*
X42952380Y-73866666D02*
X42952380Y-74485714D01*
X43333333Y-74152380D01*
X43333333Y-74295238D01*
X43380952Y-74390476D01*
X43428571Y-74438095D01*
X43523809Y-74485714D01*
X43761904Y-74485714D01*
X43857142Y-74438095D01*
X43904761Y-74390476D01*
X43952380Y-74295238D01*
X43952380Y-74009523D01*
X43904761Y-73914285D01*
X43857142Y-73866666D01*
G04 #@! TO.C,C5*
X40932142Y-47783333D02*
X40979761Y-47735714D01*
X41027380Y-47592857D01*
X41027380Y-47497619D01*
X40979761Y-47354761D01*
X40884523Y-47259523D01*
X40789285Y-47211904D01*
X40598809Y-47164285D01*
X40455952Y-47164285D01*
X40265476Y-47211904D01*
X40170238Y-47259523D01*
X40075000Y-47354761D01*
X40027380Y-47497619D01*
X40027380Y-47592857D01*
X40075000Y-47735714D01*
X40122619Y-47783333D01*
X40027380Y-48688095D02*
X40027380Y-48211904D01*
X40503571Y-48164285D01*
X40455952Y-48211904D01*
X40408333Y-48307142D01*
X40408333Y-48545238D01*
X40455952Y-48640476D01*
X40503571Y-48688095D01*
X40598809Y-48735714D01*
X40836904Y-48735714D01*
X40932142Y-48688095D01*
X40979761Y-48640476D01*
X41027380Y-48545238D01*
X41027380Y-48307142D01*
X40979761Y-48211904D01*
X40932142Y-48164285D01*
G04 #@! TO.C,C6*
X41032142Y-55788333D02*
X41079761Y-55740714D01*
X41127380Y-55597857D01*
X41127380Y-55502619D01*
X41079761Y-55359761D01*
X40984523Y-55264523D01*
X40889285Y-55216904D01*
X40698809Y-55169285D01*
X40555952Y-55169285D01*
X40365476Y-55216904D01*
X40270238Y-55264523D01*
X40175000Y-55359761D01*
X40127380Y-55502619D01*
X40127380Y-55597857D01*
X40175000Y-55740714D01*
X40222619Y-55788333D01*
X40127380Y-56645476D02*
X40127380Y-56455000D01*
X40175000Y-56359761D01*
X40222619Y-56312142D01*
X40365476Y-56216904D01*
X40555952Y-56169285D01*
X40936904Y-56169285D01*
X41032142Y-56216904D01*
X41079761Y-56264523D01*
X41127380Y-56359761D01*
X41127380Y-56550238D01*
X41079761Y-56645476D01*
X41032142Y-56693095D01*
X40936904Y-56740714D01*
X40698809Y-56740714D01*
X40603571Y-56693095D01*
X40555952Y-56645476D01*
X40508333Y-56550238D01*
X40508333Y-56359761D01*
X40555952Y-56264523D01*
X40603571Y-56216904D01*
X40698809Y-56169285D01*
G04 #@! TO.C,C1*
X46257142Y-39783333D02*
X46304761Y-39735714D01*
X46352380Y-39592857D01*
X46352380Y-39497619D01*
X46304761Y-39354761D01*
X46209523Y-39259523D01*
X46114285Y-39211904D01*
X45923809Y-39164285D01*
X45780952Y-39164285D01*
X45590476Y-39211904D01*
X45495238Y-39259523D01*
X45400000Y-39354761D01*
X45352380Y-39497619D01*
X45352380Y-39592857D01*
X45400000Y-39735714D01*
X45447619Y-39783333D01*
X46352380Y-40735714D02*
X46352380Y-40164285D01*
X46352380Y-40450000D02*
X45352380Y-40450000D01*
X45495238Y-40354761D01*
X45590476Y-40259523D01*
X45638095Y-40164285D01*
G04 #@! TO.C,U1*
X43411904Y-34652380D02*
X43411904Y-35461904D01*
X43364285Y-35557142D01*
X43316666Y-35604761D01*
X43221428Y-35652380D01*
X43030952Y-35652380D01*
X42935714Y-35604761D01*
X42888095Y-35557142D01*
X42840476Y-35461904D01*
X42840476Y-34652380D01*
X41840476Y-35652380D02*
X42411904Y-35652380D01*
X42126190Y-35652380D02*
X42126190Y-34652380D01*
X42221428Y-34795238D01*
X42316666Y-34890476D01*
X42411904Y-34938095D01*
G04 #@! TO.C,R4*
X42852380Y-62783333D02*
X42376190Y-62450000D01*
X42852380Y-62211904D02*
X41852380Y-62211904D01*
X41852380Y-62592857D01*
X41900000Y-62688095D01*
X41947619Y-62735714D01*
X42042857Y-62783333D01*
X42185714Y-62783333D01*
X42280952Y-62735714D01*
X42328571Y-62688095D01*
X42376190Y-62592857D01*
X42376190Y-62211904D01*
X42185714Y-63640476D02*
X42852380Y-63640476D01*
X41804761Y-63402380D02*
X42519047Y-63164285D01*
X42519047Y-63783333D01*
G04 #@! TO.C,R1*
X40102380Y-40783333D02*
X39626190Y-40450000D01*
X40102380Y-40211904D02*
X39102380Y-40211904D01*
X39102380Y-40592857D01*
X39150000Y-40688095D01*
X39197619Y-40735714D01*
X39292857Y-40783333D01*
X39435714Y-40783333D01*
X39530952Y-40735714D01*
X39578571Y-40688095D01*
X39626190Y-40592857D01*
X39626190Y-40211904D01*
X40102380Y-41735714D02*
X40102380Y-41164285D01*
X40102380Y-41450000D02*
X39102380Y-41450000D01*
X39245238Y-41354761D01*
X39340476Y-41259523D01*
X39388095Y-41164285D01*
G04 #@! TO.C,R2*
X40316666Y-44402380D02*
X40650000Y-43926190D01*
X40888095Y-44402380D02*
X40888095Y-43402380D01*
X40507142Y-43402380D01*
X40411904Y-43450000D01*
X40364285Y-43497619D01*
X40316666Y-43592857D01*
X40316666Y-43735714D01*
X40364285Y-43830952D01*
X40411904Y-43878571D01*
X40507142Y-43926190D01*
X40888095Y-43926190D01*
X39935714Y-43497619D02*
X39888095Y-43450000D01*
X39792857Y-43402380D01*
X39554761Y-43402380D01*
X39459523Y-43450000D01*
X39411904Y-43497619D01*
X39364285Y-43592857D01*
X39364285Y-43688095D01*
X39411904Y-43830952D01*
X39983333Y-44402380D01*
X39364285Y-44402380D01*
G04 #@! TO.C,R5*
X52602380Y-60033333D02*
X52126190Y-59700000D01*
X52602380Y-59461904D02*
X51602380Y-59461904D01*
X51602380Y-59842857D01*
X51650000Y-59938095D01*
X51697619Y-59985714D01*
X51792857Y-60033333D01*
X51935714Y-60033333D01*
X52030952Y-59985714D01*
X52078571Y-59938095D01*
X52126190Y-59842857D01*
X52126190Y-59461904D01*
X51602380Y-60938095D02*
X51602380Y-60461904D01*
X52078571Y-60414285D01*
X52030952Y-60461904D01*
X51983333Y-60557142D01*
X51983333Y-60795238D01*
X52030952Y-60890476D01*
X52078571Y-60938095D01*
X52173809Y-60985714D01*
X52411904Y-60985714D01*
X52507142Y-60938095D01*
X52554761Y-60890476D01*
X52602380Y-60795238D01*
X52602380Y-60557142D01*
X52554761Y-60461904D01*
X52507142Y-60414285D01*
G04 #@! TO.C,R6*
X41177380Y-51788333D02*
X40701190Y-51455000D01*
X41177380Y-51216904D02*
X40177380Y-51216904D01*
X40177380Y-51597857D01*
X40225000Y-51693095D01*
X40272619Y-51740714D01*
X40367857Y-51788333D01*
X40510714Y-51788333D01*
X40605952Y-51740714D01*
X40653571Y-51693095D01*
X40701190Y-51597857D01*
X40701190Y-51216904D01*
X40177380Y-52645476D02*
X40177380Y-52455000D01*
X40225000Y-52359761D01*
X40272619Y-52312142D01*
X40415476Y-52216904D01*
X40605952Y-52169285D01*
X40986904Y-52169285D01*
X41082142Y-52216904D01*
X41129761Y-52264523D01*
X41177380Y-52359761D01*
X41177380Y-52550238D01*
X41129761Y-52645476D01*
X41082142Y-52693095D01*
X40986904Y-52740714D01*
X40748809Y-52740714D01*
X40653571Y-52693095D01*
X40605952Y-52645476D01*
X40558333Y-52550238D01*
X40558333Y-52359761D01*
X40605952Y-52264523D01*
X40653571Y-52216904D01*
X40748809Y-52169285D01*
G04 #@! TD*
M02*
