G04 #@! TF.GenerationSoftware,KiCad,Pcbnew,5.0.2-bee76a0~70~ubuntu18.04.1*
G04 #@! TF.CreationDate,2019-01-08T13:34:53-05:00*
G04 #@! TF.ProjectId,samn_small,73616d6e-5f73-46d6-916c-6c2e6b696361,7*
G04 #@! TF.SameCoordinates,Original*
G04 #@! TF.FileFunction,Legend,Top*
G04 #@! TF.FilePolarity,Positive*
%FSLAX46Y46*%
G04 Gerber Fmt 4.6, Leading zero omitted, Abs format (unit mm)*
G04 Created by KiCad (PCBNEW 5.0.2-bee76a0~70~ubuntu18.04.1) date Tue 08 Jan 2019 01:34:53 PM EST*
%MOMM*%
%LPD*%
G01*
G04 APERTURE LIST*
%ADD10C,0.150000*%
%ADD11C,0.200000*%
%ADD12C,0.160000*%
%ADD13C,0.300000*%
%ADD14C,0.120000*%
G04 APERTURE END LIST*
D10*
X43483333Y-67223809D02*
X43483333Y-67700000D01*
X43197619Y-67128571D02*
X44197619Y-67461904D01*
X43197619Y-67795238D01*
X43864285Y-68128571D02*
X43197619Y-68128571D01*
X43769047Y-68128571D02*
X43816666Y-68176190D01*
X43864285Y-68271428D01*
X43864285Y-68414285D01*
X43816666Y-68509523D01*
X43721428Y-68557142D01*
X43197619Y-68557142D01*
X43197619Y-69461904D02*
X43721428Y-69461904D01*
X43816666Y-69414285D01*
X43864285Y-69319047D01*
X43864285Y-69128571D01*
X43816666Y-69033333D01*
X43245238Y-69461904D02*
X43197619Y-69366666D01*
X43197619Y-69128571D01*
X43245238Y-69033333D01*
X43340476Y-68985714D01*
X43435714Y-68985714D01*
X43530952Y-69033333D01*
X43578571Y-69128571D01*
X43578571Y-69366666D01*
X43626190Y-69461904D01*
X43197619Y-70080952D02*
X43245238Y-69985714D01*
X43340476Y-69938095D01*
X44197619Y-69938095D01*
X43197619Y-70604761D02*
X43245238Y-70509523D01*
X43292857Y-70461904D01*
X43388095Y-70414285D01*
X43673809Y-70414285D01*
X43769047Y-70461904D01*
X43816666Y-70509523D01*
X43864285Y-70604761D01*
X43864285Y-70747619D01*
X43816666Y-70842857D01*
X43769047Y-70890476D01*
X43673809Y-70938095D01*
X43388095Y-70938095D01*
X43292857Y-70890476D01*
X43245238Y-70842857D01*
X43197619Y-70747619D01*
X43197619Y-70604761D01*
X43864285Y-71795238D02*
X43054761Y-71795238D01*
X42959523Y-71747619D01*
X42911904Y-71700000D01*
X42864285Y-71604761D01*
X42864285Y-71461904D01*
X42911904Y-71366666D01*
X43245238Y-71795238D02*
X43197619Y-71700000D01*
X43197619Y-71509523D01*
X43245238Y-71414285D01*
X43292857Y-71366666D01*
X43388095Y-71319047D01*
X43673809Y-71319047D01*
X43769047Y-71366666D01*
X43816666Y-71414285D01*
X43864285Y-71509523D01*
X43864285Y-71700000D01*
X43816666Y-71795238D01*
X43197619Y-73033333D02*
X44197619Y-73033333D01*
X43864285Y-73509523D02*
X43197619Y-73509523D01*
X43769047Y-73509523D02*
X43816666Y-73557142D01*
X43864285Y-73652380D01*
X43864285Y-73795238D01*
X43816666Y-73890476D01*
X43721428Y-73938095D01*
X43197619Y-73938095D01*
X43864285Y-74414285D02*
X42864285Y-74414285D01*
X43816666Y-74414285D02*
X43864285Y-74509523D01*
X43864285Y-74700000D01*
X43816666Y-74795238D01*
X43769047Y-74842857D01*
X43673809Y-74890476D01*
X43388095Y-74890476D01*
X43292857Y-74842857D01*
X43245238Y-74795238D01*
X43197619Y-74700000D01*
X43197619Y-74509523D01*
X43245238Y-74414285D01*
X43864285Y-75747619D02*
X43197619Y-75747619D01*
X43864285Y-75319047D02*
X43340476Y-75319047D01*
X43245238Y-75366666D01*
X43197619Y-75461904D01*
X43197619Y-75604761D01*
X43245238Y-75700000D01*
X43292857Y-75747619D01*
X43864285Y-76080952D02*
X43864285Y-76461904D01*
X44197619Y-76223809D02*
X43340476Y-76223809D01*
X43245238Y-76271428D01*
X43197619Y-76366666D01*
X43197619Y-76461904D01*
X43245238Y-76747619D02*
X43197619Y-76842857D01*
X43197619Y-77033333D01*
X43245238Y-77128571D01*
X43340476Y-77176190D01*
X43388095Y-77176190D01*
X43483333Y-77128571D01*
X43530952Y-77033333D01*
X43530952Y-76890476D01*
X43578571Y-76795238D01*
X43673809Y-76747619D01*
X43721428Y-76747619D01*
X43816666Y-76795238D01*
X43864285Y-76890476D01*
X43864285Y-77033333D01*
X43816666Y-77128571D01*
X40650000Y-62950000D02*
X41150000Y-62950000D01*
X38400000Y-62950000D02*
X39150000Y-62950000D01*
X38400000Y-62950000D02*
X38400000Y-64950000D01*
X41150000Y-62950000D02*
X41150000Y-64950000D01*
X40209523Y-63307142D02*
X40161904Y-63354761D01*
X40019047Y-63402380D01*
X39923809Y-63402380D01*
X39780952Y-63354761D01*
X39685714Y-63259523D01*
X39638095Y-63164285D01*
X39590476Y-62973809D01*
X39590476Y-62830952D01*
X39638095Y-62640476D01*
X39685714Y-62545238D01*
X39780952Y-62450000D01*
X39923809Y-62402380D01*
X40019047Y-62402380D01*
X40161904Y-62450000D01*
X40209523Y-62497619D01*
X36278690Y-77902380D02*
X36373928Y-77902380D01*
X36469166Y-77950000D01*
X36516785Y-77997619D01*
X36564404Y-78092857D01*
X36612023Y-78283333D01*
X36612023Y-78521428D01*
X36564404Y-78711904D01*
X36516785Y-78807142D01*
X36469166Y-78854761D01*
X36373928Y-78902380D01*
X36278690Y-78902380D01*
X36183452Y-78854761D01*
X36135833Y-78807142D01*
X36088214Y-78711904D01*
X36040595Y-78521428D01*
X36040595Y-78283333D01*
X36088214Y-78092857D01*
X36135833Y-77997619D01*
X36183452Y-77950000D01*
X36278690Y-77902380D01*
X36612023Y-76402380D02*
X36040595Y-76402380D01*
X36326309Y-76402380D02*
X36326309Y-75402380D01*
X36231071Y-75545238D01*
X36135833Y-75640476D01*
X36040595Y-75688095D01*
X36040595Y-72997619D02*
X36088214Y-72950000D01*
X36183452Y-72902380D01*
X36421547Y-72902380D01*
X36516785Y-72950000D01*
X36564404Y-72997619D01*
X36612023Y-73092857D01*
X36612023Y-73188095D01*
X36564404Y-73330952D01*
X35992976Y-73902380D01*
X36612023Y-73902380D01*
X35992976Y-70402380D02*
X36612023Y-70402380D01*
X36278690Y-70783333D01*
X36421547Y-70783333D01*
X36516785Y-70830952D01*
X36564404Y-70878571D01*
X36612023Y-70973809D01*
X36612023Y-71211904D01*
X36564404Y-71307142D01*
X36516785Y-71354761D01*
X36421547Y-71402380D01*
X36135833Y-71402380D01*
X36040595Y-71354761D01*
X35992976Y-71307142D01*
X36516785Y-68235714D02*
X36516785Y-68902380D01*
X36278690Y-67854761D02*
X36040595Y-68569047D01*
X36659642Y-68569047D01*
X36564404Y-65402380D02*
X36088214Y-65402380D01*
X36040595Y-65878571D01*
X36088214Y-65830952D01*
X36183452Y-65783333D01*
X36421547Y-65783333D01*
X36516785Y-65830952D01*
X36564404Y-65878571D01*
X36612023Y-65973809D01*
X36612023Y-66211904D01*
X36564404Y-66307142D01*
X36516785Y-66354761D01*
X36421547Y-66402380D01*
X36183452Y-66402380D01*
X36088214Y-66354761D01*
X36040595Y-66307142D01*
X55650000Y-89200000D02*
X63900000Y-89200000D01*
X55650000Y-89200000D02*
X55650000Y-88450000D01*
X58400000Y-89200000D02*
X58400000Y-88450000D01*
X63900000Y-89200000D02*
X63900000Y-88450000D01*
X61150000Y-89200000D02*
X61150000Y-88450000D01*
X63687976Y-89497619D02*
X63735595Y-89450000D01*
X63830833Y-89402380D01*
X64068928Y-89402380D01*
X64164166Y-89450000D01*
X64211785Y-89497619D01*
X64259404Y-89592857D01*
X64259404Y-89688095D01*
X64211785Y-89830952D01*
X63640357Y-90402380D01*
X64259404Y-90402380D01*
X61509404Y-90402380D02*
X60937976Y-90402380D01*
X61223690Y-90402380D02*
X61223690Y-89402380D01*
X61128452Y-89545238D01*
X61033214Y-89640476D01*
X60937976Y-89688095D01*
X58426071Y-89402380D02*
X58521309Y-89402380D01*
X58616547Y-89450000D01*
X58664166Y-89497619D01*
X58711785Y-89592857D01*
X58759404Y-89783333D01*
X58759404Y-90021428D01*
X58711785Y-90211904D01*
X58664166Y-90307142D01*
X58616547Y-90354761D01*
X58521309Y-90402380D01*
X58426071Y-90402380D01*
X58330833Y-90354761D01*
X58283214Y-90307142D01*
X58235595Y-90211904D01*
X58187976Y-90021428D01*
X58187976Y-89783333D01*
X58235595Y-89592857D01*
X58283214Y-89497619D01*
X58330833Y-89450000D01*
X58426071Y-89402380D01*
X55818928Y-87628571D02*
X55961785Y-87676190D01*
X56009404Y-87723809D01*
X56057023Y-87819047D01*
X56057023Y-87961904D01*
X56009404Y-88057142D01*
X55961785Y-88104761D01*
X55866547Y-88152380D01*
X55485595Y-88152380D01*
X55485595Y-87152380D01*
X55818928Y-87152380D01*
X55914166Y-87200000D01*
X55961785Y-87247619D01*
X56009404Y-87342857D01*
X56009404Y-87438095D01*
X55961785Y-87533333D01*
X55914166Y-87580952D01*
X55818928Y-87628571D01*
X55485595Y-87628571D01*
X66057023Y-70902380D02*
X65723690Y-70426190D01*
X65485595Y-70902380D02*
X65485595Y-69902380D01*
X65866547Y-69902380D01*
X65961785Y-69950000D01*
X66009404Y-69997619D01*
X66057023Y-70092857D01*
X66057023Y-70235714D01*
X66009404Y-70330952D01*
X65961785Y-70378571D01*
X65866547Y-70426190D01*
X65485595Y-70426190D01*
X55671547Y-70902380D02*
X55671547Y-69902380D01*
X56004880Y-70616666D01*
X56338214Y-69902380D01*
X56338214Y-70902380D01*
X56814404Y-70902380D02*
X56814404Y-69902380D01*
X56235595Y-67771428D02*
X56997500Y-67771428D01*
X56616547Y-68152380D02*
X56616547Y-67390476D01*
X66009404Y-67200000D02*
X65914166Y-67152380D01*
X65771309Y-67152380D01*
X65628452Y-67200000D01*
X65533214Y-67295238D01*
X65485595Y-67390476D01*
X65437976Y-67580952D01*
X65437976Y-67723809D01*
X65485595Y-67914285D01*
X65533214Y-68009523D01*
X65628452Y-68104761D01*
X65771309Y-68152380D01*
X65866547Y-68152380D01*
X66009404Y-68104761D01*
X66057023Y-68057142D01*
X66057023Y-67723809D01*
X65866547Y-67723809D01*
X57900000Y-49200000D02*
X57900000Y-50950000D01*
X58650000Y-49200000D02*
X57900000Y-49200000D01*
X60650000Y-49200000D02*
X60650000Y-50950000D01*
X59900000Y-49200000D02*
X60650000Y-49200000D01*
X58985595Y-49652380D02*
X58985595Y-48652380D01*
X59223690Y-48652380D01*
X59366547Y-48700000D01*
X59461785Y-48795238D01*
X59509404Y-48890476D01*
X59557023Y-49080952D01*
X59557023Y-49223809D01*
X59509404Y-49414285D01*
X59461785Y-49509523D01*
X59366547Y-49604761D01*
X59223690Y-49652380D01*
X58985595Y-49652380D01*
X62914166Y-64235714D02*
X62914166Y-64902380D01*
X62676071Y-63854761D02*
X62437976Y-64569047D01*
X63057023Y-64569047D01*
X62390357Y-61402380D02*
X63009404Y-61402380D01*
X62676071Y-61783333D01*
X62818928Y-61783333D01*
X62914166Y-61830952D01*
X62961785Y-61878571D01*
X63009404Y-61973809D01*
X63009404Y-62211904D01*
X62961785Y-62307142D01*
X62914166Y-62354761D01*
X62818928Y-62402380D01*
X62533214Y-62402380D01*
X62437976Y-62354761D01*
X62390357Y-62307142D01*
X62437976Y-58997619D02*
X62485595Y-58950000D01*
X62580833Y-58902380D01*
X62818928Y-58902380D01*
X62914166Y-58950000D01*
X62961785Y-58997619D01*
X63009404Y-59092857D01*
X63009404Y-59188095D01*
X62961785Y-59330952D01*
X62390357Y-59902380D01*
X63009404Y-59902380D01*
X63009404Y-57402380D02*
X62437976Y-57402380D01*
X62723690Y-57402380D02*
X62723690Y-56402380D01*
X62628452Y-56545238D01*
X62533214Y-56640476D01*
X62437976Y-56688095D01*
X62676071Y-53902380D02*
X62771309Y-53902380D01*
X62866547Y-53950000D01*
X62914166Y-53997619D01*
X62961785Y-54092857D01*
X63009404Y-54283333D01*
X63009404Y-54521428D01*
X62961785Y-54711904D01*
X62914166Y-54807142D01*
X62866547Y-54854761D01*
X62771309Y-54902380D01*
X62676071Y-54902380D01*
X62580833Y-54854761D01*
X62533214Y-54807142D01*
X62485595Y-54711904D01*
X62437976Y-54521428D01*
X62437976Y-54283333D01*
X62485595Y-54092857D01*
X62533214Y-53997619D01*
X62580833Y-53950000D01*
X62676071Y-53902380D01*
X63057023Y-52402380D02*
X62723690Y-51926190D01*
X62485595Y-52402380D02*
X62485595Y-51402380D01*
X62866547Y-51402380D01*
X62961785Y-51450000D01*
X63009404Y-51497619D01*
X63057023Y-51592857D01*
X63057023Y-51735714D01*
X63009404Y-51830952D01*
X62961785Y-51878571D01*
X62866547Y-51926190D01*
X62485595Y-51926190D01*
X62839404Y-45200000D02*
X62744166Y-45152380D01*
X62601309Y-45152380D01*
X62458452Y-45200000D01*
X62363214Y-45295238D01*
X62315595Y-45390476D01*
X62267976Y-45580952D01*
X62267976Y-45723809D01*
X62315595Y-45914285D01*
X62363214Y-46009523D01*
X62458452Y-46104761D01*
X62601309Y-46152380D01*
X62696547Y-46152380D01*
X62839404Y-46104761D01*
X62887023Y-46057142D01*
X62887023Y-45723809D01*
X62696547Y-45723809D01*
X56509404Y-45200000D02*
X56414166Y-45152380D01*
X56271309Y-45152380D01*
X56128452Y-45200000D01*
X56033214Y-45295238D01*
X55985595Y-45390476D01*
X55937976Y-45580952D01*
X55937976Y-45723809D01*
X55985595Y-45914285D01*
X56033214Y-46009523D01*
X56128452Y-46104761D01*
X56271309Y-46152380D01*
X56366547Y-46152380D01*
X56509404Y-46104761D01*
X56557023Y-46057142D01*
X56557023Y-45723809D01*
X56366547Y-45723809D01*
X64900000Y-40950000D02*
X64900000Y-41700000D01*
X60650000Y-40950000D02*
X64900000Y-40950000D01*
X60650000Y-41700000D02*
X60650000Y-40950000D01*
X60650000Y-40950000D02*
X60650000Y-41700000D01*
X57900000Y-40950000D02*
X60650000Y-40950000D01*
X57900000Y-41700000D02*
X57900000Y-40950000D01*
X58759404Y-40652380D02*
X58187976Y-40652380D01*
X58473690Y-40652380D02*
X58473690Y-39652380D01*
X58378452Y-39795238D01*
X58283214Y-39890476D01*
X58187976Y-39938095D01*
X59187976Y-40557142D02*
X59235595Y-40604761D01*
X59187976Y-40652380D01*
X59140357Y-40604761D01*
X59187976Y-40557142D01*
X59187976Y-40652380D01*
X60140357Y-39652380D02*
X59664166Y-39652380D01*
X59616547Y-40128571D01*
X59664166Y-40080952D01*
X59759404Y-40033333D01*
X59997500Y-40033333D01*
X60092738Y-40080952D01*
X60140357Y-40128571D01*
X60187976Y-40223809D01*
X60187976Y-40461904D01*
X60140357Y-40557142D01*
X60092738Y-40604761D01*
X59997500Y-40652380D01*
X59759404Y-40652380D01*
X59664166Y-40604761D01*
X59616547Y-40557142D01*
X60473690Y-39652380D02*
X60807023Y-40652380D01*
X61140357Y-39652380D01*
D11*
X65732380Y-87854761D02*
X65869285Y-87902380D01*
X66107380Y-87902380D01*
X66208571Y-87854761D01*
X66262142Y-87807142D01*
X66321666Y-87711904D01*
X66333571Y-87616666D01*
X66297857Y-87521428D01*
X66256190Y-87473809D01*
X66166904Y-87426190D01*
X65982380Y-87378571D01*
X65893095Y-87330952D01*
X65851428Y-87283333D01*
X65815714Y-87188095D01*
X65827619Y-87092857D01*
X65887142Y-86997619D01*
X65940714Y-86950000D01*
X66041904Y-86902380D01*
X66280000Y-86902380D01*
X66416904Y-86950000D01*
D10*
X65926071Y-84152380D02*
X66116547Y-84152380D01*
X66211785Y-84200000D01*
X66307023Y-84295238D01*
X66354642Y-84485714D01*
X66354642Y-84819047D01*
X66307023Y-85009523D01*
X66211785Y-85104761D01*
X66116547Y-85152380D01*
X65926071Y-85152380D01*
X65830833Y-85104761D01*
X65735595Y-85009523D01*
X65687976Y-84819047D01*
X65687976Y-84485714D01*
X65735595Y-84295238D01*
X65830833Y-84200000D01*
X65926071Y-84152380D01*
X65985595Y-82652380D02*
X65985595Y-81652380D01*
X65687976Y-80104761D02*
X65830833Y-80152380D01*
X66068928Y-80152380D01*
X66164166Y-80104761D01*
X66211785Y-80057142D01*
X66259404Y-79961904D01*
X66259404Y-79866666D01*
X66211785Y-79771428D01*
X66164166Y-79723809D01*
X66068928Y-79676190D01*
X65878452Y-79628571D01*
X65783214Y-79580952D01*
X65735595Y-79533333D01*
X65687976Y-79438095D01*
X65687976Y-79342857D01*
X65735595Y-79247619D01*
X65783214Y-79200000D01*
X65878452Y-79152380D01*
X66116547Y-79152380D01*
X66259404Y-79200000D01*
X65735595Y-77271428D02*
X66497500Y-77271428D01*
X66116547Y-77652380D02*
X66116547Y-76890476D01*
X66259404Y-74200000D02*
X66164166Y-74152380D01*
X66021309Y-74152380D01*
X65878452Y-74200000D01*
X65783214Y-74295238D01*
X65735595Y-74390476D01*
X65687976Y-74580952D01*
X65687976Y-74723809D01*
X65735595Y-74914285D01*
X65783214Y-75009523D01*
X65878452Y-75104761D01*
X66021309Y-75152380D01*
X66116547Y-75152380D01*
X66259404Y-75104761D01*
X66307023Y-75057142D01*
X66307023Y-74723809D01*
X66116547Y-74723809D01*
X35891547Y-42527380D02*
X35974880Y-41860714D01*
X35962976Y-41955952D02*
X36016547Y-41908333D01*
X36117738Y-41860714D01*
X36260595Y-41860714D01*
X36349880Y-41908333D01*
X36385595Y-42003571D01*
X36320119Y-42527380D01*
X36385595Y-42003571D02*
X36445119Y-41908333D01*
X36546309Y-41860714D01*
X36689166Y-41860714D01*
X36778452Y-41908333D01*
X36814166Y-42003571D01*
X36748690Y-42527380D01*
X37653452Y-42527380D02*
X37718928Y-42003571D01*
X37683214Y-41908333D01*
X37593928Y-41860714D01*
X37403452Y-41860714D01*
X37302261Y-41908333D01*
X37659404Y-42479761D02*
X37558214Y-42527380D01*
X37320119Y-42527380D01*
X37230833Y-42479761D01*
X37195119Y-42384523D01*
X37207023Y-42289285D01*
X37266547Y-42194047D01*
X37367738Y-42146428D01*
X37605833Y-42146428D01*
X37707023Y-42098809D01*
X38558214Y-42527380D02*
X38683214Y-41527380D01*
X38564166Y-42479761D02*
X38462976Y-42527380D01*
X38272500Y-42527380D01*
X38183214Y-42479761D01*
X38141547Y-42432142D01*
X38105833Y-42336904D01*
X38141547Y-42051190D01*
X38201071Y-41955952D01*
X38254642Y-41908333D01*
X38355833Y-41860714D01*
X38546309Y-41860714D01*
X38635595Y-41908333D01*
X39421309Y-42479761D02*
X39320119Y-42527380D01*
X39129642Y-42527380D01*
X39040357Y-42479761D01*
X39004642Y-42384523D01*
X39052261Y-42003571D01*
X39111785Y-41908333D01*
X39212976Y-41860714D01*
X39403452Y-41860714D01*
X39492738Y-41908333D01*
X39528452Y-42003571D01*
X39516547Y-42098809D01*
X39028452Y-42194047D01*
X40653452Y-42527380D02*
X40778452Y-41527380D01*
X40730833Y-41908333D02*
X40832023Y-41860714D01*
X41022500Y-41860714D01*
X41111785Y-41908333D01*
X41153452Y-41955952D01*
X41189166Y-42051190D01*
X41153452Y-42336904D01*
X41093928Y-42432142D01*
X41040357Y-42479761D01*
X40939166Y-42527380D01*
X40748690Y-42527380D01*
X40659404Y-42479761D01*
X41546309Y-41860714D02*
X41701071Y-42527380D01*
X42022500Y-41860714D02*
X41701071Y-42527380D01*
X41576071Y-42765476D01*
X41522500Y-42813095D01*
X41421309Y-42860714D01*
X36462976Y-44177380D02*
X36189166Y-43701190D01*
X35891547Y-44177380D02*
X36016547Y-43177380D01*
X36397500Y-43177380D01*
X36486785Y-43225000D01*
X36528452Y-43272619D01*
X36564166Y-43367857D01*
X36546309Y-43510714D01*
X36486785Y-43605952D01*
X36433214Y-43653571D01*
X36332023Y-43701190D01*
X35951071Y-43701190D01*
X37403452Y-43510714D02*
X37320119Y-44177380D01*
X36974880Y-43510714D02*
X36909404Y-44034523D01*
X36945119Y-44129761D01*
X37034404Y-44177380D01*
X37177261Y-44177380D01*
X37278452Y-44129761D01*
X37332023Y-44082142D01*
X37796309Y-44177380D02*
X37921309Y-43177380D01*
X37873690Y-43558333D02*
X37974880Y-43510714D01*
X38165357Y-43510714D01*
X38254642Y-43558333D01*
X38296309Y-43605952D01*
X38332023Y-43701190D01*
X38296309Y-43986904D01*
X38236785Y-44082142D01*
X38183214Y-44129761D01*
X38082023Y-44177380D01*
X37891547Y-44177380D01*
X37802261Y-44129761D01*
X39087976Y-44129761D02*
X38986785Y-44177380D01*
X38796309Y-44177380D01*
X38707023Y-44129761D01*
X38671309Y-44034523D01*
X38718928Y-43653571D01*
X38778452Y-43558333D01*
X38879642Y-43510714D01*
X39070119Y-43510714D01*
X39159404Y-43558333D01*
X39195119Y-43653571D01*
X39183214Y-43748809D01*
X38695119Y-43844047D01*
X39641547Y-43510714D02*
X39558214Y-44177380D01*
X39629642Y-43605952D02*
X39683214Y-43558333D01*
X39784404Y-43510714D01*
X39927261Y-43510714D01*
X40016547Y-43558333D01*
X40052261Y-43653571D01*
X39986785Y-44177380D01*
X41224880Y-44177380D02*
X41349880Y-43177380D01*
X41587976Y-43177380D01*
X41724880Y-43225000D01*
X41808214Y-43320238D01*
X41843928Y-43415476D01*
X41867738Y-43605952D01*
X41849880Y-43748809D01*
X41778452Y-43939285D01*
X41718928Y-44034523D01*
X41611785Y-44129761D01*
X41462976Y-44177380D01*
X41224880Y-44177380D01*
D12*
X36463523Y-39722380D02*
X36130190Y-39246190D01*
X35892095Y-39722380D02*
X35892095Y-38722380D01*
X36273047Y-38722380D01*
X36368285Y-38770000D01*
X36415904Y-38817619D01*
X36463523Y-38912857D01*
X36463523Y-39055714D01*
X36415904Y-39150952D01*
X36368285Y-39198571D01*
X36273047Y-39246190D01*
X35892095Y-39246190D01*
X37273047Y-39674761D02*
X37177809Y-39722380D01*
X36987333Y-39722380D01*
X36892095Y-39674761D01*
X36844476Y-39579523D01*
X36844476Y-39198571D01*
X36892095Y-39103333D01*
X36987333Y-39055714D01*
X37177809Y-39055714D01*
X37273047Y-39103333D01*
X37320666Y-39198571D01*
X37320666Y-39293809D01*
X36844476Y-39389047D01*
X37654000Y-39055714D02*
X37892095Y-39722380D01*
X38130190Y-39055714D01*
X38415904Y-38722380D02*
X39082571Y-38722380D01*
X38654000Y-39722380D01*
D13*
X35825952Y-37909523D02*
X36111666Y-38004761D01*
X36587857Y-38004761D01*
X36778333Y-37909523D01*
X36873571Y-37814285D01*
X36968809Y-37623809D01*
X36968809Y-37433333D01*
X36873571Y-37242857D01*
X36778333Y-37147619D01*
X36587857Y-37052380D01*
X36206904Y-36957142D01*
X36016428Y-36861904D01*
X35921190Y-36766666D01*
X35825952Y-36576190D01*
X35825952Y-36385714D01*
X35921190Y-36195238D01*
X36016428Y-36100000D01*
X36206904Y-36004761D01*
X36683095Y-36004761D01*
X36968809Y-36100000D01*
X37730714Y-37433333D02*
X38683095Y-37433333D01*
X37540238Y-38004761D02*
X38206904Y-36004761D01*
X38873571Y-38004761D01*
X39540238Y-38004761D02*
X39540238Y-36004761D01*
X40206904Y-37433333D01*
X40873571Y-36004761D01*
X40873571Y-38004761D01*
X41825952Y-38004761D02*
X41825952Y-36004761D01*
X42968809Y-38004761D01*
X42968809Y-36004761D01*
D14*
G04 #@! TO.C,J7*
X61225400Y-88783200D02*
X59895400Y-88783200D01*
X59895400Y-88783200D02*
X59895400Y-87453200D01*
X59895400Y-86183200D02*
X59895400Y-73423200D01*
X62555400Y-73423200D02*
X59895400Y-73423200D01*
X62555400Y-86183200D02*
X62555400Y-73423200D01*
X62555400Y-86183200D02*
X59895400Y-86183200D01*
G04 #@! TO.C,J4*
X65076000Y-66370000D02*
X65076000Y-67700000D01*
X63746000Y-66370000D02*
X65076000Y-66370000D01*
X65076000Y-68970000D02*
X65076000Y-71570000D01*
X62476000Y-68970000D02*
X65076000Y-68970000D01*
X62476000Y-66370000D02*
X62476000Y-68970000D01*
X65076000Y-71570000D02*
X57336000Y-71570000D01*
X62476000Y-66370000D02*
X57336000Y-66370000D01*
X57336000Y-66370000D02*
X57336000Y-71570000D01*
G04 #@! TO.C,J12*
X64900000Y-60900000D02*
X63570000Y-60900000D01*
X63570000Y-60900000D02*
X63570000Y-59570000D01*
X63570000Y-58300000D02*
X63570000Y-50620000D01*
X66230000Y-50620000D02*
X63570000Y-50620000D01*
X66230000Y-58300000D02*
X66230000Y-50620000D01*
X66230000Y-58300000D02*
X63570000Y-58300000D01*
G04 #@! TO.C,J11*
X59230000Y-47030000D02*
X57900000Y-47030000D01*
X59230000Y-45700000D02*
X59230000Y-47030000D01*
X59230000Y-44430000D02*
X56570000Y-44430000D01*
X56570000Y-44430000D02*
X56570000Y-41830000D01*
X59230000Y-44430000D02*
X59230000Y-41830000D01*
X59230000Y-41830000D02*
X56570000Y-41830000D01*
G04 #@! TO.C,J9*
X57900000Y-50620000D02*
X59230000Y-50620000D01*
X59230000Y-50620000D02*
X59230000Y-51950000D01*
X59230000Y-53220000D02*
X59230000Y-65980000D01*
X56570000Y-65980000D02*
X59230000Y-65980000D01*
X56570000Y-53220000D02*
X56570000Y-65980000D01*
X56570000Y-53220000D02*
X59230000Y-53220000D01*
G04 #@! TO.C,J10*
X41150000Y-80017000D02*
X39820000Y-80017000D01*
X39820000Y-80017000D02*
X39820000Y-78687000D01*
X39820000Y-77417000D02*
X39820000Y-64657000D01*
X42480000Y-64657000D02*
X39820000Y-64657000D01*
X42480000Y-77417000D02*
X42480000Y-64657000D01*
X42480000Y-77417000D02*
X39820000Y-77417000D01*
G04 #@! TO.C,U3*
X36630000Y-19676000D02*
X41964000Y-19676000D01*
X41964000Y-19676000D02*
X41964000Y-30344000D01*
X41964000Y-30344000D02*
X36630000Y-30344000D01*
X36630000Y-30344000D02*
X36630000Y-30344000D01*
X39170000Y-20184000D02*
X39170000Y-22470000D01*
X39170000Y-22470000D02*
X36884000Y-22470000D01*
X36884000Y-22470000D02*
X36884000Y-22470000D01*
X36300000Y-19100000D02*
X65500000Y-19100000D01*
X65500000Y-19100000D02*
X65500000Y-34550000D01*
X65500000Y-34550000D02*
X36300000Y-34550000D01*
X36300000Y-34550000D02*
X36300000Y-19100000D01*
X36300000Y-19100000D02*
X36300000Y-19100000D01*
X36630000Y-30344000D02*
X36630000Y-19676000D01*
X36630000Y-19676000D02*
X36630000Y-19676000D01*
G04 #@! TO.C,J2*
X61980000Y-47030000D02*
X60650000Y-47030000D01*
X61980000Y-45700000D02*
X61980000Y-47030000D01*
X61980000Y-44430000D02*
X59320000Y-44430000D01*
X59320000Y-44430000D02*
X59320000Y-41830000D01*
X61980000Y-44430000D02*
X61980000Y-41830000D01*
X61980000Y-41830000D02*
X59320000Y-41830000D01*
G04 #@! TO.C,J6*
X58475400Y-88783200D02*
X57145400Y-88783200D01*
X57145400Y-88783200D02*
X57145400Y-87453200D01*
X57145400Y-86183200D02*
X57145400Y-73423200D01*
X59805400Y-73423200D02*
X57145400Y-73423200D01*
X59805400Y-86183200D02*
X59805400Y-73423200D01*
X59805400Y-86183200D02*
X57145400Y-86183200D01*
G04 #@! TO.C,J8*
X63975400Y-88783200D02*
X62645400Y-88783200D01*
X62645400Y-88783200D02*
X62645400Y-87453200D01*
X62645400Y-86183200D02*
X62645400Y-73423200D01*
X65305400Y-73423200D02*
X62645400Y-73423200D01*
X65305400Y-86183200D02*
X65305400Y-73423200D01*
X65305400Y-86183200D02*
X62645400Y-86183200D01*
G04 #@! TO.C,J5*
X64900000Y-49530000D02*
X63570000Y-49530000D01*
X63570000Y-49530000D02*
X63570000Y-48200000D01*
X63570000Y-46930000D02*
X63570000Y-41790000D01*
X66230000Y-41790000D02*
X63570000Y-41790000D01*
X66230000Y-46930000D02*
X66230000Y-41790000D01*
X66230000Y-46930000D02*
X63570000Y-46930000D01*
G04 #@! TO.C,LED_I1*
X39865000Y-58795000D02*
X39865000Y-58639000D01*
X39865000Y-61111000D02*
X39865000Y-60955000D01*
X37263870Y-58795163D02*
G75*
G02X39345961Y-58795000I1041130J-1079837D01*
G01*
X37263870Y-60954837D02*
G75*
G03X39345961Y-60955000I1041130J1079837D01*
G01*
X36632665Y-58796392D02*
G75*
G02X39865000Y-58639484I1672335J-1078608D01*
G01*
X36632665Y-60953608D02*
G75*
G03X39865000Y-61110516I1672335J1078608D01*
G01*
D10*
G04 #@! TO.C,V1*
X45200000Y-46550000D02*
X54200000Y-46550000D01*
X55600000Y-46550000D02*
X55600000Y-41250000D01*
X54200000Y-41250000D02*
X53900000Y-41250000D01*
X53900000Y-41250000D02*
X53900000Y-37050000D01*
X53900000Y-37050000D02*
X45500000Y-37050000D01*
X45478506Y-41233060D02*
X45500000Y-37050000D01*
X45178506Y-41233060D02*
X45478506Y-41233060D01*
X45200000Y-46550000D02*
X45178506Y-41233060D01*
X54021494Y-84416940D02*
X53721494Y-84416940D01*
X45300000Y-88600000D02*
X53700000Y-88600000D01*
X45000000Y-84400000D02*
X45300000Y-84400000D01*
X54000000Y-79100000D02*
X54021494Y-84416940D01*
X45300000Y-84400000D02*
X45300000Y-88600000D01*
X53721494Y-84416940D02*
X53700000Y-88600000D01*
X45000000Y-79100000D02*
X45000000Y-84400000D01*
X54000000Y-79100000D02*
X45000000Y-79100000D01*
X54200000Y-46550000D02*
X54200000Y-41250000D01*
X43600000Y-46550000D02*
X43600000Y-41250000D01*
X43600000Y-84400000D02*
X43600000Y-79100000D01*
X55600000Y-84400000D02*
X55600000Y-79100000D01*
D14*
G04 #@! TO.C,Y1*
X36650000Y-55170000D02*
G75*
G03X41700000Y-55170000I2525000J0D01*
G01*
X36650000Y-48770000D02*
G75*
G02X41700000Y-48770000I2525000J0D01*
G01*
X36650000Y-48770000D02*
X36650000Y-55170000D01*
X41700000Y-48770000D02*
X41700000Y-55170000D01*
G04 #@! TO.C,C4*
X43354775Y-84425000D02*
X43354775Y-83925000D01*
X43604775Y-84175000D02*
X43104775Y-84175000D01*
X38199000Y-82984000D02*
X38199000Y-82416000D01*
X38239000Y-83218000D02*
X38239000Y-82182000D01*
X38279000Y-83377000D02*
X38279000Y-82023000D01*
X38319000Y-83505000D02*
X38319000Y-81895000D01*
X38359000Y-83615000D02*
X38359000Y-81785000D01*
X38399000Y-83711000D02*
X38399000Y-81689000D01*
X38439000Y-83798000D02*
X38439000Y-81602000D01*
X38479000Y-83878000D02*
X38479000Y-81522000D01*
X38519000Y-83951000D02*
X38519000Y-81449000D01*
X38559000Y-84019000D02*
X38559000Y-81381000D01*
X38599000Y-84083000D02*
X38599000Y-81317000D01*
X38639000Y-84143000D02*
X38639000Y-81257000D01*
X38679000Y-84200000D02*
X38679000Y-81200000D01*
X38719000Y-84254000D02*
X38719000Y-81146000D01*
X38759000Y-84305000D02*
X38759000Y-81095000D01*
X38799000Y-81660000D02*
X38799000Y-81047000D01*
X38799000Y-84353000D02*
X38799000Y-83740000D01*
X38839000Y-81660000D02*
X38839000Y-81001000D01*
X38839000Y-84399000D02*
X38839000Y-83740000D01*
X38879000Y-81660000D02*
X38879000Y-80957000D01*
X38879000Y-84443000D02*
X38879000Y-83740000D01*
X38919000Y-81660000D02*
X38919000Y-80915000D01*
X38919000Y-84485000D02*
X38919000Y-83740000D01*
X38959000Y-81660000D02*
X38959000Y-80874000D01*
X38959000Y-84526000D02*
X38959000Y-83740000D01*
X38999000Y-81660000D02*
X38999000Y-80836000D01*
X38999000Y-84564000D02*
X38999000Y-83740000D01*
X39039000Y-81660000D02*
X39039000Y-80799000D01*
X39039000Y-84601000D02*
X39039000Y-83740000D01*
X39079000Y-81660000D02*
X39079000Y-80763000D01*
X39079000Y-84637000D02*
X39079000Y-83740000D01*
X39119000Y-81660000D02*
X39119000Y-80729000D01*
X39119000Y-84671000D02*
X39119000Y-83740000D01*
X39159000Y-81660000D02*
X39159000Y-80696000D01*
X39159000Y-84704000D02*
X39159000Y-83740000D01*
X39199000Y-81660000D02*
X39199000Y-80665000D01*
X39199000Y-84735000D02*
X39199000Y-83740000D01*
X39239000Y-81660000D02*
X39239000Y-80635000D01*
X39239000Y-84765000D02*
X39239000Y-83740000D01*
X39279000Y-81660000D02*
X39279000Y-80605000D01*
X39279000Y-84795000D02*
X39279000Y-83740000D01*
X39319000Y-81660000D02*
X39319000Y-80578000D01*
X39319000Y-84822000D02*
X39319000Y-83740000D01*
X39359000Y-81660000D02*
X39359000Y-80551000D01*
X39359000Y-84849000D02*
X39359000Y-83740000D01*
X39399000Y-81660000D02*
X39399000Y-80525000D01*
X39399000Y-84875000D02*
X39399000Y-83740000D01*
X39439000Y-81660000D02*
X39439000Y-80500000D01*
X39439000Y-84900000D02*
X39439000Y-83740000D01*
X39479000Y-81660000D02*
X39479000Y-80476000D01*
X39479000Y-84924000D02*
X39479000Y-83740000D01*
X39519000Y-81660000D02*
X39519000Y-80453000D01*
X39519000Y-84947000D02*
X39519000Y-83740000D01*
X39559000Y-81660000D02*
X39559000Y-80432000D01*
X39559000Y-84968000D02*
X39559000Y-83740000D01*
X39599000Y-81660000D02*
X39599000Y-80410000D01*
X39599000Y-84990000D02*
X39599000Y-83740000D01*
X39639000Y-81660000D02*
X39639000Y-80390000D01*
X39639000Y-85010000D02*
X39639000Y-83740000D01*
X39679000Y-81660000D02*
X39679000Y-80371000D01*
X39679000Y-85029000D02*
X39679000Y-83740000D01*
X39719000Y-81660000D02*
X39719000Y-80352000D01*
X39719000Y-85048000D02*
X39719000Y-83740000D01*
X39759000Y-81660000D02*
X39759000Y-80335000D01*
X39759000Y-85065000D02*
X39759000Y-83740000D01*
X39799000Y-81660000D02*
X39799000Y-80318000D01*
X39799000Y-85082000D02*
X39799000Y-83740000D01*
X39839000Y-81660000D02*
X39839000Y-80302000D01*
X39839000Y-85098000D02*
X39839000Y-83740000D01*
X39879000Y-81660000D02*
X39879000Y-80286000D01*
X39879000Y-85114000D02*
X39879000Y-83740000D01*
X39919000Y-81660000D02*
X39919000Y-80272000D01*
X39919000Y-85128000D02*
X39919000Y-83740000D01*
X39959000Y-81660000D02*
X39959000Y-80258000D01*
X39959000Y-85142000D02*
X39959000Y-83740000D01*
X39999000Y-81660000D02*
X39999000Y-80245000D01*
X39999000Y-85155000D02*
X39999000Y-83740000D01*
X40039000Y-81660000D02*
X40039000Y-80232000D01*
X40039000Y-85168000D02*
X40039000Y-83740000D01*
X40079000Y-81660000D02*
X40079000Y-80220000D01*
X40079000Y-85180000D02*
X40079000Y-83740000D01*
X40120000Y-81660000D02*
X40120000Y-80209000D01*
X40120000Y-85191000D02*
X40120000Y-83740000D01*
X40160000Y-81660000D02*
X40160000Y-80199000D01*
X40160000Y-85201000D02*
X40160000Y-83740000D01*
X40200000Y-81660000D02*
X40200000Y-80189000D01*
X40200000Y-85211000D02*
X40200000Y-83740000D01*
X40240000Y-81660000D02*
X40240000Y-80180000D01*
X40240000Y-85220000D02*
X40240000Y-83740000D01*
X40280000Y-81660000D02*
X40280000Y-80172000D01*
X40280000Y-85228000D02*
X40280000Y-83740000D01*
X40320000Y-81660000D02*
X40320000Y-80164000D01*
X40320000Y-85236000D02*
X40320000Y-83740000D01*
X40360000Y-81660000D02*
X40360000Y-80157000D01*
X40360000Y-85243000D02*
X40360000Y-83740000D01*
X40400000Y-81660000D02*
X40400000Y-80150000D01*
X40400000Y-85250000D02*
X40400000Y-83740000D01*
X40440000Y-81660000D02*
X40440000Y-80144000D01*
X40440000Y-85256000D02*
X40440000Y-83740000D01*
X40480000Y-81660000D02*
X40480000Y-80139000D01*
X40480000Y-85261000D02*
X40480000Y-83740000D01*
X40520000Y-81660000D02*
X40520000Y-80135000D01*
X40520000Y-85265000D02*
X40520000Y-83740000D01*
X40560000Y-81660000D02*
X40560000Y-80131000D01*
X40560000Y-85269000D02*
X40560000Y-83740000D01*
X40600000Y-81660000D02*
X40600000Y-80127000D01*
X40600000Y-85273000D02*
X40600000Y-83740000D01*
X40640000Y-81660000D02*
X40640000Y-80124000D01*
X40640000Y-85276000D02*
X40640000Y-83740000D01*
X40680000Y-81660000D02*
X40680000Y-80122000D01*
X40680000Y-85278000D02*
X40680000Y-83740000D01*
X40720000Y-81660000D02*
X40720000Y-80121000D01*
X40720000Y-85279000D02*
X40720000Y-83740000D01*
X40760000Y-85280000D02*
X40760000Y-83740000D01*
X40760000Y-81660000D02*
X40760000Y-80120000D01*
X40800000Y-85280000D02*
X40800000Y-83740000D01*
X40800000Y-81660000D02*
X40800000Y-80120000D01*
X43420000Y-82700000D02*
G75*
G03X43420000Y-82700000I-2620000J0D01*
G01*
G04 #@! TO.C,J1*
X38463000Y-80030000D02*
X37133000Y-80030000D01*
X37133000Y-80030000D02*
X37133000Y-78700000D01*
X37133000Y-77430000D02*
X37133000Y-64670000D01*
X39793000Y-64670000D02*
X37133000Y-64670000D01*
X39793000Y-77430000D02*
X39793000Y-64670000D01*
X39793000Y-77430000D02*
X37133000Y-77430000D01*
G04 #@! TO.C,J3*
X60650000Y-50620000D02*
X61980000Y-50620000D01*
X61980000Y-50620000D02*
X61980000Y-51950000D01*
X61980000Y-53220000D02*
X61980000Y-65980000D01*
X59320000Y-65980000D02*
X61980000Y-65980000D01*
X59320000Y-53220000D02*
X59320000Y-65980000D01*
X59320000Y-53220000D02*
X61980000Y-53220000D01*
G04 #@! TO.C,J7*
D10*
X60892066Y-72155580D02*
X60892066Y-72869866D01*
X60844447Y-73012723D01*
X60749209Y-73107961D01*
X60606352Y-73155580D01*
X60511114Y-73155580D01*
X61273019Y-72155580D02*
X61939685Y-72155580D01*
X61511114Y-73155580D01*
G04 #@! TO.C,J4*
X64566666Y-65152380D02*
X64566666Y-65866666D01*
X64519047Y-66009523D01*
X64423809Y-66104761D01*
X64280952Y-66152380D01*
X64185714Y-66152380D01*
X65471428Y-65485714D02*
X65471428Y-66152380D01*
X65233333Y-65104761D02*
X64995238Y-65819047D01*
X65614285Y-65819047D01*
G04 #@! TO.C,J12*
X64590476Y-61152380D02*
X64590476Y-61866666D01*
X64542857Y-62009523D01*
X64447619Y-62104761D01*
X64304761Y-62152380D01*
X64209523Y-62152380D01*
X65590476Y-62152380D02*
X65019047Y-62152380D01*
X65304761Y-62152380D02*
X65304761Y-61152380D01*
X65209523Y-61295238D01*
X65114285Y-61390476D01*
X65019047Y-61438095D01*
X65971428Y-61247619D02*
X66019047Y-61200000D01*
X66114285Y-61152380D01*
X66352380Y-61152380D01*
X66447619Y-61200000D01*
X66495238Y-61247619D01*
X66542857Y-61342857D01*
X66542857Y-61438095D01*
X66495238Y-61580952D01*
X65923809Y-62152380D01*
X66542857Y-62152380D01*
G04 #@! TO.C,J11*
X56090476Y-47152380D02*
X56090476Y-47866666D01*
X56042857Y-48009523D01*
X55947619Y-48104761D01*
X55804761Y-48152380D01*
X55709523Y-48152380D01*
X57090476Y-48152380D02*
X56519047Y-48152380D01*
X56804761Y-48152380D02*
X56804761Y-47152380D01*
X56709523Y-47295238D01*
X56614285Y-47390476D01*
X56519047Y-47438095D01*
X58042857Y-48152380D02*
X57471428Y-48152380D01*
X57757142Y-48152380D02*
X57757142Y-47152380D01*
X57661904Y-47295238D01*
X57566666Y-47390476D01*
X57471428Y-47438095D01*
G04 #@! TO.C,J9*
X56066666Y-49402380D02*
X56066666Y-50116666D01*
X56019047Y-50259523D01*
X55923809Y-50354761D01*
X55780952Y-50402380D01*
X55685714Y-50402380D01*
X56590476Y-50402380D02*
X56780952Y-50402380D01*
X56876190Y-50354761D01*
X56923809Y-50307142D01*
X57019047Y-50164285D01*
X57066666Y-49973809D01*
X57066666Y-49592857D01*
X57019047Y-49497619D01*
X56971428Y-49450000D01*
X56876190Y-49402380D01*
X56685714Y-49402380D01*
X56590476Y-49450000D01*
X56542857Y-49497619D01*
X56495238Y-49592857D01*
X56495238Y-49830952D01*
X56542857Y-49926190D01*
X56590476Y-49973809D01*
X56685714Y-50021428D01*
X56876190Y-50021428D01*
X56971428Y-49973809D01*
X57019047Y-49926190D01*
X57066666Y-49830952D01*
G04 #@! TO.C,J10*
X43090476Y-63652380D02*
X43090476Y-64366666D01*
X43042857Y-64509523D01*
X42947619Y-64604761D01*
X42804761Y-64652380D01*
X42709523Y-64652380D01*
X44090476Y-64652380D02*
X43519047Y-64652380D01*
X43804761Y-64652380D02*
X43804761Y-63652380D01*
X43709523Y-63795238D01*
X43614285Y-63890476D01*
X43519047Y-63938095D01*
X44709523Y-63652380D02*
X44804761Y-63652380D01*
X44900000Y-63700000D01*
X44947619Y-63747619D01*
X44995238Y-63842857D01*
X45042857Y-64033333D01*
X45042857Y-64271428D01*
X44995238Y-64461904D01*
X44947619Y-64557142D01*
X44900000Y-64604761D01*
X44804761Y-64652380D01*
X44709523Y-64652380D01*
X44614285Y-64604761D01*
X44566666Y-64557142D01*
X44519047Y-64461904D01*
X44471428Y-64271428D01*
X44471428Y-64033333D01*
X44519047Y-63842857D01*
X44566666Y-63747619D01*
X44614285Y-63700000D01*
X44709523Y-63652380D01*
G04 #@! TO.C,U3*
X36838095Y-30902380D02*
X36838095Y-31711904D01*
X36885714Y-31807142D01*
X36933333Y-31854761D01*
X37028571Y-31902380D01*
X37219047Y-31902380D01*
X37314285Y-31854761D01*
X37361904Y-31807142D01*
X37409523Y-31711904D01*
X37409523Y-30902380D01*
X37790476Y-30902380D02*
X38409523Y-30902380D01*
X38076190Y-31283333D01*
X38219047Y-31283333D01*
X38314285Y-31330952D01*
X38361904Y-31378571D01*
X38409523Y-31473809D01*
X38409523Y-31711904D01*
X38361904Y-31807142D01*
X38314285Y-31854761D01*
X38219047Y-31902380D01*
X37933333Y-31902380D01*
X37838095Y-31854761D01*
X37790476Y-31807142D01*
G04 #@! TO.C,J2*
X61816666Y-47152380D02*
X61816666Y-47866666D01*
X61769047Y-48009523D01*
X61673809Y-48104761D01*
X61530952Y-48152380D01*
X61435714Y-48152380D01*
X62245238Y-47247619D02*
X62292857Y-47200000D01*
X62388095Y-47152380D01*
X62626190Y-47152380D01*
X62721428Y-47200000D01*
X62769047Y-47247619D01*
X62816666Y-47342857D01*
X62816666Y-47438095D01*
X62769047Y-47580952D01*
X62197619Y-48152380D01*
X62816666Y-48152380D01*
G04 #@! TO.C,J6*
X58142066Y-72155580D02*
X58142066Y-72869866D01*
X58094447Y-73012723D01*
X57999209Y-73107961D01*
X57856352Y-73155580D01*
X57761114Y-73155580D01*
X59046828Y-72155580D02*
X58856352Y-72155580D01*
X58761114Y-72203200D01*
X58713495Y-72250819D01*
X58618257Y-72393676D01*
X58570638Y-72584152D01*
X58570638Y-72965104D01*
X58618257Y-73060342D01*
X58665876Y-73107961D01*
X58761114Y-73155580D01*
X58951590Y-73155580D01*
X59046828Y-73107961D01*
X59094447Y-73060342D01*
X59142066Y-72965104D01*
X59142066Y-72727009D01*
X59094447Y-72631771D01*
X59046828Y-72584152D01*
X58951590Y-72536533D01*
X58761114Y-72536533D01*
X58665876Y-72584152D01*
X58618257Y-72631771D01*
X58570638Y-72727009D01*
G04 #@! TO.C,J8*
X63642066Y-72155580D02*
X63642066Y-72869866D01*
X63594447Y-73012723D01*
X63499209Y-73107961D01*
X63356352Y-73155580D01*
X63261114Y-73155580D01*
X64261114Y-72584152D02*
X64165876Y-72536533D01*
X64118257Y-72488914D01*
X64070638Y-72393676D01*
X64070638Y-72346057D01*
X64118257Y-72250819D01*
X64165876Y-72203200D01*
X64261114Y-72155580D01*
X64451590Y-72155580D01*
X64546828Y-72203200D01*
X64594447Y-72250819D01*
X64642066Y-72346057D01*
X64642066Y-72393676D01*
X64594447Y-72488914D01*
X64546828Y-72536533D01*
X64451590Y-72584152D01*
X64261114Y-72584152D01*
X64165876Y-72631771D01*
X64118257Y-72679390D01*
X64070638Y-72774628D01*
X64070638Y-72965104D01*
X64118257Y-73060342D01*
X64165876Y-73107961D01*
X64261114Y-73155580D01*
X64451590Y-73155580D01*
X64546828Y-73107961D01*
X64594447Y-73060342D01*
X64642066Y-72965104D01*
X64642066Y-72774628D01*
X64594447Y-72679390D01*
X64546828Y-72631771D01*
X64451590Y-72584152D01*
G04 #@! TO.C,J5*
X65566666Y-49402380D02*
X65566666Y-50116666D01*
X65519047Y-50259523D01*
X65423809Y-50354761D01*
X65280952Y-50402380D01*
X65185714Y-50402380D01*
X66519047Y-49402380D02*
X66042857Y-49402380D01*
X65995238Y-49878571D01*
X66042857Y-49830952D01*
X66138095Y-49783333D01*
X66376190Y-49783333D01*
X66471428Y-49830952D01*
X66519047Y-49878571D01*
X66566666Y-49973809D01*
X66566666Y-50211904D01*
X66519047Y-50307142D01*
X66471428Y-50354761D01*
X66376190Y-50402380D01*
X66138095Y-50402380D01*
X66042857Y-50354761D01*
X65995238Y-50307142D01*
G04 #@! TO.C,LED_I1*
X41161904Y-60402380D02*
X40685714Y-60402380D01*
X40685714Y-59402380D01*
X41495238Y-59878571D02*
X41828571Y-59878571D01*
X41971428Y-60402380D02*
X41495238Y-60402380D01*
X41495238Y-59402380D01*
X41971428Y-59402380D01*
X42400000Y-60402380D02*
X42400000Y-59402380D01*
X42638095Y-59402380D01*
X42780952Y-59450000D01*
X42876190Y-59545238D01*
X42923809Y-59640476D01*
X42971428Y-59830952D01*
X42971428Y-59973809D01*
X42923809Y-60164285D01*
X42876190Y-60259523D01*
X42780952Y-60354761D01*
X42638095Y-60402380D01*
X42400000Y-60402380D01*
X43161904Y-60497619D02*
X43923809Y-60497619D01*
X44161904Y-60402380D02*
X44161904Y-59402380D01*
X45161904Y-60402380D02*
X44590476Y-60402380D01*
X44876190Y-60402380D02*
X44876190Y-59402380D01*
X44780952Y-59545238D01*
X44685714Y-59640476D01*
X44590476Y-59688095D01*
G04 #@! TO.C,V1*
X54690476Y-38752380D02*
X55023809Y-39752380D01*
X55357142Y-38752380D01*
X56214285Y-39752380D02*
X55642857Y-39752380D01*
X55928571Y-39752380D02*
X55928571Y-38752380D01*
X55833333Y-38895238D01*
X55738095Y-38990476D01*
X55642857Y-39038095D01*
X49219047Y-36271428D02*
X49980952Y-36271428D01*
X49600000Y-36652380D02*
X49600000Y-35890476D01*
X49911904Y-89000000D02*
X49816666Y-88952380D01*
X49673809Y-88952380D01*
X49530952Y-89000000D01*
X49435714Y-89095238D01*
X49388095Y-89190476D01*
X49340476Y-89380952D01*
X49340476Y-89523809D01*
X49388095Y-89714285D01*
X49435714Y-89809523D01*
X49530952Y-89904761D01*
X49673809Y-89952380D01*
X49769047Y-89952380D01*
X49911904Y-89904761D01*
X49959523Y-89857142D01*
X49959523Y-89523809D01*
X49769047Y-89523809D01*
G04 #@! TO.C,Y1*
X42676190Y-52446190D02*
X43152380Y-52446190D01*
X42152380Y-52779523D02*
X42676190Y-52446190D01*
X42152380Y-52112857D01*
X43152380Y-51255714D02*
X43152380Y-51827142D01*
X43152380Y-51541428D02*
X42152380Y-51541428D01*
X42295238Y-51636666D01*
X42390476Y-51731904D01*
X42438095Y-51827142D01*
G04 #@! TO.C,C4*
X43233333Y-80557142D02*
X43185714Y-80604761D01*
X43042857Y-80652380D01*
X42947619Y-80652380D01*
X42804761Y-80604761D01*
X42709523Y-80509523D01*
X42661904Y-80414285D01*
X42614285Y-80223809D01*
X42614285Y-80080952D01*
X42661904Y-79890476D01*
X42709523Y-79795238D01*
X42804761Y-79700000D01*
X42947619Y-79652380D01*
X43042857Y-79652380D01*
X43185714Y-79700000D01*
X43233333Y-79747619D01*
X44090476Y-79985714D02*
X44090476Y-80652380D01*
X43852380Y-79604761D02*
X43614285Y-80319047D01*
X44233333Y-80319047D01*
G04 #@! TO.C,J1*
X35816666Y-63652380D02*
X35816666Y-64366666D01*
X35769047Y-64509523D01*
X35673809Y-64604761D01*
X35530952Y-64652380D01*
X35435714Y-64652380D01*
X36816666Y-64652380D02*
X36245238Y-64652380D01*
X36530952Y-64652380D02*
X36530952Y-63652380D01*
X36435714Y-63795238D01*
X36340476Y-63890476D01*
X36245238Y-63938095D01*
G04 #@! TO.C,J3*
X61816666Y-49402380D02*
X61816666Y-50116666D01*
X61769047Y-50259523D01*
X61673809Y-50354761D01*
X61530952Y-50402380D01*
X61435714Y-50402380D01*
X62197619Y-49402380D02*
X62816666Y-49402380D01*
X62483333Y-49783333D01*
X62626190Y-49783333D01*
X62721428Y-49830952D01*
X62769047Y-49878571D01*
X62816666Y-49973809D01*
X62816666Y-50211904D01*
X62769047Y-50307142D01*
X62721428Y-50354761D01*
X62626190Y-50402380D01*
X62340476Y-50402380D01*
X62245238Y-50354761D01*
X62197619Y-50307142D01*
G04 #@! TD*
M02*
