G04 #@! TF.GenerationSoftware,KiCad,Pcbnew,5.0.2-bee76a0~70~ubuntu18.04.1*
G04 #@! TF.CreationDate,2019-01-08T13:34:53-05:00*
G04 #@! TF.ProjectId,samn_small,73616d6e-5f73-46d6-916c-6c2e6b696361,7*
G04 #@! TF.SameCoordinates,Original*
G04 #@! TF.FileFunction,Copper,L1,Top*
G04 #@! TF.FilePolarity,Positive*
%FSLAX46Y46*%
G04 Gerber Fmt 4.6, Leading zero omitted, Abs format (unit mm)*
G04 Created by KiCad (PCBNEW 5.0.2-bee76a0~70~ubuntu18.04.1) date Tue 08 Jan 2019 01:34:53 PM EST*
%MOMM*%
%LPD*%
G01*
G04 APERTURE LIST*
G04 #@! TA.AperFunction,ComponentPad*
%ADD10O,1.700000X1.700000*%
G04 #@! TD*
G04 #@! TA.AperFunction,ComponentPad*
%ADD11R,1.700000X1.700000*%
G04 #@! TD*
G04 #@! TA.AperFunction,ComponentPad*
%ADD12C,1.900000*%
G04 #@! TD*
G04 #@! TA.AperFunction,ComponentPad*
%ADD13C,1.800000*%
G04 #@! TD*
G04 #@! TA.AperFunction,ComponentPad*
%ADD14R,1.800000X1.800000*%
G04 #@! TD*
G04 #@! TA.AperFunction,ComponentPad*
%ADD15C,3.400000*%
G04 #@! TD*
G04 #@! TA.AperFunction,ComponentPad*
%ADD16C,1.500000*%
G04 #@! TD*
G04 #@! TA.AperFunction,ComponentPad*
%ADD17C,1.600000*%
G04 #@! TD*
G04 #@! TA.AperFunction,ComponentPad*
%ADD18R,1.600000X1.600000*%
G04 #@! TD*
G04 #@! TA.AperFunction,ViaPad*
%ADD19C,5.000000*%
G04 #@! TD*
G04 #@! TA.AperFunction,ViaPad*
%ADD20C,0.600000*%
G04 #@! TD*
G04 #@! TA.AperFunction,Conductor*
%ADD21C,0.254000*%
G04 #@! TD*
G04 #@! TA.AperFunction,Conductor*
%ADD22C,0.420000*%
G04 #@! TD*
G04 APERTURE END LIST*
D10*
G04 #@! TO.P,J7,6*
G04 #@! TO.N,GND*
X61225400Y-74753200D03*
G04 #@! TO.P,J7,5*
G04 #@! TO.N,+3V3*
X61225400Y-77293200D03*
G04 #@! TO.P,J7,4*
G04 #@! TO.N,SCK*
X61225400Y-79833200D03*
G04 #@! TO.P,J7,3*
G04 #@! TO.N,MISO*
X61225400Y-82373200D03*
G04 #@! TO.P,J7,2*
G04 #@! TO.N,MOSI*
X61225400Y-84913200D03*
D11*
G04 #@! TO.P,J7,1*
G04 #@! TO.N,Net-(J7-Pad1)*
X61225400Y-87453200D03*
G04 #@! TD*
D10*
G04 #@! TO.P,J4,6*
G04 #@! TO.N,MISO*
X58666000Y-70240000D03*
G04 #@! TO.P,J4,5*
G04 #@! TO.N,+3V3*
X58666000Y-67700000D03*
G04 #@! TO.P,J4,4*
G04 #@! TO.N,SCK*
X61206000Y-70240000D03*
G04 #@! TO.P,J4,3*
G04 #@! TO.N,MOSI*
X61206000Y-67700000D03*
G04 #@! TO.P,J4,2*
G04 #@! TO.N,Reset*
X63746000Y-70240000D03*
D11*
G04 #@! TO.P,J4,1*
G04 #@! TO.N,GND*
X63746000Y-67700000D03*
G04 #@! TD*
D10*
G04 #@! TO.P,J12,4*
G04 #@! TO.N,Net-(J12-Pad4)*
X64900000Y-51950000D03*
G04 #@! TO.P,J12,3*
G04 #@! TO.N,Net-(J12-Pad3)*
X64900000Y-54490000D03*
G04 #@! TO.P,J12,2*
G04 #@! TO.N,Net-(J12-Pad2)*
X64900000Y-57030000D03*
D11*
G04 #@! TO.P,J12,1*
G04 #@! TO.N,Net-(J12-Pad1)*
X64900000Y-59570000D03*
G04 #@! TD*
D10*
G04 #@! TO.P,J11,2*
G04 #@! TO.N,Net-(J11-Pad2)*
X57900000Y-43160000D03*
D11*
G04 #@! TO.P,J11,1*
G04 #@! TO.N,GND*
X57900000Y-45700000D03*
G04 #@! TD*
D10*
G04 #@! TO.P,J9,6*
G04 #@! TO.N,Net-(J3-Pad6)*
X57900000Y-64650000D03*
G04 #@! TO.P,J9,5*
G04 #@! TO.N,Net-(J3-Pad5)*
X57900000Y-62110000D03*
G04 #@! TO.P,J9,4*
G04 #@! TO.N,Net-(J3-Pad4)*
X57900000Y-59570000D03*
G04 #@! TO.P,J9,3*
G04 #@! TO.N,Net-(J3-Pad3)*
X57900000Y-57030000D03*
G04 #@! TO.P,J9,2*
G04 #@! TO.N,Net-(J3-Pad2)*
X57900000Y-54490000D03*
D11*
G04 #@! TO.P,J9,1*
G04 #@! TO.N,Reset*
X57900000Y-51950000D03*
G04 #@! TD*
D10*
G04 #@! TO.P,J10,6*
G04 #@! TO.N,Net-(J1-Pad6)*
X41150000Y-65987000D03*
G04 #@! TO.P,J10,5*
G04 #@! TO.N,Net-(J1-Pad5)*
X41150000Y-68527000D03*
G04 #@! TO.P,J10,4*
G04 #@! TO.N,Net-(J1-Pad4)*
X41150000Y-71067000D03*
G04 #@! TO.P,J10,3*
G04 #@! TO.N,Net-(J1-Pad3)*
X41150000Y-73607000D03*
G04 #@! TO.P,J10,2*
G04 #@! TO.N,Net-(J1-Pad2)*
X41150000Y-76147000D03*
D11*
G04 #@! TO.P,J10,1*
G04 #@! TO.N,Net-(J1-Pad1)*
X41150000Y-78687000D03*
G04 #@! TD*
D12*
G04 #@! TO.P,U3,1*
G04 #@! TO.N,GND*
X37900000Y-21200000D03*
G04 #@! TO.P,U3,2*
G04 #@! TO.N,+3V3*
X40440000Y-21200000D03*
G04 #@! TO.P,U3,3*
G04 #@! TO.N,Net-(U2-Pad10)*
X37900000Y-23740000D03*
G04 #@! TO.P,U3,4*
G04 #@! TO.N,Net-(U2-Pad11)*
X40440000Y-23740000D03*
G04 #@! TO.P,U3,5*
G04 #@! TO.N,SCK*
X37900000Y-26280000D03*
G04 #@! TO.P,U3,6*
G04 #@! TO.N,MOSI*
X40440000Y-26280000D03*
G04 #@! TO.P,U3,7*
G04 #@! TO.N,MISO*
X37900000Y-28820000D03*
G04 #@! TO.P,U3,8*
G04 #@! TO.N,Net-(J3-Pad4)*
X40440000Y-28820000D03*
G04 #@! TD*
D10*
G04 #@! TO.P,J2,2*
G04 #@! TO.N,Net-(J11-Pad2)*
X60650000Y-43160000D03*
D11*
G04 #@! TO.P,J2,1*
G04 #@! TO.N,GND*
X60650000Y-45700000D03*
G04 #@! TD*
D10*
G04 #@! TO.P,J6,6*
G04 #@! TO.N,GND*
X58475400Y-74753200D03*
G04 #@! TO.P,J6,5*
G04 #@! TO.N,+3V3*
X58475400Y-77293200D03*
G04 #@! TO.P,J6,4*
G04 #@! TO.N,SCK*
X58475400Y-79833200D03*
G04 #@! TO.P,J6,3*
G04 #@! TO.N,MISO*
X58475400Y-82373200D03*
G04 #@! TO.P,J6,2*
G04 #@! TO.N,MOSI*
X58475400Y-84913200D03*
D11*
G04 #@! TO.P,J6,1*
G04 #@! TO.N,Net-(J6-Pad1)*
X58475400Y-87453200D03*
G04 #@! TD*
D10*
G04 #@! TO.P,J8,6*
G04 #@! TO.N,GND*
X63975400Y-74753200D03*
G04 #@! TO.P,J8,5*
G04 #@! TO.N,+3V3*
X63975400Y-77293200D03*
G04 #@! TO.P,J8,4*
G04 #@! TO.N,SCK*
X63975400Y-79833200D03*
G04 #@! TO.P,J8,3*
G04 #@! TO.N,MISO*
X63975400Y-82373200D03*
G04 #@! TO.P,J8,2*
G04 #@! TO.N,MOSI*
X63975400Y-84913200D03*
D11*
G04 #@! TO.P,J8,1*
G04 #@! TO.N,Net-(J8-Pad1)*
X63975400Y-87453200D03*
G04 #@! TD*
D10*
G04 #@! TO.P,J5,3*
G04 #@! TO.N,Net-(J11-Pad2)*
X64900000Y-43120000D03*
G04 #@! TO.P,J5,2*
G04 #@! TO.N,+1V5*
X64900000Y-45660000D03*
D11*
G04 #@! TO.P,J5,1*
G04 #@! TO.N,Net-(J5-Pad1)*
X64900000Y-48200000D03*
G04 #@! TD*
D13*
G04 #@! TO.P,LED_I1,2*
G04 #@! TO.N,Net-(LED_I1-Pad2)*
X37035000Y-59875000D03*
D14*
G04 #@! TO.P,LED_I1,1*
G04 #@! TO.N,GND*
X39575000Y-59875000D03*
G04 #@! TD*
D15*
G04 #@! TO.P,V1,1*
G04 #@! TO.N,Net-(J11-Pad2)*
X49600000Y-39550000D03*
X49600000Y-45550000D03*
G04 #@! TO.P,V1,2*
G04 #@! TO.N,GND*
X49600000Y-80100000D03*
X49600000Y-86100000D03*
G04 #@! TD*
D16*
G04 #@! TO.P,Y1,2*
G04 #@! TO.N,Net-(C6-Pad1)*
X39175000Y-54410000D03*
G04 #@! TO.P,Y1,1*
G04 #@! TO.N,Net-(C5-Pad1)*
X39175000Y-49530000D03*
G04 #@! TD*
D17*
G04 #@! TO.P,C4,2*
G04 #@! TO.N,GND*
X39800000Y-82700000D03*
D18*
G04 #@! TO.P,C4,1*
G04 #@! TO.N,+3V3*
X41800000Y-82700000D03*
G04 #@! TD*
D10*
G04 #@! TO.P,J1,6*
G04 #@! TO.N,Net-(J1-Pad6)*
X38463000Y-66000000D03*
G04 #@! TO.P,J1,5*
G04 #@! TO.N,Net-(J1-Pad5)*
X38463000Y-68540000D03*
G04 #@! TO.P,J1,4*
G04 #@! TO.N,Net-(J1-Pad4)*
X38463000Y-71080000D03*
G04 #@! TO.P,J1,3*
G04 #@! TO.N,Net-(J1-Pad3)*
X38463000Y-73620000D03*
G04 #@! TO.P,J1,2*
G04 #@! TO.N,Net-(J1-Pad2)*
X38463000Y-76160000D03*
D11*
G04 #@! TO.P,J1,1*
G04 #@! TO.N,Net-(J1-Pad1)*
X38463000Y-78700000D03*
G04 #@! TD*
D10*
G04 #@! TO.P,J3,6*
G04 #@! TO.N,Net-(J3-Pad6)*
X60650000Y-64650000D03*
G04 #@! TO.P,J3,5*
G04 #@! TO.N,Net-(J3-Pad5)*
X60650000Y-62110000D03*
G04 #@! TO.P,J3,4*
G04 #@! TO.N,Net-(J3-Pad4)*
X60650000Y-59570000D03*
G04 #@! TO.P,J3,3*
G04 #@! TO.N,Net-(J3-Pad3)*
X60650000Y-57030000D03*
G04 #@! TO.P,J3,2*
G04 #@! TO.N,Net-(J3-Pad2)*
X60650000Y-54490000D03*
D11*
G04 #@! TO.P,J3,1*
G04 #@! TO.N,Reset*
X60650000Y-51950000D03*
G04 #@! TD*
D19*
G04 #@! TO.N,*
X37900000Y-87700000D03*
X63900000Y-37700000D03*
D20*
G04 #@! TO.N,Net-(C5-Pad1)*
X51461400Y-68569800D03*
G04 #@! TO.N,Net-(C6-Pad1)*
X49841200Y-68605000D03*
G04 #@! TO.N,+3V3*
X51849400Y-66026400D03*
X47204600Y-46044100D03*
X51680200Y-57510000D03*
G04 #@! TO.N,GND*
X55302000Y-68353600D03*
X43949800Y-67241400D03*
G04 #@! TO.N,Net-(R4-Pad2)*
X48777700Y-69160800D03*
X44849800Y-60550300D03*
G04 #@! TO.N,SCK*
X57701200Y-72949800D03*
X49236900Y-70067400D03*
G04 #@! TO.N,Net-(J1-Pad4)*
X46839300Y-65033500D03*
G04 #@! TO.N,Net-(J1-Pad5)*
X46701700Y-65833900D03*
G04 #@! TO.N,Net-(J8-Pad1)*
X53277600Y-78537000D03*
G04 #@! TO.N,Net-(J6-Pad1)*
X54670600Y-78123700D03*
G04 #@! TO.N,Net-(U2-Pad10)*
X51756900Y-73474500D03*
G04 #@! TO.N,Net-(U2-Pad11)*
X50850000Y-73457800D03*
G04 #@! TO.N,Net-(J12-Pad2)*
X51697600Y-66927800D03*
G04 #@! TO.N,Net-(J12-Pad1)*
X52599700Y-65398500D03*
G04 #@! TD*
D21*
G04 #@! TO.N,Net-(C5-Pad1)*
X51461400Y-68569800D02*
X50543800Y-67652200D01*
X50543800Y-67652200D02*
X50543800Y-63193800D01*
X50543800Y-63193800D02*
X39175000Y-51825000D01*
X39175000Y-51825000D02*
X39175000Y-49530000D01*
G04 #@! TO.N,Net-(C6-Pad1)*
X39175000Y-54410000D02*
X39602000Y-54410000D01*
X39602000Y-54410000D02*
X49405100Y-64213100D01*
X49405100Y-64213100D02*
X49405100Y-68168900D01*
X49405100Y-68168900D02*
X49841200Y-68605000D01*
D22*
G04 #@! TO.N,+3V3*
X51849400Y-66026400D02*
X51680200Y-65857200D01*
X51680200Y-65857200D02*
X51680200Y-57510000D01*
X47204600Y-46044100D02*
X47204600Y-53034400D01*
X47204600Y-53034400D02*
X51680200Y-57510000D01*
X43110300Y-82700000D02*
X43110300Y-82781900D01*
X43110300Y-82781900D02*
X48650700Y-88322300D01*
X48650700Y-88322300D02*
X50515100Y-88322300D01*
X50515100Y-88322300D02*
X51813300Y-87024100D01*
X51813300Y-87024100D02*
X51813300Y-78777900D01*
X51813300Y-78777900D02*
X53298000Y-77293200D01*
X53298000Y-77293200D02*
X58475400Y-77293200D01*
X59835700Y-77293200D02*
X59865100Y-77293200D01*
X58666000Y-67700000D02*
X57278000Y-69088000D01*
X57278000Y-69088000D02*
X57278000Y-70836600D01*
X57278000Y-70836600D02*
X59835700Y-73394300D01*
X59835700Y-73394300D02*
X59835700Y-77293200D01*
X58475400Y-77293200D02*
X59835700Y-77293200D01*
X61225400Y-77293200D02*
X59865100Y-77293200D01*
X41800000Y-82700000D02*
X43110300Y-82700000D01*
G04 #@! TO.N,GND*
X49600000Y-80100000D02*
X49600000Y-79889000D01*
X49600000Y-79889000D02*
X54735800Y-74753200D01*
X54735800Y-74753200D02*
X55302000Y-74753200D01*
X55302000Y-74753200D02*
X55302000Y-68353600D01*
X55302000Y-74753200D02*
X57115100Y-74753200D01*
X39802300Y-62698500D02*
X37102600Y-65398200D01*
X37102600Y-65398200D02*
X37102600Y-80002600D01*
X37102600Y-80002600D02*
X39800000Y-82700000D01*
X39575000Y-61105200D02*
X39575000Y-61285300D01*
X39575000Y-61285300D02*
X39802300Y-61512600D01*
X39802300Y-61512600D02*
X39802300Y-62698500D01*
X39802300Y-62698500D02*
X43949800Y-66846100D01*
X43949800Y-66846100D02*
X43949800Y-67241400D01*
X39575000Y-59875000D02*
X39575000Y-61105200D01*
X58475400Y-74753200D02*
X57115100Y-74753200D01*
X49600000Y-86100000D02*
X49600000Y-80100000D01*
X60650000Y-45700000D02*
X57900000Y-45700000D01*
D21*
G04 #@! TO.N,Net-(R4-Pad2)*
X44849800Y-60550300D02*
X48777700Y-64478200D01*
X48777700Y-64478200D02*
X48777700Y-69160800D01*
G04 #@! TO.N,SCK*
X50505400Y-69076300D02*
X50505400Y-68266300D01*
X50505400Y-68266300D02*
X50089500Y-67850400D01*
X50089500Y-67850400D02*
X50089500Y-63382100D01*
X50089500Y-63382100D02*
X36596700Y-49889300D01*
X36596700Y-49889300D02*
X36596700Y-27583300D01*
X36596700Y-27583300D02*
X37900000Y-26280000D01*
X49236900Y-70067400D02*
X49514300Y-70067400D01*
X49514300Y-70067400D02*
X50505400Y-69076300D01*
X50505400Y-69076300D02*
X50630100Y-69201000D01*
X50630100Y-69201000D02*
X52770000Y-69201000D01*
X52770000Y-69201000D02*
X54385600Y-67585400D01*
X54385600Y-67585400D02*
X55620800Y-67585400D01*
X55620800Y-67585400D02*
X56640600Y-68605200D01*
X56640600Y-68605200D02*
X56640600Y-71889200D01*
X56640600Y-71889200D02*
X57701200Y-72949800D01*
G04 #@! TO.N,MOSI*
X61206000Y-67700000D02*
X61206000Y-66522700D01*
X40440000Y-26280000D02*
X55177800Y-41017800D01*
X55177800Y-41017800D02*
X55177800Y-45316200D01*
X55177800Y-45316200D02*
X60404200Y-50542600D01*
X60404200Y-50542600D02*
X61471600Y-50542600D01*
X61471600Y-50542600D02*
X62867600Y-51938600D01*
X62867600Y-51938600D02*
X62867600Y-54147200D01*
X62867600Y-54147200D02*
X64480400Y-55760000D01*
X64480400Y-55760000D02*
X65378000Y-55760000D01*
X65378000Y-55760000D02*
X66562600Y-56944600D01*
X66562600Y-56944600D02*
X66562600Y-61166100D01*
X66562600Y-61166100D02*
X61206000Y-66522700D01*
X61717400Y-83832500D02*
X61225400Y-84324500D01*
X61206000Y-68877300D02*
X61573900Y-68877300D01*
X61573900Y-68877300D02*
X62502800Y-69806200D01*
X62502800Y-69806200D02*
X62502800Y-83047100D01*
X62502800Y-83047100D02*
X61717400Y-83832500D01*
X61717400Y-83832500D02*
X62798100Y-84913200D01*
X63975400Y-84913200D02*
X62798100Y-84913200D01*
X61206000Y-67700000D02*
X61206000Y-68877300D01*
X58475400Y-84913200D02*
X59652700Y-84913200D01*
X61225400Y-84324500D02*
X60241400Y-84324500D01*
X60241400Y-84324500D02*
X59652700Y-84913200D01*
X61225400Y-84913200D02*
X61225400Y-84324500D01*
G04 #@! TO.N,MISO*
X37900000Y-28820000D02*
X37900000Y-44631200D01*
X37900000Y-44631200D02*
X50885100Y-57616300D01*
X50885100Y-57616300D02*
X50885100Y-62892600D01*
X50885100Y-62892600D02*
X50998100Y-63005600D01*
X50998100Y-63005600D02*
X50998100Y-67123700D01*
X50998100Y-67123700D02*
X51485200Y-67610800D01*
X51485200Y-67610800D02*
X52644200Y-67610800D01*
X52644200Y-67610800D02*
X53833400Y-66421600D01*
X53833400Y-66421600D02*
X59227200Y-66421600D01*
X59227200Y-66421600D02*
X59949900Y-67144300D01*
X59949900Y-67144300D02*
X59949900Y-68266700D01*
X59949900Y-68266700D02*
X59153900Y-69062700D01*
X59153900Y-69062700D02*
X58666000Y-69062700D01*
X58666000Y-70240000D02*
X58666000Y-69062700D01*
G04 #@! TO.N,Net-(J3-Pad3)*
X60650000Y-57030000D02*
X57900000Y-57030000D01*
G04 #@! TO.N,Net-(J3-Pad4)*
X60650000Y-59570000D02*
X59472700Y-59570000D01*
X57900000Y-58981300D02*
X58884000Y-58981300D01*
X58884000Y-58981300D02*
X59472700Y-59570000D01*
X57900000Y-58981300D02*
X57900000Y-58392700D01*
X57900000Y-59570000D02*
X57900000Y-58981300D01*
X40440000Y-28820000D02*
X41883700Y-28820000D01*
X41883700Y-28820000D02*
X52317700Y-39254000D01*
X52317700Y-39254000D02*
X52317700Y-53176300D01*
X52317700Y-53176300D02*
X57534100Y-58392700D01*
X57534100Y-58392700D02*
X57900000Y-58392700D01*
G04 #@! TO.N,Net-(J3-Pad5)*
X60650000Y-62110000D02*
X57900000Y-62110000D01*
G04 #@! TO.N,Net-(J3-Pad6)*
X60650000Y-64650000D02*
X57900000Y-64650000D01*
G04 #@! TO.N,Net-(J1-Pad4)*
X41150000Y-71067000D02*
X42392000Y-71067000D01*
X42392000Y-71067000D02*
X47329000Y-66130000D01*
X47329000Y-66130000D02*
X47329000Y-65574000D01*
X47329000Y-65574000D02*
X46839400Y-65084400D01*
X46839400Y-65084400D02*
X46839300Y-65084400D01*
X46839300Y-65084400D02*
X46839300Y-65033500D01*
X38463000Y-71080000D02*
X39640300Y-71080000D01*
X41150000Y-71067000D02*
X39653300Y-71067000D01*
X39653300Y-71067000D02*
X39640300Y-71080000D01*
G04 #@! TO.N,Net-(J1-Pad5)*
X42327300Y-68527000D02*
X44008600Y-68527000D01*
X44008600Y-68527000D02*
X46701700Y-65833900D01*
X41150000Y-68527000D02*
X42327300Y-68527000D01*
X41150000Y-68527000D02*
X39972700Y-68527000D01*
X38463000Y-68540000D02*
X39959700Y-68540000D01*
X39959700Y-68540000D02*
X39972700Y-68527000D01*
G04 #@! TO.N,Net-(J1-Pad6)*
X41150000Y-65987000D02*
X39972700Y-65987000D01*
X38463000Y-66000000D02*
X39959700Y-66000000D01*
X39959700Y-66000000D02*
X39972700Y-65987000D01*
G04 #@! TO.N,Net-(J8-Pad1)*
X63975400Y-87453200D02*
X62798100Y-87453200D01*
X53277600Y-78537000D02*
X53277600Y-84467800D01*
X53277600Y-84467800D02*
X57440300Y-88630500D01*
X57440300Y-88630500D02*
X62283100Y-88630500D01*
X62283100Y-88630500D02*
X62798100Y-88115500D01*
X62798100Y-88115500D02*
X62798100Y-87453200D01*
G04 #@! TO.N,Net-(J6-Pad1)*
X58475400Y-87453200D02*
X58475400Y-86275900D01*
X54670600Y-78123700D02*
X54670600Y-82839000D01*
X54670600Y-82839000D02*
X58107500Y-86275900D01*
X58107500Y-86275900D02*
X58475400Y-86275900D01*
G04 #@! TO.N,Net-(U2-Pad10)*
X37900000Y-23740000D02*
X36142300Y-25497700D01*
X36142300Y-25497700D02*
X36142300Y-52967300D01*
X36142300Y-52967300D02*
X47126900Y-63951900D01*
X47126900Y-63951900D02*
X47287400Y-63951900D01*
X47287400Y-63951900D02*
X48272300Y-64936800D01*
X48272300Y-64936800D02*
X48272300Y-68534500D01*
X48272300Y-68534500D02*
X48150400Y-68656400D01*
X48150400Y-68656400D02*
X48150400Y-69868000D01*
X48150400Y-69868000D02*
X51756900Y-73474500D01*
G04 #@! TO.N,Net-(U2-Pad11)*
X40440000Y-23740000D02*
X41827900Y-22352100D01*
X41827900Y-22352100D02*
X41827900Y-20585900D01*
X41827900Y-20585900D02*
X41039500Y-19797500D01*
X41039500Y-19797500D02*
X37294500Y-19797500D01*
X37294500Y-19797500D02*
X35688000Y-21404000D01*
X35688000Y-21404000D02*
X35688000Y-53155500D01*
X35688000Y-53155500D02*
X46938700Y-64406200D01*
X46938700Y-64406200D02*
X47099200Y-64406200D01*
X47099200Y-64406200D02*
X47818000Y-65125000D01*
X47818000Y-65125000D02*
X47818000Y-68346300D01*
X47818000Y-68346300D02*
X47696100Y-68468200D01*
X47696100Y-68468200D02*
X47696100Y-70303900D01*
X47696100Y-70303900D02*
X50850000Y-73457800D01*
D22*
G04 #@! TO.N,Net-(J11-Pad2)*
X64900000Y-43120000D02*
X63539700Y-43120000D01*
X60650000Y-43160000D02*
X63499700Y-43160000D01*
X63499700Y-43160000D02*
X63539700Y-43120000D01*
X57900000Y-43160000D02*
X60650000Y-43160000D01*
X49600000Y-45550000D02*
X49600000Y-39550000D01*
D21*
G04 #@! TO.N,Net-(J12-Pad2)*
X51697600Y-66927800D02*
X52329500Y-66927800D01*
X52329500Y-66927800D02*
X55877300Y-63380000D01*
X55877300Y-63380000D02*
X63258100Y-63380000D01*
X63258100Y-63380000D02*
X66077400Y-60560700D01*
X66077400Y-60560700D02*
X66077400Y-58552100D01*
X66077400Y-58552100D02*
X65732600Y-58207300D01*
X65732600Y-58207300D02*
X64900000Y-58207300D01*
X64900000Y-57030000D02*
X64900000Y-58207300D01*
G04 #@! TO.N,Net-(J12-Pad1)*
X52599700Y-65398500D02*
X57250900Y-60747300D01*
X57250900Y-60747300D02*
X62545400Y-60747300D01*
X62545400Y-60747300D02*
X63722700Y-59570000D01*
X64900000Y-59570000D02*
X63722700Y-59570000D01*
G04 #@! TD*
M02*
