G04 #@! TF.GenerationSoftware,KiCad,Pcbnew,5.0.2-bee76a0~70~ubuntu18.04.1*
G04 #@! TF.CreationDate,2019-01-08T13:34:53-05:00*
G04 #@! TF.ProjectId,samn_small,73616d6e-5f73-46d6-916c-6c2e6b696361,7*
G04 #@! TF.SameCoordinates,Original*
G04 #@! TF.FileFunction,Paste,Bot*
G04 #@! TF.FilePolarity,Positive*
%FSLAX46Y46*%
G04 Gerber Fmt 4.6, Leading zero omitted, Abs format (unit mm)*
G04 Created by KiCad (PCBNEW 5.0.2-bee76a0~70~ubuntu18.04.1) date Tue 08 Jan 2019 01:34:53 PM EST*
%MOMM*%
%LPD*%
G01*
G04 APERTURE LIST*
%ADD10R,3.700000X1.500000*%
%ADD11R,0.550000X1.600000*%
%ADD12R,1.600000X0.550000*%
%ADD13C,0.100000*%
%ADD14C,1.150000*%
%ADD15R,1.560000X0.650000*%
G04 APERTURE END LIST*
D10*
G04 #@! TO.C,L1*
X54650000Y-36800000D03*
X54650000Y-39600000D03*
G04 #@! TD*
D11*
G04 #@! TO.C,U2*
X52450000Y-63650000D03*
X51650000Y-63650000D03*
X50850000Y-63650000D03*
X50050000Y-63650000D03*
X49250000Y-63650000D03*
X48450000Y-63650000D03*
X47650000Y-63650000D03*
X46850000Y-63650000D03*
D12*
X45400000Y-65100000D03*
X45400000Y-65900000D03*
X45400000Y-66700000D03*
X45400000Y-67500000D03*
X45400000Y-68300000D03*
X45400000Y-69100000D03*
X45400000Y-69900000D03*
X45400000Y-70700000D03*
D11*
X46850000Y-72150000D03*
X47650000Y-72150000D03*
X48450000Y-72150000D03*
X49250000Y-72150000D03*
X50050000Y-72150000D03*
X50850000Y-72150000D03*
X51650000Y-72150000D03*
X52450000Y-72150000D03*
D12*
X53900000Y-70700000D03*
X53900000Y-69900000D03*
X53900000Y-69100000D03*
X53900000Y-68300000D03*
X53900000Y-67500000D03*
X53900000Y-66700000D03*
X53900000Y-65900000D03*
X53900000Y-65100000D03*
G04 #@! TD*
D13*
G04 #@! TO.C,R7*
G36*
X48124505Y-58351204D02*
X48148773Y-58354804D01*
X48172572Y-58360765D01*
X48195671Y-58369030D01*
X48217850Y-58379520D01*
X48238893Y-58392132D01*
X48258599Y-58406747D01*
X48276777Y-58423223D01*
X48293253Y-58441401D01*
X48307868Y-58461107D01*
X48320480Y-58482150D01*
X48330970Y-58504329D01*
X48339235Y-58527428D01*
X48345196Y-58551227D01*
X48348796Y-58575495D01*
X48350000Y-58599999D01*
X48350000Y-59250001D01*
X48348796Y-59274505D01*
X48345196Y-59298773D01*
X48339235Y-59322572D01*
X48330970Y-59345671D01*
X48320480Y-59367850D01*
X48307868Y-59388893D01*
X48293253Y-59408599D01*
X48276777Y-59426777D01*
X48258599Y-59443253D01*
X48238893Y-59457868D01*
X48217850Y-59470480D01*
X48195671Y-59480970D01*
X48172572Y-59489235D01*
X48148773Y-59495196D01*
X48124505Y-59498796D01*
X48100001Y-59500000D01*
X47199999Y-59500000D01*
X47175495Y-59498796D01*
X47151227Y-59495196D01*
X47127428Y-59489235D01*
X47104329Y-59480970D01*
X47082150Y-59470480D01*
X47061107Y-59457868D01*
X47041401Y-59443253D01*
X47023223Y-59426777D01*
X47006747Y-59408599D01*
X46992132Y-59388893D01*
X46979520Y-59367850D01*
X46969030Y-59345671D01*
X46960765Y-59322572D01*
X46954804Y-59298773D01*
X46951204Y-59274505D01*
X46950000Y-59250001D01*
X46950000Y-58599999D01*
X46951204Y-58575495D01*
X46954804Y-58551227D01*
X46960765Y-58527428D01*
X46969030Y-58504329D01*
X46979520Y-58482150D01*
X46992132Y-58461107D01*
X47006747Y-58441401D01*
X47023223Y-58423223D01*
X47041401Y-58406747D01*
X47061107Y-58392132D01*
X47082150Y-58379520D01*
X47104329Y-58369030D01*
X47127428Y-58360765D01*
X47151227Y-58354804D01*
X47175495Y-58351204D01*
X47199999Y-58350000D01*
X48100001Y-58350000D01*
X48124505Y-58351204D01*
X48124505Y-58351204D01*
G37*
D14*
X47650000Y-58925000D03*
D13*
G36*
X48124505Y-60401204D02*
X48148773Y-60404804D01*
X48172572Y-60410765D01*
X48195671Y-60419030D01*
X48217850Y-60429520D01*
X48238893Y-60442132D01*
X48258599Y-60456747D01*
X48276777Y-60473223D01*
X48293253Y-60491401D01*
X48307868Y-60511107D01*
X48320480Y-60532150D01*
X48330970Y-60554329D01*
X48339235Y-60577428D01*
X48345196Y-60601227D01*
X48348796Y-60625495D01*
X48350000Y-60649999D01*
X48350000Y-61300001D01*
X48348796Y-61324505D01*
X48345196Y-61348773D01*
X48339235Y-61372572D01*
X48330970Y-61395671D01*
X48320480Y-61417850D01*
X48307868Y-61438893D01*
X48293253Y-61458599D01*
X48276777Y-61476777D01*
X48258599Y-61493253D01*
X48238893Y-61507868D01*
X48217850Y-61520480D01*
X48195671Y-61530970D01*
X48172572Y-61539235D01*
X48148773Y-61545196D01*
X48124505Y-61548796D01*
X48100001Y-61550000D01*
X47199999Y-61550000D01*
X47175495Y-61548796D01*
X47151227Y-61545196D01*
X47127428Y-61539235D01*
X47104329Y-61530970D01*
X47082150Y-61520480D01*
X47061107Y-61507868D01*
X47041401Y-61493253D01*
X47023223Y-61476777D01*
X47006747Y-61458599D01*
X46992132Y-61438893D01*
X46979520Y-61417850D01*
X46969030Y-61395671D01*
X46960765Y-61372572D01*
X46954804Y-61348773D01*
X46951204Y-61324505D01*
X46950000Y-61300001D01*
X46950000Y-60649999D01*
X46951204Y-60625495D01*
X46954804Y-60601227D01*
X46960765Y-60577428D01*
X46969030Y-60554329D01*
X46979520Y-60532150D01*
X46992132Y-60511107D01*
X47006747Y-60491401D01*
X47023223Y-60473223D01*
X47041401Y-60456747D01*
X47061107Y-60442132D01*
X47082150Y-60429520D01*
X47104329Y-60419030D01*
X47127428Y-60410765D01*
X47151227Y-60404804D01*
X47175495Y-60401204D01*
X47199999Y-60400000D01*
X48100001Y-60400000D01*
X48124505Y-60401204D01*
X48124505Y-60401204D01*
G37*
D14*
X47650000Y-60975000D03*
G04 #@! TD*
D13*
G04 #@! TO.C,C2*
G36*
X46874505Y-43401204D02*
X46898773Y-43404804D01*
X46922572Y-43410765D01*
X46945671Y-43419030D01*
X46967850Y-43429520D01*
X46988893Y-43442132D01*
X47008599Y-43456747D01*
X47026777Y-43473223D01*
X47043253Y-43491401D01*
X47057868Y-43511107D01*
X47070480Y-43532150D01*
X47080970Y-43554329D01*
X47089235Y-43577428D01*
X47095196Y-43601227D01*
X47098796Y-43625495D01*
X47100000Y-43649999D01*
X47100000Y-44300001D01*
X47098796Y-44324505D01*
X47095196Y-44348773D01*
X47089235Y-44372572D01*
X47080970Y-44395671D01*
X47070480Y-44417850D01*
X47057868Y-44438893D01*
X47043253Y-44458599D01*
X47026777Y-44476777D01*
X47008599Y-44493253D01*
X46988893Y-44507868D01*
X46967850Y-44520480D01*
X46945671Y-44530970D01*
X46922572Y-44539235D01*
X46898773Y-44545196D01*
X46874505Y-44548796D01*
X46850001Y-44550000D01*
X45949999Y-44550000D01*
X45925495Y-44548796D01*
X45901227Y-44545196D01*
X45877428Y-44539235D01*
X45854329Y-44530970D01*
X45832150Y-44520480D01*
X45811107Y-44507868D01*
X45791401Y-44493253D01*
X45773223Y-44476777D01*
X45756747Y-44458599D01*
X45742132Y-44438893D01*
X45729520Y-44417850D01*
X45719030Y-44395671D01*
X45710765Y-44372572D01*
X45704804Y-44348773D01*
X45701204Y-44324505D01*
X45700000Y-44300001D01*
X45700000Y-43649999D01*
X45701204Y-43625495D01*
X45704804Y-43601227D01*
X45710765Y-43577428D01*
X45719030Y-43554329D01*
X45729520Y-43532150D01*
X45742132Y-43511107D01*
X45756747Y-43491401D01*
X45773223Y-43473223D01*
X45791401Y-43456747D01*
X45811107Y-43442132D01*
X45832150Y-43429520D01*
X45854329Y-43419030D01*
X45877428Y-43410765D01*
X45901227Y-43404804D01*
X45925495Y-43401204D01*
X45949999Y-43400000D01*
X46850001Y-43400000D01*
X46874505Y-43401204D01*
X46874505Y-43401204D01*
G37*
D14*
X46400000Y-43975000D03*
D13*
G36*
X46874505Y-41351204D02*
X46898773Y-41354804D01*
X46922572Y-41360765D01*
X46945671Y-41369030D01*
X46967850Y-41379520D01*
X46988893Y-41392132D01*
X47008599Y-41406747D01*
X47026777Y-41423223D01*
X47043253Y-41441401D01*
X47057868Y-41461107D01*
X47070480Y-41482150D01*
X47080970Y-41504329D01*
X47089235Y-41527428D01*
X47095196Y-41551227D01*
X47098796Y-41575495D01*
X47100000Y-41599999D01*
X47100000Y-42250001D01*
X47098796Y-42274505D01*
X47095196Y-42298773D01*
X47089235Y-42322572D01*
X47080970Y-42345671D01*
X47070480Y-42367850D01*
X47057868Y-42388893D01*
X47043253Y-42408599D01*
X47026777Y-42426777D01*
X47008599Y-42443253D01*
X46988893Y-42457868D01*
X46967850Y-42470480D01*
X46945671Y-42480970D01*
X46922572Y-42489235D01*
X46898773Y-42495196D01*
X46874505Y-42498796D01*
X46850001Y-42500000D01*
X45949999Y-42500000D01*
X45925495Y-42498796D01*
X45901227Y-42495196D01*
X45877428Y-42489235D01*
X45854329Y-42480970D01*
X45832150Y-42470480D01*
X45811107Y-42457868D01*
X45791401Y-42443253D01*
X45773223Y-42426777D01*
X45756747Y-42408599D01*
X45742132Y-42388893D01*
X45729520Y-42367850D01*
X45719030Y-42345671D01*
X45710765Y-42322572D01*
X45704804Y-42298773D01*
X45701204Y-42274505D01*
X45700000Y-42250001D01*
X45700000Y-41599999D01*
X45701204Y-41575495D01*
X45704804Y-41551227D01*
X45710765Y-41527428D01*
X45719030Y-41504329D01*
X45729520Y-41482150D01*
X45742132Y-41461107D01*
X45756747Y-41441401D01*
X45773223Y-41423223D01*
X45791401Y-41406747D01*
X45811107Y-41392132D01*
X45832150Y-41379520D01*
X45854329Y-41369030D01*
X45877428Y-41360765D01*
X45901227Y-41354804D01*
X45925495Y-41351204D01*
X45949999Y-41350000D01*
X46850001Y-41350000D01*
X46874505Y-41351204D01*
X46874505Y-41351204D01*
G37*
D14*
X46400000Y-41925000D03*
G04 #@! TD*
D13*
G04 #@! TO.C,C3*
G36*
X45624505Y-74151204D02*
X45648773Y-74154804D01*
X45672572Y-74160765D01*
X45695671Y-74169030D01*
X45717850Y-74179520D01*
X45738893Y-74192132D01*
X45758599Y-74206747D01*
X45776777Y-74223223D01*
X45793253Y-74241401D01*
X45807868Y-74261107D01*
X45820480Y-74282150D01*
X45830970Y-74304329D01*
X45839235Y-74327428D01*
X45845196Y-74351227D01*
X45848796Y-74375495D01*
X45850000Y-74399999D01*
X45850000Y-75050001D01*
X45848796Y-75074505D01*
X45845196Y-75098773D01*
X45839235Y-75122572D01*
X45830970Y-75145671D01*
X45820480Y-75167850D01*
X45807868Y-75188893D01*
X45793253Y-75208599D01*
X45776777Y-75226777D01*
X45758599Y-75243253D01*
X45738893Y-75257868D01*
X45717850Y-75270480D01*
X45695671Y-75280970D01*
X45672572Y-75289235D01*
X45648773Y-75295196D01*
X45624505Y-75298796D01*
X45600001Y-75300000D01*
X44699999Y-75300000D01*
X44675495Y-75298796D01*
X44651227Y-75295196D01*
X44627428Y-75289235D01*
X44604329Y-75280970D01*
X44582150Y-75270480D01*
X44561107Y-75257868D01*
X44541401Y-75243253D01*
X44523223Y-75226777D01*
X44506747Y-75208599D01*
X44492132Y-75188893D01*
X44479520Y-75167850D01*
X44469030Y-75145671D01*
X44460765Y-75122572D01*
X44454804Y-75098773D01*
X44451204Y-75074505D01*
X44450000Y-75050001D01*
X44450000Y-74399999D01*
X44451204Y-74375495D01*
X44454804Y-74351227D01*
X44460765Y-74327428D01*
X44469030Y-74304329D01*
X44479520Y-74282150D01*
X44492132Y-74261107D01*
X44506747Y-74241401D01*
X44523223Y-74223223D01*
X44541401Y-74206747D01*
X44561107Y-74192132D01*
X44582150Y-74179520D01*
X44604329Y-74169030D01*
X44627428Y-74160765D01*
X44651227Y-74154804D01*
X44675495Y-74151204D01*
X44699999Y-74150000D01*
X45600001Y-74150000D01*
X45624505Y-74151204D01*
X45624505Y-74151204D01*
G37*
D14*
X45150000Y-74725000D03*
D13*
G36*
X45624505Y-72101204D02*
X45648773Y-72104804D01*
X45672572Y-72110765D01*
X45695671Y-72119030D01*
X45717850Y-72129520D01*
X45738893Y-72142132D01*
X45758599Y-72156747D01*
X45776777Y-72173223D01*
X45793253Y-72191401D01*
X45807868Y-72211107D01*
X45820480Y-72232150D01*
X45830970Y-72254329D01*
X45839235Y-72277428D01*
X45845196Y-72301227D01*
X45848796Y-72325495D01*
X45850000Y-72349999D01*
X45850000Y-73000001D01*
X45848796Y-73024505D01*
X45845196Y-73048773D01*
X45839235Y-73072572D01*
X45830970Y-73095671D01*
X45820480Y-73117850D01*
X45807868Y-73138893D01*
X45793253Y-73158599D01*
X45776777Y-73176777D01*
X45758599Y-73193253D01*
X45738893Y-73207868D01*
X45717850Y-73220480D01*
X45695671Y-73230970D01*
X45672572Y-73239235D01*
X45648773Y-73245196D01*
X45624505Y-73248796D01*
X45600001Y-73250000D01*
X44699999Y-73250000D01*
X44675495Y-73248796D01*
X44651227Y-73245196D01*
X44627428Y-73239235D01*
X44604329Y-73230970D01*
X44582150Y-73220480D01*
X44561107Y-73207868D01*
X44541401Y-73193253D01*
X44523223Y-73176777D01*
X44506747Y-73158599D01*
X44492132Y-73138893D01*
X44479520Y-73117850D01*
X44469030Y-73095671D01*
X44460765Y-73072572D01*
X44454804Y-73048773D01*
X44451204Y-73024505D01*
X44450000Y-73000001D01*
X44450000Y-72349999D01*
X44451204Y-72325495D01*
X44454804Y-72301227D01*
X44460765Y-72277428D01*
X44469030Y-72254329D01*
X44479520Y-72232150D01*
X44492132Y-72211107D01*
X44506747Y-72191401D01*
X44523223Y-72173223D01*
X44541401Y-72156747D01*
X44561107Y-72142132D01*
X44582150Y-72129520D01*
X44604329Y-72119030D01*
X44627428Y-72110765D01*
X44651227Y-72104804D01*
X44675495Y-72101204D01*
X44699999Y-72100000D01*
X45600001Y-72100000D01*
X45624505Y-72101204D01*
X45624505Y-72101204D01*
G37*
D14*
X45150000Y-72675000D03*
G04 #@! TD*
D13*
G04 #@! TO.C,C5*
G36*
X42799505Y-46156204D02*
X42823773Y-46159804D01*
X42847572Y-46165765D01*
X42870671Y-46174030D01*
X42892850Y-46184520D01*
X42913893Y-46197132D01*
X42933599Y-46211747D01*
X42951777Y-46228223D01*
X42968253Y-46246401D01*
X42982868Y-46266107D01*
X42995480Y-46287150D01*
X43005970Y-46309329D01*
X43014235Y-46332428D01*
X43020196Y-46356227D01*
X43023796Y-46380495D01*
X43025000Y-46404999D01*
X43025000Y-47055001D01*
X43023796Y-47079505D01*
X43020196Y-47103773D01*
X43014235Y-47127572D01*
X43005970Y-47150671D01*
X42995480Y-47172850D01*
X42982868Y-47193893D01*
X42968253Y-47213599D01*
X42951777Y-47231777D01*
X42933599Y-47248253D01*
X42913893Y-47262868D01*
X42892850Y-47275480D01*
X42870671Y-47285970D01*
X42847572Y-47294235D01*
X42823773Y-47300196D01*
X42799505Y-47303796D01*
X42775001Y-47305000D01*
X41874999Y-47305000D01*
X41850495Y-47303796D01*
X41826227Y-47300196D01*
X41802428Y-47294235D01*
X41779329Y-47285970D01*
X41757150Y-47275480D01*
X41736107Y-47262868D01*
X41716401Y-47248253D01*
X41698223Y-47231777D01*
X41681747Y-47213599D01*
X41667132Y-47193893D01*
X41654520Y-47172850D01*
X41644030Y-47150671D01*
X41635765Y-47127572D01*
X41629804Y-47103773D01*
X41626204Y-47079505D01*
X41625000Y-47055001D01*
X41625000Y-46404999D01*
X41626204Y-46380495D01*
X41629804Y-46356227D01*
X41635765Y-46332428D01*
X41644030Y-46309329D01*
X41654520Y-46287150D01*
X41667132Y-46266107D01*
X41681747Y-46246401D01*
X41698223Y-46228223D01*
X41716401Y-46211747D01*
X41736107Y-46197132D01*
X41757150Y-46184520D01*
X41779329Y-46174030D01*
X41802428Y-46165765D01*
X41826227Y-46159804D01*
X41850495Y-46156204D01*
X41874999Y-46155000D01*
X42775001Y-46155000D01*
X42799505Y-46156204D01*
X42799505Y-46156204D01*
G37*
D14*
X42325000Y-46730000D03*
D13*
G36*
X42799505Y-48206204D02*
X42823773Y-48209804D01*
X42847572Y-48215765D01*
X42870671Y-48224030D01*
X42892850Y-48234520D01*
X42913893Y-48247132D01*
X42933599Y-48261747D01*
X42951777Y-48278223D01*
X42968253Y-48296401D01*
X42982868Y-48316107D01*
X42995480Y-48337150D01*
X43005970Y-48359329D01*
X43014235Y-48382428D01*
X43020196Y-48406227D01*
X43023796Y-48430495D01*
X43025000Y-48454999D01*
X43025000Y-49105001D01*
X43023796Y-49129505D01*
X43020196Y-49153773D01*
X43014235Y-49177572D01*
X43005970Y-49200671D01*
X42995480Y-49222850D01*
X42982868Y-49243893D01*
X42968253Y-49263599D01*
X42951777Y-49281777D01*
X42933599Y-49298253D01*
X42913893Y-49312868D01*
X42892850Y-49325480D01*
X42870671Y-49335970D01*
X42847572Y-49344235D01*
X42823773Y-49350196D01*
X42799505Y-49353796D01*
X42775001Y-49355000D01*
X41874999Y-49355000D01*
X41850495Y-49353796D01*
X41826227Y-49350196D01*
X41802428Y-49344235D01*
X41779329Y-49335970D01*
X41757150Y-49325480D01*
X41736107Y-49312868D01*
X41716401Y-49298253D01*
X41698223Y-49281777D01*
X41681747Y-49263599D01*
X41667132Y-49243893D01*
X41654520Y-49222850D01*
X41644030Y-49200671D01*
X41635765Y-49177572D01*
X41629804Y-49153773D01*
X41626204Y-49129505D01*
X41625000Y-49105001D01*
X41625000Y-48454999D01*
X41626204Y-48430495D01*
X41629804Y-48406227D01*
X41635765Y-48382428D01*
X41644030Y-48359329D01*
X41654520Y-48337150D01*
X41667132Y-48316107D01*
X41681747Y-48296401D01*
X41698223Y-48278223D01*
X41716401Y-48261747D01*
X41736107Y-48247132D01*
X41757150Y-48234520D01*
X41779329Y-48224030D01*
X41802428Y-48215765D01*
X41826227Y-48209804D01*
X41850495Y-48206204D01*
X41874999Y-48205000D01*
X42775001Y-48205000D01*
X42799505Y-48206204D01*
X42799505Y-48206204D01*
G37*
D14*
X42325000Y-48780000D03*
G04 #@! TD*
D13*
G04 #@! TO.C,C6*
G36*
X42799505Y-56406204D02*
X42823773Y-56409804D01*
X42847572Y-56415765D01*
X42870671Y-56424030D01*
X42892850Y-56434520D01*
X42913893Y-56447132D01*
X42933599Y-56461747D01*
X42951777Y-56478223D01*
X42968253Y-56496401D01*
X42982868Y-56516107D01*
X42995480Y-56537150D01*
X43005970Y-56559329D01*
X43014235Y-56582428D01*
X43020196Y-56606227D01*
X43023796Y-56630495D01*
X43025000Y-56654999D01*
X43025000Y-57305001D01*
X43023796Y-57329505D01*
X43020196Y-57353773D01*
X43014235Y-57377572D01*
X43005970Y-57400671D01*
X42995480Y-57422850D01*
X42982868Y-57443893D01*
X42968253Y-57463599D01*
X42951777Y-57481777D01*
X42933599Y-57498253D01*
X42913893Y-57512868D01*
X42892850Y-57525480D01*
X42870671Y-57535970D01*
X42847572Y-57544235D01*
X42823773Y-57550196D01*
X42799505Y-57553796D01*
X42775001Y-57555000D01*
X41874999Y-57555000D01*
X41850495Y-57553796D01*
X41826227Y-57550196D01*
X41802428Y-57544235D01*
X41779329Y-57535970D01*
X41757150Y-57525480D01*
X41736107Y-57512868D01*
X41716401Y-57498253D01*
X41698223Y-57481777D01*
X41681747Y-57463599D01*
X41667132Y-57443893D01*
X41654520Y-57422850D01*
X41644030Y-57400671D01*
X41635765Y-57377572D01*
X41629804Y-57353773D01*
X41626204Y-57329505D01*
X41625000Y-57305001D01*
X41625000Y-56654999D01*
X41626204Y-56630495D01*
X41629804Y-56606227D01*
X41635765Y-56582428D01*
X41644030Y-56559329D01*
X41654520Y-56537150D01*
X41667132Y-56516107D01*
X41681747Y-56496401D01*
X41698223Y-56478223D01*
X41716401Y-56461747D01*
X41736107Y-56447132D01*
X41757150Y-56434520D01*
X41779329Y-56424030D01*
X41802428Y-56415765D01*
X41826227Y-56409804D01*
X41850495Y-56406204D01*
X41874999Y-56405000D01*
X42775001Y-56405000D01*
X42799505Y-56406204D01*
X42799505Y-56406204D01*
G37*
D14*
X42325000Y-56980000D03*
D13*
G36*
X42799505Y-54356204D02*
X42823773Y-54359804D01*
X42847572Y-54365765D01*
X42870671Y-54374030D01*
X42892850Y-54384520D01*
X42913893Y-54397132D01*
X42933599Y-54411747D01*
X42951777Y-54428223D01*
X42968253Y-54446401D01*
X42982868Y-54466107D01*
X42995480Y-54487150D01*
X43005970Y-54509329D01*
X43014235Y-54532428D01*
X43020196Y-54556227D01*
X43023796Y-54580495D01*
X43025000Y-54604999D01*
X43025000Y-55255001D01*
X43023796Y-55279505D01*
X43020196Y-55303773D01*
X43014235Y-55327572D01*
X43005970Y-55350671D01*
X42995480Y-55372850D01*
X42982868Y-55393893D01*
X42968253Y-55413599D01*
X42951777Y-55431777D01*
X42933599Y-55448253D01*
X42913893Y-55462868D01*
X42892850Y-55475480D01*
X42870671Y-55485970D01*
X42847572Y-55494235D01*
X42823773Y-55500196D01*
X42799505Y-55503796D01*
X42775001Y-55505000D01*
X41874999Y-55505000D01*
X41850495Y-55503796D01*
X41826227Y-55500196D01*
X41802428Y-55494235D01*
X41779329Y-55485970D01*
X41757150Y-55475480D01*
X41736107Y-55462868D01*
X41716401Y-55448253D01*
X41698223Y-55431777D01*
X41681747Y-55413599D01*
X41667132Y-55393893D01*
X41654520Y-55372850D01*
X41644030Y-55350671D01*
X41635765Y-55327572D01*
X41629804Y-55303773D01*
X41626204Y-55279505D01*
X41625000Y-55255001D01*
X41625000Y-54604999D01*
X41626204Y-54580495D01*
X41629804Y-54556227D01*
X41635765Y-54532428D01*
X41644030Y-54509329D01*
X41654520Y-54487150D01*
X41667132Y-54466107D01*
X41681747Y-54446401D01*
X41698223Y-54428223D01*
X41716401Y-54411747D01*
X41736107Y-54397132D01*
X41757150Y-54384520D01*
X41779329Y-54374030D01*
X41802428Y-54365765D01*
X41826227Y-54359804D01*
X41850495Y-54356204D01*
X41874999Y-54355000D01*
X42775001Y-54355000D01*
X42799505Y-54356204D01*
X42799505Y-54356204D01*
G37*
D14*
X42325000Y-54930000D03*
G04 #@! TD*
D13*
G04 #@! TO.C,C1*
G36*
X44624505Y-41401204D02*
X44648773Y-41404804D01*
X44672572Y-41410765D01*
X44695671Y-41419030D01*
X44717850Y-41429520D01*
X44738893Y-41442132D01*
X44758599Y-41456747D01*
X44776777Y-41473223D01*
X44793253Y-41491401D01*
X44807868Y-41511107D01*
X44820480Y-41532150D01*
X44830970Y-41554329D01*
X44839235Y-41577428D01*
X44845196Y-41601227D01*
X44848796Y-41625495D01*
X44850000Y-41649999D01*
X44850000Y-42300001D01*
X44848796Y-42324505D01*
X44845196Y-42348773D01*
X44839235Y-42372572D01*
X44830970Y-42395671D01*
X44820480Y-42417850D01*
X44807868Y-42438893D01*
X44793253Y-42458599D01*
X44776777Y-42476777D01*
X44758599Y-42493253D01*
X44738893Y-42507868D01*
X44717850Y-42520480D01*
X44695671Y-42530970D01*
X44672572Y-42539235D01*
X44648773Y-42545196D01*
X44624505Y-42548796D01*
X44600001Y-42550000D01*
X43699999Y-42550000D01*
X43675495Y-42548796D01*
X43651227Y-42545196D01*
X43627428Y-42539235D01*
X43604329Y-42530970D01*
X43582150Y-42520480D01*
X43561107Y-42507868D01*
X43541401Y-42493253D01*
X43523223Y-42476777D01*
X43506747Y-42458599D01*
X43492132Y-42438893D01*
X43479520Y-42417850D01*
X43469030Y-42395671D01*
X43460765Y-42372572D01*
X43454804Y-42348773D01*
X43451204Y-42324505D01*
X43450000Y-42300001D01*
X43450000Y-41649999D01*
X43451204Y-41625495D01*
X43454804Y-41601227D01*
X43460765Y-41577428D01*
X43469030Y-41554329D01*
X43479520Y-41532150D01*
X43492132Y-41511107D01*
X43506747Y-41491401D01*
X43523223Y-41473223D01*
X43541401Y-41456747D01*
X43561107Y-41442132D01*
X43582150Y-41429520D01*
X43604329Y-41419030D01*
X43627428Y-41410765D01*
X43651227Y-41404804D01*
X43675495Y-41401204D01*
X43699999Y-41400000D01*
X44600001Y-41400000D01*
X44624505Y-41401204D01*
X44624505Y-41401204D01*
G37*
D14*
X44150000Y-41975000D03*
D13*
G36*
X44624505Y-39351204D02*
X44648773Y-39354804D01*
X44672572Y-39360765D01*
X44695671Y-39369030D01*
X44717850Y-39379520D01*
X44738893Y-39392132D01*
X44758599Y-39406747D01*
X44776777Y-39423223D01*
X44793253Y-39441401D01*
X44807868Y-39461107D01*
X44820480Y-39482150D01*
X44830970Y-39504329D01*
X44839235Y-39527428D01*
X44845196Y-39551227D01*
X44848796Y-39575495D01*
X44850000Y-39599999D01*
X44850000Y-40250001D01*
X44848796Y-40274505D01*
X44845196Y-40298773D01*
X44839235Y-40322572D01*
X44830970Y-40345671D01*
X44820480Y-40367850D01*
X44807868Y-40388893D01*
X44793253Y-40408599D01*
X44776777Y-40426777D01*
X44758599Y-40443253D01*
X44738893Y-40457868D01*
X44717850Y-40470480D01*
X44695671Y-40480970D01*
X44672572Y-40489235D01*
X44648773Y-40495196D01*
X44624505Y-40498796D01*
X44600001Y-40500000D01*
X43699999Y-40500000D01*
X43675495Y-40498796D01*
X43651227Y-40495196D01*
X43627428Y-40489235D01*
X43604329Y-40480970D01*
X43582150Y-40470480D01*
X43561107Y-40457868D01*
X43541401Y-40443253D01*
X43523223Y-40426777D01*
X43506747Y-40408599D01*
X43492132Y-40388893D01*
X43479520Y-40367850D01*
X43469030Y-40345671D01*
X43460765Y-40322572D01*
X43454804Y-40298773D01*
X43451204Y-40274505D01*
X43450000Y-40250001D01*
X43450000Y-39599999D01*
X43451204Y-39575495D01*
X43454804Y-39551227D01*
X43460765Y-39527428D01*
X43469030Y-39504329D01*
X43479520Y-39482150D01*
X43492132Y-39461107D01*
X43506747Y-39441401D01*
X43523223Y-39423223D01*
X43541401Y-39406747D01*
X43561107Y-39392132D01*
X43582150Y-39379520D01*
X43604329Y-39369030D01*
X43627428Y-39360765D01*
X43651227Y-39354804D01*
X43675495Y-39351204D01*
X43699999Y-39350000D01*
X44600001Y-39350000D01*
X44624505Y-39351204D01*
X44624505Y-39351204D01*
G37*
D14*
X44150000Y-39925000D03*
G04 #@! TD*
D15*
G04 #@! TO.C,U1*
X41453200Y-37567800D03*
X41453200Y-36617800D03*
X41453200Y-38517800D03*
X44153200Y-38517800D03*
X44153200Y-37567800D03*
X44153200Y-36617800D03*
G04 #@! TD*
D13*
G04 #@! TO.C,R4*
G36*
X42874505Y-58601204D02*
X42898773Y-58604804D01*
X42922572Y-58610765D01*
X42945671Y-58619030D01*
X42967850Y-58629520D01*
X42988893Y-58642132D01*
X43008599Y-58656747D01*
X43026777Y-58673223D01*
X43043253Y-58691401D01*
X43057868Y-58711107D01*
X43070480Y-58732150D01*
X43080970Y-58754329D01*
X43089235Y-58777428D01*
X43095196Y-58801227D01*
X43098796Y-58825495D01*
X43100000Y-58849999D01*
X43100000Y-59500001D01*
X43098796Y-59524505D01*
X43095196Y-59548773D01*
X43089235Y-59572572D01*
X43080970Y-59595671D01*
X43070480Y-59617850D01*
X43057868Y-59638893D01*
X43043253Y-59658599D01*
X43026777Y-59676777D01*
X43008599Y-59693253D01*
X42988893Y-59707868D01*
X42967850Y-59720480D01*
X42945671Y-59730970D01*
X42922572Y-59739235D01*
X42898773Y-59745196D01*
X42874505Y-59748796D01*
X42850001Y-59750000D01*
X41949999Y-59750000D01*
X41925495Y-59748796D01*
X41901227Y-59745196D01*
X41877428Y-59739235D01*
X41854329Y-59730970D01*
X41832150Y-59720480D01*
X41811107Y-59707868D01*
X41791401Y-59693253D01*
X41773223Y-59676777D01*
X41756747Y-59658599D01*
X41742132Y-59638893D01*
X41729520Y-59617850D01*
X41719030Y-59595671D01*
X41710765Y-59572572D01*
X41704804Y-59548773D01*
X41701204Y-59524505D01*
X41700000Y-59500001D01*
X41700000Y-58849999D01*
X41701204Y-58825495D01*
X41704804Y-58801227D01*
X41710765Y-58777428D01*
X41719030Y-58754329D01*
X41729520Y-58732150D01*
X41742132Y-58711107D01*
X41756747Y-58691401D01*
X41773223Y-58673223D01*
X41791401Y-58656747D01*
X41811107Y-58642132D01*
X41832150Y-58629520D01*
X41854329Y-58619030D01*
X41877428Y-58610765D01*
X41901227Y-58604804D01*
X41925495Y-58601204D01*
X41949999Y-58600000D01*
X42850001Y-58600000D01*
X42874505Y-58601204D01*
X42874505Y-58601204D01*
G37*
D14*
X42400000Y-59175000D03*
D13*
G36*
X42874505Y-60651204D02*
X42898773Y-60654804D01*
X42922572Y-60660765D01*
X42945671Y-60669030D01*
X42967850Y-60679520D01*
X42988893Y-60692132D01*
X43008599Y-60706747D01*
X43026777Y-60723223D01*
X43043253Y-60741401D01*
X43057868Y-60761107D01*
X43070480Y-60782150D01*
X43080970Y-60804329D01*
X43089235Y-60827428D01*
X43095196Y-60851227D01*
X43098796Y-60875495D01*
X43100000Y-60899999D01*
X43100000Y-61550001D01*
X43098796Y-61574505D01*
X43095196Y-61598773D01*
X43089235Y-61622572D01*
X43080970Y-61645671D01*
X43070480Y-61667850D01*
X43057868Y-61688893D01*
X43043253Y-61708599D01*
X43026777Y-61726777D01*
X43008599Y-61743253D01*
X42988893Y-61757868D01*
X42967850Y-61770480D01*
X42945671Y-61780970D01*
X42922572Y-61789235D01*
X42898773Y-61795196D01*
X42874505Y-61798796D01*
X42850001Y-61800000D01*
X41949999Y-61800000D01*
X41925495Y-61798796D01*
X41901227Y-61795196D01*
X41877428Y-61789235D01*
X41854329Y-61780970D01*
X41832150Y-61770480D01*
X41811107Y-61757868D01*
X41791401Y-61743253D01*
X41773223Y-61726777D01*
X41756747Y-61708599D01*
X41742132Y-61688893D01*
X41729520Y-61667850D01*
X41719030Y-61645671D01*
X41710765Y-61622572D01*
X41704804Y-61598773D01*
X41701204Y-61574505D01*
X41700000Y-61550001D01*
X41700000Y-60899999D01*
X41701204Y-60875495D01*
X41704804Y-60851227D01*
X41710765Y-60827428D01*
X41719030Y-60804329D01*
X41729520Y-60782150D01*
X41742132Y-60761107D01*
X41756747Y-60741401D01*
X41773223Y-60723223D01*
X41791401Y-60706747D01*
X41811107Y-60692132D01*
X41832150Y-60679520D01*
X41854329Y-60669030D01*
X41877428Y-60660765D01*
X41901227Y-60654804D01*
X41925495Y-60651204D01*
X41949999Y-60650000D01*
X42850001Y-60650000D01*
X42874505Y-60651204D01*
X42874505Y-60651204D01*
G37*
D14*
X42400000Y-61225000D03*
G04 #@! TD*
D13*
G04 #@! TO.C,R1*
G36*
X41874505Y-39351204D02*
X41898773Y-39354804D01*
X41922572Y-39360765D01*
X41945671Y-39369030D01*
X41967850Y-39379520D01*
X41988893Y-39392132D01*
X42008599Y-39406747D01*
X42026777Y-39423223D01*
X42043253Y-39441401D01*
X42057868Y-39461107D01*
X42070480Y-39482150D01*
X42080970Y-39504329D01*
X42089235Y-39527428D01*
X42095196Y-39551227D01*
X42098796Y-39575495D01*
X42100000Y-39599999D01*
X42100000Y-40250001D01*
X42098796Y-40274505D01*
X42095196Y-40298773D01*
X42089235Y-40322572D01*
X42080970Y-40345671D01*
X42070480Y-40367850D01*
X42057868Y-40388893D01*
X42043253Y-40408599D01*
X42026777Y-40426777D01*
X42008599Y-40443253D01*
X41988893Y-40457868D01*
X41967850Y-40470480D01*
X41945671Y-40480970D01*
X41922572Y-40489235D01*
X41898773Y-40495196D01*
X41874505Y-40498796D01*
X41850001Y-40500000D01*
X40949999Y-40500000D01*
X40925495Y-40498796D01*
X40901227Y-40495196D01*
X40877428Y-40489235D01*
X40854329Y-40480970D01*
X40832150Y-40470480D01*
X40811107Y-40457868D01*
X40791401Y-40443253D01*
X40773223Y-40426777D01*
X40756747Y-40408599D01*
X40742132Y-40388893D01*
X40729520Y-40367850D01*
X40719030Y-40345671D01*
X40710765Y-40322572D01*
X40704804Y-40298773D01*
X40701204Y-40274505D01*
X40700000Y-40250001D01*
X40700000Y-39599999D01*
X40701204Y-39575495D01*
X40704804Y-39551227D01*
X40710765Y-39527428D01*
X40719030Y-39504329D01*
X40729520Y-39482150D01*
X40742132Y-39461107D01*
X40756747Y-39441401D01*
X40773223Y-39423223D01*
X40791401Y-39406747D01*
X40811107Y-39392132D01*
X40832150Y-39379520D01*
X40854329Y-39369030D01*
X40877428Y-39360765D01*
X40901227Y-39354804D01*
X40925495Y-39351204D01*
X40949999Y-39350000D01*
X41850001Y-39350000D01*
X41874505Y-39351204D01*
X41874505Y-39351204D01*
G37*
D14*
X41400000Y-39925000D03*
D13*
G36*
X41874505Y-41401204D02*
X41898773Y-41404804D01*
X41922572Y-41410765D01*
X41945671Y-41419030D01*
X41967850Y-41429520D01*
X41988893Y-41442132D01*
X42008599Y-41456747D01*
X42026777Y-41473223D01*
X42043253Y-41491401D01*
X42057868Y-41511107D01*
X42070480Y-41532150D01*
X42080970Y-41554329D01*
X42089235Y-41577428D01*
X42095196Y-41601227D01*
X42098796Y-41625495D01*
X42100000Y-41649999D01*
X42100000Y-42300001D01*
X42098796Y-42324505D01*
X42095196Y-42348773D01*
X42089235Y-42372572D01*
X42080970Y-42395671D01*
X42070480Y-42417850D01*
X42057868Y-42438893D01*
X42043253Y-42458599D01*
X42026777Y-42476777D01*
X42008599Y-42493253D01*
X41988893Y-42507868D01*
X41967850Y-42520480D01*
X41945671Y-42530970D01*
X41922572Y-42539235D01*
X41898773Y-42545196D01*
X41874505Y-42548796D01*
X41850001Y-42550000D01*
X40949999Y-42550000D01*
X40925495Y-42548796D01*
X40901227Y-42545196D01*
X40877428Y-42539235D01*
X40854329Y-42530970D01*
X40832150Y-42520480D01*
X40811107Y-42507868D01*
X40791401Y-42493253D01*
X40773223Y-42476777D01*
X40756747Y-42458599D01*
X40742132Y-42438893D01*
X40729520Y-42417850D01*
X40719030Y-42395671D01*
X40710765Y-42372572D01*
X40704804Y-42348773D01*
X40701204Y-42324505D01*
X40700000Y-42300001D01*
X40700000Y-41649999D01*
X40701204Y-41625495D01*
X40704804Y-41601227D01*
X40710765Y-41577428D01*
X40719030Y-41554329D01*
X40729520Y-41532150D01*
X40742132Y-41511107D01*
X40756747Y-41491401D01*
X40773223Y-41473223D01*
X40791401Y-41456747D01*
X40811107Y-41442132D01*
X40832150Y-41429520D01*
X40854329Y-41419030D01*
X40877428Y-41410765D01*
X40901227Y-41404804D01*
X40925495Y-41401204D01*
X40949999Y-41400000D01*
X41850001Y-41400000D01*
X41874505Y-41401204D01*
X41874505Y-41401204D01*
G37*
D14*
X41400000Y-41975000D03*
G04 #@! TD*
D13*
G04 #@! TO.C,R2*
G36*
X44274505Y-43251204D02*
X44298773Y-43254804D01*
X44322572Y-43260765D01*
X44345671Y-43269030D01*
X44367850Y-43279520D01*
X44388893Y-43292132D01*
X44408599Y-43306747D01*
X44426777Y-43323223D01*
X44443253Y-43341401D01*
X44457868Y-43361107D01*
X44470480Y-43382150D01*
X44480970Y-43404329D01*
X44489235Y-43427428D01*
X44495196Y-43451227D01*
X44498796Y-43475495D01*
X44500000Y-43499999D01*
X44500000Y-44400001D01*
X44498796Y-44424505D01*
X44495196Y-44448773D01*
X44489235Y-44472572D01*
X44480970Y-44495671D01*
X44470480Y-44517850D01*
X44457868Y-44538893D01*
X44443253Y-44558599D01*
X44426777Y-44576777D01*
X44408599Y-44593253D01*
X44388893Y-44607868D01*
X44367850Y-44620480D01*
X44345671Y-44630970D01*
X44322572Y-44639235D01*
X44298773Y-44645196D01*
X44274505Y-44648796D01*
X44250001Y-44650000D01*
X43599999Y-44650000D01*
X43575495Y-44648796D01*
X43551227Y-44645196D01*
X43527428Y-44639235D01*
X43504329Y-44630970D01*
X43482150Y-44620480D01*
X43461107Y-44607868D01*
X43441401Y-44593253D01*
X43423223Y-44576777D01*
X43406747Y-44558599D01*
X43392132Y-44538893D01*
X43379520Y-44517850D01*
X43369030Y-44495671D01*
X43360765Y-44472572D01*
X43354804Y-44448773D01*
X43351204Y-44424505D01*
X43350000Y-44400001D01*
X43350000Y-43499999D01*
X43351204Y-43475495D01*
X43354804Y-43451227D01*
X43360765Y-43427428D01*
X43369030Y-43404329D01*
X43379520Y-43382150D01*
X43392132Y-43361107D01*
X43406747Y-43341401D01*
X43423223Y-43323223D01*
X43441401Y-43306747D01*
X43461107Y-43292132D01*
X43482150Y-43279520D01*
X43504329Y-43269030D01*
X43527428Y-43260765D01*
X43551227Y-43254804D01*
X43575495Y-43251204D01*
X43599999Y-43250000D01*
X44250001Y-43250000D01*
X44274505Y-43251204D01*
X44274505Y-43251204D01*
G37*
D14*
X43925000Y-43950000D03*
D13*
G36*
X42224505Y-43251204D02*
X42248773Y-43254804D01*
X42272572Y-43260765D01*
X42295671Y-43269030D01*
X42317850Y-43279520D01*
X42338893Y-43292132D01*
X42358599Y-43306747D01*
X42376777Y-43323223D01*
X42393253Y-43341401D01*
X42407868Y-43361107D01*
X42420480Y-43382150D01*
X42430970Y-43404329D01*
X42439235Y-43427428D01*
X42445196Y-43451227D01*
X42448796Y-43475495D01*
X42450000Y-43499999D01*
X42450000Y-44400001D01*
X42448796Y-44424505D01*
X42445196Y-44448773D01*
X42439235Y-44472572D01*
X42430970Y-44495671D01*
X42420480Y-44517850D01*
X42407868Y-44538893D01*
X42393253Y-44558599D01*
X42376777Y-44576777D01*
X42358599Y-44593253D01*
X42338893Y-44607868D01*
X42317850Y-44620480D01*
X42295671Y-44630970D01*
X42272572Y-44639235D01*
X42248773Y-44645196D01*
X42224505Y-44648796D01*
X42200001Y-44650000D01*
X41549999Y-44650000D01*
X41525495Y-44648796D01*
X41501227Y-44645196D01*
X41477428Y-44639235D01*
X41454329Y-44630970D01*
X41432150Y-44620480D01*
X41411107Y-44607868D01*
X41391401Y-44593253D01*
X41373223Y-44576777D01*
X41356747Y-44558599D01*
X41342132Y-44538893D01*
X41329520Y-44517850D01*
X41319030Y-44495671D01*
X41310765Y-44472572D01*
X41304804Y-44448773D01*
X41301204Y-44424505D01*
X41300000Y-44400001D01*
X41300000Y-43499999D01*
X41301204Y-43475495D01*
X41304804Y-43451227D01*
X41310765Y-43427428D01*
X41319030Y-43404329D01*
X41329520Y-43382150D01*
X41342132Y-43361107D01*
X41356747Y-43341401D01*
X41373223Y-43323223D01*
X41391401Y-43306747D01*
X41411107Y-43292132D01*
X41432150Y-43279520D01*
X41454329Y-43269030D01*
X41477428Y-43260765D01*
X41501227Y-43254804D01*
X41525495Y-43251204D01*
X41549999Y-43250000D01*
X42200001Y-43250000D01*
X42224505Y-43251204D01*
X42224505Y-43251204D01*
G37*
D14*
X41875000Y-43950000D03*
G04 #@! TD*
D13*
G04 #@! TO.C,R5*
G36*
X50624505Y-60401204D02*
X50648773Y-60404804D01*
X50672572Y-60410765D01*
X50695671Y-60419030D01*
X50717850Y-60429520D01*
X50738893Y-60442132D01*
X50758599Y-60456747D01*
X50776777Y-60473223D01*
X50793253Y-60491401D01*
X50807868Y-60511107D01*
X50820480Y-60532150D01*
X50830970Y-60554329D01*
X50839235Y-60577428D01*
X50845196Y-60601227D01*
X50848796Y-60625495D01*
X50850000Y-60649999D01*
X50850000Y-61300001D01*
X50848796Y-61324505D01*
X50845196Y-61348773D01*
X50839235Y-61372572D01*
X50830970Y-61395671D01*
X50820480Y-61417850D01*
X50807868Y-61438893D01*
X50793253Y-61458599D01*
X50776777Y-61476777D01*
X50758599Y-61493253D01*
X50738893Y-61507868D01*
X50717850Y-61520480D01*
X50695671Y-61530970D01*
X50672572Y-61539235D01*
X50648773Y-61545196D01*
X50624505Y-61548796D01*
X50600001Y-61550000D01*
X49699999Y-61550000D01*
X49675495Y-61548796D01*
X49651227Y-61545196D01*
X49627428Y-61539235D01*
X49604329Y-61530970D01*
X49582150Y-61520480D01*
X49561107Y-61507868D01*
X49541401Y-61493253D01*
X49523223Y-61476777D01*
X49506747Y-61458599D01*
X49492132Y-61438893D01*
X49479520Y-61417850D01*
X49469030Y-61395671D01*
X49460765Y-61372572D01*
X49454804Y-61348773D01*
X49451204Y-61324505D01*
X49450000Y-61300001D01*
X49450000Y-60649999D01*
X49451204Y-60625495D01*
X49454804Y-60601227D01*
X49460765Y-60577428D01*
X49469030Y-60554329D01*
X49479520Y-60532150D01*
X49492132Y-60511107D01*
X49506747Y-60491401D01*
X49523223Y-60473223D01*
X49541401Y-60456747D01*
X49561107Y-60442132D01*
X49582150Y-60429520D01*
X49604329Y-60419030D01*
X49627428Y-60410765D01*
X49651227Y-60404804D01*
X49675495Y-60401204D01*
X49699999Y-60400000D01*
X50600001Y-60400000D01*
X50624505Y-60401204D01*
X50624505Y-60401204D01*
G37*
D14*
X50150000Y-60975000D03*
D13*
G36*
X50624505Y-58351204D02*
X50648773Y-58354804D01*
X50672572Y-58360765D01*
X50695671Y-58369030D01*
X50717850Y-58379520D01*
X50738893Y-58392132D01*
X50758599Y-58406747D01*
X50776777Y-58423223D01*
X50793253Y-58441401D01*
X50807868Y-58461107D01*
X50820480Y-58482150D01*
X50830970Y-58504329D01*
X50839235Y-58527428D01*
X50845196Y-58551227D01*
X50848796Y-58575495D01*
X50850000Y-58599999D01*
X50850000Y-59250001D01*
X50848796Y-59274505D01*
X50845196Y-59298773D01*
X50839235Y-59322572D01*
X50830970Y-59345671D01*
X50820480Y-59367850D01*
X50807868Y-59388893D01*
X50793253Y-59408599D01*
X50776777Y-59426777D01*
X50758599Y-59443253D01*
X50738893Y-59457868D01*
X50717850Y-59470480D01*
X50695671Y-59480970D01*
X50672572Y-59489235D01*
X50648773Y-59495196D01*
X50624505Y-59498796D01*
X50600001Y-59500000D01*
X49699999Y-59500000D01*
X49675495Y-59498796D01*
X49651227Y-59495196D01*
X49627428Y-59489235D01*
X49604329Y-59480970D01*
X49582150Y-59470480D01*
X49561107Y-59457868D01*
X49541401Y-59443253D01*
X49523223Y-59426777D01*
X49506747Y-59408599D01*
X49492132Y-59388893D01*
X49479520Y-59367850D01*
X49469030Y-59345671D01*
X49460765Y-59322572D01*
X49454804Y-59298773D01*
X49451204Y-59274505D01*
X49450000Y-59250001D01*
X49450000Y-58599999D01*
X49451204Y-58575495D01*
X49454804Y-58551227D01*
X49460765Y-58527428D01*
X49469030Y-58504329D01*
X49479520Y-58482150D01*
X49492132Y-58461107D01*
X49506747Y-58441401D01*
X49523223Y-58423223D01*
X49541401Y-58406747D01*
X49561107Y-58392132D01*
X49582150Y-58379520D01*
X49604329Y-58369030D01*
X49627428Y-58360765D01*
X49651227Y-58354804D01*
X49675495Y-58351204D01*
X49699999Y-58350000D01*
X50600001Y-58350000D01*
X50624505Y-58351204D01*
X50624505Y-58351204D01*
G37*
D14*
X50150000Y-58925000D03*
G04 #@! TD*
D13*
G04 #@! TO.C,R6*
G36*
X42799505Y-52306204D02*
X42823773Y-52309804D01*
X42847572Y-52315765D01*
X42870671Y-52324030D01*
X42892850Y-52334520D01*
X42913893Y-52347132D01*
X42933599Y-52361747D01*
X42951777Y-52378223D01*
X42968253Y-52396401D01*
X42982868Y-52416107D01*
X42995480Y-52437150D01*
X43005970Y-52459329D01*
X43014235Y-52482428D01*
X43020196Y-52506227D01*
X43023796Y-52530495D01*
X43025000Y-52554999D01*
X43025000Y-53205001D01*
X43023796Y-53229505D01*
X43020196Y-53253773D01*
X43014235Y-53277572D01*
X43005970Y-53300671D01*
X42995480Y-53322850D01*
X42982868Y-53343893D01*
X42968253Y-53363599D01*
X42951777Y-53381777D01*
X42933599Y-53398253D01*
X42913893Y-53412868D01*
X42892850Y-53425480D01*
X42870671Y-53435970D01*
X42847572Y-53444235D01*
X42823773Y-53450196D01*
X42799505Y-53453796D01*
X42775001Y-53455000D01*
X41874999Y-53455000D01*
X41850495Y-53453796D01*
X41826227Y-53450196D01*
X41802428Y-53444235D01*
X41779329Y-53435970D01*
X41757150Y-53425480D01*
X41736107Y-53412868D01*
X41716401Y-53398253D01*
X41698223Y-53381777D01*
X41681747Y-53363599D01*
X41667132Y-53343893D01*
X41654520Y-53322850D01*
X41644030Y-53300671D01*
X41635765Y-53277572D01*
X41629804Y-53253773D01*
X41626204Y-53229505D01*
X41625000Y-53205001D01*
X41625000Y-52554999D01*
X41626204Y-52530495D01*
X41629804Y-52506227D01*
X41635765Y-52482428D01*
X41644030Y-52459329D01*
X41654520Y-52437150D01*
X41667132Y-52416107D01*
X41681747Y-52396401D01*
X41698223Y-52378223D01*
X41716401Y-52361747D01*
X41736107Y-52347132D01*
X41757150Y-52334520D01*
X41779329Y-52324030D01*
X41802428Y-52315765D01*
X41826227Y-52309804D01*
X41850495Y-52306204D01*
X41874999Y-52305000D01*
X42775001Y-52305000D01*
X42799505Y-52306204D01*
X42799505Y-52306204D01*
G37*
D14*
X42325000Y-52880000D03*
D13*
G36*
X42799505Y-50256204D02*
X42823773Y-50259804D01*
X42847572Y-50265765D01*
X42870671Y-50274030D01*
X42892850Y-50284520D01*
X42913893Y-50297132D01*
X42933599Y-50311747D01*
X42951777Y-50328223D01*
X42968253Y-50346401D01*
X42982868Y-50366107D01*
X42995480Y-50387150D01*
X43005970Y-50409329D01*
X43014235Y-50432428D01*
X43020196Y-50456227D01*
X43023796Y-50480495D01*
X43025000Y-50504999D01*
X43025000Y-51155001D01*
X43023796Y-51179505D01*
X43020196Y-51203773D01*
X43014235Y-51227572D01*
X43005970Y-51250671D01*
X42995480Y-51272850D01*
X42982868Y-51293893D01*
X42968253Y-51313599D01*
X42951777Y-51331777D01*
X42933599Y-51348253D01*
X42913893Y-51362868D01*
X42892850Y-51375480D01*
X42870671Y-51385970D01*
X42847572Y-51394235D01*
X42823773Y-51400196D01*
X42799505Y-51403796D01*
X42775001Y-51405000D01*
X41874999Y-51405000D01*
X41850495Y-51403796D01*
X41826227Y-51400196D01*
X41802428Y-51394235D01*
X41779329Y-51385970D01*
X41757150Y-51375480D01*
X41736107Y-51362868D01*
X41716401Y-51348253D01*
X41698223Y-51331777D01*
X41681747Y-51313599D01*
X41667132Y-51293893D01*
X41654520Y-51272850D01*
X41644030Y-51250671D01*
X41635765Y-51227572D01*
X41629804Y-51203773D01*
X41626204Y-51179505D01*
X41625000Y-51155001D01*
X41625000Y-50504999D01*
X41626204Y-50480495D01*
X41629804Y-50456227D01*
X41635765Y-50432428D01*
X41644030Y-50409329D01*
X41654520Y-50387150D01*
X41667132Y-50366107D01*
X41681747Y-50346401D01*
X41698223Y-50328223D01*
X41716401Y-50311747D01*
X41736107Y-50297132D01*
X41757150Y-50284520D01*
X41779329Y-50274030D01*
X41802428Y-50265765D01*
X41826227Y-50259804D01*
X41850495Y-50256204D01*
X41874999Y-50255000D01*
X42775001Y-50255000D01*
X42799505Y-50256204D01*
X42799505Y-50256204D01*
G37*
D14*
X42325000Y-50830000D03*
G04 #@! TD*
M02*
