G04 #@! TF.GenerationSoftware,KiCad,Pcbnew,5.0.2-bee76a0~70~ubuntu18.04.1*
G04 #@! TF.CreationDate,2019-01-08T13:34:53-05:00*
G04 #@! TF.ProjectId,samn_small,73616d6e-5f73-46d6-916c-6c2e6b696361,7*
G04 #@! TF.SameCoordinates,Original*
G04 #@! TF.FileFunction,Copper,L2,Bot*
G04 #@! TF.FilePolarity,Positive*
%FSLAX46Y46*%
G04 Gerber Fmt 4.6, Leading zero omitted, Abs format (unit mm)*
G04 Created by KiCad (PCBNEW 5.0.2-bee76a0~70~ubuntu18.04.1) date Tue 08 Jan 2019 01:34:53 PM EST*
%MOMM*%
%LPD*%
G01*
G04 APERTURE LIST*
G04 #@! TA.AperFunction,ComponentPad*
%ADD10O,1.700000X1.700000*%
G04 #@! TD*
G04 #@! TA.AperFunction,ComponentPad*
%ADD11R,1.700000X1.700000*%
G04 #@! TD*
G04 #@! TA.AperFunction,SMDPad,CuDef*
%ADD12R,3.700000X1.500000*%
G04 #@! TD*
G04 #@! TA.AperFunction,SMDPad,CuDef*
%ADD13R,0.550000X1.600000*%
G04 #@! TD*
G04 #@! TA.AperFunction,SMDPad,CuDef*
%ADD14R,1.600000X0.550000*%
G04 #@! TD*
G04 #@! TA.AperFunction,ComponentPad*
%ADD15C,1.900000*%
G04 #@! TD*
G04 #@! TA.AperFunction,Conductor*
%ADD16C,0.100000*%
G04 #@! TD*
G04 #@! TA.AperFunction,SMDPad,CuDef*
%ADD17C,1.150000*%
G04 #@! TD*
G04 #@! TA.AperFunction,ComponentPad*
%ADD18C,1.800000*%
G04 #@! TD*
G04 #@! TA.AperFunction,ComponentPad*
%ADD19R,1.800000X1.800000*%
G04 #@! TD*
G04 #@! TA.AperFunction,ComponentPad*
%ADD20C,3.400000*%
G04 #@! TD*
G04 #@! TA.AperFunction,ComponentPad*
%ADD21C,1.500000*%
G04 #@! TD*
G04 #@! TA.AperFunction,ComponentPad*
%ADD22C,1.600000*%
G04 #@! TD*
G04 #@! TA.AperFunction,ComponentPad*
%ADD23R,1.600000X1.600000*%
G04 #@! TD*
G04 #@! TA.AperFunction,SMDPad,CuDef*
%ADD24R,1.560000X0.650000*%
G04 #@! TD*
G04 #@! TA.AperFunction,ViaPad*
%ADD25C,5.000000*%
G04 #@! TD*
G04 #@! TA.AperFunction,ViaPad*
%ADD26C,0.600000*%
G04 #@! TD*
G04 #@! TA.AperFunction,Conductor*
%ADD27C,0.254000*%
G04 #@! TD*
G04 #@! TA.AperFunction,Conductor*
%ADD28C,0.420000*%
G04 #@! TD*
G04 APERTURE END LIST*
D10*
G04 #@! TO.P,J7,6*
G04 #@! TO.N,GND*
X61225400Y-74753200D03*
G04 #@! TO.P,J7,5*
G04 #@! TO.N,+3V3*
X61225400Y-77293200D03*
G04 #@! TO.P,J7,4*
G04 #@! TO.N,SCK*
X61225400Y-79833200D03*
G04 #@! TO.P,J7,3*
G04 #@! TO.N,MISO*
X61225400Y-82373200D03*
G04 #@! TO.P,J7,2*
G04 #@! TO.N,MOSI*
X61225400Y-84913200D03*
D11*
G04 #@! TO.P,J7,1*
G04 #@! TO.N,Net-(J7-Pad1)*
X61225400Y-87453200D03*
G04 #@! TD*
D10*
G04 #@! TO.P,J4,6*
G04 #@! TO.N,MISO*
X58666000Y-70240000D03*
G04 #@! TO.P,J4,5*
G04 #@! TO.N,+3V3*
X58666000Y-67700000D03*
G04 #@! TO.P,J4,4*
G04 #@! TO.N,SCK*
X61206000Y-70240000D03*
G04 #@! TO.P,J4,3*
G04 #@! TO.N,MOSI*
X61206000Y-67700000D03*
G04 #@! TO.P,J4,2*
G04 #@! TO.N,Reset*
X63746000Y-70240000D03*
D11*
G04 #@! TO.P,J4,1*
G04 #@! TO.N,GND*
X63746000Y-67700000D03*
G04 #@! TD*
D10*
G04 #@! TO.P,J12,4*
G04 #@! TO.N,Net-(J12-Pad4)*
X64900000Y-51950000D03*
G04 #@! TO.P,J12,3*
G04 #@! TO.N,Net-(J12-Pad3)*
X64900000Y-54490000D03*
G04 #@! TO.P,J12,2*
G04 #@! TO.N,Net-(J12-Pad2)*
X64900000Y-57030000D03*
D11*
G04 #@! TO.P,J12,1*
G04 #@! TO.N,Net-(J12-Pad1)*
X64900000Y-59570000D03*
G04 #@! TD*
D10*
G04 #@! TO.P,J11,2*
G04 #@! TO.N,Net-(J11-Pad2)*
X57900000Y-43160000D03*
D11*
G04 #@! TO.P,J11,1*
G04 #@! TO.N,GND*
X57900000Y-45700000D03*
G04 #@! TD*
D12*
G04 #@! TO.P,L1,2*
G04 #@! TO.N,Net-(L1-Pad2)*
X54650000Y-36800000D03*
G04 #@! TO.P,L1,1*
G04 #@! TO.N,+1V5*
X54650000Y-39600000D03*
G04 #@! TD*
D13*
G04 #@! TO.P,U2,32*
G04 #@! TO.N,Net-(J3-Pad4)*
X52450000Y-63650000D03*
G04 #@! TO.P,U2,31*
G04 #@! TO.N,Net-(J3-Pad3)*
X51650000Y-63650000D03*
G04 #@! TO.P,U2,30*
G04 #@! TO.N,Net-(J3-Pad2)*
X50850000Y-63650000D03*
G04 #@! TO.P,U2,29*
G04 #@! TO.N,Reset*
X50050000Y-63650000D03*
G04 #@! TO.P,U2,28*
G04 #@! TO.N,Net-(J1-Pad6)*
X49250000Y-63650000D03*
G04 #@! TO.P,U2,27*
G04 #@! TO.N,Net-(J1-Pad5)*
X48450000Y-63650000D03*
G04 #@! TO.P,U2,26*
G04 #@! TO.N,Net-(J1-Pad4)*
X47650000Y-63650000D03*
G04 #@! TO.P,U2,25*
G04 #@! TO.N,Net-(J1-Pad3)*
X46850000Y-63650000D03*
D14*
G04 #@! TO.P,U2,24*
G04 #@! TO.N,Net-(J1-Pad2)*
X45400000Y-65100000D03*
G04 #@! TO.P,U2,23*
G04 #@! TO.N,Net-(J1-Pad1)*
X45400000Y-65900000D03*
G04 #@! TO.P,U2,22*
G04 #@! TO.N,Net-(J12-Pad1)*
X45400000Y-66700000D03*
G04 #@! TO.P,U2,21*
G04 #@! TO.N,GND*
X45400000Y-67500000D03*
G04 #@! TO.P,U2,20*
G04 #@! TO.N,Net-(C3-Pad2)*
X45400000Y-68300000D03*
G04 #@! TO.P,U2,19*
G04 #@! TO.N,Net-(J12-Pad2)*
X45400000Y-69100000D03*
G04 #@! TO.P,U2,18*
G04 #@! TO.N,+3V3*
X45400000Y-69900000D03*
G04 #@! TO.P,U2,17*
G04 #@! TO.N,SCK*
X45400000Y-70700000D03*
D13*
G04 #@! TO.P,U2,16*
G04 #@! TO.N,MISO*
X46850000Y-72150000D03*
G04 #@! TO.P,U2,15*
G04 #@! TO.N,MOSI*
X47650000Y-72150000D03*
G04 #@! TO.P,U2,14*
G04 #@! TO.N,Net-(J8-Pad1)*
X48450000Y-72150000D03*
G04 #@! TO.P,U2,13*
G04 #@! TO.N,Net-(J7-Pad1)*
X49250000Y-72150000D03*
G04 #@! TO.P,U2,12*
G04 #@! TO.N,Net-(J6-Pad1)*
X50050000Y-72150000D03*
G04 #@! TO.P,U2,11*
G04 #@! TO.N,Net-(U2-Pad11)*
X50850000Y-72150000D03*
G04 #@! TO.P,U2,10*
G04 #@! TO.N,Net-(U2-Pad10)*
X51650000Y-72150000D03*
G04 #@! TO.P,U2,9*
G04 #@! TO.N,Net-(R4-Pad2)*
X52450000Y-72150000D03*
D14*
G04 #@! TO.P,U2,8*
G04 #@! TO.N,Net-(C6-Pad1)*
X53900000Y-70700000D03*
G04 #@! TO.P,U2,7*
G04 #@! TO.N,Net-(C5-Pad1)*
X53900000Y-69900000D03*
G04 #@! TO.P,U2,6*
G04 #@! TO.N,Net-(J12-Pad3)*
X53900000Y-69100000D03*
G04 #@! TO.P,U2,5*
G04 #@! TO.N,GND*
X53900000Y-68300000D03*
G04 #@! TO.P,U2,4*
G04 #@! TO.N,+3V3*
X53900000Y-67500000D03*
G04 #@! TO.P,U2,3*
G04 #@! TO.N,Net-(J12-Pad4)*
X53900000Y-66700000D03*
G04 #@! TO.P,U2,2*
G04 #@! TO.N,Net-(J3-Pad6)*
X53900000Y-65900000D03*
G04 #@! TO.P,U2,1*
G04 #@! TO.N,Net-(J3-Pad5)*
X53900000Y-65100000D03*
G04 #@! TD*
D10*
G04 #@! TO.P,J9,6*
G04 #@! TO.N,Net-(J3-Pad6)*
X57900000Y-64650000D03*
G04 #@! TO.P,J9,5*
G04 #@! TO.N,Net-(J3-Pad5)*
X57900000Y-62110000D03*
G04 #@! TO.P,J9,4*
G04 #@! TO.N,Net-(J3-Pad4)*
X57900000Y-59570000D03*
G04 #@! TO.P,J9,3*
G04 #@! TO.N,Net-(J3-Pad3)*
X57900000Y-57030000D03*
G04 #@! TO.P,J9,2*
G04 #@! TO.N,Net-(J3-Pad2)*
X57900000Y-54490000D03*
D11*
G04 #@! TO.P,J9,1*
G04 #@! TO.N,Reset*
X57900000Y-51950000D03*
G04 #@! TD*
D10*
G04 #@! TO.P,J10,6*
G04 #@! TO.N,Net-(J1-Pad6)*
X41150000Y-65987000D03*
G04 #@! TO.P,J10,5*
G04 #@! TO.N,Net-(J1-Pad5)*
X41150000Y-68527000D03*
G04 #@! TO.P,J10,4*
G04 #@! TO.N,Net-(J1-Pad4)*
X41150000Y-71067000D03*
G04 #@! TO.P,J10,3*
G04 #@! TO.N,Net-(J1-Pad3)*
X41150000Y-73607000D03*
G04 #@! TO.P,J10,2*
G04 #@! TO.N,Net-(J1-Pad2)*
X41150000Y-76147000D03*
D11*
G04 #@! TO.P,J10,1*
G04 #@! TO.N,Net-(J1-Pad1)*
X41150000Y-78687000D03*
G04 #@! TD*
D15*
G04 #@! TO.P,U3,1*
G04 #@! TO.N,GND*
X37900000Y-21200000D03*
G04 #@! TO.P,U3,2*
G04 #@! TO.N,+3V3*
X40440000Y-21200000D03*
G04 #@! TO.P,U3,3*
G04 #@! TO.N,Net-(U2-Pad10)*
X37900000Y-23740000D03*
G04 #@! TO.P,U3,4*
G04 #@! TO.N,Net-(U2-Pad11)*
X40440000Y-23740000D03*
G04 #@! TO.P,U3,5*
G04 #@! TO.N,SCK*
X37900000Y-26280000D03*
G04 #@! TO.P,U3,6*
G04 #@! TO.N,MOSI*
X40440000Y-26280000D03*
G04 #@! TO.P,U3,7*
G04 #@! TO.N,MISO*
X37900000Y-28820000D03*
G04 #@! TO.P,U3,8*
G04 #@! TO.N,Net-(J3-Pad4)*
X40440000Y-28820000D03*
G04 #@! TD*
D10*
G04 #@! TO.P,J2,2*
G04 #@! TO.N,Net-(J11-Pad2)*
X60650000Y-43160000D03*
D11*
G04 #@! TO.P,J2,1*
G04 #@! TO.N,GND*
X60650000Y-45700000D03*
G04 #@! TD*
D10*
G04 #@! TO.P,J6,6*
G04 #@! TO.N,GND*
X58475400Y-74753200D03*
G04 #@! TO.P,J6,5*
G04 #@! TO.N,+3V3*
X58475400Y-77293200D03*
G04 #@! TO.P,J6,4*
G04 #@! TO.N,SCK*
X58475400Y-79833200D03*
G04 #@! TO.P,J6,3*
G04 #@! TO.N,MISO*
X58475400Y-82373200D03*
G04 #@! TO.P,J6,2*
G04 #@! TO.N,MOSI*
X58475400Y-84913200D03*
D11*
G04 #@! TO.P,J6,1*
G04 #@! TO.N,Net-(J6-Pad1)*
X58475400Y-87453200D03*
G04 #@! TD*
D10*
G04 #@! TO.P,J8,6*
G04 #@! TO.N,GND*
X63975400Y-74753200D03*
G04 #@! TO.P,J8,5*
G04 #@! TO.N,+3V3*
X63975400Y-77293200D03*
G04 #@! TO.P,J8,4*
G04 #@! TO.N,SCK*
X63975400Y-79833200D03*
G04 #@! TO.P,J8,3*
G04 #@! TO.N,MISO*
X63975400Y-82373200D03*
G04 #@! TO.P,J8,2*
G04 #@! TO.N,MOSI*
X63975400Y-84913200D03*
D11*
G04 #@! TO.P,J8,1*
G04 #@! TO.N,Net-(J8-Pad1)*
X63975400Y-87453200D03*
G04 #@! TD*
D10*
G04 #@! TO.P,J5,3*
G04 #@! TO.N,Net-(J11-Pad2)*
X64900000Y-43120000D03*
G04 #@! TO.P,J5,2*
G04 #@! TO.N,+1V5*
X64900000Y-45660000D03*
D11*
G04 #@! TO.P,J5,1*
G04 #@! TO.N,Net-(J5-Pad1)*
X64900000Y-48200000D03*
G04 #@! TD*
D16*
G04 #@! TO.N,+1V5*
G04 #@! TO.C,R7*
G36*
X48124505Y-58351204D02*
X48148773Y-58354804D01*
X48172572Y-58360765D01*
X48195671Y-58369030D01*
X48217850Y-58379520D01*
X48238893Y-58392132D01*
X48258599Y-58406747D01*
X48276777Y-58423223D01*
X48293253Y-58441401D01*
X48307868Y-58461107D01*
X48320480Y-58482150D01*
X48330970Y-58504329D01*
X48339235Y-58527428D01*
X48345196Y-58551227D01*
X48348796Y-58575495D01*
X48350000Y-58599999D01*
X48350000Y-59250001D01*
X48348796Y-59274505D01*
X48345196Y-59298773D01*
X48339235Y-59322572D01*
X48330970Y-59345671D01*
X48320480Y-59367850D01*
X48307868Y-59388893D01*
X48293253Y-59408599D01*
X48276777Y-59426777D01*
X48258599Y-59443253D01*
X48238893Y-59457868D01*
X48217850Y-59470480D01*
X48195671Y-59480970D01*
X48172572Y-59489235D01*
X48148773Y-59495196D01*
X48124505Y-59498796D01*
X48100001Y-59500000D01*
X47199999Y-59500000D01*
X47175495Y-59498796D01*
X47151227Y-59495196D01*
X47127428Y-59489235D01*
X47104329Y-59480970D01*
X47082150Y-59470480D01*
X47061107Y-59457868D01*
X47041401Y-59443253D01*
X47023223Y-59426777D01*
X47006747Y-59408599D01*
X46992132Y-59388893D01*
X46979520Y-59367850D01*
X46969030Y-59345671D01*
X46960765Y-59322572D01*
X46954804Y-59298773D01*
X46951204Y-59274505D01*
X46950000Y-59250001D01*
X46950000Y-58599999D01*
X46951204Y-58575495D01*
X46954804Y-58551227D01*
X46960765Y-58527428D01*
X46969030Y-58504329D01*
X46979520Y-58482150D01*
X46992132Y-58461107D01*
X47006747Y-58441401D01*
X47023223Y-58423223D01*
X47041401Y-58406747D01*
X47061107Y-58392132D01*
X47082150Y-58379520D01*
X47104329Y-58369030D01*
X47127428Y-58360765D01*
X47151227Y-58354804D01*
X47175495Y-58351204D01*
X47199999Y-58350000D01*
X48100001Y-58350000D01*
X48124505Y-58351204D01*
X48124505Y-58351204D01*
G37*
D17*
G04 #@! TD*
G04 #@! TO.P,R7,2*
G04 #@! TO.N,+1V5*
X47650000Y-58925000D03*
D16*
G04 #@! TO.N,Net-(J1-Pad4)*
G04 #@! TO.C,R7*
G36*
X48124505Y-60401204D02*
X48148773Y-60404804D01*
X48172572Y-60410765D01*
X48195671Y-60419030D01*
X48217850Y-60429520D01*
X48238893Y-60442132D01*
X48258599Y-60456747D01*
X48276777Y-60473223D01*
X48293253Y-60491401D01*
X48307868Y-60511107D01*
X48320480Y-60532150D01*
X48330970Y-60554329D01*
X48339235Y-60577428D01*
X48345196Y-60601227D01*
X48348796Y-60625495D01*
X48350000Y-60649999D01*
X48350000Y-61300001D01*
X48348796Y-61324505D01*
X48345196Y-61348773D01*
X48339235Y-61372572D01*
X48330970Y-61395671D01*
X48320480Y-61417850D01*
X48307868Y-61438893D01*
X48293253Y-61458599D01*
X48276777Y-61476777D01*
X48258599Y-61493253D01*
X48238893Y-61507868D01*
X48217850Y-61520480D01*
X48195671Y-61530970D01*
X48172572Y-61539235D01*
X48148773Y-61545196D01*
X48124505Y-61548796D01*
X48100001Y-61550000D01*
X47199999Y-61550000D01*
X47175495Y-61548796D01*
X47151227Y-61545196D01*
X47127428Y-61539235D01*
X47104329Y-61530970D01*
X47082150Y-61520480D01*
X47061107Y-61507868D01*
X47041401Y-61493253D01*
X47023223Y-61476777D01*
X47006747Y-61458599D01*
X46992132Y-61438893D01*
X46979520Y-61417850D01*
X46969030Y-61395671D01*
X46960765Y-61372572D01*
X46954804Y-61348773D01*
X46951204Y-61324505D01*
X46950000Y-61300001D01*
X46950000Y-60649999D01*
X46951204Y-60625495D01*
X46954804Y-60601227D01*
X46960765Y-60577428D01*
X46969030Y-60554329D01*
X46979520Y-60532150D01*
X46992132Y-60511107D01*
X47006747Y-60491401D01*
X47023223Y-60473223D01*
X47041401Y-60456747D01*
X47061107Y-60442132D01*
X47082150Y-60429520D01*
X47104329Y-60419030D01*
X47127428Y-60410765D01*
X47151227Y-60404804D01*
X47175495Y-60401204D01*
X47199999Y-60400000D01*
X48100001Y-60400000D01*
X48124505Y-60401204D01*
X48124505Y-60401204D01*
G37*
D17*
G04 #@! TD*
G04 #@! TO.P,R7,1*
G04 #@! TO.N,Net-(J1-Pad4)*
X47650000Y-60975000D03*
D18*
G04 #@! TO.P,LED_I1,2*
G04 #@! TO.N,Net-(LED_I1-Pad2)*
X37035000Y-59875000D03*
D19*
G04 #@! TO.P,LED_I1,1*
G04 #@! TO.N,GND*
X39575000Y-59875000D03*
G04 #@! TD*
D20*
G04 #@! TO.P,V1,1*
G04 #@! TO.N,Net-(J11-Pad2)*
X49600000Y-39550000D03*
X49600000Y-45550000D03*
G04 #@! TO.P,V1,2*
G04 #@! TO.N,GND*
X49600000Y-80100000D03*
X49600000Y-86100000D03*
G04 #@! TD*
D21*
G04 #@! TO.P,Y1,2*
G04 #@! TO.N,Net-(C6-Pad1)*
X39175000Y-54410000D03*
G04 #@! TO.P,Y1,1*
G04 #@! TO.N,Net-(C5-Pad1)*
X39175000Y-49530000D03*
G04 #@! TD*
D16*
G04 #@! TO.N,+3V3*
G04 #@! TO.C,C2*
G36*
X46874505Y-43401204D02*
X46898773Y-43404804D01*
X46922572Y-43410765D01*
X46945671Y-43419030D01*
X46967850Y-43429520D01*
X46988893Y-43442132D01*
X47008599Y-43456747D01*
X47026777Y-43473223D01*
X47043253Y-43491401D01*
X47057868Y-43511107D01*
X47070480Y-43532150D01*
X47080970Y-43554329D01*
X47089235Y-43577428D01*
X47095196Y-43601227D01*
X47098796Y-43625495D01*
X47100000Y-43649999D01*
X47100000Y-44300001D01*
X47098796Y-44324505D01*
X47095196Y-44348773D01*
X47089235Y-44372572D01*
X47080970Y-44395671D01*
X47070480Y-44417850D01*
X47057868Y-44438893D01*
X47043253Y-44458599D01*
X47026777Y-44476777D01*
X47008599Y-44493253D01*
X46988893Y-44507868D01*
X46967850Y-44520480D01*
X46945671Y-44530970D01*
X46922572Y-44539235D01*
X46898773Y-44545196D01*
X46874505Y-44548796D01*
X46850001Y-44550000D01*
X45949999Y-44550000D01*
X45925495Y-44548796D01*
X45901227Y-44545196D01*
X45877428Y-44539235D01*
X45854329Y-44530970D01*
X45832150Y-44520480D01*
X45811107Y-44507868D01*
X45791401Y-44493253D01*
X45773223Y-44476777D01*
X45756747Y-44458599D01*
X45742132Y-44438893D01*
X45729520Y-44417850D01*
X45719030Y-44395671D01*
X45710765Y-44372572D01*
X45704804Y-44348773D01*
X45701204Y-44324505D01*
X45700000Y-44300001D01*
X45700000Y-43649999D01*
X45701204Y-43625495D01*
X45704804Y-43601227D01*
X45710765Y-43577428D01*
X45719030Y-43554329D01*
X45729520Y-43532150D01*
X45742132Y-43511107D01*
X45756747Y-43491401D01*
X45773223Y-43473223D01*
X45791401Y-43456747D01*
X45811107Y-43442132D01*
X45832150Y-43429520D01*
X45854329Y-43419030D01*
X45877428Y-43410765D01*
X45901227Y-43404804D01*
X45925495Y-43401204D01*
X45949999Y-43400000D01*
X46850001Y-43400000D01*
X46874505Y-43401204D01*
X46874505Y-43401204D01*
G37*
D17*
G04 #@! TD*
G04 #@! TO.P,C2,2*
G04 #@! TO.N,+3V3*
X46400000Y-43975000D03*
D16*
G04 #@! TO.N,GND*
G04 #@! TO.C,C2*
G36*
X46874505Y-41351204D02*
X46898773Y-41354804D01*
X46922572Y-41360765D01*
X46945671Y-41369030D01*
X46967850Y-41379520D01*
X46988893Y-41392132D01*
X47008599Y-41406747D01*
X47026777Y-41423223D01*
X47043253Y-41441401D01*
X47057868Y-41461107D01*
X47070480Y-41482150D01*
X47080970Y-41504329D01*
X47089235Y-41527428D01*
X47095196Y-41551227D01*
X47098796Y-41575495D01*
X47100000Y-41599999D01*
X47100000Y-42250001D01*
X47098796Y-42274505D01*
X47095196Y-42298773D01*
X47089235Y-42322572D01*
X47080970Y-42345671D01*
X47070480Y-42367850D01*
X47057868Y-42388893D01*
X47043253Y-42408599D01*
X47026777Y-42426777D01*
X47008599Y-42443253D01*
X46988893Y-42457868D01*
X46967850Y-42470480D01*
X46945671Y-42480970D01*
X46922572Y-42489235D01*
X46898773Y-42495196D01*
X46874505Y-42498796D01*
X46850001Y-42500000D01*
X45949999Y-42500000D01*
X45925495Y-42498796D01*
X45901227Y-42495196D01*
X45877428Y-42489235D01*
X45854329Y-42480970D01*
X45832150Y-42470480D01*
X45811107Y-42457868D01*
X45791401Y-42443253D01*
X45773223Y-42426777D01*
X45756747Y-42408599D01*
X45742132Y-42388893D01*
X45729520Y-42367850D01*
X45719030Y-42345671D01*
X45710765Y-42322572D01*
X45704804Y-42298773D01*
X45701204Y-42274505D01*
X45700000Y-42250001D01*
X45700000Y-41599999D01*
X45701204Y-41575495D01*
X45704804Y-41551227D01*
X45710765Y-41527428D01*
X45719030Y-41504329D01*
X45729520Y-41482150D01*
X45742132Y-41461107D01*
X45756747Y-41441401D01*
X45773223Y-41423223D01*
X45791401Y-41406747D01*
X45811107Y-41392132D01*
X45832150Y-41379520D01*
X45854329Y-41369030D01*
X45877428Y-41360765D01*
X45901227Y-41354804D01*
X45925495Y-41351204D01*
X45949999Y-41350000D01*
X46850001Y-41350000D01*
X46874505Y-41351204D01*
X46874505Y-41351204D01*
G37*
D17*
G04 #@! TD*
G04 #@! TO.P,C2,1*
G04 #@! TO.N,GND*
X46400000Y-41925000D03*
D16*
G04 #@! TO.N,Net-(C3-Pad2)*
G04 #@! TO.C,C3*
G36*
X45624505Y-74151204D02*
X45648773Y-74154804D01*
X45672572Y-74160765D01*
X45695671Y-74169030D01*
X45717850Y-74179520D01*
X45738893Y-74192132D01*
X45758599Y-74206747D01*
X45776777Y-74223223D01*
X45793253Y-74241401D01*
X45807868Y-74261107D01*
X45820480Y-74282150D01*
X45830970Y-74304329D01*
X45839235Y-74327428D01*
X45845196Y-74351227D01*
X45848796Y-74375495D01*
X45850000Y-74399999D01*
X45850000Y-75050001D01*
X45848796Y-75074505D01*
X45845196Y-75098773D01*
X45839235Y-75122572D01*
X45830970Y-75145671D01*
X45820480Y-75167850D01*
X45807868Y-75188893D01*
X45793253Y-75208599D01*
X45776777Y-75226777D01*
X45758599Y-75243253D01*
X45738893Y-75257868D01*
X45717850Y-75270480D01*
X45695671Y-75280970D01*
X45672572Y-75289235D01*
X45648773Y-75295196D01*
X45624505Y-75298796D01*
X45600001Y-75300000D01*
X44699999Y-75300000D01*
X44675495Y-75298796D01*
X44651227Y-75295196D01*
X44627428Y-75289235D01*
X44604329Y-75280970D01*
X44582150Y-75270480D01*
X44561107Y-75257868D01*
X44541401Y-75243253D01*
X44523223Y-75226777D01*
X44506747Y-75208599D01*
X44492132Y-75188893D01*
X44479520Y-75167850D01*
X44469030Y-75145671D01*
X44460765Y-75122572D01*
X44454804Y-75098773D01*
X44451204Y-75074505D01*
X44450000Y-75050001D01*
X44450000Y-74399999D01*
X44451204Y-74375495D01*
X44454804Y-74351227D01*
X44460765Y-74327428D01*
X44469030Y-74304329D01*
X44479520Y-74282150D01*
X44492132Y-74261107D01*
X44506747Y-74241401D01*
X44523223Y-74223223D01*
X44541401Y-74206747D01*
X44561107Y-74192132D01*
X44582150Y-74179520D01*
X44604329Y-74169030D01*
X44627428Y-74160765D01*
X44651227Y-74154804D01*
X44675495Y-74151204D01*
X44699999Y-74150000D01*
X45600001Y-74150000D01*
X45624505Y-74151204D01*
X45624505Y-74151204D01*
G37*
D17*
G04 #@! TD*
G04 #@! TO.P,C3,2*
G04 #@! TO.N,Net-(C3-Pad2)*
X45150000Y-74725000D03*
D16*
G04 #@! TO.N,GND*
G04 #@! TO.C,C3*
G36*
X45624505Y-72101204D02*
X45648773Y-72104804D01*
X45672572Y-72110765D01*
X45695671Y-72119030D01*
X45717850Y-72129520D01*
X45738893Y-72142132D01*
X45758599Y-72156747D01*
X45776777Y-72173223D01*
X45793253Y-72191401D01*
X45807868Y-72211107D01*
X45820480Y-72232150D01*
X45830970Y-72254329D01*
X45839235Y-72277428D01*
X45845196Y-72301227D01*
X45848796Y-72325495D01*
X45850000Y-72349999D01*
X45850000Y-73000001D01*
X45848796Y-73024505D01*
X45845196Y-73048773D01*
X45839235Y-73072572D01*
X45830970Y-73095671D01*
X45820480Y-73117850D01*
X45807868Y-73138893D01*
X45793253Y-73158599D01*
X45776777Y-73176777D01*
X45758599Y-73193253D01*
X45738893Y-73207868D01*
X45717850Y-73220480D01*
X45695671Y-73230970D01*
X45672572Y-73239235D01*
X45648773Y-73245196D01*
X45624505Y-73248796D01*
X45600001Y-73250000D01*
X44699999Y-73250000D01*
X44675495Y-73248796D01*
X44651227Y-73245196D01*
X44627428Y-73239235D01*
X44604329Y-73230970D01*
X44582150Y-73220480D01*
X44561107Y-73207868D01*
X44541401Y-73193253D01*
X44523223Y-73176777D01*
X44506747Y-73158599D01*
X44492132Y-73138893D01*
X44479520Y-73117850D01*
X44469030Y-73095671D01*
X44460765Y-73072572D01*
X44454804Y-73048773D01*
X44451204Y-73024505D01*
X44450000Y-73000001D01*
X44450000Y-72349999D01*
X44451204Y-72325495D01*
X44454804Y-72301227D01*
X44460765Y-72277428D01*
X44469030Y-72254329D01*
X44479520Y-72232150D01*
X44492132Y-72211107D01*
X44506747Y-72191401D01*
X44523223Y-72173223D01*
X44541401Y-72156747D01*
X44561107Y-72142132D01*
X44582150Y-72129520D01*
X44604329Y-72119030D01*
X44627428Y-72110765D01*
X44651227Y-72104804D01*
X44675495Y-72101204D01*
X44699999Y-72100000D01*
X45600001Y-72100000D01*
X45624505Y-72101204D01*
X45624505Y-72101204D01*
G37*
D17*
G04 #@! TD*
G04 #@! TO.P,C3,1*
G04 #@! TO.N,GND*
X45150000Y-72675000D03*
D16*
G04 #@! TO.N,GND*
G04 #@! TO.C,C5*
G36*
X42799505Y-46156204D02*
X42823773Y-46159804D01*
X42847572Y-46165765D01*
X42870671Y-46174030D01*
X42892850Y-46184520D01*
X42913893Y-46197132D01*
X42933599Y-46211747D01*
X42951777Y-46228223D01*
X42968253Y-46246401D01*
X42982868Y-46266107D01*
X42995480Y-46287150D01*
X43005970Y-46309329D01*
X43014235Y-46332428D01*
X43020196Y-46356227D01*
X43023796Y-46380495D01*
X43025000Y-46404999D01*
X43025000Y-47055001D01*
X43023796Y-47079505D01*
X43020196Y-47103773D01*
X43014235Y-47127572D01*
X43005970Y-47150671D01*
X42995480Y-47172850D01*
X42982868Y-47193893D01*
X42968253Y-47213599D01*
X42951777Y-47231777D01*
X42933599Y-47248253D01*
X42913893Y-47262868D01*
X42892850Y-47275480D01*
X42870671Y-47285970D01*
X42847572Y-47294235D01*
X42823773Y-47300196D01*
X42799505Y-47303796D01*
X42775001Y-47305000D01*
X41874999Y-47305000D01*
X41850495Y-47303796D01*
X41826227Y-47300196D01*
X41802428Y-47294235D01*
X41779329Y-47285970D01*
X41757150Y-47275480D01*
X41736107Y-47262868D01*
X41716401Y-47248253D01*
X41698223Y-47231777D01*
X41681747Y-47213599D01*
X41667132Y-47193893D01*
X41654520Y-47172850D01*
X41644030Y-47150671D01*
X41635765Y-47127572D01*
X41629804Y-47103773D01*
X41626204Y-47079505D01*
X41625000Y-47055001D01*
X41625000Y-46404999D01*
X41626204Y-46380495D01*
X41629804Y-46356227D01*
X41635765Y-46332428D01*
X41644030Y-46309329D01*
X41654520Y-46287150D01*
X41667132Y-46266107D01*
X41681747Y-46246401D01*
X41698223Y-46228223D01*
X41716401Y-46211747D01*
X41736107Y-46197132D01*
X41757150Y-46184520D01*
X41779329Y-46174030D01*
X41802428Y-46165765D01*
X41826227Y-46159804D01*
X41850495Y-46156204D01*
X41874999Y-46155000D01*
X42775001Y-46155000D01*
X42799505Y-46156204D01*
X42799505Y-46156204D01*
G37*
D17*
G04 #@! TD*
G04 #@! TO.P,C5,2*
G04 #@! TO.N,GND*
X42325000Y-46730000D03*
D16*
G04 #@! TO.N,Net-(C5-Pad1)*
G04 #@! TO.C,C5*
G36*
X42799505Y-48206204D02*
X42823773Y-48209804D01*
X42847572Y-48215765D01*
X42870671Y-48224030D01*
X42892850Y-48234520D01*
X42913893Y-48247132D01*
X42933599Y-48261747D01*
X42951777Y-48278223D01*
X42968253Y-48296401D01*
X42982868Y-48316107D01*
X42995480Y-48337150D01*
X43005970Y-48359329D01*
X43014235Y-48382428D01*
X43020196Y-48406227D01*
X43023796Y-48430495D01*
X43025000Y-48454999D01*
X43025000Y-49105001D01*
X43023796Y-49129505D01*
X43020196Y-49153773D01*
X43014235Y-49177572D01*
X43005970Y-49200671D01*
X42995480Y-49222850D01*
X42982868Y-49243893D01*
X42968253Y-49263599D01*
X42951777Y-49281777D01*
X42933599Y-49298253D01*
X42913893Y-49312868D01*
X42892850Y-49325480D01*
X42870671Y-49335970D01*
X42847572Y-49344235D01*
X42823773Y-49350196D01*
X42799505Y-49353796D01*
X42775001Y-49355000D01*
X41874999Y-49355000D01*
X41850495Y-49353796D01*
X41826227Y-49350196D01*
X41802428Y-49344235D01*
X41779329Y-49335970D01*
X41757150Y-49325480D01*
X41736107Y-49312868D01*
X41716401Y-49298253D01*
X41698223Y-49281777D01*
X41681747Y-49263599D01*
X41667132Y-49243893D01*
X41654520Y-49222850D01*
X41644030Y-49200671D01*
X41635765Y-49177572D01*
X41629804Y-49153773D01*
X41626204Y-49129505D01*
X41625000Y-49105001D01*
X41625000Y-48454999D01*
X41626204Y-48430495D01*
X41629804Y-48406227D01*
X41635765Y-48382428D01*
X41644030Y-48359329D01*
X41654520Y-48337150D01*
X41667132Y-48316107D01*
X41681747Y-48296401D01*
X41698223Y-48278223D01*
X41716401Y-48261747D01*
X41736107Y-48247132D01*
X41757150Y-48234520D01*
X41779329Y-48224030D01*
X41802428Y-48215765D01*
X41826227Y-48209804D01*
X41850495Y-48206204D01*
X41874999Y-48205000D01*
X42775001Y-48205000D01*
X42799505Y-48206204D01*
X42799505Y-48206204D01*
G37*
D17*
G04 #@! TD*
G04 #@! TO.P,C5,1*
G04 #@! TO.N,Net-(C5-Pad1)*
X42325000Y-48780000D03*
D16*
G04 #@! TO.N,GND*
G04 #@! TO.C,C6*
G36*
X42799505Y-56406204D02*
X42823773Y-56409804D01*
X42847572Y-56415765D01*
X42870671Y-56424030D01*
X42892850Y-56434520D01*
X42913893Y-56447132D01*
X42933599Y-56461747D01*
X42951777Y-56478223D01*
X42968253Y-56496401D01*
X42982868Y-56516107D01*
X42995480Y-56537150D01*
X43005970Y-56559329D01*
X43014235Y-56582428D01*
X43020196Y-56606227D01*
X43023796Y-56630495D01*
X43025000Y-56654999D01*
X43025000Y-57305001D01*
X43023796Y-57329505D01*
X43020196Y-57353773D01*
X43014235Y-57377572D01*
X43005970Y-57400671D01*
X42995480Y-57422850D01*
X42982868Y-57443893D01*
X42968253Y-57463599D01*
X42951777Y-57481777D01*
X42933599Y-57498253D01*
X42913893Y-57512868D01*
X42892850Y-57525480D01*
X42870671Y-57535970D01*
X42847572Y-57544235D01*
X42823773Y-57550196D01*
X42799505Y-57553796D01*
X42775001Y-57555000D01*
X41874999Y-57555000D01*
X41850495Y-57553796D01*
X41826227Y-57550196D01*
X41802428Y-57544235D01*
X41779329Y-57535970D01*
X41757150Y-57525480D01*
X41736107Y-57512868D01*
X41716401Y-57498253D01*
X41698223Y-57481777D01*
X41681747Y-57463599D01*
X41667132Y-57443893D01*
X41654520Y-57422850D01*
X41644030Y-57400671D01*
X41635765Y-57377572D01*
X41629804Y-57353773D01*
X41626204Y-57329505D01*
X41625000Y-57305001D01*
X41625000Y-56654999D01*
X41626204Y-56630495D01*
X41629804Y-56606227D01*
X41635765Y-56582428D01*
X41644030Y-56559329D01*
X41654520Y-56537150D01*
X41667132Y-56516107D01*
X41681747Y-56496401D01*
X41698223Y-56478223D01*
X41716401Y-56461747D01*
X41736107Y-56447132D01*
X41757150Y-56434520D01*
X41779329Y-56424030D01*
X41802428Y-56415765D01*
X41826227Y-56409804D01*
X41850495Y-56406204D01*
X41874999Y-56405000D01*
X42775001Y-56405000D01*
X42799505Y-56406204D01*
X42799505Y-56406204D01*
G37*
D17*
G04 #@! TD*
G04 #@! TO.P,C6,2*
G04 #@! TO.N,GND*
X42325000Y-56980000D03*
D16*
G04 #@! TO.N,Net-(C6-Pad1)*
G04 #@! TO.C,C6*
G36*
X42799505Y-54356204D02*
X42823773Y-54359804D01*
X42847572Y-54365765D01*
X42870671Y-54374030D01*
X42892850Y-54384520D01*
X42913893Y-54397132D01*
X42933599Y-54411747D01*
X42951777Y-54428223D01*
X42968253Y-54446401D01*
X42982868Y-54466107D01*
X42995480Y-54487150D01*
X43005970Y-54509329D01*
X43014235Y-54532428D01*
X43020196Y-54556227D01*
X43023796Y-54580495D01*
X43025000Y-54604999D01*
X43025000Y-55255001D01*
X43023796Y-55279505D01*
X43020196Y-55303773D01*
X43014235Y-55327572D01*
X43005970Y-55350671D01*
X42995480Y-55372850D01*
X42982868Y-55393893D01*
X42968253Y-55413599D01*
X42951777Y-55431777D01*
X42933599Y-55448253D01*
X42913893Y-55462868D01*
X42892850Y-55475480D01*
X42870671Y-55485970D01*
X42847572Y-55494235D01*
X42823773Y-55500196D01*
X42799505Y-55503796D01*
X42775001Y-55505000D01*
X41874999Y-55505000D01*
X41850495Y-55503796D01*
X41826227Y-55500196D01*
X41802428Y-55494235D01*
X41779329Y-55485970D01*
X41757150Y-55475480D01*
X41736107Y-55462868D01*
X41716401Y-55448253D01*
X41698223Y-55431777D01*
X41681747Y-55413599D01*
X41667132Y-55393893D01*
X41654520Y-55372850D01*
X41644030Y-55350671D01*
X41635765Y-55327572D01*
X41629804Y-55303773D01*
X41626204Y-55279505D01*
X41625000Y-55255001D01*
X41625000Y-54604999D01*
X41626204Y-54580495D01*
X41629804Y-54556227D01*
X41635765Y-54532428D01*
X41644030Y-54509329D01*
X41654520Y-54487150D01*
X41667132Y-54466107D01*
X41681747Y-54446401D01*
X41698223Y-54428223D01*
X41716401Y-54411747D01*
X41736107Y-54397132D01*
X41757150Y-54384520D01*
X41779329Y-54374030D01*
X41802428Y-54365765D01*
X41826227Y-54359804D01*
X41850495Y-54356204D01*
X41874999Y-54355000D01*
X42775001Y-54355000D01*
X42799505Y-54356204D01*
X42799505Y-54356204D01*
G37*
D17*
G04 #@! TD*
G04 #@! TO.P,C6,1*
G04 #@! TO.N,Net-(C6-Pad1)*
X42325000Y-54930000D03*
D16*
G04 #@! TO.N,GND*
G04 #@! TO.C,C1*
G36*
X44624505Y-41401204D02*
X44648773Y-41404804D01*
X44672572Y-41410765D01*
X44695671Y-41419030D01*
X44717850Y-41429520D01*
X44738893Y-41442132D01*
X44758599Y-41456747D01*
X44776777Y-41473223D01*
X44793253Y-41491401D01*
X44807868Y-41511107D01*
X44820480Y-41532150D01*
X44830970Y-41554329D01*
X44839235Y-41577428D01*
X44845196Y-41601227D01*
X44848796Y-41625495D01*
X44850000Y-41649999D01*
X44850000Y-42300001D01*
X44848796Y-42324505D01*
X44845196Y-42348773D01*
X44839235Y-42372572D01*
X44830970Y-42395671D01*
X44820480Y-42417850D01*
X44807868Y-42438893D01*
X44793253Y-42458599D01*
X44776777Y-42476777D01*
X44758599Y-42493253D01*
X44738893Y-42507868D01*
X44717850Y-42520480D01*
X44695671Y-42530970D01*
X44672572Y-42539235D01*
X44648773Y-42545196D01*
X44624505Y-42548796D01*
X44600001Y-42550000D01*
X43699999Y-42550000D01*
X43675495Y-42548796D01*
X43651227Y-42545196D01*
X43627428Y-42539235D01*
X43604329Y-42530970D01*
X43582150Y-42520480D01*
X43561107Y-42507868D01*
X43541401Y-42493253D01*
X43523223Y-42476777D01*
X43506747Y-42458599D01*
X43492132Y-42438893D01*
X43479520Y-42417850D01*
X43469030Y-42395671D01*
X43460765Y-42372572D01*
X43454804Y-42348773D01*
X43451204Y-42324505D01*
X43450000Y-42300001D01*
X43450000Y-41649999D01*
X43451204Y-41625495D01*
X43454804Y-41601227D01*
X43460765Y-41577428D01*
X43469030Y-41554329D01*
X43479520Y-41532150D01*
X43492132Y-41511107D01*
X43506747Y-41491401D01*
X43523223Y-41473223D01*
X43541401Y-41456747D01*
X43561107Y-41442132D01*
X43582150Y-41429520D01*
X43604329Y-41419030D01*
X43627428Y-41410765D01*
X43651227Y-41404804D01*
X43675495Y-41401204D01*
X43699999Y-41400000D01*
X44600001Y-41400000D01*
X44624505Y-41401204D01*
X44624505Y-41401204D01*
G37*
D17*
G04 #@! TD*
G04 #@! TO.P,C1,2*
G04 #@! TO.N,GND*
X44150000Y-41975000D03*
D16*
G04 #@! TO.N,+1V5*
G04 #@! TO.C,C1*
G36*
X44624505Y-39351204D02*
X44648773Y-39354804D01*
X44672572Y-39360765D01*
X44695671Y-39369030D01*
X44717850Y-39379520D01*
X44738893Y-39392132D01*
X44758599Y-39406747D01*
X44776777Y-39423223D01*
X44793253Y-39441401D01*
X44807868Y-39461107D01*
X44820480Y-39482150D01*
X44830970Y-39504329D01*
X44839235Y-39527428D01*
X44845196Y-39551227D01*
X44848796Y-39575495D01*
X44850000Y-39599999D01*
X44850000Y-40250001D01*
X44848796Y-40274505D01*
X44845196Y-40298773D01*
X44839235Y-40322572D01*
X44830970Y-40345671D01*
X44820480Y-40367850D01*
X44807868Y-40388893D01*
X44793253Y-40408599D01*
X44776777Y-40426777D01*
X44758599Y-40443253D01*
X44738893Y-40457868D01*
X44717850Y-40470480D01*
X44695671Y-40480970D01*
X44672572Y-40489235D01*
X44648773Y-40495196D01*
X44624505Y-40498796D01*
X44600001Y-40500000D01*
X43699999Y-40500000D01*
X43675495Y-40498796D01*
X43651227Y-40495196D01*
X43627428Y-40489235D01*
X43604329Y-40480970D01*
X43582150Y-40470480D01*
X43561107Y-40457868D01*
X43541401Y-40443253D01*
X43523223Y-40426777D01*
X43506747Y-40408599D01*
X43492132Y-40388893D01*
X43479520Y-40367850D01*
X43469030Y-40345671D01*
X43460765Y-40322572D01*
X43454804Y-40298773D01*
X43451204Y-40274505D01*
X43450000Y-40250001D01*
X43450000Y-39599999D01*
X43451204Y-39575495D01*
X43454804Y-39551227D01*
X43460765Y-39527428D01*
X43469030Y-39504329D01*
X43479520Y-39482150D01*
X43492132Y-39461107D01*
X43506747Y-39441401D01*
X43523223Y-39423223D01*
X43541401Y-39406747D01*
X43561107Y-39392132D01*
X43582150Y-39379520D01*
X43604329Y-39369030D01*
X43627428Y-39360765D01*
X43651227Y-39354804D01*
X43675495Y-39351204D01*
X43699999Y-39350000D01*
X44600001Y-39350000D01*
X44624505Y-39351204D01*
X44624505Y-39351204D01*
G37*
D17*
G04 #@! TD*
G04 #@! TO.P,C1,1*
G04 #@! TO.N,+1V5*
X44150000Y-39925000D03*
D22*
G04 #@! TO.P,C4,2*
G04 #@! TO.N,GND*
X39800000Y-82700000D03*
D23*
G04 #@! TO.P,C4,1*
G04 #@! TO.N,+3V3*
X41800000Y-82700000D03*
G04 #@! TD*
D10*
G04 #@! TO.P,J1,6*
G04 #@! TO.N,Net-(J1-Pad6)*
X38463000Y-66000000D03*
G04 #@! TO.P,J1,5*
G04 #@! TO.N,Net-(J1-Pad5)*
X38463000Y-68540000D03*
G04 #@! TO.P,J1,4*
G04 #@! TO.N,Net-(J1-Pad4)*
X38463000Y-71080000D03*
G04 #@! TO.P,J1,3*
G04 #@! TO.N,Net-(J1-Pad3)*
X38463000Y-73620000D03*
G04 #@! TO.P,J1,2*
G04 #@! TO.N,Net-(J1-Pad2)*
X38463000Y-76160000D03*
D11*
G04 #@! TO.P,J1,1*
G04 #@! TO.N,Net-(J1-Pad1)*
X38463000Y-78700000D03*
G04 #@! TD*
D10*
G04 #@! TO.P,J3,6*
G04 #@! TO.N,Net-(J3-Pad6)*
X60650000Y-64650000D03*
G04 #@! TO.P,J3,5*
G04 #@! TO.N,Net-(J3-Pad5)*
X60650000Y-62110000D03*
G04 #@! TO.P,J3,4*
G04 #@! TO.N,Net-(J3-Pad4)*
X60650000Y-59570000D03*
G04 #@! TO.P,J3,3*
G04 #@! TO.N,Net-(J3-Pad3)*
X60650000Y-57030000D03*
G04 #@! TO.P,J3,2*
G04 #@! TO.N,Net-(J3-Pad2)*
X60650000Y-54490000D03*
D11*
G04 #@! TO.P,J3,1*
G04 #@! TO.N,Reset*
X60650000Y-51950000D03*
G04 #@! TD*
D24*
G04 #@! TO.P,U1,5*
G04 #@! TO.N,+3V3*
X41453200Y-37567800D03*
G04 #@! TO.P,U1,6*
G04 #@! TO.N,+1V5*
X41453200Y-36617800D03*
G04 #@! TO.P,U1,4*
G04 #@! TO.N,Net-(R1-Pad2)*
X41453200Y-38517800D03*
G04 #@! TO.P,U1,3*
G04 #@! TO.N,+1V5*
X44153200Y-38517800D03*
G04 #@! TO.P,U1,2*
G04 #@! TO.N,GND*
X44153200Y-37567800D03*
G04 #@! TO.P,U1,1*
G04 #@! TO.N,Net-(L1-Pad2)*
X44153200Y-36617800D03*
G04 #@! TD*
D16*
G04 #@! TO.N,Net-(R4-Pad2)*
G04 #@! TO.C,R4*
G36*
X42874505Y-58601204D02*
X42898773Y-58604804D01*
X42922572Y-58610765D01*
X42945671Y-58619030D01*
X42967850Y-58629520D01*
X42988893Y-58642132D01*
X43008599Y-58656747D01*
X43026777Y-58673223D01*
X43043253Y-58691401D01*
X43057868Y-58711107D01*
X43070480Y-58732150D01*
X43080970Y-58754329D01*
X43089235Y-58777428D01*
X43095196Y-58801227D01*
X43098796Y-58825495D01*
X43100000Y-58849999D01*
X43100000Y-59500001D01*
X43098796Y-59524505D01*
X43095196Y-59548773D01*
X43089235Y-59572572D01*
X43080970Y-59595671D01*
X43070480Y-59617850D01*
X43057868Y-59638893D01*
X43043253Y-59658599D01*
X43026777Y-59676777D01*
X43008599Y-59693253D01*
X42988893Y-59707868D01*
X42967850Y-59720480D01*
X42945671Y-59730970D01*
X42922572Y-59739235D01*
X42898773Y-59745196D01*
X42874505Y-59748796D01*
X42850001Y-59750000D01*
X41949999Y-59750000D01*
X41925495Y-59748796D01*
X41901227Y-59745196D01*
X41877428Y-59739235D01*
X41854329Y-59730970D01*
X41832150Y-59720480D01*
X41811107Y-59707868D01*
X41791401Y-59693253D01*
X41773223Y-59676777D01*
X41756747Y-59658599D01*
X41742132Y-59638893D01*
X41729520Y-59617850D01*
X41719030Y-59595671D01*
X41710765Y-59572572D01*
X41704804Y-59548773D01*
X41701204Y-59524505D01*
X41700000Y-59500001D01*
X41700000Y-58849999D01*
X41701204Y-58825495D01*
X41704804Y-58801227D01*
X41710765Y-58777428D01*
X41719030Y-58754329D01*
X41729520Y-58732150D01*
X41742132Y-58711107D01*
X41756747Y-58691401D01*
X41773223Y-58673223D01*
X41791401Y-58656747D01*
X41811107Y-58642132D01*
X41832150Y-58629520D01*
X41854329Y-58619030D01*
X41877428Y-58610765D01*
X41901227Y-58604804D01*
X41925495Y-58601204D01*
X41949999Y-58600000D01*
X42850001Y-58600000D01*
X42874505Y-58601204D01*
X42874505Y-58601204D01*
G37*
D17*
G04 #@! TD*
G04 #@! TO.P,R4,2*
G04 #@! TO.N,Net-(R4-Pad2)*
X42400000Y-59175000D03*
D16*
G04 #@! TO.N,Net-(LED_I1-Pad2)*
G04 #@! TO.C,R4*
G36*
X42874505Y-60651204D02*
X42898773Y-60654804D01*
X42922572Y-60660765D01*
X42945671Y-60669030D01*
X42967850Y-60679520D01*
X42988893Y-60692132D01*
X43008599Y-60706747D01*
X43026777Y-60723223D01*
X43043253Y-60741401D01*
X43057868Y-60761107D01*
X43070480Y-60782150D01*
X43080970Y-60804329D01*
X43089235Y-60827428D01*
X43095196Y-60851227D01*
X43098796Y-60875495D01*
X43100000Y-60899999D01*
X43100000Y-61550001D01*
X43098796Y-61574505D01*
X43095196Y-61598773D01*
X43089235Y-61622572D01*
X43080970Y-61645671D01*
X43070480Y-61667850D01*
X43057868Y-61688893D01*
X43043253Y-61708599D01*
X43026777Y-61726777D01*
X43008599Y-61743253D01*
X42988893Y-61757868D01*
X42967850Y-61770480D01*
X42945671Y-61780970D01*
X42922572Y-61789235D01*
X42898773Y-61795196D01*
X42874505Y-61798796D01*
X42850001Y-61800000D01*
X41949999Y-61800000D01*
X41925495Y-61798796D01*
X41901227Y-61795196D01*
X41877428Y-61789235D01*
X41854329Y-61780970D01*
X41832150Y-61770480D01*
X41811107Y-61757868D01*
X41791401Y-61743253D01*
X41773223Y-61726777D01*
X41756747Y-61708599D01*
X41742132Y-61688893D01*
X41729520Y-61667850D01*
X41719030Y-61645671D01*
X41710765Y-61622572D01*
X41704804Y-61598773D01*
X41701204Y-61574505D01*
X41700000Y-61550001D01*
X41700000Y-60899999D01*
X41701204Y-60875495D01*
X41704804Y-60851227D01*
X41710765Y-60827428D01*
X41719030Y-60804329D01*
X41729520Y-60782150D01*
X41742132Y-60761107D01*
X41756747Y-60741401D01*
X41773223Y-60723223D01*
X41791401Y-60706747D01*
X41811107Y-60692132D01*
X41832150Y-60679520D01*
X41854329Y-60669030D01*
X41877428Y-60660765D01*
X41901227Y-60654804D01*
X41925495Y-60651204D01*
X41949999Y-60650000D01*
X42850001Y-60650000D01*
X42874505Y-60651204D01*
X42874505Y-60651204D01*
G37*
D17*
G04 #@! TD*
G04 #@! TO.P,R4,1*
G04 #@! TO.N,Net-(LED_I1-Pad2)*
X42400000Y-61225000D03*
D16*
G04 #@! TO.N,Net-(R1-Pad2)*
G04 #@! TO.C,R1*
G36*
X41874505Y-39351204D02*
X41898773Y-39354804D01*
X41922572Y-39360765D01*
X41945671Y-39369030D01*
X41967850Y-39379520D01*
X41988893Y-39392132D01*
X42008599Y-39406747D01*
X42026777Y-39423223D01*
X42043253Y-39441401D01*
X42057868Y-39461107D01*
X42070480Y-39482150D01*
X42080970Y-39504329D01*
X42089235Y-39527428D01*
X42095196Y-39551227D01*
X42098796Y-39575495D01*
X42100000Y-39599999D01*
X42100000Y-40250001D01*
X42098796Y-40274505D01*
X42095196Y-40298773D01*
X42089235Y-40322572D01*
X42080970Y-40345671D01*
X42070480Y-40367850D01*
X42057868Y-40388893D01*
X42043253Y-40408599D01*
X42026777Y-40426777D01*
X42008599Y-40443253D01*
X41988893Y-40457868D01*
X41967850Y-40470480D01*
X41945671Y-40480970D01*
X41922572Y-40489235D01*
X41898773Y-40495196D01*
X41874505Y-40498796D01*
X41850001Y-40500000D01*
X40949999Y-40500000D01*
X40925495Y-40498796D01*
X40901227Y-40495196D01*
X40877428Y-40489235D01*
X40854329Y-40480970D01*
X40832150Y-40470480D01*
X40811107Y-40457868D01*
X40791401Y-40443253D01*
X40773223Y-40426777D01*
X40756747Y-40408599D01*
X40742132Y-40388893D01*
X40729520Y-40367850D01*
X40719030Y-40345671D01*
X40710765Y-40322572D01*
X40704804Y-40298773D01*
X40701204Y-40274505D01*
X40700000Y-40250001D01*
X40700000Y-39599999D01*
X40701204Y-39575495D01*
X40704804Y-39551227D01*
X40710765Y-39527428D01*
X40719030Y-39504329D01*
X40729520Y-39482150D01*
X40742132Y-39461107D01*
X40756747Y-39441401D01*
X40773223Y-39423223D01*
X40791401Y-39406747D01*
X40811107Y-39392132D01*
X40832150Y-39379520D01*
X40854329Y-39369030D01*
X40877428Y-39360765D01*
X40901227Y-39354804D01*
X40925495Y-39351204D01*
X40949999Y-39350000D01*
X41850001Y-39350000D01*
X41874505Y-39351204D01*
X41874505Y-39351204D01*
G37*
D17*
G04 #@! TD*
G04 #@! TO.P,R1,2*
G04 #@! TO.N,Net-(R1-Pad2)*
X41400000Y-39925000D03*
D16*
G04 #@! TO.N,+3V3*
G04 #@! TO.C,R1*
G36*
X41874505Y-41401204D02*
X41898773Y-41404804D01*
X41922572Y-41410765D01*
X41945671Y-41419030D01*
X41967850Y-41429520D01*
X41988893Y-41442132D01*
X42008599Y-41456747D01*
X42026777Y-41473223D01*
X42043253Y-41491401D01*
X42057868Y-41511107D01*
X42070480Y-41532150D01*
X42080970Y-41554329D01*
X42089235Y-41577428D01*
X42095196Y-41601227D01*
X42098796Y-41625495D01*
X42100000Y-41649999D01*
X42100000Y-42300001D01*
X42098796Y-42324505D01*
X42095196Y-42348773D01*
X42089235Y-42372572D01*
X42080970Y-42395671D01*
X42070480Y-42417850D01*
X42057868Y-42438893D01*
X42043253Y-42458599D01*
X42026777Y-42476777D01*
X42008599Y-42493253D01*
X41988893Y-42507868D01*
X41967850Y-42520480D01*
X41945671Y-42530970D01*
X41922572Y-42539235D01*
X41898773Y-42545196D01*
X41874505Y-42548796D01*
X41850001Y-42550000D01*
X40949999Y-42550000D01*
X40925495Y-42548796D01*
X40901227Y-42545196D01*
X40877428Y-42539235D01*
X40854329Y-42530970D01*
X40832150Y-42520480D01*
X40811107Y-42507868D01*
X40791401Y-42493253D01*
X40773223Y-42476777D01*
X40756747Y-42458599D01*
X40742132Y-42438893D01*
X40729520Y-42417850D01*
X40719030Y-42395671D01*
X40710765Y-42372572D01*
X40704804Y-42348773D01*
X40701204Y-42324505D01*
X40700000Y-42300001D01*
X40700000Y-41649999D01*
X40701204Y-41625495D01*
X40704804Y-41601227D01*
X40710765Y-41577428D01*
X40719030Y-41554329D01*
X40729520Y-41532150D01*
X40742132Y-41511107D01*
X40756747Y-41491401D01*
X40773223Y-41473223D01*
X40791401Y-41456747D01*
X40811107Y-41442132D01*
X40832150Y-41429520D01*
X40854329Y-41419030D01*
X40877428Y-41410765D01*
X40901227Y-41404804D01*
X40925495Y-41401204D01*
X40949999Y-41400000D01*
X41850001Y-41400000D01*
X41874505Y-41401204D01*
X41874505Y-41401204D01*
G37*
D17*
G04 #@! TD*
G04 #@! TO.P,R1,1*
G04 #@! TO.N,+3V3*
X41400000Y-41975000D03*
D16*
G04 #@! TO.N,GND*
G04 #@! TO.C,R2*
G36*
X44274505Y-43251204D02*
X44298773Y-43254804D01*
X44322572Y-43260765D01*
X44345671Y-43269030D01*
X44367850Y-43279520D01*
X44388893Y-43292132D01*
X44408599Y-43306747D01*
X44426777Y-43323223D01*
X44443253Y-43341401D01*
X44457868Y-43361107D01*
X44470480Y-43382150D01*
X44480970Y-43404329D01*
X44489235Y-43427428D01*
X44495196Y-43451227D01*
X44498796Y-43475495D01*
X44500000Y-43499999D01*
X44500000Y-44400001D01*
X44498796Y-44424505D01*
X44495196Y-44448773D01*
X44489235Y-44472572D01*
X44480970Y-44495671D01*
X44470480Y-44517850D01*
X44457868Y-44538893D01*
X44443253Y-44558599D01*
X44426777Y-44576777D01*
X44408599Y-44593253D01*
X44388893Y-44607868D01*
X44367850Y-44620480D01*
X44345671Y-44630970D01*
X44322572Y-44639235D01*
X44298773Y-44645196D01*
X44274505Y-44648796D01*
X44250001Y-44650000D01*
X43599999Y-44650000D01*
X43575495Y-44648796D01*
X43551227Y-44645196D01*
X43527428Y-44639235D01*
X43504329Y-44630970D01*
X43482150Y-44620480D01*
X43461107Y-44607868D01*
X43441401Y-44593253D01*
X43423223Y-44576777D01*
X43406747Y-44558599D01*
X43392132Y-44538893D01*
X43379520Y-44517850D01*
X43369030Y-44495671D01*
X43360765Y-44472572D01*
X43354804Y-44448773D01*
X43351204Y-44424505D01*
X43350000Y-44400001D01*
X43350000Y-43499999D01*
X43351204Y-43475495D01*
X43354804Y-43451227D01*
X43360765Y-43427428D01*
X43369030Y-43404329D01*
X43379520Y-43382150D01*
X43392132Y-43361107D01*
X43406747Y-43341401D01*
X43423223Y-43323223D01*
X43441401Y-43306747D01*
X43461107Y-43292132D01*
X43482150Y-43279520D01*
X43504329Y-43269030D01*
X43527428Y-43260765D01*
X43551227Y-43254804D01*
X43575495Y-43251204D01*
X43599999Y-43250000D01*
X44250001Y-43250000D01*
X44274505Y-43251204D01*
X44274505Y-43251204D01*
G37*
D17*
G04 #@! TD*
G04 #@! TO.P,R2,2*
G04 #@! TO.N,GND*
X43925000Y-43950000D03*
D16*
G04 #@! TO.N,Net-(R1-Pad2)*
G04 #@! TO.C,R2*
G36*
X42224505Y-43251204D02*
X42248773Y-43254804D01*
X42272572Y-43260765D01*
X42295671Y-43269030D01*
X42317850Y-43279520D01*
X42338893Y-43292132D01*
X42358599Y-43306747D01*
X42376777Y-43323223D01*
X42393253Y-43341401D01*
X42407868Y-43361107D01*
X42420480Y-43382150D01*
X42430970Y-43404329D01*
X42439235Y-43427428D01*
X42445196Y-43451227D01*
X42448796Y-43475495D01*
X42450000Y-43499999D01*
X42450000Y-44400001D01*
X42448796Y-44424505D01*
X42445196Y-44448773D01*
X42439235Y-44472572D01*
X42430970Y-44495671D01*
X42420480Y-44517850D01*
X42407868Y-44538893D01*
X42393253Y-44558599D01*
X42376777Y-44576777D01*
X42358599Y-44593253D01*
X42338893Y-44607868D01*
X42317850Y-44620480D01*
X42295671Y-44630970D01*
X42272572Y-44639235D01*
X42248773Y-44645196D01*
X42224505Y-44648796D01*
X42200001Y-44650000D01*
X41549999Y-44650000D01*
X41525495Y-44648796D01*
X41501227Y-44645196D01*
X41477428Y-44639235D01*
X41454329Y-44630970D01*
X41432150Y-44620480D01*
X41411107Y-44607868D01*
X41391401Y-44593253D01*
X41373223Y-44576777D01*
X41356747Y-44558599D01*
X41342132Y-44538893D01*
X41329520Y-44517850D01*
X41319030Y-44495671D01*
X41310765Y-44472572D01*
X41304804Y-44448773D01*
X41301204Y-44424505D01*
X41300000Y-44400001D01*
X41300000Y-43499999D01*
X41301204Y-43475495D01*
X41304804Y-43451227D01*
X41310765Y-43427428D01*
X41319030Y-43404329D01*
X41329520Y-43382150D01*
X41342132Y-43361107D01*
X41356747Y-43341401D01*
X41373223Y-43323223D01*
X41391401Y-43306747D01*
X41411107Y-43292132D01*
X41432150Y-43279520D01*
X41454329Y-43269030D01*
X41477428Y-43260765D01*
X41501227Y-43254804D01*
X41525495Y-43251204D01*
X41549999Y-43250000D01*
X42200001Y-43250000D01*
X42224505Y-43251204D01*
X42224505Y-43251204D01*
G37*
D17*
G04 #@! TD*
G04 #@! TO.P,R2,1*
G04 #@! TO.N,Net-(R1-Pad2)*
X41875000Y-43950000D03*
D16*
G04 #@! TO.N,Reset*
G04 #@! TO.C,R5*
G36*
X50624505Y-60401204D02*
X50648773Y-60404804D01*
X50672572Y-60410765D01*
X50695671Y-60419030D01*
X50717850Y-60429520D01*
X50738893Y-60442132D01*
X50758599Y-60456747D01*
X50776777Y-60473223D01*
X50793253Y-60491401D01*
X50807868Y-60511107D01*
X50820480Y-60532150D01*
X50830970Y-60554329D01*
X50839235Y-60577428D01*
X50845196Y-60601227D01*
X50848796Y-60625495D01*
X50850000Y-60649999D01*
X50850000Y-61300001D01*
X50848796Y-61324505D01*
X50845196Y-61348773D01*
X50839235Y-61372572D01*
X50830970Y-61395671D01*
X50820480Y-61417850D01*
X50807868Y-61438893D01*
X50793253Y-61458599D01*
X50776777Y-61476777D01*
X50758599Y-61493253D01*
X50738893Y-61507868D01*
X50717850Y-61520480D01*
X50695671Y-61530970D01*
X50672572Y-61539235D01*
X50648773Y-61545196D01*
X50624505Y-61548796D01*
X50600001Y-61550000D01*
X49699999Y-61550000D01*
X49675495Y-61548796D01*
X49651227Y-61545196D01*
X49627428Y-61539235D01*
X49604329Y-61530970D01*
X49582150Y-61520480D01*
X49561107Y-61507868D01*
X49541401Y-61493253D01*
X49523223Y-61476777D01*
X49506747Y-61458599D01*
X49492132Y-61438893D01*
X49479520Y-61417850D01*
X49469030Y-61395671D01*
X49460765Y-61372572D01*
X49454804Y-61348773D01*
X49451204Y-61324505D01*
X49450000Y-61300001D01*
X49450000Y-60649999D01*
X49451204Y-60625495D01*
X49454804Y-60601227D01*
X49460765Y-60577428D01*
X49469030Y-60554329D01*
X49479520Y-60532150D01*
X49492132Y-60511107D01*
X49506747Y-60491401D01*
X49523223Y-60473223D01*
X49541401Y-60456747D01*
X49561107Y-60442132D01*
X49582150Y-60429520D01*
X49604329Y-60419030D01*
X49627428Y-60410765D01*
X49651227Y-60404804D01*
X49675495Y-60401204D01*
X49699999Y-60400000D01*
X50600001Y-60400000D01*
X50624505Y-60401204D01*
X50624505Y-60401204D01*
G37*
D17*
G04 #@! TD*
G04 #@! TO.P,R5,2*
G04 #@! TO.N,Reset*
X50150000Y-60975000D03*
D16*
G04 #@! TO.N,+3V3*
G04 #@! TO.C,R5*
G36*
X50624505Y-58351204D02*
X50648773Y-58354804D01*
X50672572Y-58360765D01*
X50695671Y-58369030D01*
X50717850Y-58379520D01*
X50738893Y-58392132D01*
X50758599Y-58406747D01*
X50776777Y-58423223D01*
X50793253Y-58441401D01*
X50807868Y-58461107D01*
X50820480Y-58482150D01*
X50830970Y-58504329D01*
X50839235Y-58527428D01*
X50845196Y-58551227D01*
X50848796Y-58575495D01*
X50850000Y-58599999D01*
X50850000Y-59250001D01*
X50848796Y-59274505D01*
X50845196Y-59298773D01*
X50839235Y-59322572D01*
X50830970Y-59345671D01*
X50820480Y-59367850D01*
X50807868Y-59388893D01*
X50793253Y-59408599D01*
X50776777Y-59426777D01*
X50758599Y-59443253D01*
X50738893Y-59457868D01*
X50717850Y-59470480D01*
X50695671Y-59480970D01*
X50672572Y-59489235D01*
X50648773Y-59495196D01*
X50624505Y-59498796D01*
X50600001Y-59500000D01*
X49699999Y-59500000D01*
X49675495Y-59498796D01*
X49651227Y-59495196D01*
X49627428Y-59489235D01*
X49604329Y-59480970D01*
X49582150Y-59470480D01*
X49561107Y-59457868D01*
X49541401Y-59443253D01*
X49523223Y-59426777D01*
X49506747Y-59408599D01*
X49492132Y-59388893D01*
X49479520Y-59367850D01*
X49469030Y-59345671D01*
X49460765Y-59322572D01*
X49454804Y-59298773D01*
X49451204Y-59274505D01*
X49450000Y-59250001D01*
X49450000Y-58599999D01*
X49451204Y-58575495D01*
X49454804Y-58551227D01*
X49460765Y-58527428D01*
X49469030Y-58504329D01*
X49479520Y-58482150D01*
X49492132Y-58461107D01*
X49506747Y-58441401D01*
X49523223Y-58423223D01*
X49541401Y-58406747D01*
X49561107Y-58392132D01*
X49582150Y-58379520D01*
X49604329Y-58369030D01*
X49627428Y-58360765D01*
X49651227Y-58354804D01*
X49675495Y-58351204D01*
X49699999Y-58350000D01*
X50600001Y-58350000D01*
X50624505Y-58351204D01*
X50624505Y-58351204D01*
G37*
D17*
G04 #@! TD*
G04 #@! TO.P,R5,1*
G04 #@! TO.N,+3V3*
X50150000Y-58925000D03*
D16*
G04 #@! TO.N,Net-(C6-Pad1)*
G04 #@! TO.C,R6*
G36*
X42799505Y-52306204D02*
X42823773Y-52309804D01*
X42847572Y-52315765D01*
X42870671Y-52324030D01*
X42892850Y-52334520D01*
X42913893Y-52347132D01*
X42933599Y-52361747D01*
X42951777Y-52378223D01*
X42968253Y-52396401D01*
X42982868Y-52416107D01*
X42995480Y-52437150D01*
X43005970Y-52459329D01*
X43014235Y-52482428D01*
X43020196Y-52506227D01*
X43023796Y-52530495D01*
X43025000Y-52554999D01*
X43025000Y-53205001D01*
X43023796Y-53229505D01*
X43020196Y-53253773D01*
X43014235Y-53277572D01*
X43005970Y-53300671D01*
X42995480Y-53322850D01*
X42982868Y-53343893D01*
X42968253Y-53363599D01*
X42951777Y-53381777D01*
X42933599Y-53398253D01*
X42913893Y-53412868D01*
X42892850Y-53425480D01*
X42870671Y-53435970D01*
X42847572Y-53444235D01*
X42823773Y-53450196D01*
X42799505Y-53453796D01*
X42775001Y-53455000D01*
X41874999Y-53455000D01*
X41850495Y-53453796D01*
X41826227Y-53450196D01*
X41802428Y-53444235D01*
X41779329Y-53435970D01*
X41757150Y-53425480D01*
X41736107Y-53412868D01*
X41716401Y-53398253D01*
X41698223Y-53381777D01*
X41681747Y-53363599D01*
X41667132Y-53343893D01*
X41654520Y-53322850D01*
X41644030Y-53300671D01*
X41635765Y-53277572D01*
X41629804Y-53253773D01*
X41626204Y-53229505D01*
X41625000Y-53205001D01*
X41625000Y-52554999D01*
X41626204Y-52530495D01*
X41629804Y-52506227D01*
X41635765Y-52482428D01*
X41644030Y-52459329D01*
X41654520Y-52437150D01*
X41667132Y-52416107D01*
X41681747Y-52396401D01*
X41698223Y-52378223D01*
X41716401Y-52361747D01*
X41736107Y-52347132D01*
X41757150Y-52334520D01*
X41779329Y-52324030D01*
X41802428Y-52315765D01*
X41826227Y-52309804D01*
X41850495Y-52306204D01*
X41874999Y-52305000D01*
X42775001Y-52305000D01*
X42799505Y-52306204D01*
X42799505Y-52306204D01*
G37*
D17*
G04 #@! TD*
G04 #@! TO.P,R6,2*
G04 #@! TO.N,Net-(C6-Pad1)*
X42325000Y-52880000D03*
D16*
G04 #@! TO.N,Net-(C5-Pad1)*
G04 #@! TO.C,R6*
G36*
X42799505Y-50256204D02*
X42823773Y-50259804D01*
X42847572Y-50265765D01*
X42870671Y-50274030D01*
X42892850Y-50284520D01*
X42913893Y-50297132D01*
X42933599Y-50311747D01*
X42951777Y-50328223D01*
X42968253Y-50346401D01*
X42982868Y-50366107D01*
X42995480Y-50387150D01*
X43005970Y-50409329D01*
X43014235Y-50432428D01*
X43020196Y-50456227D01*
X43023796Y-50480495D01*
X43025000Y-50504999D01*
X43025000Y-51155001D01*
X43023796Y-51179505D01*
X43020196Y-51203773D01*
X43014235Y-51227572D01*
X43005970Y-51250671D01*
X42995480Y-51272850D01*
X42982868Y-51293893D01*
X42968253Y-51313599D01*
X42951777Y-51331777D01*
X42933599Y-51348253D01*
X42913893Y-51362868D01*
X42892850Y-51375480D01*
X42870671Y-51385970D01*
X42847572Y-51394235D01*
X42823773Y-51400196D01*
X42799505Y-51403796D01*
X42775001Y-51405000D01*
X41874999Y-51405000D01*
X41850495Y-51403796D01*
X41826227Y-51400196D01*
X41802428Y-51394235D01*
X41779329Y-51385970D01*
X41757150Y-51375480D01*
X41736107Y-51362868D01*
X41716401Y-51348253D01*
X41698223Y-51331777D01*
X41681747Y-51313599D01*
X41667132Y-51293893D01*
X41654520Y-51272850D01*
X41644030Y-51250671D01*
X41635765Y-51227572D01*
X41629804Y-51203773D01*
X41626204Y-51179505D01*
X41625000Y-51155001D01*
X41625000Y-50504999D01*
X41626204Y-50480495D01*
X41629804Y-50456227D01*
X41635765Y-50432428D01*
X41644030Y-50409329D01*
X41654520Y-50387150D01*
X41667132Y-50366107D01*
X41681747Y-50346401D01*
X41698223Y-50328223D01*
X41716401Y-50311747D01*
X41736107Y-50297132D01*
X41757150Y-50284520D01*
X41779329Y-50274030D01*
X41802428Y-50265765D01*
X41826227Y-50259804D01*
X41850495Y-50256204D01*
X41874999Y-50255000D01*
X42775001Y-50255000D01*
X42799505Y-50256204D01*
X42799505Y-50256204D01*
G37*
D17*
G04 #@! TD*
G04 #@! TO.P,R6,1*
G04 #@! TO.N,Net-(C5-Pad1)*
X42325000Y-50830000D03*
D25*
G04 #@! TO.N,*
X37900000Y-87700000D03*
X63900000Y-37700000D03*
D26*
G04 #@! TO.N,Net-(C5-Pad1)*
X51461400Y-68569800D03*
G04 #@! TO.N,Net-(C6-Pad1)*
X49841200Y-68605000D03*
G04 #@! TO.N,+3V3*
X51849400Y-66026400D03*
X47204600Y-46044100D03*
X51680200Y-57510000D03*
G04 #@! TO.N,GND*
X55302000Y-68353600D03*
X43949800Y-67241400D03*
G04 #@! TO.N,Net-(R4-Pad2)*
X48777700Y-69160800D03*
X44849800Y-60550300D03*
G04 #@! TO.N,SCK*
X57701200Y-72949800D03*
X49236900Y-70067400D03*
G04 #@! TO.N,Net-(J1-Pad4)*
X46839300Y-65033500D03*
G04 #@! TO.N,Net-(J1-Pad5)*
X46701700Y-65833900D03*
G04 #@! TO.N,Net-(J8-Pad1)*
X53277600Y-78537000D03*
G04 #@! TO.N,Net-(J6-Pad1)*
X54670600Y-78123700D03*
G04 #@! TO.N,Net-(U2-Pad10)*
X51756900Y-73474500D03*
G04 #@! TO.N,Net-(U2-Pad11)*
X50850000Y-73457800D03*
G04 #@! TO.N,Net-(J12-Pad2)*
X51697600Y-66927800D03*
G04 #@! TO.N,Net-(J12-Pad1)*
X52599700Y-65398500D03*
G04 #@! TD*
D27*
G04 #@! TO.N,Net-(C5-Pad1)*
X52772700Y-69900000D02*
X52772700Y-69881100D01*
X52772700Y-69881100D02*
X51461400Y-68569800D01*
X53900000Y-69900000D02*
X52772700Y-69900000D01*
X41575000Y-49530000D02*
X41575000Y-50080000D01*
X41575000Y-50080000D02*
X42325000Y-50830000D01*
X41575000Y-49530000D02*
X42325000Y-48780000D01*
X39175000Y-49530000D02*
X41575000Y-49530000D01*
G04 #@! TO.N,Net-(C6-Pad1)*
X53900000Y-70700000D02*
X52772700Y-70700000D01*
X49841200Y-68605000D02*
X51763800Y-70527600D01*
X51763800Y-70527600D02*
X52600300Y-70527600D01*
X52600300Y-70527600D02*
X52772700Y-70700000D01*
X41805000Y-54410000D02*
X42325000Y-54930000D01*
X39175000Y-54410000D02*
X41805000Y-54410000D01*
X42325000Y-52880000D02*
X41805000Y-53400000D01*
X41805000Y-53400000D02*
X41805000Y-54410000D01*
G04 #@! TO.N,Reset*
X60650000Y-51950000D02*
X59472700Y-51950000D01*
X57900000Y-52244300D02*
X59178400Y-52244300D01*
X59178400Y-52244300D02*
X59472700Y-51950000D01*
X57900000Y-52244300D02*
X57900000Y-52538600D01*
X57900000Y-51950000D02*
X57900000Y-52244300D01*
X63746000Y-70240000D02*
X63746000Y-69062700D01*
X60650000Y-51950000D02*
X61827300Y-51950000D01*
X61827300Y-51950000D02*
X63020100Y-50757200D01*
X63020100Y-50757200D02*
X65404100Y-50757200D01*
X65404100Y-50757200D02*
X66077400Y-51430500D01*
X66077400Y-51430500D02*
X66077400Y-62040900D01*
X66077400Y-62040900D02*
X62468600Y-65649700D01*
X62468600Y-65649700D02*
X62468600Y-68790200D01*
X62468600Y-68790200D02*
X62741100Y-69062700D01*
X62741100Y-69062700D02*
X63746000Y-69062700D01*
X50150000Y-60975000D02*
X55560800Y-55564200D01*
X55560800Y-55564200D02*
X55560800Y-54877800D01*
X55560800Y-54877800D02*
X57900000Y-52538600D01*
X50050000Y-63650000D02*
X50050000Y-61075000D01*
X50050000Y-61075000D02*
X50150000Y-60975000D01*
D28*
G04 #@! TO.N,+3V3*
X52554100Y-67500000D02*
X52298500Y-67755600D01*
X52298500Y-67755600D02*
X48854700Y-67755600D01*
X48854700Y-67755600D02*
X46710300Y-69900000D01*
X52589700Y-67500000D02*
X52554100Y-67500000D01*
X52554100Y-67500000D02*
X52554100Y-66632800D01*
X52554100Y-66632800D02*
X51947700Y-66026400D01*
X51947700Y-66026400D02*
X51849400Y-66026400D01*
X46331300Y-45170800D02*
X46400000Y-45102100D01*
X46400000Y-45102100D02*
X46400000Y-43975000D01*
X41400000Y-41975000D02*
X40744900Y-42630100D01*
X40744900Y-42630100D02*
X40744900Y-44720300D01*
X40744900Y-44720300D02*
X41195400Y-45170800D01*
X41195400Y-45170800D02*
X46331300Y-45170800D01*
X46331300Y-45170800D02*
X47204600Y-46044100D01*
X40162900Y-37567800D02*
X39706100Y-38024600D01*
X39706100Y-38024600D02*
X39706100Y-40281100D01*
X39706100Y-40281100D02*
X41400000Y-41975000D01*
X40440000Y-21200000D02*
X41909000Y-22669000D01*
X41909000Y-22669000D02*
X41909000Y-29566900D01*
X41909000Y-29566900D02*
X40162900Y-31313000D01*
X40162900Y-31313000D02*
X40162900Y-37567800D01*
X50150000Y-58925000D02*
X51565000Y-57510000D01*
X51565000Y-57510000D02*
X51680200Y-57510000D01*
X61225400Y-77293200D02*
X63975400Y-77293200D01*
X45400000Y-69900000D02*
X46710300Y-69900000D01*
X41453200Y-37567800D02*
X40162900Y-37567800D01*
X53900000Y-67500000D02*
X52589700Y-67500000D01*
X57305700Y-67700000D02*
X57105700Y-67500000D01*
X57105700Y-67500000D02*
X53900000Y-67500000D01*
X58666000Y-67700000D02*
X57305700Y-67700000D01*
D27*
G04 #@! TO.N,Net-(R1-Pad2)*
X41400000Y-39925000D02*
X42550000Y-41075000D01*
X42550000Y-41075000D02*
X42550000Y-43275000D01*
X42550000Y-43275000D02*
X41875000Y-43950000D01*
X40345900Y-38517800D02*
X40345900Y-39002800D01*
X40345900Y-39002800D02*
X41268100Y-39925000D01*
X41268100Y-39925000D02*
X41400000Y-39925000D01*
X41453200Y-38517800D02*
X40345900Y-38517800D01*
D28*
G04 #@! TO.N,GND*
X46558400Y-77058400D02*
X49600000Y-80100000D01*
X45150000Y-72675000D02*
X46558400Y-74083400D01*
X46558400Y-74083400D02*
X46558400Y-77058400D01*
X39800000Y-82700000D02*
X39800000Y-82378200D01*
X39800000Y-82378200D02*
X41298100Y-80880100D01*
X41298100Y-80880100D02*
X42736700Y-80880100D01*
X42736700Y-80880100D02*
X46558400Y-77058400D01*
X37900000Y-21200000D02*
X36395800Y-22704200D01*
X36395800Y-22704200D02*
X36395800Y-41390000D01*
X36395800Y-41390000D02*
X41735700Y-46729900D01*
X41735700Y-46729900D02*
X42325000Y-46729900D01*
X42325000Y-46729900D02*
X42325000Y-46730000D01*
X39575000Y-59875000D02*
X39575000Y-58464700D01*
X42325000Y-56980000D02*
X40840300Y-58464700D01*
X40840300Y-58464700D02*
X39575000Y-58464700D01*
X43564400Y-47969400D02*
X43564400Y-55740600D01*
X43564400Y-55740600D02*
X42325000Y-56980000D01*
X44150000Y-41975000D02*
X44150000Y-43725000D01*
X44150000Y-43725000D02*
X43925000Y-43950000D01*
X45443500Y-40968500D02*
X44437000Y-41975000D01*
X44437000Y-41975000D02*
X44150000Y-41975000D01*
X44153200Y-37567800D02*
X45443500Y-37567800D01*
X45443500Y-37567800D02*
X45443500Y-40968500D01*
X45443500Y-40968500D02*
X46400000Y-41925000D01*
X52803200Y-45543500D02*
X50377300Y-47969400D01*
X50377300Y-47969400D02*
X43564400Y-47969400D01*
X56539700Y-45700000D02*
X56383200Y-45543500D01*
X56383200Y-45543500D02*
X52803200Y-45543500D01*
X52803200Y-45543500D02*
X49184600Y-41925000D01*
X49184600Y-41925000D02*
X46400000Y-41925000D01*
X42325000Y-46730000D02*
X43564400Y-47969400D01*
X58475400Y-74753200D02*
X61225400Y-74753200D01*
X55302000Y-68353600D02*
X55248400Y-68300000D01*
X55248400Y-68300000D02*
X53900000Y-68300000D01*
X45400000Y-67500000D02*
X44089700Y-67500000D01*
X43949800Y-67241400D02*
X44089700Y-67381300D01*
X44089700Y-67381300D02*
X44089700Y-67500000D01*
X61225400Y-74753200D02*
X62585700Y-74753200D01*
X63975400Y-74073000D02*
X63265900Y-74073000D01*
X63265900Y-74073000D02*
X62585700Y-74753200D01*
X63975400Y-74073000D02*
X63975400Y-73392900D01*
X63975400Y-74753200D02*
X63975400Y-74073000D01*
X63746000Y-67700000D02*
X65112900Y-69066900D01*
X65112900Y-69066900D02*
X65112900Y-72255400D01*
X65112900Y-72255400D02*
X63975400Y-73392900D01*
X57900000Y-45700000D02*
X56539700Y-45700000D01*
D27*
G04 #@! TO.N,Net-(R4-Pad2)*
X52450000Y-71022700D02*
X51079400Y-71022700D01*
X51079400Y-71022700D02*
X49217500Y-69160800D01*
X49217500Y-69160800D02*
X48777700Y-69160800D01*
X42400000Y-59175000D02*
X43474500Y-59175000D01*
X43474500Y-59175000D02*
X44849800Y-60550300D01*
X52450000Y-72150000D02*
X52450000Y-71022700D01*
G04 #@! TO.N,SCK*
X60028700Y-70240000D02*
X60028700Y-70709200D01*
X60028700Y-70709200D02*
X57788100Y-72949800D01*
X57788100Y-72949800D02*
X57701200Y-72949800D01*
X57701200Y-72949800D02*
X57176300Y-73474700D01*
X57176300Y-73474700D02*
X57176300Y-77945400D01*
X57176300Y-77945400D02*
X58475400Y-79244500D01*
X61206000Y-70240000D02*
X60028700Y-70240000D01*
X49236900Y-70067400D02*
X48604300Y-70700000D01*
X48604300Y-70700000D02*
X45400000Y-70700000D01*
X61225400Y-79833200D02*
X60048100Y-79833200D01*
X58475400Y-79244500D02*
X59459400Y-79244500D01*
X59459400Y-79244500D02*
X60048100Y-79833200D01*
X58475400Y-79833200D02*
X58475400Y-79244500D01*
X61225400Y-79833200D02*
X62402700Y-79833200D01*
X63975400Y-80401000D02*
X62970500Y-80401000D01*
X62970500Y-80401000D02*
X62402700Y-79833200D01*
X63975400Y-79833200D02*
X63975400Y-80401000D01*
G04 #@! TO.N,MOSI*
X58475400Y-84913200D02*
X58475400Y-84853200D01*
X58475400Y-84853200D02*
X47650000Y-74027800D01*
X47650000Y-74027800D02*
X47650000Y-72150000D01*
G04 #@! TO.N,MISO*
X58666000Y-71417300D02*
X58346600Y-71417300D01*
X58346600Y-71417300D02*
X56721900Y-73042000D01*
X56721900Y-73042000D02*
X56721900Y-79839800D01*
X56721900Y-79839800D02*
X58078000Y-81195900D01*
X58078000Y-81195900D02*
X58475400Y-81195900D01*
X62402700Y-82373200D02*
X62798100Y-82373200D01*
X46850000Y-72150000D02*
X46850000Y-73437400D01*
X46850000Y-73437400D02*
X47195700Y-73783100D01*
X47195700Y-73783100D02*
X47195700Y-74237400D01*
X47195700Y-74237400D02*
X54446300Y-81488000D01*
X54446300Y-81488000D02*
X54446300Y-82608700D01*
X54446300Y-82608700D02*
X58113400Y-86275800D01*
X58113400Y-86275800D02*
X59465400Y-86275800D01*
X59465400Y-86275800D02*
X59955400Y-86765800D01*
X59955400Y-86765800D02*
X59955400Y-88346100D01*
X59955400Y-88346100D02*
X60239900Y-88630600D01*
X60239900Y-88630600D02*
X62237100Y-88630600D01*
X62237100Y-88630600D02*
X62402700Y-88465000D01*
X62402700Y-88465000D02*
X62402700Y-82373200D01*
X61225400Y-82373200D02*
X62402700Y-82373200D01*
X61225400Y-82373200D02*
X60048100Y-82373200D01*
X58475400Y-81784500D02*
X59459400Y-81784500D01*
X59459400Y-81784500D02*
X60048100Y-82373200D01*
X58475400Y-81784500D02*
X58475400Y-81195900D01*
X58475400Y-82373200D02*
X58475400Y-81784500D01*
X58666000Y-70240000D02*
X58666000Y-71417300D01*
X63975400Y-82373200D02*
X62798100Y-82373200D01*
D28*
G04 #@! TO.N,Net-(L1-Pad2)*
X54650000Y-36800000D02*
X52289700Y-36800000D01*
X44153200Y-36617800D02*
X52107500Y-36617800D01*
X52107500Y-36617800D02*
X52289700Y-36800000D01*
G04 #@! TO.N,+1V5*
X42743500Y-36617800D02*
X42743500Y-36200000D01*
X42743500Y-36200000D02*
X43407500Y-35536000D01*
X43407500Y-35536000D02*
X56730200Y-35536000D01*
X56730200Y-35536000D02*
X57010300Y-35816100D01*
X57010300Y-35816100D02*
X57010300Y-39600000D01*
X43043000Y-38517800D02*
X42743500Y-38218300D01*
X42743500Y-38218300D02*
X42743500Y-36617800D01*
X54650000Y-39600000D02*
X57010300Y-39600000D01*
X59275000Y-47090900D02*
X59275000Y-41864700D01*
X59275000Y-41864700D02*
X57010300Y-39600000D01*
X59275000Y-47090900D02*
X62108800Y-47090900D01*
X62108800Y-47090900D02*
X63539700Y-45660000D01*
X47650000Y-58925000D02*
X59275000Y-47300000D01*
X59275000Y-47300000D02*
X59275000Y-47090900D01*
X43043000Y-38517800D02*
X44150000Y-39624800D01*
X44150000Y-39624800D02*
X44150000Y-39925000D01*
X41453200Y-36617800D02*
X42743500Y-36617800D01*
X64900000Y-45660000D02*
X63539700Y-45660000D01*
X44153200Y-38517800D02*
X43043000Y-38517800D01*
D27*
G04 #@! TO.N,Net-(J3-Pad2)*
X50850000Y-63650000D02*
X50850000Y-62128600D01*
X50850000Y-62128600D02*
X57900000Y-55078600D01*
X60650000Y-54490000D02*
X59472700Y-54490000D01*
X57900000Y-55078600D02*
X58884100Y-55078600D01*
X58884100Y-55078600D02*
X59472700Y-54490000D01*
X57900000Y-54490000D02*
X57900000Y-55078600D01*
G04 #@! TO.N,Net-(J3-Pad3)*
X57900000Y-57030000D02*
X56722700Y-57030000D01*
X51650000Y-63650000D02*
X51650000Y-62522700D01*
X51650000Y-62522700D02*
X56722700Y-57450000D01*
X56722700Y-57450000D02*
X56722700Y-57030000D01*
G04 #@! TO.N,Net-(J3-Pad4)*
X52450000Y-63650000D02*
X52450000Y-62522700D01*
X57900000Y-59570000D02*
X56722700Y-59570000D01*
X56722700Y-59570000D02*
X53770000Y-62522700D01*
X53770000Y-62522700D02*
X52450000Y-62522700D01*
G04 #@! TO.N,Net-(J3-Pad5)*
X57900000Y-62110000D02*
X57900000Y-63287300D01*
X53900000Y-65100000D02*
X55027300Y-65100000D01*
X55027300Y-65100000D02*
X56840000Y-63287300D01*
X56840000Y-63287300D02*
X57900000Y-63287300D01*
G04 #@! TO.N,Net-(J3-Pad6)*
X57900000Y-64650000D02*
X56722700Y-64650000D01*
X53900000Y-65900000D02*
X55472700Y-65900000D01*
X55472700Y-65900000D02*
X56722700Y-64650000D01*
G04 #@! TO.N,Net-(C3-Pad2)*
X45400000Y-68300000D02*
X44272700Y-68300000D01*
X45150000Y-74725000D02*
X44020700Y-73595700D01*
X44020700Y-73595700D02*
X44020700Y-68552000D01*
X44020700Y-68552000D02*
X44272700Y-68300000D01*
G04 #@! TO.N,Net-(J1-Pad1)*
X44272700Y-65900000D02*
X44262700Y-65900000D01*
X44262700Y-65900000D02*
X42961900Y-67200800D01*
X42961900Y-67200800D02*
X42961900Y-76065700D01*
X42961900Y-76065700D02*
X41517900Y-77509700D01*
X41517900Y-77509700D02*
X41150000Y-77509700D01*
X41150000Y-78687000D02*
X41150000Y-77509700D01*
X45400000Y-65900000D02*
X44272700Y-65900000D01*
X41150000Y-78687000D02*
X39972700Y-78687000D01*
X38463000Y-78700000D02*
X39959700Y-78700000D01*
X39959700Y-78700000D02*
X39972700Y-78687000D01*
G04 #@! TO.N,Net-(J1-Pad2)*
X41150000Y-74969700D02*
X41515900Y-74969700D01*
X41515900Y-74969700D02*
X42327400Y-74158200D01*
X42327400Y-74158200D02*
X42327400Y-67045300D01*
X42327400Y-67045300D02*
X44272700Y-65100000D01*
X41150000Y-76147000D02*
X39972700Y-76147000D01*
X38463000Y-76160000D02*
X39959700Y-76160000D01*
X39959700Y-76160000D02*
X39972700Y-76147000D01*
X41150000Y-76147000D02*
X41150000Y-74969700D01*
X45400000Y-65100000D02*
X44272700Y-65100000D01*
G04 #@! TO.N,Net-(J1-Pad3)*
X46850000Y-63650000D02*
X41796400Y-63650000D01*
X41796400Y-63650000D02*
X39972700Y-65473700D01*
X39972700Y-65473700D02*
X39972700Y-73607000D01*
X41150000Y-73607000D02*
X39972700Y-73607000D01*
X38463000Y-73620000D02*
X39959700Y-73620000D01*
X39959700Y-73620000D02*
X39972700Y-73607000D01*
G04 #@! TO.N,Net-(J1-Pad4)*
X47650000Y-64777300D02*
X47095500Y-64777300D01*
X47095500Y-64777300D02*
X46839300Y-65033500D01*
X47650000Y-63650000D02*
X47650000Y-64777300D01*
X47650000Y-60975000D02*
X47650000Y-63650000D01*
G04 #@! TO.N,Net-(J1-Pad5)*
X48450000Y-64777300D02*
X47393400Y-65833900D01*
X47393400Y-65833900D02*
X46701700Y-65833900D01*
X48450000Y-63650000D02*
X48450000Y-64777300D01*
G04 #@! TO.N,Net-(J1-Pad6)*
X49250000Y-63650000D02*
X49250000Y-62522700D01*
X49250000Y-62522700D02*
X49121600Y-62394300D01*
X49121600Y-62394300D02*
X49121600Y-60831800D01*
X49121600Y-60831800D02*
X48361200Y-60071400D01*
X48361200Y-60071400D02*
X46238300Y-60071400D01*
X46238300Y-60071400D02*
X43528400Y-62781300D01*
X43528400Y-62781300D02*
X41681700Y-62781300D01*
X41681700Y-62781300D02*
X38463000Y-66000000D01*
G04 #@! TO.N,Net-(LED_I1-Pad2)*
X37035000Y-59875000D02*
X38385000Y-61225000D01*
X38385000Y-61225000D02*
X42400000Y-61225000D01*
G04 #@! TO.N,Net-(J8-Pad1)*
X53277600Y-78537000D02*
X48450000Y-73709400D01*
X48450000Y-73709400D02*
X48450000Y-72150000D01*
G04 #@! TO.N,Net-(J6-Pad1)*
X50050000Y-73277300D02*
X50050000Y-73596500D01*
X50050000Y-73596500D02*
X54577200Y-78123700D01*
X54577200Y-78123700D02*
X54670600Y-78123700D01*
X50050000Y-72150000D02*
X50050000Y-73277300D01*
G04 #@! TO.N,Net-(J7-Pad1)*
X61225400Y-87453200D02*
X61225400Y-86275900D01*
X49250000Y-72150000D02*
X49250000Y-73590400D01*
X49250000Y-73590400D02*
X55129400Y-79469800D01*
X55129400Y-79469800D02*
X55129400Y-80748600D01*
X55129400Y-80748600D02*
X58034500Y-83653700D01*
X58034500Y-83653700D02*
X58893900Y-83653700D01*
X58893900Y-83653700D02*
X60048100Y-84807900D01*
X60048100Y-84807900D02*
X60048100Y-85466600D01*
X60048100Y-85466600D02*
X60857400Y-86275900D01*
X60857400Y-86275900D02*
X61225400Y-86275900D01*
G04 #@! TO.N,Net-(U2-Pad10)*
X51756900Y-73474500D02*
X51756900Y-73384200D01*
X51756900Y-73384200D02*
X51650000Y-73277300D01*
X51650000Y-72150000D02*
X51650000Y-73277300D01*
G04 #@! TO.N,Net-(U2-Pad11)*
X50850000Y-73457800D02*
X50850000Y-72150000D01*
D28*
G04 #@! TO.N,Net-(J11-Pad2)*
X57900000Y-43160000D02*
X56539700Y-43160000D01*
X49600000Y-39550000D02*
X53210000Y-43160000D01*
X53210000Y-43160000D02*
X56539700Y-43160000D01*
D27*
G04 #@! TO.N,Net-(J12-Pad4)*
X64900000Y-51950000D02*
X64900000Y-53127300D01*
X53900000Y-66700000D02*
X57515200Y-66700000D01*
X57515200Y-66700000D02*
X59077400Y-65137800D01*
X59077400Y-65137800D02*
X59077400Y-62003600D01*
X59077400Y-62003600D02*
X60241000Y-60840000D01*
X60241000Y-60840000D02*
X61133400Y-60840000D01*
X61133400Y-60840000D02*
X62775000Y-59198400D01*
X62775000Y-59198400D02*
X62775000Y-54886400D01*
X62775000Y-54886400D02*
X64534100Y-53127300D01*
X64534100Y-53127300D02*
X64900000Y-53127300D01*
G04 #@! TO.N,Net-(J12-Pad3)*
X55027300Y-69100000D02*
X56501600Y-69100000D01*
X56501600Y-69100000D02*
X56599200Y-69002400D01*
X56599200Y-69002400D02*
X59205100Y-69002400D01*
X59205100Y-69002400D02*
X60006700Y-68200800D01*
X60006700Y-68200800D02*
X60006700Y-67017600D01*
X60006700Y-67017600D02*
X63722700Y-63301600D01*
X63722700Y-63301600D02*
X63722700Y-56476600D01*
X63722700Y-56476600D02*
X64532000Y-55667300D01*
X64532000Y-55667300D02*
X64900000Y-55667300D01*
X53900000Y-69100000D02*
X55027300Y-69100000D01*
X64900000Y-54490000D02*
X64900000Y-55667300D01*
G04 #@! TO.N,Net-(J12-Pad2)*
X45400000Y-69100000D02*
X46527300Y-69100000D01*
X46527300Y-69100000D02*
X48509100Y-67118200D01*
X48509100Y-67118200D02*
X51507200Y-67118200D01*
X51507200Y-67118200D02*
X51697600Y-66927800D01*
G04 #@! TO.N,Net-(J12-Pad1)*
X45400000Y-66700000D02*
X46527300Y-66700000D01*
X46527300Y-66700000D02*
X46578100Y-66649200D01*
X46578100Y-66649200D02*
X49139700Y-66649200D01*
X49139700Y-66649200D02*
X50491300Y-65297600D01*
X50491300Y-65297600D02*
X52498800Y-65297600D01*
X52498800Y-65297600D02*
X52599700Y-65398500D01*
G04 #@! TD*
M02*
