G04 #@! TF.GenerationSoftware,KiCad,Pcbnew,5.0.1-33cea8e~68~ubuntu18.04.1*
G04 #@! TF.CreationDate,2018-11-21T16:18:05-05:00*
G04 #@! TF.ProjectId,samn,73616D6E2E6B696361645F7063620000,5*
G04 #@! TF.SameCoordinates,Original*
G04 #@! TF.FileFunction,Other,Comment*
%FSLAX46Y46*%
G04 Gerber Fmt 4.6, Leading zero omitted, Abs format (unit mm)*
G04 Created by KiCad (PCBNEW 5.0.1-33cea8e~68~ubuntu18.04.1) date Wed 21 Nov 2018 04:18:05 PM EST*
%MOMM*%
%LPD*%
G01*
G04 APERTURE LIST*
%ADD10C,0.160000*%
%ADD11C,0.300000*%
G04 APERTURE END LIST*
D10*
X30763523Y-24602380D02*
X30430190Y-24126190D01*
X30192095Y-24602380D02*
X30192095Y-23602380D01*
X30573047Y-23602380D01*
X30668285Y-23650000D01*
X30715904Y-23697619D01*
X30763523Y-23792857D01*
X30763523Y-23935714D01*
X30715904Y-24030952D01*
X30668285Y-24078571D01*
X30573047Y-24126190D01*
X30192095Y-24126190D01*
X31573047Y-24554761D02*
X31477809Y-24602380D01*
X31287333Y-24602380D01*
X31192095Y-24554761D01*
X31144476Y-24459523D01*
X31144476Y-24078571D01*
X31192095Y-23983333D01*
X31287333Y-23935714D01*
X31477809Y-23935714D01*
X31573047Y-23983333D01*
X31620666Y-24078571D01*
X31620666Y-24173809D01*
X31144476Y-24269047D01*
X31954000Y-23935714D02*
X32192095Y-24602380D01*
X32430190Y-23935714D01*
X33287333Y-23602380D02*
X32811142Y-23602380D01*
X32763523Y-24078571D01*
X32811142Y-24030952D01*
X32906380Y-23983333D01*
X33144476Y-23983333D01*
X33239714Y-24030952D01*
X33287333Y-24078571D01*
X33334952Y-24173809D01*
X33334952Y-24411904D01*
X33287333Y-24507142D01*
X33239714Y-24554761D01*
X33144476Y-24602380D01*
X32906380Y-24602380D01*
X32811142Y-24554761D01*
X32763523Y-24507142D01*
D11*
X29180714Y-22457142D02*
X29395000Y-22528571D01*
X29752142Y-22528571D01*
X29895000Y-22457142D01*
X29966428Y-22385714D01*
X30037857Y-22242857D01*
X30037857Y-22100000D01*
X29966428Y-21957142D01*
X29895000Y-21885714D01*
X29752142Y-21814285D01*
X29466428Y-21742857D01*
X29323571Y-21671428D01*
X29252142Y-21600000D01*
X29180714Y-21457142D01*
X29180714Y-21314285D01*
X29252142Y-21171428D01*
X29323571Y-21100000D01*
X29466428Y-21028571D01*
X29823571Y-21028571D01*
X30037857Y-21100000D01*
X30609285Y-22100000D02*
X31323571Y-22100000D01*
X30466428Y-22528571D02*
X30966428Y-21028571D01*
X31466428Y-22528571D01*
X31966428Y-22528571D02*
X31966428Y-21028571D01*
X32466428Y-22100000D01*
X32966428Y-21028571D01*
X32966428Y-22528571D01*
X33680714Y-22528571D02*
X33680714Y-21028571D01*
X34537857Y-22528571D01*
X34537857Y-21028571D01*
M02*
