G04 #@! TF.GenerationSoftware,KiCad,Pcbnew,5.0.1-33cea8e~68~ubuntu18.04.1*
G04 #@! TF.CreationDate,2018-11-21T16:18:05-05:00*
G04 #@! TF.ProjectId,samn,73616D6E2E6B696361645F7063620000,5*
G04 #@! TF.SameCoordinates,Original*
G04 #@! TF.FileFunction,Legend,Top*
G04 #@! TF.FilePolarity,Positive*
%FSLAX46Y46*%
G04 Gerber Fmt 4.6, Leading zero omitted, Abs format (unit mm)*
G04 Created by KiCad (PCBNEW 5.0.1-33cea8e~68~ubuntu18.04.1) date Wed 21 Nov 2018 04:18:05 PM EST*
%MOMM*%
%LPD*%
G01*
G04 APERTURE LIST*
%ADD10C,0.120000*%
%ADD11C,0.150000*%
G04 APERTURE END LIST*
D10*
G04 #@! TO.C,J5*
X64980000Y-25480000D02*
X62320000Y-25480000D01*
X64980000Y-28080000D02*
X64980000Y-25480000D01*
X62320000Y-28080000D02*
X62320000Y-25480000D01*
X64980000Y-28080000D02*
X62320000Y-28080000D01*
X64980000Y-29350000D02*
X64980000Y-30680000D01*
X64980000Y-30680000D02*
X63650000Y-30680000D01*
G04 #@! TO.C,U3*
X36980000Y-75976000D02*
X42314000Y-75976000D01*
X42314000Y-75976000D02*
X42314000Y-86644000D01*
X42314000Y-86644000D02*
X36980000Y-86644000D01*
X36980000Y-86644000D02*
X36980000Y-86644000D01*
X39520000Y-76484000D02*
X39520000Y-78770000D01*
X39520000Y-78770000D02*
X37234000Y-78770000D01*
X37234000Y-78770000D02*
X37234000Y-78770000D01*
X36650000Y-75400000D02*
X65850000Y-75400000D01*
X65850000Y-75400000D02*
X65850000Y-90850000D01*
X65850000Y-90850000D02*
X36650000Y-90850000D01*
X36650000Y-90850000D02*
X36650000Y-75400000D01*
X36650000Y-75400000D02*
X36650000Y-75400000D01*
X36980000Y-86644000D02*
X36980000Y-75976000D01*
X36980000Y-75976000D02*
X36980000Y-75976000D01*
G04 #@! TO.C,J4*
X27920000Y-77920000D02*
X29250000Y-77920000D01*
X27920000Y-79250000D02*
X27920000Y-77920000D01*
X30520000Y-77920000D02*
X33120000Y-77920000D01*
X30520000Y-80520000D02*
X30520000Y-77920000D01*
X27920000Y-80520000D02*
X30520000Y-80520000D01*
X33120000Y-77920000D02*
X33120000Y-85660000D01*
X27920000Y-80520000D02*
X27920000Y-85660000D01*
X27920000Y-85660000D02*
X33120000Y-85660000D01*
G04 #@! TO.C,LED_I1*
X24110000Y-69380000D02*
X24110000Y-69536000D01*
X24110000Y-67064000D02*
X24110000Y-67220000D01*
X26711130Y-69379837D02*
G75*
G02X24629039Y-69380000I-1041130J1079837D01*
G01*
X26711130Y-67220163D02*
G75*
G03X24629039Y-67220000I-1041130J-1079837D01*
G01*
X27342335Y-69378608D02*
G75*
G02X24110000Y-69535516I-1672335J1078608D01*
G01*
X27342335Y-67221392D02*
G75*
G03X24110000Y-67064484I-1672335J-1078608D01*
G01*
D11*
G04 #@! TO.C,V1*
X56500000Y-69000000D02*
X56500000Y-63700000D01*
X44500000Y-69000000D02*
X44500000Y-63700000D01*
X44500000Y-31150000D02*
X44500000Y-25850000D01*
X55100000Y-31150000D02*
X55100000Y-25850000D01*
X54900000Y-63700000D02*
X45900000Y-63700000D01*
X45900000Y-63700000D02*
X45900000Y-69000000D01*
X54621494Y-69016940D02*
X54600000Y-73200000D01*
X46200000Y-69000000D02*
X46200000Y-73200000D01*
X54900000Y-63700000D02*
X54921494Y-69016940D01*
X45900000Y-69000000D02*
X46200000Y-69000000D01*
X46200000Y-73200000D02*
X54600000Y-73200000D01*
X54921494Y-69016940D02*
X54621494Y-69016940D01*
X46100000Y-31150000D02*
X46078506Y-25833060D01*
X46078506Y-25833060D02*
X46378506Y-25833060D01*
X46378506Y-25833060D02*
X46400000Y-21650000D01*
X54800000Y-21650000D02*
X46400000Y-21650000D01*
X54800000Y-25850000D02*
X54800000Y-21650000D01*
X55100000Y-25850000D02*
X54800000Y-25850000D01*
X56500000Y-31150000D02*
X56500000Y-25850000D01*
X46100000Y-31150000D02*
X55100000Y-31150000D01*
D10*
G04 #@! TO.C,Y1*
X22975000Y-62140000D02*
G75*
G03X28025000Y-62140000I2525000J0D01*
G01*
X22975000Y-55740000D02*
G75*
G02X28025000Y-55740000I2525000J0D01*
G01*
X22975000Y-55740000D02*
X22975000Y-62140000D01*
X28025000Y-55740000D02*
X28025000Y-62140000D01*
G04 #@! TO.C,C4*
X27775000Y-45745225D02*
X27275000Y-45745225D01*
X27525000Y-45495225D02*
X27525000Y-45995225D01*
X26334000Y-50901000D02*
X25766000Y-50901000D01*
X26568000Y-50861000D02*
X25532000Y-50861000D01*
X26727000Y-50821000D02*
X25373000Y-50821000D01*
X26855000Y-50781000D02*
X25245000Y-50781000D01*
X26965000Y-50741000D02*
X25135000Y-50741000D01*
X27061000Y-50701000D02*
X25039000Y-50701000D01*
X27148000Y-50661000D02*
X24952000Y-50661000D01*
X27228000Y-50621000D02*
X24872000Y-50621000D01*
X27301000Y-50581000D02*
X24799000Y-50581000D01*
X27369000Y-50541000D02*
X24731000Y-50541000D01*
X27433000Y-50501000D02*
X24667000Y-50501000D01*
X27493000Y-50461000D02*
X24607000Y-50461000D01*
X27550000Y-50421000D02*
X24550000Y-50421000D01*
X27604000Y-50381000D02*
X24496000Y-50381000D01*
X27655000Y-50341000D02*
X24445000Y-50341000D01*
X25010000Y-50301000D02*
X24397000Y-50301000D01*
X27703000Y-50301000D02*
X27090000Y-50301000D01*
X25010000Y-50261000D02*
X24351000Y-50261000D01*
X27749000Y-50261000D02*
X27090000Y-50261000D01*
X25010000Y-50221000D02*
X24307000Y-50221000D01*
X27793000Y-50221000D02*
X27090000Y-50221000D01*
X25010000Y-50181000D02*
X24265000Y-50181000D01*
X27835000Y-50181000D02*
X27090000Y-50181000D01*
X25010000Y-50141000D02*
X24224000Y-50141000D01*
X27876000Y-50141000D02*
X27090000Y-50141000D01*
X25010000Y-50101000D02*
X24186000Y-50101000D01*
X27914000Y-50101000D02*
X27090000Y-50101000D01*
X25010000Y-50061000D02*
X24149000Y-50061000D01*
X27951000Y-50061000D02*
X27090000Y-50061000D01*
X25010000Y-50021000D02*
X24113000Y-50021000D01*
X27987000Y-50021000D02*
X27090000Y-50021000D01*
X25010000Y-49981000D02*
X24079000Y-49981000D01*
X28021000Y-49981000D02*
X27090000Y-49981000D01*
X25010000Y-49941000D02*
X24046000Y-49941000D01*
X28054000Y-49941000D02*
X27090000Y-49941000D01*
X25010000Y-49901000D02*
X24015000Y-49901000D01*
X28085000Y-49901000D02*
X27090000Y-49901000D01*
X25010000Y-49861000D02*
X23985000Y-49861000D01*
X28115000Y-49861000D02*
X27090000Y-49861000D01*
X25010000Y-49821000D02*
X23955000Y-49821000D01*
X28145000Y-49821000D02*
X27090000Y-49821000D01*
X25010000Y-49781000D02*
X23928000Y-49781000D01*
X28172000Y-49781000D02*
X27090000Y-49781000D01*
X25010000Y-49741000D02*
X23901000Y-49741000D01*
X28199000Y-49741000D02*
X27090000Y-49741000D01*
X25010000Y-49701000D02*
X23875000Y-49701000D01*
X28225000Y-49701000D02*
X27090000Y-49701000D01*
X25010000Y-49661000D02*
X23850000Y-49661000D01*
X28250000Y-49661000D02*
X27090000Y-49661000D01*
X25010000Y-49621000D02*
X23826000Y-49621000D01*
X28274000Y-49621000D02*
X27090000Y-49621000D01*
X25010000Y-49581000D02*
X23803000Y-49581000D01*
X28297000Y-49581000D02*
X27090000Y-49581000D01*
X25010000Y-49541000D02*
X23782000Y-49541000D01*
X28318000Y-49541000D02*
X27090000Y-49541000D01*
X25010000Y-49501000D02*
X23760000Y-49501000D01*
X28340000Y-49501000D02*
X27090000Y-49501000D01*
X25010000Y-49461000D02*
X23740000Y-49461000D01*
X28360000Y-49461000D02*
X27090000Y-49461000D01*
X25010000Y-49421000D02*
X23721000Y-49421000D01*
X28379000Y-49421000D02*
X27090000Y-49421000D01*
X25010000Y-49381000D02*
X23702000Y-49381000D01*
X28398000Y-49381000D02*
X27090000Y-49381000D01*
X25010000Y-49341000D02*
X23685000Y-49341000D01*
X28415000Y-49341000D02*
X27090000Y-49341000D01*
X25010000Y-49301000D02*
X23668000Y-49301000D01*
X28432000Y-49301000D02*
X27090000Y-49301000D01*
X25010000Y-49261000D02*
X23652000Y-49261000D01*
X28448000Y-49261000D02*
X27090000Y-49261000D01*
X25010000Y-49221000D02*
X23636000Y-49221000D01*
X28464000Y-49221000D02*
X27090000Y-49221000D01*
X25010000Y-49181000D02*
X23622000Y-49181000D01*
X28478000Y-49181000D02*
X27090000Y-49181000D01*
X25010000Y-49141000D02*
X23608000Y-49141000D01*
X28492000Y-49141000D02*
X27090000Y-49141000D01*
X25010000Y-49101000D02*
X23595000Y-49101000D01*
X28505000Y-49101000D02*
X27090000Y-49101000D01*
X25010000Y-49061000D02*
X23582000Y-49061000D01*
X28518000Y-49061000D02*
X27090000Y-49061000D01*
X25010000Y-49021000D02*
X23570000Y-49021000D01*
X28530000Y-49021000D02*
X27090000Y-49021000D01*
X25010000Y-48980000D02*
X23559000Y-48980000D01*
X28541000Y-48980000D02*
X27090000Y-48980000D01*
X25010000Y-48940000D02*
X23549000Y-48940000D01*
X28551000Y-48940000D02*
X27090000Y-48940000D01*
X25010000Y-48900000D02*
X23539000Y-48900000D01*
X28561000Y-48900000D02*
X27090000Y-48900000D01*
X25010000Y-48860000D02*
X23530000Y-48860000D01*
X28570000Y-48860000D02*
X27090000Y-48860000D01*
X25010000Y-48820000D02*
X23522000Y-48820000D01*
X28578000Y-48820000D02*
X27090000Y-48820000D01*
X25010000Y-48780000D02*
X23514000Y-48780000D01*
X28586000Y-48780000D02*
X27090000Y-48780000D01*
X25010000Y-48740000D02*
X23507000Y-48740000D01*
X28593000Y-48740000D02*
X27090000Y-48740000D01*
X25010000Y-48700000D02*
X23500000Y-48700000D01*
X28600000Y-48700000D02*
X27090000Y-48700000D01*
X25010000Y-48660000D02*
X23494000Y-48660000D01*
X28606000Y-48660000D02*
X27090000Y-48660000D01*
X25010000Y-48620000D02*
X23489000Y-48620000D01*
X28611000Y-48620000D02*
X27090000Y-48620000D01*
X25010000Y-48580000D02*
X23485000Y-48580000D01*
X28615000Y-48580000D02*
X27090000Y-48580000D01*
X25010000Y-48540000D02*
X23481000Y-48540000D01*
X28619000Y-48540000D02*
X27090000Y-48540000D01*
X25010000Y-48500000D02*
X23477000Y-48500000D01*
X28623000Y-48500000D02*
X27090000Y-48500000D01*
X25010000Y-48460000D02*
X23474000Y-48460000D01*
X28626000Y-48460000D02*
X27090000Y-48460000D01*
X25010000Y-48420000D02*
X23472000Y-48420000D01*
X28628000Y-48420000D02*
X27090000Y-48420000D01*
X25010000Y-48380000D02*
X23471000Y-48380000D01*
X28629000Y-48380000D02*
X27090000Y-48380000D01*
X28630000Y-48340000D02*
X27090000Y-48340000D01*
X25010000Y-48340000D02*
X23470000Y-48340000D01*
X28630000Y-48300000D02*
X27090000Y-48300000D01*
X25010000Y-48300000D02*
X23470000Y-48300000D01*
X28670000Y-48300000D02*
G75*
G03X28670000Y-48300000I-2620000J0D01*
G01*
G04 #@! TO.C,C7*
X42004775Y-73875000D02*
X42004775Y-73375000D01*
X42254775Y-73625000D02*
X41754775Y-73625000D01*
X36849000Y-72434000D02*
X36849000Y-71866000D01*
X36889000Y-72668000D02*
X36889000Y-71632000D01*
X36929000Y-72827000D02*
X36929000Y-71473000D01*
X36969000Y-72955000D02*
X36969000Y-71345000D01*
X37009000Y-73065000D02*
X37009000Y-71235000D01*
X37049000Y-73161000D02*
X37049000Y-71139000D01*
X37089000Y-73248000D02*
X37089000Y-71052000D01*
X37129000Y-73328000D02*
X37129000Y-70972000D01*
X37169000Y-73401000D02*
X37169000Y-70899000D01*
X37209000Y-73469000D02*
X37209000Y-70831000D01*
X37249000Y-73533000D02*
X37249000Y-70767000D01*
X37289000Y-73593000D02*
X37289000Y-70707000D01*
X37329000Y-73650000D02*
X37329000Y-70650000D01*
X37369000Y-73704000D02*
X37369000Y-70596000D01*
X37409000Y-73755000D02*
X37409000Y-70545000D01*
X37449000Y-71110000D02*
X37449000Y-70497000D01*
X37449000Y-73803000D02*
X37449000Y-73190000D01*
X37489000Y-71110000D02*
X37489000Y-70451000D01*
X37489000Y-73849000D02*
X37489000Y-73190000D01*
X37529000Y-71110000D02*
X37529000Y-70407000D01*
X37529000Y-73893000D02*
X37529000Y-73190000D01*
X37569000Y-71110000D02*
X37569000Y-70365000D01*
X37569000Y-73935000D02*
X37569000Y-73190000D01*
X37609000Y-71110000D02*
X37609000Y-70324000D01*
X37609000Y-73976000D02*
X37609000Y-73190000D01*
X37649000Y-71110000D02*
X37649000Y-70286000D01*
X37649000Y-74014000D02*
X37649000Y-73190000D01*
X37689000Y-71110000D02*
X37689000Y-70249000D01*
X37689000Y-74051000D02*
X37689000Y-73190000D01*
X37729000Y-71110000D02*
X37729000Y-70213000D01*
X37729000Y-74087000D02*
X37729000Y-73190000D01*
X37769000Y-71110000D02*
X37769000Y-70179000D01*
X37769000Y-74121000D02*
X37769000Y-73190000D01*
X37809000Y-71110000D02*
X37809000Y-70146000D01*
X37809000Y-74154000D02*
X37809000Y-73190000D01*
X37849000Y-71110000D02*
X37849000Y-70115000D01*
X37849000Y-74185000D02*
X37849000Y-73190000D01*
X37889000Y-71110000D02*
X37889000Y-70085000D01*
X37889000Y-74215000D02*
X37889000Y-73190000D01*
X37929000Y-71110000D02*
X37929000Y-70055000D01*
X37929000Y-74245000D02*
X37929000Y-73190000D01*
X37969000Y-71110000D02*
X37969000Y-70028000D01*
X37969000Y-74272000D02*
X37969000Y-73190000D01*
X38009000Y-71110000D02*
X38009000Y-70001000D01*
X38009000Y-74299000D02*
X38009000Y-73190000D01*
X38049000Y-71110000D02*
X38049000Y-69975000D01*
X38049000Y-74325000D02*
X38049000Y-73190000D01*
X38089000Y-71110000D02*
X38089000Y-69950000D01*
X38089000Y-74350000D02*
X38089000Y-73190000D01*
X38129000Y-71110000D02*
X38129000Y-69926000D01*
X38129000Y-74374000D02*
X38129000Y-73190000D01*
X38169000Y-71110000D02*
X38169000Y-69903000D01*
X38169000Y-74397000D02*
X38169000Y-73190000D01*
X38209000Y-71110000D02*
X38209000Y-69882000D01*
X38209000Y-74418000D02*
X38209000Y-73190000D01*
X38249000Y-71110000D02*
X38249000Y-69860000D01*
X38249000Y-74440000D02*
X38249000Y-73190000D01*
X38289000Y-71110000D02*
X38289000Y-69840000D01*
X38289000Y-74460000D02*
X38289000Y-73190000D01*
X38329000Y-71110000D02*
X38329000Y-69821000D01*
X38329000Y-74479000D02*
X38329000Y-73190000D01*
X38369000Y-71110000D02*
X38369000Y-69802000D01*
X38369000Y-74498000D02*
X38369000Y-73190000D01*
X38409000Y-71110000D02*
X38409000Y-69785000D01*
X38409000Y-74515000D02*
X38409000Y-73190000D01*
X38449000Y-71110000D02*
X38449000Y-69768000D01*
X38449000Y-74532000D02*
X38449000Y-73190000D01*
X38489000Y-71110000D02*
X38489000Y-69752000D01*
X38489000Y-74548000D02*
X38489000Y-73190000D01*
X38529000Y-71110000D02*
X38529000Y-69736000D01*
X38529000Y-74564000D02*
X38529000Y-73190000D01*
X38569000Y-71110000D02*
X38569000Y-69722000D01*
X38569000Y-74578000D02*
X38569000Y-73190000D01*
X38609000Y-71110000D02*
X38609000Y-69708000D01*
X38609000Y-74592000D02*
X38609000Y-73190000D01*
X38649000Y-71110000D02*
X38649000Y-69695000D01*
X38649000Y-74605000D02*
X38649000Y-73190000D01*
X38689000Y-71110000D02*
X38689000Y-69682000D01*
X38689000Y-74618000D02*
X38689000Y-73190000D01*
X38729000Y-71110000D02*
X38729000Y-69670000D01*
X38729000Y-74630000D02*
X38729000Y-73190000D01*
X38770000Y-71110000D02*
X38770000Y-69659000D01*
X38770000Y-74641000D02*
X38770000Y-73190000D01*
X38810000Y-71110000D02*
X38810000Y-69649000D01*
X38810000Y-74651000D02*
X38810000Y-73190000D01*
X38850000Y-71110000D02*
X38850000Y-69639000D01*
X38850000Y-74661000D02*
X38850000Y-73190000D01*
X38890000Y-71110000D02*
X38890000Y-69630000D01*
X38890000Y-74670000D02*
X38890000Y-73190000D01*
X38930000Y-71110000D02*
X38930000Y-69622000D01*
X38930000Y-74678000D02*
X38930000Y-73190000D01*
X38970000Y-71110000D02*
X38970000Y-69614000D01*
X38970000Y-74686000D02*
X38970000Y-73190000D01*
X39010000Y-71110000D02*
X39010000Y-69607000D01*
X39010000Y-74693000D02*
X39010000Y-73190000D01*
X39050000Y-71110000D02*
X39050000Y-69600000D01*
X39050000Y-74700000D02*
X39050000Y-73190000D01*
X39090000Y-71110000D02*
X39090000Y-69594000D01*
X39090000Y-74706000D02*
X39090000Y-73190000D01*
X39130000Y-71110000D02*
X39130000Y-69589000D01*
X39130000Y-74711000D02*
X39130000Y-73190000D01*
X39170000Y-71110000D02*
X39170000Y-69585000D01*
X39170000Y-74715000D02*
X39170000Y-73190000D01*
X39210000Y-71110000D02*
X39210000Y-69581000D01*
X39210000Y-74719000D02*
X39210000Y-73190000D01*
X39250000Y-71110000D02*
X39250000Y-69577000D01*
X39250000Y-74723000D02*
X39250000Y-73190000D01*
X39290000Y-71110000D02*
X39290000Y-69574000D01*
X39290000Y-74726000D02*
X39290000Y-73190000D01*
X39330000Y-71110000D02*
X39330000Y-69572000D01*
X39330000Y-74728000D02*
X39330000Y-73190000D01*
X39370000Y-71110000D02*
X39370000Y-69571000D01*
X39370000Y-74729000D02*
X39370000Y-73190000D01*
X39410000Y-74730000D02*
X39410000Y-73190000D01*
X39410000Y-71110000D02*
X39410000Y-69570000D01*
X39450000Y-74730000D02*
X39450000Y-73190000D01*
X39450000Y-71110000D02*
X39450000Y-69570000D01*
X42070000Y-72150000D02*
G75*
G03X42070000Y-72150000I-2620000J0D01*
G01*
G04 #@! TO.C,J1*
X60300000Y-50980000D02*
X58970000Y-50980000D01*
X58970000Y-50980000D02*
X58970000Y-49650000D01*
X58970000Y-48380000D02*
X58970000Y-35620000D01*
X61630000Y-35620000D02*
X58970000Y-35620000D01*
X61630000Y-48380000D02*
X61630000Y-35620000D01*
X61630000Y-48380000D02*
X58970000Y-48380000D01*
G04 #@! TO.C,J3*
X30250000Y-28920000D02*
X31580000Y-28920000D01*
X31580000Y-28920000D02*
X31580000Y-30250000D01*
X31580000Y-31520000D02*
X31580000Y-44280000D01*
X28920000Y-44280000D02*
X31580000Y-44280000D01*
X28920000Y-31520000D02*
X28920000Y-44280000D01*
X28920000Y-31520000D02*
X31580000Y-31520000D01*
G04 #@! TO.C,J2*
X60250000Y-73330000D02*
X58920000Y-73330000D01*
X58920000Y-73330000D02*
X58920000Y-72000000D01*
X58920000Y-70730000D02*
X58920000Y-52890000D01*
X61580000Y-52890000D02*
X58920000Y-52890000D01*
X61580000Y-70730000D02*
X61580000Y-52890000D01*
X61580000Y-70730000D02*
X58920000Y-70730000D01*
G04 #@! TO.C,U2*
X43060000Y-28860000D02*
X32560000Y-28860000D01*
X43060000Y-64660000D02*
X43060000Y-28860000D01*
X32560000Y-64660000D02*
X43060000Y-64660000D01*
X32560000Y-28860000D02*
X32560000Y-64660000D01*
X40060000Y-28920000D02*
X38810000Y-28920000D01*
X40060000Y-64600000D02*
X40060000Y-28920000D01*
X35560000Y-64600000D02*
X40060000Y-64600000D01*
X35560000Y-28920000D02*
X35560000Y-64600000D01*
X36810000Y-28920000D02*
X35560000Y-28920000D01*
X38810000Y-28920000D02*
G75*
G02X36810000Y-28920000I-1000000J0D01*
G01*
G04 #@! TO.C,J5*
D11*
X63316666Y-31132380D02*
X63316666Y-31846666D01*
X63269047Y-31989523D01*
X63173809Y-32084761D01*
X63030952Y-32132380D01*
X62935714Y-32132380D01*
X64269047Y-31132380D02*
X63792857Y-31132380D01*
X63745238Y-31608571D01*
X63792857Y-31560952D01*
X63888095Y-31513333D01*
X64126190Y-31513333D01*
X64221428Y-31560952D01*
X64269047Y-31608571D01*
X64316666Y-31703809D01*
X64316666Y-31941904D01*
X64269047Y-32037142D01*
X64221428Y-32084761D01*
X64126190Y-32132380D01*
X63888095Y-32132380D01*
X63792857Y-32084761D01*
X63745238Y-32037142D01*
G04 #@! TO.C,U3*
X36038095Y-74052380D02*
X36038095Y-74861904D01*
X36085714Y-74957142D01*
X36133333Y-75004761D01*
X36228571Y-75052380D01*
X36419047Y-75052380D01*
X36514285Y-75004761D01*
X36561904Y-74957142D01*
X36609523Y-74861904D01*
X36609523Y-74052380D01*
X36990476Y-74052380D02*
X37609523Y-74052380D01*
X37276190Y-74433333D01*
X37419047Y-74433333D01*
X37514285Y-74480952D01*
X37561904Y-74528571D01*
X37609523Y-74623809D01*
X37609523Y-74861904D01*
X37561904Y-74957142D01*
X37514285Y-75004761D01*
X37419047Y-75052380D01*
X37133333Y-75052380D01*
X37038095Y-75004761D01*
X36990476Y-74957142D01*
G04 #@! TO.C,J4*
X26216666Y-77552380D02*
X26216666Y-78266666D01*
X26169047Y-78409523D01*
X26073809Y-78504761D01*
X25930952Y-78552380D01*
X25835714Y-78552380D01*
X27121428Y-77885714D02*
X27121428Y-78552380D01*
X26883333Y-77504761D02*
X26645238Y-78219047D01*
X27264285Y-78219047D01*
G04 #@! TO.C,LED_I1*
X23931904Y-65802380D02*
X23455714Y-65802380D01*
X23455714Y-64802380D01*
X24265238Y-65278571D02*
X24598571Y-65278571D01*
X24741428Y-65802380D02*
X24265238Y-65802380D01*
X24265238Y-64802380D01*
X24741428Y-64802380D01*
X25170000Y-65802380D02*
X25170000Y-64802380D01*
X25408095Y-64802380D01*
X25550952Y-64850000D01*
X25646190Y-64945238D01*
X25693809Y-65040476D01*
X25741428Y-65230952D01*
X25741428Y-65373809D01*
X25693809Y-65564285D01*
X25646190Y-65659523D01*
X25550952Y-65754761D01*
X25408095Y-65802380D01*
X25170000Y-65802380D01*
X25931904Y-65897619D02*
X26693809Y-65897619D01*
X26931904Y-65802380D02*
X26931904Y-64802380D01*
X27931904Y-65802380D02*
X27360476Y-65802380D01*
X27646190Y-65802380D02*
X27646190Y-64802380D01*
X27550952Y-64945238D01*
X27455714Y-65040476D01*
X27360476Y-65088095D01*
G04 #@! TO.C,V1*
X55590476Y-23352380D02*
X55923809Y-24352380D01*
X56257142Y-23352380D01*
X57114285Y-24352380D02*
X56542857Y-24352380D01*
X56828571Y-24352380D02*
X56828571Y-23352380D01*
X56733333Y-23495238D01*
X56638095Y-23590476D01*
X56542857Y-23638095D01*
G04 #@! TO.C,Y1*
X29001190Y-59416190D02*
X29477380Y-59416190D01*
X28477380Y-59749523D02*
X29001190Y-59416190D01*
X28477380Y-59082857D01*
X29477380Y-58225714D02*
X29477380Y-58797142D01*
X29477380Y-58511428D02*
X28477380Y-58511428D01*
X28620238Y-58606666D01*
X28715476Y-58701904D01*
X28763095Y-58797142D01*
G04 #@! TO.C,C4*
X23607142Y-46216666D02*
X23654761Y-46264285D01*
X23702380Y-46407142D01*
X23702380Y-46502380D01*
X23654761Y-46645238D01*
X23559523Y-46740476D01*
X23464285Y-46788095D01*
X23273809Y-46835714D01*
X23130952Y-46835714D01*
X22940476Y-46788095D01*
X22845238Y-46740476D01*
X22750000Y-46645238D01*
X22702380Y-46502380D01*
X22702380Y-46407142D01*
X22750000Y-46264285D01*
X22797619Y-46216666D01*
X23035714Y-45359523D02*
X23702380Y-45359523D01*
X22654761Y-45597619D02*
X23369047Y-45835714D01*
X23369047Y-45216666D01*
G04 #@! TO.C,C7*
X39283333Y-76257142D02*
X39235714Y-76304761D01*
X39092857Y-76352380D01*
X38997619Y-76352380D01*
X38854761Y-76304761D01*
X38759523Y-76209523D01*
X38711904Y-76114285D01*
X38664285Y-75923809D01*
X38664285Y-75780952D01*
X38711904Y-75590476D01*
X38759523Y-75495238D01*
X38854761Y-75400000D01*
X38997619Y-75352380D01*
X39092857Y-75352380D01*
X39235714Y-75400000D01*
X39283333Y-75447619D01*
X39616666Y-75352380D02*
X40283333Y-75352380D01*
X39854761Y-76352380D01*
G04 #@! TO.C,J1*
X59966666Y-51872380D02*
X59966666Y-52586666D01*
X59919047Y-52729523D01*
X59823809Y-52824761D01*
X59680952Y-52872380D01*
X59585714Y-52872380D01*
X60966666Y-52872380D02*
X60395238Y-52872380D01*
X60680952Y-52872380D02*
X60680952Y-51872380D01*
X60585714Y-52015238D01*
X60490476Y-52110476D01*
X60395238Y-52158095D01*
G04 #@! TO.C,J3*
X27216666Y-28552380D02*
X27216666Y-29266666D01*
X27169047Y-29409523D01*
X27073809Y-29504761D01*
X26930952Y-29552380D01*
X26835714Y-29552380D01*
X27597619Y-28552380D02*
X28216666Y-28552380D01*
X27883333Y-28933333D01*
X28026190Y-28933333D01*
X28121428Y-28980952D01*
X28169047Y-29028571D01*
X28216666Y-29123809D01*
X28216666Y-29361904D01*
X28169047Y-29457142D01*
X28121428Y-29504761D01*
X28026190Y-29552380D01*
X27740476Y-29552380D01*
X27645238Y-29504761D01*
X27597619Y-29457142D01*
G04 #@! TO.C,J2*
X60166666Y-74002380D02*
X60166666Y-74716666D01*
X60119047Y-74859523D01*
X60023809Y-74954761D01*
X59880952Y-75002380D01*
X59785714Y-75002380D01*
X60595238Y-74097619D02*
X60642857Y-74050000D01*
X60738095Y-74002380D01*
X60976190Y-74002380D01*
X61071428Y-74050000D01*
X61119047Y-74097619D01*
X61166666Y-74192857D01*
X61166666Y-74288095D01*
X61119047Y-74430952D01*
X60547619Y-75002380D01*
X61166666Y-75002380D01*
G04 #@! TO.C,U2*
X36238095Y-27452380D02*
X36238095Y-28261904D01*
X36285714Y-28357142D01*
X36333333Y-28404761D01*
X36428571Y-28452380D01*
X36619047Y-28452380D01*
X36714285Y-28404761D01*
X36761904Y-28357142D01*
X36809523Y-28261904D01*
X36809523Y-27452380D01*
X37238095Y-27547619D02*
X37285714Y-27500000D01*
X37380952Y-27452380D01*
X37619047Y-27452380D01*
X37714285Y-27500000D01*
X37761904Y-27547619D01*
X37809523Y-27642857D01*
X37809523Y-27738095D01*
X37761904Y-27880952D01*
X37190476Y-28452380D01*
X37809523Y-28452380D01*
G04 #@! TD*
M02*
