M48
;DRILL file {KiCad 5.0.1-33cea8e~68~ubuntu18.04.1} date Wed 21 Nov 2018 04:17:58 PM EST
;FORMAT={-:-/ absolute / inch / decimal}
FMAT,2
INCH,TZ
T1C0.0236
T2C0.0315
T3C0.0354
T4C0.0394
T5C0.0669
T6C0.0787
%
G90
G05
M72
T1
X0.9213Y-3.0217
X1.0059Y-1.5492
X1.0476Y-3.2201
X1.25Y-3.0315
X1.3583Y-2.6378
X1.3583Y-3.1496
X1.3799Y-3.4035
X1.3976Y-3.0807
X1.4567Y-2.6563
X1.5748Y-2.9429
X1.7224Y-2.6969
X1.7421Y-3.3524
X1.7756Y-1.4547
X1.9114Y-3.3799
X2.2382Y-1.378
X2.3031Y-3.4843
T2
X1.0256Y-1.8622
X1.0256Y-1.9409
X1.0039Y-2.2244
X1.0039Y-2.4165
X1.3386Y-1.1909
X1.3386Y-1.2909
X1.3386Y-1.3909
X1.3386Y-1.4909
X1.3386Y-1.5909
X1.3386Y-1.6909
X1.3386Y-1.7909
X1.3386Y-1.8909
X1.3386Y-1.9909
X1.3386Y-2.0909
X1.3386Y-2.1909
X1.3386Y-2.2909
X1.3386Y-2.3909
X1.3386Y-2.4909
X1.6386Y-1.1909
X1.6386Y-1.2909
X1.6386Y-1.3909
X1.6386Y-1.4909
X1.6386Y-1.5909
X1.6386Y-1.6909
X1.6386Y-1.7909
X1.6386Y-1.8909
X1.6386Y-1.9909
X1.6386Y-2.0909
X1.6386Y-2.1909
X1.6386Y-2.2909
X1.6386Y-2.3909
X1.6386Y-2.4909
X1.5138Y-2.8406
X1.5925Y-2.8406
T3
X0.9606Y-2.689
X1.0606Y-2.689
T4
X2.5059Y-1.0555
X2.5059Y-1.1555
X2.374Y-1.4547
X2.374Y-1.5547
X2.374Y-1.6547
X2.374Y-1.7547
X2.374Y-1.8547
X2.374Y-1.9547
X1.1909Y-1.1909
X1.1909Y-1.2909
X1.1909Y-1.3909
X1.1909Y-1.4909
X1.1909Y-1.5909
X1.1909Y-1.6909
X1.1516Y-3.1201
X1.1516Y-3.2201
X1.1516Y-3.3201
X1.2516Y-3.1201
X1.2516Y-3.2201
X1.2516Y-3.3201
X1.5059Y-3.0512
X1.5059Y-3.1512
X1.5059Y-3.2512
X1.5059Y-3.3512
X1.6059Y-3.0512
X1.6059Y-3.1512
X1.6059Y-3.2512
X1.6059Y-3.3512
X2.372Y-2.1346
X2.372Y-2.2346
X2.372Y-2.3346
X2.372Y-2.4346
X2.372Y-2.5346
X2.372Y-2.6346
X2.372Y-2.7346
X2.372Y-2.8346
T5
X1.9882Y-0.9508
X1.9882Y-1.187
X1.9882Y-2.5472
X1.9882Y-2.7835
T6
X0.9252Y-0.8858
X0.9252Y-3.4449
X2.5Y-0.8858
X2.5Y-2.1654
T0
M30
