G04 #@! TF.GenerationSoftware,KiCad,Pcbnew,5.0.1-33cea8e~68~ubuntu18.04.1*
G04 #@! TF.CreationDate,2018-11-21T16:18:05-05:00*
G04 #@! TF.ProjectId,samn,73616D6E2E6B696361645F7063620000,5*
G04 #@! TF.SameCoordinates,Original*
G04 #@! TF.FileFunction,Other,Fab,Bot*
%FSLAX46Y46*%
G04 Gerber Fmt 4.6, Leading zero omitted, Abs format (unit mm)*
G04 Created by KiCad (PCBNEW 5.0.1-33cea8e~68~ubuntu18.04.1) date Wed 21 Nov 2018 04:18:05 PM EST*
%MOMM*%
%LPD*%
G01*
G04 APERTURE LIST*
%ADD10C,0.100000*%
%ADD11C,0.150000*%
%ADD12C,0.080000*%
%ADD13C,0.075000*%
G04 APERTURE END LIST*
D10*
G04 #@! TO.C,R7*
X61050000Y-31750000D02*
X59050000Y-31750000D01*
X61050000Y-32950000D02*
X61050000Y-31750000D01*
X59050000Y-32950000D02*
X61050000Y-32950000D01*
X59050000Y-31750000D02*
X59050000Y-32950000D01*
G04 #@! TO.C,C2*
X29600000Y-23650000D02*
X29600000Y-25650000D01*
X30800000Y-23650000D02*
X29600000Y-23650000D01*
X30800000Y-25650000D02*
X30800000Y-23650000D01*
X29600000Y-25650000D02*
X30800000Y-25650000D01*
G04 #@! TO.C,C3*
X45050000Y-47750000D02*
X45050000Y-45750000D01*
X43850000Y-47750000D02*
X45050000Y-47750000D01*
X43850000Y-45750000D02*
X43850000Y-47750000D01*
X45050000Y-45750000D02*
X43850000Y-45750000D01*
G04 #@! TO.C,C5*
X29050000Y-53400000D02*
X29050000Y-55400000D01*
X30250000Y-53400000D02*
X29050000Y-53400000D01*
X30250000Y-55400000D02*
X30250000Y-53400000D01*
X29050000Y-55400000D02*
X30250000Y-55400000D01*
G04 #@! TO.C,C6*
X30250000Y-63600000D02*
X30250000Y-61600000D01*
X29050000Y-63600000D02*
X30250000Y-63600000D01*
X29050000Y-61600000D02*
X29050000Y-63600000D01*
X30250000Y-61600000D02*
X29050000Y-61600000D01*
G04 #@! TO.C,C1*
X34800000Y-26150000D02*
X36800000Y-26150000D01*
X34800000Y-24950000D02*
X34800000Y-26150000D01*
X36800000Y-24950000D02*
X34800000Y-24950000D01*
X36800000Y-26150000D02*
X36800000Y-24950000D01*
G04 #@! TO.C,U1*
X41787600Y-22795000D02*
X38687600Y-22795000D01*
X38687600Y-22795000D02*
X38687600Y-24595000D01*
X41137600Y-24595000D02*
X38687600Y-24595000D01*
X41787600Y-22795000D02*
X41787600Y-23945000D01*
X41137600Y-24595000D02*
X41787600Y-23945000D01*
G04 #@! TO.C,R4*
X31650000Y-66300000D02*
X29650000Y-66300000D01*
X31650000Y-67500000D02*
X31650000Y-66300000D01*
X29650000Y-67500000D02*
X31650000Y-67500000D01*
X29650000Y-66300000D02*
X29650000Y-67500000D01*
G04 #@! TO.C,R1*
X36800000Y-21200000D02*
X34800000Y-21200000D01*
X36800000Y-22400000D02*
X36800000Y-21200000D01*
X34800000Y-22400000D02*
X36800000Y-22400000D01*
X34800000Y-21200000D02*
X34800000Y-22400000D01*
G04 #@! TO.C,R2*
X33150000Y-25650000D02*
X33150000Y-23650000D01*
X31950000Y-25650000D02*
X33150000Y-25650000D01*
X31950000Y-23650000D02*
X31950000Y-25650000D01*
X33150000Y-23650000D02*
X31950000Y-23650000D01*
G04 #@! TO.C,R5*
X22300000Y-82500000D02*
X24300000Y-82500000D01*
X22300000Y-81300000D02*
X22300000Y-82500000D01*
X24300000Y-81300000D02*
X22300000Y-81300000D01*
X24300000Y-82500000D02*
X24300000Y-81300000D01*
G04 #@! TO.C,R6*
X30250000Y-59500000D02*
X30250000Y-57500000D01*
X29050000Y-59500000D02*
X30250000Y-59500000D01*
X29050000Y-57500000D02*
X29050000Y-59500000D01*
X30250000Y-57500000D02*
X29050000Y-57500000D01*
G04 #@! TD*
G04 #@! TO.C,R7*
D11*
X60645238Y-31152380D02*
X61216666Y-31152380D01*
X60930952Y-31152380D02*
X60930952Y-30152380D01*
X61026190Y-30295238D01*
X61121428Y-30390476D01*
X61216666Y-30438095D01*
X60026190Y-30152380D02*
X59930952Y-30152380D01*
X59835714Y-30200000D01*
X59788095Y-30247619D01*
X59740476Y-30342857D01*
X59692857Y-30533333D01*
X59692857Y-30771428D01*
X59740476Y-30961904D01*
X59788095Y-31057142D01*
X59835714Y-31104761D01*
X59930952Y-31152380D01*
X60026190Y-31152380D01*
X60121428Y-31104761D01*
X60169047Y-31057142D01*
X60216666Y-30961904D01*
X60264285Y-30771428D01*
X60264285Y-30533333D01*
X60216666Y-30342857D01*
X60169047Y-30247619D01*
X60121428Y-30200000D01*
X60026190Y-30152380D01*
X59264285Y-31152380D02*
X59264285Y-30152380D01*
X59169047Y-30771428D02*
X58883333Y-31152380D01*
X58883333Y-30485714D02*
X59264285Y-30866666D01*
D12*
X60133333Y-32576190D02*
X60300000Y-32338095D01*
X60419047Y-32576190D02*
X60419047Y-32076190D01*
X60228571Y-32076190D01*
X60180952Y-32100000D01*
X60157142Y-32123809D01*
X60133333Y-32171428D01*
X60133333Y-32242857D01*
X60157142Y-32290476D01*
X60180952Y-32314285D01*
X60228571Y-32338095D01*
X60419047Y-32338095D01*
X59966666Y-32076190D02*
X59633333Y-32076190D01*
X59847619Y-32576190D01*
G04 #@! TO.C,L1*
D11*
X47750000Y-23485714D02*
X47750000Y-24152380D01*
X47988095Y-23104761D02*
X48226190Y-23819047D01*
X47607142Y-23819047D01*
X47226190Y-24057142D02*
X47178571Y-24104761D01*
X47226190Y-24152380D01*
X47273809Y-24104761D01*
X47226190Y-24057142D01*
X47226190Y-24152380D01*
X46845238Y-23152380D02*
X46178571Y-23152380D01*
X46607142Y-24152380D01*
X45369047Y-23485714D02*
X45369047Y-24152380D01*
X45797619Y-23485714D02*
X45797619Y-24009523D01*
X45750000Y-24104761D01*
X45654761Y-24152380D01*
X45511904Y-24152380D01*
X45416666Y-24104761D01*
X45369047Y-24057142D01*
X44892857Y-24152380D02*
X44892857Y-23152380D01*
X44892857Y-23628571D02*
X44321428Y-23628571D01*
X44321428Y-24152380D02*
X44321428Y-23152380D01*
G04 #@! TO.C,C2*
X28202380Y-23778571D02*
X28202380Y-23207142D01*
X28202380Y-23492857D02*
X27202380Y-23492857D01*
X27345238Y-23397619D01*
X27440476Y-23302380D01*
X27488095Y-23207142D01*
X27202380Y-24397619D02*
X27202380Y-24492857D01*
X27250000Y-24588095D01*
X27297619Y-24635714D01*
X27392857Y-24683333D01*
X27583333Y-24730952D01*
X27821428Y-24730952D01*
X28011904Y-24683333D01*
X28107142Y-24635714D01*
X28154761Y-24588095D01*
X28202380Y-24492857D01*
X28202380Y-24397619D01*
X28154761Y-24302380D01*
X28107142Y-24254761D01*
X28011904Y-24207142D01*
X27821428Y-24159523D01*
X27583333Y-24159523D01*
X27392857Y-24207142D01*
X27297619Y-24254761D01*
X27250000Y-24302380D01*
X27202380Y-24397619D01*
X27535714Y-25588095D02*
X28202380Y-25588095D01*
X27535714Y-25159523D02*
X28059523Y-25159523D01*
X28154761Y-25207142D01*
X28202380Y-25302380D01*
X28202380Y-25445238D01*
X28154761Y-25540476D01*
X28107142Y-25588095D01*
X27678571Y-26397619D02*
X27678571Y-26064285D01*
X28202380Y-26064285D02*
X27202380Y-26064285D01*
X27202380Y-26540476D01*
D12*
X30378571Y-24566666D02*
X30402380Y-24542857D01*
X30426190Y-24471428D01*
X30426190Y-24423809D01*
X30402380Y-24352380D01*
X30354761Y-24304761D01*
X30307142Y-24280952D01*
X30211904Y-24257142D01*
X30140476Y-24257142D01*
X30045238Y-24280952D01*
X29997619Y-24304761D01*
X29950000Y-24352380D01*
X29926190Y-24423809D01*
X29926190Y-24471428D01*
X29950000Y-24542857D01*
X29973809Y-24566666D01*
X29973809Y-24757142D02*
X29950000Y-24780952D01*
X29926190Y-24828571D01*
X29926190Y-24947619D01*
X29950000Y-24995238D01*
X29973809Y-25019047D01*
X30021428Y-25042857D01*
X30069047Y-25042857D01*
X30140476Y-25019047D01*
X30426190Y-24733333D01*
X30426190Y-25042857D01*
G04 #@! TO.C,C3*
D11*
X45647619Y-45107142D02*
X45600000Y-45154761D01*
X45552380Y-45250000D01*
X45552380Y-45488095D01*
X45600000Y-45583333D01*
X45647619Y-45630952D01*
X45742857Y-45678571D01*
X45838095Y-45678571D01*
X45980952Y-45630952D01*
X46552380Y-45059523D01*
X46552380Y-45678571D01*
X45647619Y-46059523D02*
X45600000Y-46107142D01*
X45552380Y-46202380D01*
X45552380Y-46440476D01*
X45600000Y-46535714D01*
X45647619Y-46583333D01*
X45742857Y-46630952D01*
X45838095Y-46630952D01*
X45980952Y-46583333D01*
X46552380Y-46011904D01*
X46552380Y-46630952D01*
X45885714Y-47059523D02*
X46885714Y-47059523D01*
X45933333Y-47059523D02*
X45885714Y-47154761D01*
X45885714Y-47345238D01*
X45933333Y-47440476D01*
X45980952Y-47488095D01*
X46076190Y-47535714D01*
X46361904Y-47535714D01*
X46457142Y-47488095D01*
X46504761Y-47440476D01*
X46552380Y-47345238D01*
X46552380Y-47154761D01*
X46504761Y-47059523D01*
X46028571Y-48297619D02*
X46028571Y-47964285D01*
X46552380Y-47964285D02*
X45552380Y-47964285D01*
X45552380Y-48440476D01*
D12*
X44628571Y-46666666D02*
X44652380Y-46642857D01*
X44676190Y-46571428D01*
X44676190Y-46523809D01*
X44652380Y-46452380D01*
X44604761Y-46404761D01*
X44557142Y-46380952D01*
X44461904Y-46357142D01*
X44390476Y-46357142D01*
X44295238Y-46380952D01*
X44247619Y-46404761D01*
X44200000Y-46452380D01*
X44176190Y-46523809D01*
X44176190Y-46571428D01*
X44200000Y-46642857D01*
X44223809Y-46666666D01*
X44176190Y-46833333D02*
X44176190Y-47142857D01*
X44366666Y-46976190D01*
X44366666Y-47047619D01*
X44390476Y-47095238D01*
X44414285Y-47119047D01*
X44461904Y-47142857D01*
X44580952Y-47142857D01*
X44628571Y-47119047D01*
X44652380Y-47095238D01*
X44676190Y-47047619D01*
X44676190Y-46904761D01*
X44652380Y-46857142D01*
X44628571Y-46833333D01*
G04 #@! TO.C,C5*
D11*
X27547619Y-52757142D02*
X27500000Y-52804761D01*
X27452380Y-52900000D01*
X27452380Y-53138095D01*
X27500000Y-53233333D01*
X27547619Y-53280952D01*
X27642857Y-53328571D01*
X27738095Y-53328571D01*
X27880952Y-53280952D01*
X28452380Y-52709523D01*
X28452380Y-53328571D01*
X27547619Y-53709523D02*
X27500000Y-53757142D01*
X27452380Y-53852380D01*
X27452380Y-54090476D01*
X27500000Y-54185714D01*
X27547619Y-54233333D01*
X27642857Y-54280952D01*
X27738095Y-54280952D01*
X27880952Y-54233333D01*
X28452380Y-53661904D01*
X28452380Y-54280952D01*
X27785714Y-54709523D02*
X28785714Y-54709523D01*
X27833333Y-54709523D02*
X27785714Y-54804761D01*
X27785714Y-54995238D01*
X27833333Y-55090476D01*
X27880952Y-55138095D01*
X27976190Y-55185714D01*
X28261904Y-55185714D01*
X28357142Y-55138095D01*
X28404761Y-55090476D01*
X28452380Y-54995238D01*
X28452380Y-54804761D01*
X28404761Y-54709523D01*
X27928571Y-55947619D02*
X27928571Y-55614285D01*
X28452380Y-55614285D02*
X27452380Y-55614285D01*
X27452380Y-56090476D01*
D12*
X29828571Y-54316666D02*
X29852380Y-54292857D01*
X29876190Y-54221428D01*
X29876190Y-54173809D01*
X29852380Y-54102380D01*
X29804761Y-54054761D01*
X29757142Y-54030952D01*
X29661904Y-54007142D01*
X29590476Y-54007142D01*
X29495238Y-54030952D01*
X29447619Y-54054761D01*
X29400000Y-54102380D01*
X29376190Y-54173809D01*
X29376190Y-54221428D01*
X29400000Y-54292857D01*
X29423809Y-54316666D01*
X29376190Y-54769047D02*
X29376190Y-54530952D01*
X29614285Y-54507142D01*
X29590476Y-54530952D01*
X29566666Y-54578571D01*
X29566666Y-54697619D01*
X29590476Y-54745238D01*
X29614285Y-54769047D01*
X29661904Y-54792857D01*
X29780952Y-54792857D01*
X29828571Y-54769047D01*
X29852380Y-54745238D01*
X29876190Y-54697619D01*
X29876190Y-54578571D01*
X29852380Y-54530952D01*
X29828571Y-54507142D01*
G04 #@! TO.C,C6*
D11*
X30847619Y-60957142D02*
X30800000Y-61004761D01*
X30752380Y-61100000D01*
X30752380Y-61338095D01*
X30800000Y-61433333D01*
X30847619Y-61480952D01*
X30942857Y-61528571D01*
X31038095Y-61528571D01*
X31180952Y-61480952D01*
X31752380Y-60909523D01*
X31752380Y-61528571D01*
X30847619Y-61909523D02*
X30800000Y-61957142D01*
X30752380Y-62052380D01*
X30752380Y-62290476D01*
X30800000Y-62385714D01*
X30847619Y-62433333D01*
X30942857Y-62480952D01*
X31038095Y-62480952D01*
X31180952Y-62433333D01*
X31752380Y-61861904D01*
X31752380Y-62480952D01*
X31085714Y-62909523D02*
X32085714Y-62909523D01*
X31133333Y-62909523D02*
X31085714Y-63004761D01*
X31085714Y-63195238D01*
X31133333Y-63290476D01*
X31180952Y-63338095D01*
X31276190Y-63385714D01*
X31561904Y-63385714D01*
X31657142Y-63338095D01*
X31704761Y-63290476D01*
X31752380Y-63195238D01*
X31752380Y-63004761D01*
X31704761Y-62909523D01*
X31228571Y-64147619D02*
X31228571Y-63814285D01*
X31752380Y-63814285D02*
X30752380Y-63814285D01*
X30752380Y-64290476D01*
D12*
X29828571Y-62516666D02*
X29852380Y-62492857D01*
X29876190Y-62421428D01*
X29876190Y-62373809D01*
X29852380Y-62302380D01*
X29804761Y-62254761D01*
X29757142Y-62230952D01*
X29661904Y-62207142D01*
X29590476Y-62207142D01*
X29495238Y-62230952D01*
X29447619Y-62254761D01*
X29400000Y-62302380D01*
X29376190Y-62373809D01*
X29376190Y-62421428D01*
X29400000Y-62492857D01*
X29423809Y-62516666D01*
X29376190Y-62945238D02*
X29376190Y-62850000D01*
X29400000Y-62802380D01*
X29423809Y-62778571D01*
X29495238Y-62730952D01*
X29590476Y-62707142D01*
X29780952Y-62707142D01*
X29828571Y-62730952D01*
X29852380Y-62754761D01*
X29876190Y-62802380D01*
X29876190Y-62897619D01*
X29852380Y-62945238D01*
X29828571Y-62969047D01*
X29780952Y-62992857D01*
X29661904Y-62992857D01*
X29614285Y-62969047D01*
X29590476Y-62945238D01*
X29566666Y-62897619D01*
X29566666Y-62802380D01*
X29590476Y-62754761D01*
X29614285Y-62730952D01*
X29661904Y-62707142D01*
G04 #@! TO.C,C1*
D11*
X37054761Y-27035714D02*
X37054761Y-27702380D01*
X37292857Y-26654761D02*
X37530952Y-27369047D01*
X36911904Y-27369047D01*
X36530952Y-27607142D02*
X36483333Y-27654761D01*
X36530952Y-27702380D01*
X36578571Y-27654761D01*
X36530952Y-27607142D01*
X36530952Y-27702380D01*
X36150000Y-26702380D02*
X35483333Y-26702380D01*
X35911904Y-27702380D01*
X34673809Y-27035714D02*
X34673809Y-27702380D01*
X35102380Y-27035714D02*
X35102380Y-27559523D01*
X35054761Y-27654761D01*
X34959523Y-27702380D01*
X34816666Y-27702380D01*
X34721428Y-27654761D01*
X34673809Y-27607142D01*
X33864285Y-27178571D02*
X34197619Y-27178571D01*
X34197619Y-27702380D02*
X34197619Y-26702380D01*
X33721428Y-26702380D01*
D12*
X35883333Y-25728571D02*
X35907142Y-25752380D01*
X35978571Y-25776190D01*
X36026190Y-25776190D01*
X36097619Y-25752380D01*
X36145238Y-25704761D01*
X36169047Y-25657142D01*
X36192857Y-25561904D01*
X36192857Y-25490476D01*
X36169047Y-25395238D01*
X36145238Y-25347619D01*
X36097619Y-25300000D01*
X36026190Y-25276190D01*
X35978571Y-25276190D01*
X35907142Y-25300000D01*
X35883333Y-25323809D01*
X35407142Y-25776190D02*
X35692857Y-25776190D01*
X35550000Y-25776190D02*
X35550000Y-25276190D01*
X35597619Y-25347619D01*
X35645238Y-25395238D01*
X35692857Y-25419047D01*
G04 #@! TO.C,U1*
D11*
X47611904Y-26952380D02*
X47611904Y-25952380D01*
X47278571Y-26666666D01*
X46945238Y-25952380D01*
X46945238Y-26952380D01*
X45897619Y-26857142D02*
X45945238Y-26904761D01*
X46088095Y-26952380D01*
X46183333Y-26952380D01*
X46326190Y-26904761D01*
X46421428Y-26809523D01*
X46469047Y-26714285D01*
X46516666Y-26523809D01*
X46516666Y-26380952D01*
X46469047Y-26190476D01*
X46421428Y-26095238D01*
X46326190Y-26000000D01*
X46183333Y-25952380D01*
X46088095Y-25952380D01*
X45945238Y-26000000D01*
X45897619Y-26047619D01*
X45469047Y-26952380D02*
X45469047Y-25952380D01*
X45088095Y-25952380D01*
X44992857Y-26000000D01*
X44945238Y-26047619D01*
X44897619Y-26142857D01*
X44897619Y-26285714D01*
X44945238Y-26380952D01*
X44992857Y-26428571D01*
X45088095Y-26476190D01*
X45469047Y-26476190D01*
X43945238Y-26952380D02*
X44516666Y-26952380D01*
X44230952Y-26952380D02*
X44230952Y-25952380D01*
X44326190Y-26095238D01*
X44421428Y-26190476D01*
X44516666Y-26238095D01*
X43088095Y-25952380D02*
X43278571Y-25952380D01*
X43373809Y-26000000D01*
X43421428Y-26047619D01*
X43516666Y-26190476D01*
X43564285Y-26380952D01*
X43564285Y-26761904D01*
X43516666Y-26857142D01*
X43469047Y-26904761D01*
X43373809Y-26952380D01*
X43183333Y-26952380D01*
X43088095Y-26904761D01*
X43040476Y-26857142D01*
X42992857Y-26761904D01*
X42992857Y-26523809D01*
X43040476Y-26428571D01*
X43088095Y-26380952D01*
X43183333Y-26333333D01*
X43373809Y-26333333D01*
X43469047Y-26380952D01*
X43516666Y-26428571D01*
X43564285Y-26523809D01*
X42135714Y-26285714D02*
X42135714Y-26952380D01*
X42373809Y-25904761D02*
X42611904Y-26619047D01*
X41992857Y-26619047D01*
X41421428Y-25952380D02*
X41326190Y-25952380D01*
X41230952Y-26000000D01*
X41183333Y-26047619D01*
X41135714Y-26142857D01*
X41088095Y-26333333D01*
X41088095Y-26571428D01*
X41135714Y-26761904D01*
X41183333Y-26857142D01*
X41230952Y-26904761D01*
X41326190Y-26952380D01*
X41421428Y-26952380D01*
X41516666Y-26904761D01*
X41564285Y-26857142D01*
X41611904Y-26761904D01*
X41659523Y-26571428D01*
X41659523Y-26333333D01*
X41611904Y-26142857D01*
X41564285Y-26047619D01*
X41516666Y-26000000D01*
X41421428Y-25952380D01*
X40326190Y-26428571D02*
X40183333Y-26476190D01*
X40135714Y-26523809D01*
X40088095Y-26619047D01*
X40088095Y-26761904D01*
X40135714Y-26857142D01*
X40183333Y-26904761D01*
X40278571Y-26952380D01*
X40659523Y-26952380D01*
X40659523Y-25952380D01*
X40326190Y-25952380D01*
X40230952Y-26000000D01*
X40183333Y-26047619D01*
X40135714Y-26142857D01*
X40135714Y-26238095D01*
X40183333Y-26333333D01*
X40230952Y-26380952D01*
X40326190Y-26428571D01*
X40659523Y-26428571D01*
X39088095Y-26857142D02*
X39135714Y-26904761D01*
X39278571Y-26952380D01*
X39373809Y-26952380D01*
X39516666Y-26904761D01*
X39611904Y-26809523D01*
X39659523Y-26714285D01*
X39707142Y-26523809D01*
X39707142Y-26380952D01*
X39659523Y-26190476D01*
X39611904Y-26095238D01*
X39516666Y-26000000D01*
X39373809Y-25952380D01*
X39278571Y-25952380D01*
X39135714Y-26000000D01*
X39088095Y-26047619D01*
X38659523Y-26952380D02*
X38659523Y-25952380D01*
X38659523Y-26428571D02*
X38088095Y-26428571D01*
X38088095Y-26952380D02*
X38088095Y-25952380D01*
D13*
X40618552Y-23421190D02*
X40618552Y-23825952D01*
X40594742Y-23873571D01*
X40570933Y-23897380D01*
X40523314Y-23921190D01*
X40428076Y-23921190D01*
X40380457Y-23897380D01*
X40356647Y-23873571D01*
X40332838Y-23825952D01*
X40332838Y-23421190D01*
X39832838Y-23921190D02*
X40118552Y-23921190D01*
X39975695Y-23921190D02*
X39975695Y-23421190D01*
X40023314Y-23492619D01*
X40070933Y-23540238D01*
X40118552Y-23564047D01*
G04 #@! TO.C,R4*
D11*
X31888095Y-64797619D02*
X31840476Y-64750000D01*
X31745238Y-64702380D01*
X31507142Y-64702380D01*
X31411904Y-64750000D01*
X31364285Y-64797619D01*
X31316666Y-64892857D01*
X31316666Y-64988095D01*
X31364285Y-65130952D01*
X31935714Y-65702380D01*
X31316666Y-65702380D01*
X30697619Y-64702380D02*
X30602380Y-64702380D01*
X30507142Y-64750000D01*
X30459523Y-64797619D01*
X30411904Y-64892857D01*
X30364285Y-65083333D01*
X30364285Y-65321428D01*
X30411904Y-65511904D01*
X30459523Y-65607142D01*
X30507142Y-65654761D01*
X30602380Y-65702380D01*
X30697619Y-65702380D01*
X30792857Y-65654761D01*
X30840476Y-65607142D01*
X30888095Y-65511904D01*
X30935714Y-65321428D01*
X30935714Y-65083333D01*
X30888095Y-64892857D01*
X30840476Y-64797619D01*
X30792857Y-64750000D01*
X30697619Y-64702380D01*
X29745238Y-64702380D02*
X29650000Y-64702380D01*
X29554761Y-64750000D01*
X29507142Y-64797619D01*
X29459523Y-64892857D01*
X29411904Y-65083333D01*
X29411904Y-65321428D01*
X29459523Y-65511904D01*
X29507142Y-65607142D01*
X29554761Y-65654761D01*
X29650000Y-65702380D01*
X29745238Y-65702380D01*
X29840476Y-65654761D01*
X29888095Y-65607142D01*
X29935714Y-65511904D01*
X29983333Y-65321428D01*
X29983333Y-65083333D01*
X29935714Y-64892857D01*
X29888095Y-64797619D01*
X29840476Y-64750000D01*
X29745238Y-64702380D01*
D12*
X30733333Y-67126190D02*
X30900000Y-66888095D01*
X31019047Y-67126190D02*
X31019047Y-66626190D01*
X30828571Y-66626190D01*
X30780952Y-66650000D01*
X30757142Y-66673809D01*
X30733333Y-66721428D01*
X30733333Y-66792857D01*
X30757142Y-66840476D01*
X30780952Y-66864285D01*
X30828571Y-66888095D01*
X31019047Y-66888095D01*
X30304761Y-66792857D02*
X30304761Y-67126190D01*
X30423809Y-66602380D02*
X30542857Y-66959523D01*
X30233333Y-66959523D01*
G04 #@! TO.C,R1*
D11*
X37297619Y-20852380D02*
X37107142Y-20852380D01*
X37011904Y-20804761D01*
X36964285Y-20757142D01*
X36869047Y-20614285D01*
X36821428Y-20423809D01*
X36821428Y-20042857D01*
X36869047Y-19947619D01*
X36916666Y-19900000D01*
X37011904Y-19852380D01*
X37202380Y-19852380D01*
X37297619Y-19900000D01*
X37345238Y-19947619D01*
X37392857Y-20042857D01*
X37392857Y-20280952D01*
X37345238Y-20376190D01*
X37297619Y-20423809D01*
X37202380Y-20471428D01*
X37011904Y-20471428D01*
X36916666Y-20423809D01*
X36869047Y-20376190D01*
X36821428Y-20280952D01*
X36488095Y-19852380D02*
X35821428Y-19852380D01*
X36250000Y-20852380D01*
X35011904Y-19852380D02*
X35202380Y-19852380D01*
X35297619Y-19900000D01*
X35345238Y-19947619D01*
X35440476Y-20090476D01*
X35488095Y-20280952D01*
X35488095Y-20661904D01*
X35440476Y-20757142D01*
X35392857Y-20804761D01*
X35297619Y-20852380D01*
X35107142Y-20852380D01*
X35011904Y-20804761D01*
X34964285Y-20757142D01*
X34916666Y-20661904D01*
X34916666Y-20423809D01*
X34964285Y-20328571D01*
X35011904Y-20280952D01*
X35107142Y-20233333D01*
X35297619Y-20233333D01*
X35392857Y-20280952D01*
X35440476Y-20328571D01*
X35488095Y-20423809D01*
X34488095Y-20852380D02*
X34488095Y-19852380D01*
X34392857Y-20471428D02*
X34107142Y-20852380D01*
X34107142Y-20185714D02*
X34488095Y-20566666D01*
D12*
X35883333Y-22026190D02*
X36050000Y-21788095D01*
X36169047Y-22026190D02*
X36169047Y-21526190D01*
X35978571Y-21526190D01*
X35930952Y-21550000D01*
X35907142Y-21573809D01*
X35883333Y-21621428D01*
X35883333Y-21692857D01*
X35907142Y-21740476D01*
X35930952Y-21764285D01*
X35978571Y-21788095D01*
X36169047Y-21788095D01*
X35407142Y-22026190D02*
X35692857Y-22026190D01*
X35550000Y-22026190D02*
X35550000Y-21526190D01*
X35597619Y-21597619D01*
X35645238Y-21645238D01*
X35692857Y-21669047D01*
G04 #@! TO.C,R2*
D11*
X31802380Y-20580952D02*
X31802380Y-20104761D01*
X32278571Y-20057142D01*
X32230952Y-20104761D01*
X32183333Y-20200000D01*
X32183333Y-20438095D01*
X32230952Y-20533333D01*
X32278571Y-20580952D01*
X32373809Y-20628571D01*
X32611904Y-20628571D01*
X32707142Y-20580952D01*
X32754761Y-20533333D01*
X32802380Y-20438095D01*
X32802380Y-20200000D01*
X32754761Y-20104761D01*
X32707142Y-20057142D01*
X31802380Y-20961904D02*
X31802380Y-21628571D01*
X32802380Y-21200000D01*
X31802380Y-22438095D02*
X31802380Y-22247619D01*
X31850000Y-22152380D01*
X31897619Y-22104761D01*
X32040476Y-22009523D01*
X32230952Y-21961904D01*
X32611904Y-21961904D01*
X32707142Y-22009523D01*
X32754761Y-22057142D01*
X32802380Y-22152380D01*
X32802380Y-22342857D01*
X32754761Y-22438095D01*
X32707142Y-22485714D01*
X32611904Y-22533333D01*
X32373809Y-22533333D01*
X32278571Y-22485714D01*
X32230952Y-22438095D01*
X32183333Y-22342857D01*
X32183333Y-22152380D01*
X32230952Y-22057142D01*
X32278571Y-22009523D01*
X32373809Y-21961904D01*
X32802380Y-22961904D02*
X31802380Y-22961904D01*
X32421428Y-23057142D02*
X32802380Y-23342857D01*
X32135714Y-23342857D02*
X32516666Y-22961904D01*
D12*
X32776190Y-24566666D02*
X32538095Y-24400000D01*
X32776190Y-24280952D02*
X32276190Y-24280952D01*
X32276190Y-24471428D01*
X32300000Y-24519047D01*
X32323809Y-24542857D01*
X32371428Y-24566666D01*
X32442857Y-24566666D01*
X32490476Y-24542857D01*
X32514285Y-24519047D01*
X32538095Y-24471428D01*
X32538095Y-24280952D01*
X32323809Y-24757142D02*
X32300000Y-24780952D01*
X32276190Y-24828571D01*
X32276190Y-24947619D01*
X32300000Y-24995238D01*
X32323809Y-25019047D01*
X32371428Y-25042857D01*
X32419047Y-25042857D01*
X32490476Y-25019047D01*
X32776190Y-24733333D01*
X32776190Y-25042857D01*
G04 #@! TO.C,R5*
D11*
X24180952Y-83002380D02*
X24657142Y-83002380D01*
X24704761Y-83478571D01*
X24657142Y-83430952D01*
X24561904Y-83383333D01*
X24323809Y-83383333D01*
X24228571Y-83430952D01*
X24180952Y-83478571D01*
X24133333Y-83573809D01*
X24133333Y-83811904D01*
X24180952Y-83907142D01*
X24228571Y-83954761D01*
X24323809Y-84002380D01*
X24561904Y-84002380D01*
X24657142Y-83954761D01*
X24704761Y-83907142D01*
X23704761Y-83907142D02*
X23657142Y-83954761D01*
X23704761Y-84002380D01*
X23752380Y-83954761D01*
X23704761Y-83907142D01*
X23704761Y-84002380D01*
X22704761Y-84002380D02*
X23276190Y-84002380D01*
X22990476Y-84002380D02*
X22990476Y-83002380D01*
X23085714Y-83145238D01*
X23180952Y-83240476D01*
X23276190Y-83288095D01*
X22276190Y-84002380D02*
X22276190Y-83002380D01*
X22180952Y-83621428D02*
X21895238Y-84002380D01*
X21895238Y-83335714D02*
X22276190Y-83716666D01*
D12*
X23383333Y-82126190D02*
X23550000Y-81888095D01*
X23669047Y-82126190D02*
X23669047Y-81626190D01*
X23478571Y-81626190D01*
X23430952Y-81650000D01*
X23407142Y-81673809D01*
X23383333Y-81721428D01*
X23383333Y-81792857D01*
X23407142Y-81840476D01*
X23430952Y-81864285D01*
X23478571Y-81888095D01*
X23669047Y-81888095D01*
X22930952Y-81626190D02*
X23169047Y-81626190D01*
X23192857Y-81864285D01*
X23169047Y-81840476D01*
X23121428Y-81816666D01*
X23002380Y-81816666D01*
X22954761Y-81840476D01*
X22930952Y-81864285D01*
X22907142Y-81911904D01*
X22907142Y-82030952D01*
X22930952Y-82078571D01*
X22954761Y-82102380D01*
X23002380Y-82126190D01*
X23121428Y-82126190D01*
X23169047Y-82102380D01*
X23192857Y-82078571D01*
G04 #@! TO.C,R6*
D11*
X31752380Y-58214285D02*
X31752380Y-57642857D01*
X31752380Y-57928571D02*
X30752380Y-57928571D01*
X30895238Y-57833333D01*
X30990476Y-57738095D01*
X31038095Y-57642857D01*
X31752380Y-58642857D02*
X30752380Y-58642857D01*
X31466666Y-58976190D01*
X30752380Y-59309523D01*
X31752380Y-59309523D01*
D12*
X29876190Y-58416666D02*
X29638095Y-58250000D01*
X29876190Y-58130952D02*
X29376190Y-58130952D01*
X29376190Y-58321428D01*
X29400000Y-58369047D01*
X29423809Y-58392857D01*
X29471428Y-58416666D01*
X29542857Y-58416666D01*
X29590476Y-58392857D01*
X29614285Y-58369047D01*
X29638095Y-58321428D01*
X29638095Y-58130952D01*
X29376190Y-58845238D02*
X29376190Y-58750000D01*
X29400000Y-58702380D01*
X29423809Y-58678571D01*
X29495238Y-58630952D01*
X29590476Y-58607142D01*
X29780952Y-58607142D01*
X29828571Y-58630952D01*
X29852380Y-58654761D01*
X29876190Y-58702380D01*
X29876190Y-58797619D01*
X29852380Y-58845238D01*
X29828571Y-58869047D01*
X29780952Y-58892857D01*
X29661904Y-58892857D01*
X29614285Y-58869047D01*
X29590476Y-58845238D01*
X29566666Y-58797619D01*
X29566666Y-58702380D01*
X29590476Y-58654761D01*
X29614285Y-58630952D01*
X29661904Y-58607142D01*
G04 #@! TD*
M02*
