G04 #@! TF.GenerationSoftware,KiCad,Pcbnew,5.0.1-33cea8e~68~ubuntu18.04.1*
G04 #@! TF.CreationDate,2018-11-21T16:18:05-05:00*
G04 #@! TF.ProjectId,samn,73616D6E2E6B696361645F7063620000,5*
G04 #@! TF.SameCoordinates,Original*
G04 #@! TF.FileFunction,Other,Fab,Top*
%FSLAX46Y46*%
G04 Gerber Fmt 4.6, Leading zero omitted, Abs format (unit mm)*
G04 Created by KiCad (PCBNEW 5.0.1-33cea8e~68~ubuntu18.04.1) date Wed 21 Nov 2018 04:18:05 PM EST*
%MOMM*%
%LPD*%
G01*
G04 APERTURE LIST*
%ADD10C,0.100000*%
%ADD11C,0.150000*%
G04 APERTURE END LIST*
D10*
G04 #@! TO.C,J5*
X64285000Y-30620000D02*
X62380000Y-30620000D01*
X62380000Y-30620000D02*
X62380000Y-25540000D01*
X62380000Y-25540000D02*
X64920000Y-25540000D01*
X64920000Y-25540000D02*
X64920000Y-29985000D01*
X64920000Y-29985000D02*
X64285000Y-30620000D01*
G04 #@! TO.C,U3*
X36750000Y-75500000D02*
X65750000Y-75500000D01*
X65750000Y-75500000D02*
X65750000Y-90750000D01*
X65750000Y-90750000D02*
X36750000Y-90750000D01*
X36750000Y-90750000D02*
X36750000Y-75500000D01*
X36750000Y-75500000D02*
X36750000Y-75500000D01*
X36980000Y-76230000D02*
X42060000Y-76230000D01*
X42060000Y-76230000D02*
X42060000Y-86390000D01*
X42060000Y-86390000D02*
X36980000Y-86390000D01*
X36980000Y-86390000D02*
X36980000Y-76230000D01*
X36980000Y-76230000D02*
X36980000Y-76230000D01*
G04 #@! TO.C,J4*
X27980000Y-79250000D02*
X29250000Y-77980000D01*
X27980000Y-85600000D02*
X27980000Y-79250000D01*
X33060000Y-85600000D02*
X27980000Y-85600000D01*
X33060000Y-77980000D02*
X33060000Y-85600000D01*
X29250000Y-77980000D02*
X33060000Y-77980000D01*
G04 #@! TO.C,LED_I1*
X24170000Y-67133810D02*
X24170000Y-69466190D01*
X27170000Y-68300000D02*
G75*
G03X27170000Y-68300000I-1500000J0D01*
G01*
X24169445Y-69465476D02*
G75*
G03X24170000Y-67133810I1500555J1165476D01*
G01*
G04 #@! TO.C,Y1*
X23500000Y-61940000D02*
G75*
G03X27500000Y-61940000I2000000J0D01*
G01*
X23500000Y-55940000D02*
G75*
G02X27500000Y-55940000I2000000J0D01*
G01*
X23175000Y-62140000D02*
G75*
G03X27825000Y-62140000I2325000J0D01*
G01*
X23175000Y-55740000D02*
G75*
G02X27825000Y-55740000I2325000J0D01*
G01*
X23500000Y-55940000D02*
X23500000Y-61940000D01*
X27500000Y-55940000D02*
X27500000Y-61940000D01*
X23175000Y-55740000D02*
X23175000Y-62140000D01*
X27825000Y-55740000D02*
X27825000Y-62140000D01*
G04 #@! TO.C,C4*
X27387500Y-46416395D02*
X26887500Y-46416395D01*
X27137500Y-46166395D02*
X27137500Y-46666395D01*
X28550000Y-48300000D02*
G75*
G03X28550000Y-48300000I-2500000J0D01*
G01*
G04 #@! TO.C,C7*
X41333605Y-73487500D02*
X41333605Y-72987500D01*
X41583605Y-73237500D02*
X41083605Y-73237500D01*
X41950000Y-72150000D02*
G75*
G03X41950000Y-72150000I-2500000J0D01*
G01*
G04 #@! TO.C,J1*
X61570000Y-35680000D02*
X61570000Y-50920000D01*
X59030000Y-35680000D02*
X61570000Y-35680000D01*
X59030000Y-50285000D02*
X59030000Y-35680000D01*
X59665000Y-50920000D02*
X59030000Y-50285000D01*
X61570000Y-50920000D02*
X59665000Y-50920000D01*
G04 #@! TO.C,J3*
X28980000Y-44220000D02*
X28980000Y-28980000D01*
X31520000Y-44220000D02*
X28980000Y-44220000D01*
X31520000Y-29615000D02*
X31520000Y-44220000D01*
X30885000Y-28980000D02*
X31520000Y-29615000D01*
X28980000Y-28980000D02*
X30885000Y-28980000D01*
G04 #@! TO.C,J2*
X61520000Y-52950000D02*
X61520000Y-73270000D01*
X58980000Y-52950000D02*
X61520000Y-52950000D01*
X58980000Y-72635000D02*
X58980000Y-52950000D01*
X59615000Y-73270000D02*
X58980000Y-72635000D01*
X61520000Y-73270000D02*
X59615000Y-73270000D01*
G04 #@! TO.C,U2*
X42890000Y-28920000D02*
X32730000Y-28920000D01*
X42890000Y-64600000D02*
X42890000Y-28920000D01*
X32730000Y-64600000D02*
X42890000Y-64600000D01*
X32730000Y-28920000D02*
X32730000Y-64600000D01*
X34635000Y-29980000D02*
X35635000Y-28980000D01*
X34635000Y-64540000D02*
X34635000Y-29980000D01*
X40985000Y-64540000D02*
X34635000Y-64540000D01*
X40985000Y-28980000D02*
X40985000Y-64540000D01*
X35635000Y-28980000D02*
X40985000Y-28980000D01*
G04 #@! TD*
G04 #@! TO.C,J5*
D11*
X60316666Y-23932380D02*
X60507142Y-23932380D01*
X60602380Y-23980000D01*
X60697619Y-24075238D01*
X60745238Y-24265714D01*
X60745238Y-24599047D01*
X60697619Y-24789523D01*
X60602380Y-24884761D01*
X60507142Y-24932380D01*
X60316666Y-24932380D01*
X60221428Y-24884761D01*
X60126190Y-24789523D01*
X60078571Y-24599047D01*
X60078571Y-24265714D01*
X60126190Y-24075238D01*
X60221428Y-23980000D01*
X60316666Y-23932380D01*
X61173809Y-24265714D02*
X61173809Y-24932380D01*
X61173809Y-24360952D02*
X61221428Y-24313333D01*
X61316666Y-24265714D01*
X61459523Y-24265714D01*
X61554761Y-24313333D01*
X61602380Y-24408571D01*
X61602380Y-24932380D01*
X61840476Y-25027619D02*
X62602380Y-25027619D01*
X62792857Y-24884761D02*
X62935714Y-24932380D01*
X63173809Y-24932380D01*
X63269047Y-24884761D01*
X63316666Y-24837142D01*
X63364285Y-24741904D01*
X63364285Y-24646666D01*
X63316666Y-24551428D01*
X63269047Y-24503809D01*
X63173809Y-24456190D01*
X62983333Y-24408571D01*
X62888095Y-24360952D01*
X62840476Y-24313333D01*
X62792857Y-24218095D01*
X62792857Y-24122857D01*
X62840476Y-24027619D01*
X62888095Y-23980000D01*
X62983333Y-23932380D01*
X63221428Y-23932380D01*
X63364285Y-23980000D01*
X63697619Y-24265714D02*
X63888095Y-24932380D01*
X64078571Y-24456190D01*
X64269047Y-24932380D01*
X64459523Y-24265714D01*
X64840476Y-24932380D02*
X64840476Y-24265714D01*
X64840476Y-23932380D02*
X64792857Y-23980000D01*
X64840476Y-24027619D01*
X64888095Y-23980000D01*
X64840476Y-23932380D01*
X64840476Y-24027619D01*
X65173809Y-24265714D02*
X65554761Y-24265714D01*
X65316666Y-23932380D02*
X65316666Y-24789523D01*
X65364285Y-24884761D01*
X65459523Y-24932380D01*
X65554761Y-24932380D01*
X66316666Y-24884761D02*
X66221428Y-24932380D01*
X66030952Y-24932380D01*
X65935714Y-24884761D01*
X65888095Y-24837142D01*
X65840476Y-24741904D01*
X65840476Y-24456190D01*
X65888095Y-24360952D01*
X65935714Y-24313333D01*
X66030952Y-24265714D01*
X66221428Y-24265714D01*
X66316666Y-24313333D01*
X66745238Y-24932380D02*
X66745238Y-23932380D01*
X67173809Y-24932380D02*
X67173809Y-24408571D01*
X67126190Y-24313333D01*
X67030952Y-24265714D01*
X66888095Y-24265714D01*
X66792857Y-24313333D01*
X66745238Y-24360952D01*
X63102380Y-28413333D02*
X63816666Y-28413333D01*
X63959523Y-28460952D01*
X64054761Y-28556190D01*
X64102380Y-28699047D01*
X64102380Y-28794285D01*
X63102380Y-27460952D02*
X63102380Y-27937142D01*
X63578571Y-27984761D01*
X63530952Y-27937142D01*
X63483333Y-27841904D01*
X63483333Y-27603809D01*
X63530952Y-27508571D01*
X63578571Y-27460952D01*
X63673809Y-27413333D01*
X63911904Y-27413333D01*
X64007142Y-27460952D01*
X64054761Y-27508571D01*
X64102380Y-27603809D01*
X64102380Y-27841904D01*
X64054761Y-27937142D01*
X64007142Y-27984761D01*
G04 #@! TO.C,U3*
X44059523Y-82952380D02*
X44059523Y-81952380D01*
X44630952Y-82952380D01*
X44630952Y-81952380D01*
X45678571Y-82952380D02*
X45345238Y-82476190D01*
X45107142Y-82952380D02*
X45107142Y-81952380D01*
X45488095Y-81952380D01*
X45583333Y-82000000D01*
X45630952Y-82047619D01*
X45678571Y-82142857D01*
X45678571Y-82285714D01*
X45630952Y-82380952D01*
X45583333Y-82428571D01*
X45488095Y-82476190D01*
X45107142Y-82476190D01*
X46440476Y-82428571D02*
X46107142Y-82428571D01*
X46107142Y-82952380D02*
X46107142Y-81952380D01*
X46583333Y-81952380D01*
X46916666Y-82047619D02*
X46964285Y-82000000D01*
X47059523Y-81952380D01*
X47297619Y-81952380D01*
X47392857Y-82000000D01*
X47440476Y-82047619D01*
X47488095Y-82142857D01*
X47488095Y-82238095D01*
X47440476Y-82380952D01*
X46869047Y-82952380D01*
X47488095Y-82952380D01*
X48345238Y-82285714D02*
X48345238Y-82952380D01*
X48107142Y-81904761D02*
X47869047Y-82619047D01*
X48488095Y-82619047D01*
X49345238Y-82952380D02*
X48869047Y-82952380D01*
X48869047Y-81952380D01*
X49869047Y-81952380D02*
X49964285Y-81952380D01*
X50059523Y-82000000D01*
X50107142Y-82047619D01*
X50154761Y-82142857D01*
X50202380Y-82333333D01*
X50202380Y-82571428D01*
X50154761Y-82761904D01*
X50107142Y-82857142D01*
X50059523Y-82904761D01*
X49964285Y-82952380D01*
X49869047Y-82952380D01*
X49773809Y-82904761D01*
X49726190Y-82857142D01*
X49678571Y-82761904D01*
X49630952Y-82571428D01*
X49630952Y-82333333D01*
X49678571Y-82142857D01*
X49726190Y-82047619D01*
X49773809Y-82000000D01*
X49869047Y-81952380D01*
X51154761Y-82952380D02*
X50583333Y-82952380D01*
X50869047Y-82952380D02*
X50869047Y-81952380D01*
X50773809Y-82095238D01*
X50678571Y-82190476D01*
X50583333Y-82238095D01*
X51345238Y-83047619D02*
X52107142Y-83047619D01*
X52678571Y-82428571D02*
X52821428Y-82476190D01*
X52869047Y-82523809D01*
X52916666Y-82619047D01*
X52916666Y-82761904D01*
X52869047Y-82857142D01*
X52821428Y-82904761D01*
X52726190Y-82952380D01*
X52345238Y-82952380D01*
X52345238Y-81952380D01*
X52678571Y-81952380D01*
X52773809Y-82000000D01*
X52821428Y-82047619D01*
X52869047Y-82142857D01*
X52869047Y-82238095D01*
X52821428Y-82333333D01*
X52773809Y-82380952D01*
X52678571Y-82428571D01*
X52345238Y-82428571D01*
X53345238Y-82952380D02*
X53345238Y-82285714D01*
X53345238Y-82476190D02*
X53392857Y-82380952D01*
X53440476Y-82333333D01*
X53535714Y-82285714D01*
X53630952Y-82285714D01*
X54345238Y-82904761D02*
X54250000Y-82952380D01*
X54059523Y-82952380D01*
X53964285Y-82904761D01*
X53916666Y-82809523D01*
X53916666Y-82428571D01*
X53964285Y-82333333D01*
X54059523Y-82285714D01*
X54250000Y-82285714D01*
X54345238Y-82333333D01*
X54392857Y-82428571D01*
X54392857Y-82523809D01*
X53916666Y-82619047D01*
X55249999Y-82952380D02*
X55249999Y-82428571D01*
X55202380Y-82333333D01*
X55107142Y-82285714D01*
X54916666Y-82285714D01*
X54821428Y-82333333D01*
X55249999Y-82904761D02*
X55154761Y-82952380D01*
X54916666Y-82952380D01*
X54821428Y-82904761D01*
X54773809Y-82809523D01*
X54773809Y-82714285D01*
X54821428Y-82619047D01*
X54916666Y-82571428D01*
X55154761Y-82571428D01*
X55249999Y-82523809D01*
X55726190Y-82952380D02*
X55726190Y-81952380D01*
X55821428Y-82571428D02*
X56107142Y-82952380D01*
X56107142Y-82285714D02*
X55726190Y-82666666D01*
X56678571Y-82952380D02*
X56583333Y-82904761D01*
X56535714Y-82857142D01*
X56488095Y-82761904D01*
X56488095Y-82476190D01*
X56535714Y-82380952D01*
X56583333Y-82333333D01*
X56678571Y-82285714D01*
X56821428Y-82285714D01*
X56916666Y-82333333D01*
X56964285Y-82380952D01*
X57011904Y-82476190D01*
X57011904Y-82761904D01*
X56964285Y-82857142D01*
X56916666Y-82904761D01*
X56821428Y-82952380D01*
X56678571Y-82952380D01*
X57869047Y-82285714D02*
X57869047Y-82952380D01*
X57440476Y-82285714D02*
X57440476Y-82809523D01*
X57488095Y-82904761D01*
X57583333Y-82952380D01*
X57726190Y-82952380D01*
X57821428Y-82904761D01*
X57869047Y-82857142D01*
X58202380Y-82285714D02*
X58583333Y-82285714D01*
X58345238Y-81952380D02*
X58345238Y-82809523D01*
X58392857Y-82904761D01*
X58488095Y-82952380D01*
X58583333Y-82952380D01*
X49988095Y-79452380D02*
X49988095Y-80261904D01*
X50035714Y-80357142D01*
X50083333Y-80404761D01*
X50178571Y-80452380D01*
X50369047Y-80452380D01*
X50464285Y-80404761D01*
X50511904Y-80357142D01*
X50559523Y-80261904D01*
X50559523Y-79452380D01*
X50940476Y-79452380D02*
X51559523Y-79452380D01*
X51226190Y-79833333D01*
X51369047Y-79833333D01*
X51464285Y-79880952D01*
X51511904Y-79928571D01*
X51559523Y-80023809D01*
X51559523Y-80261904D01*
X51511904Y-80357142D01*
X51464285Y-80404761D01*
X51369047Y-80452380D01*
X51083333Y-80452380D01*
X50988095Y-80404761D01*
X50940476Y-80357142D01*
G04 #@! TO.C,J4*
X22221428Y-87457142D02*
X22173809Y-87504761D01*
X22030952Y-87552380D01*
X21935714Y-87552380D01*
X21792857Y-87504761D01*
X21697619Y-87409523D01*
X21650000Y-87314285D01*
X21602380Y-87123809D01*
X21602380Y-86980952D01*
X21650000Y-86790476D01*
X21697619Y-86695238D01*
X21792857Y-86600000D01*
X21935714Y-86552380D01*
X22030952Y-86552380D01*
X22173809Y-86600000D01*
X22221428Y-86647619D01*
X22792857Y-87552380D02*
X22697619Y-87504761D01*
X22650000Y-87457142D01*
X22602380Y-87361904D01*
X22602380Y-87076190D01*
X22650000Y-86980952D01*
X22697619Y-86933333D01*
X22792857Y-86885714D01*
X22935714Y-86885714D01*
X23030952Y-86933333D01*
X23078571Y-86980952D01*
X23126190Y-87076190D01*
X23126190Y-87361904D01*
X23078571Y-87457142D01*
X23030952Y-87504761D01*
X22935714Y-87552380D01*
X22792857Y-87552380D01*
X23554761Y-86885714D02*
X23554761Y-87552380D01*
X23554761Y-86980952D02*
X23602380Y-86933333D01*
X23697619Y-86885714D01*
X23840476Y-86885714D01*
X23935714Y-86933333D01*
X23983333Y-87028571D01*
X23983333Y-87552380D01*
X24459523Y-86885714D02*
X24459523Y-87552380D01*
X24459523Y-86980952D02*
X24507142Y-86933333D01*
X24602380Y-86885714D01*
X24745238Y-86885714D01*
X24840476Y-86933333D01*
X24888095Y-87028571D01*
X24888095Y-87552380D01*
X25126190Y-87647619D02*
X25888095Y-87647619D01*
X26316666Y-86552380D02*
X26411904Y-86552380D01*
X26507142Y-86600000D01*
X26554761Y-86647619D01*
X26602380Y-86742857D01*
X26650000Y-86933333D01*
X26650000Y-87171428D01*
X26602380Y-87361904D01*
X26554761Y-87457142D01*
X26507142Y-87504761D01*
X26411904Y-87552380D01*
X26316666Y-87552380D01*
X26221428Y-87504761D01*
X26173809Y-87457142D01*
X26126190Y-87361904D01*
X26078571Y-87171428D01*
X26078571Y-86933333D01*
X26126190Y-86742857D01*
X26173809Y-86647619D01*
X26221428Y-86600000D01*
X26316666Y-86552380D01*
X27030952Y-86647619D02*
X27078571Y-86600000D01*
X27173809Y-86552380D01*
X27411904Y-86552380D01*
X27507142Y-86600000D01*
X27554761Y-86647619D01*
X27602380Y-86742857D01*
X27602380Y-86838095D01*
X27554761Y-86980952D01*
X26983333Y-87552380D01*
X27602380Y-87552380D01*
X27935714Y-87552380D02*
X28459523Y-86885714D01*
X27935714Y-86885714D02*
X28459523Y-87552380D01*
X29030952Y-86552380D02*
X29126190Y-86552380D01*
X29221428Y-86600000D01*
X29269047Y-86647619D01*
X29316666Y-86742857D01*
X29364285Y-86933333D01*
X29364285Y-87171428D01*
X29316666Y-87361904D01*
X29269047Y-87457142D01*
X29221428Y-87504761D01*
X29126190Y-87552380D01*
X29030952Y-87552380D01*
X28935714Y-87504761D01*
X28888095Y-87457142D01*
X28840476Y-87361904D01*
X28792857Y-87171428D01*
X28792857Y-86933333D01*
X28840476Y-86742857D01*
X28888095Y-86647619D01*
X28935714Y-86600000D01*
X29030952Y-86552380D01*
X29697619Y-86552380D02*
X30316666Y-86552380D01*
X29983333Y-86933333D01*
X30126190Y-86933333D01*
X30221428Y-86980952D01*
X30269047Y-87028571D01*
X30316666Y-87123809D01*
X30316666Y-87361904D01*
X30269047Y-87457142D01*
X30221428Y-87504761D01*
X30126190Y-87552380D01*
X29840476Y-87552380D01*
X29745238Y-87504761D01*
X29697619Y-87457142D01*
X30507142Y-87647619D02*
X31269047Y-87647619D01*
X31507142Y-87552380D02*
X31507142Y-86552380D01*
X31840476Y-87266666D01*
X32173809Y-86552380D01*
X32173809Y-87552380D01*
X33078571Y-87552380D02*
X33078571Y-87028571D01*
X33030952Y-86933333D01*
X32935714Y-86885714D01*
X32745238Y-86885714D01*
X32650000Y-86933333D01*
X33078571Y-87504761D02*
X32983333Y-87552380D01*
X32745238Y-87552380D01*
X32650000Y-87504761D01*
X32602380Y-87409523D01*
X32602380Y-87314285D01*
X32650000Y-87219047D01*
X32745238Y-87171428D01*
X32983333Y-87171428D01*
X33078571Y-87123809D01*
X33697619Y-87552380D02*
X33602380Y-87504761D01*
X33554761Y-87409523D01*
X33554761Y-86552380D01*
X34459523Y-87504761D02*
X34364285Y-87552380D01*
X34173809Y-87552380D01*
X34078571Y-87504761D01*
X34030952Y-87409523D01*
X34030952Y-87028571D01*
X34078571Y-86933333D01*
X34173809Y-86885714D01*
X34364285Y-86885714D01*
X34459523Y-86933333D01*
X34507142Y-87028571D01*
X34507142Y-87123809D01*
X34030952Y-87219047D01*
X34697619Y-87647619D02*
X35459523Y-87647619D01*
X35697619Y-87552380D02*
X35697619Y-86552380D01*
X36745238Y-87457142D02*
X36697619Y-87504761D01*
X36554761Y-87552380D01*
X36459523Y-87552380D01*
X36316666Y-87504761D01*
X36221428Y-87409523D01*
X36173809Y-87314285D01*
X36126190Y-87123809D01*
X36126190Y-86980952D01*
X36173809Y-86790476D01*
X36221428Y-86695238D01*
X36316666Y-86600000D01*
X36459523Y-86552380D01*
X36554761Y-86552380D01*
X36697619Y-86600000D01*
X36745238Y-86647619D01*
X37126190Y-87504761D02*
X37269047Y-87552380D01*
X37507142Y-87552380D01*
X37602380Y-87504761D01*
X37650000Y-87457142D01*
X37697619Y-87361904D01*
X37697619Y-87266666D01*
X37650000Y-87171428D01*
X37602380Y-87123809D01*
X37507142Y-87076190D01*
X37316666Y-87028571D01*
X37221428Y-86980952D01*
X37173809Y-86933333D01*
X37126190Y-86838095D01*
X37126190Y-86742857D01*
X37173809Y-86647619D01*
X37221428Y-86600000D01*
X37316666Y-86552380D01*
X37554761Y-86552380D01*
X37697619Y-86600000D01*
X38126190Y-87552380D02*
X38126190Y-86552380D01*
X38507142Y-86552380D01*
X38602380Y-86600000D01*
X38650000Y-86647619D01*
X38697619Y-86742857D01*
X38697619Y-86885714D01*
X38650000Y-86980952D01*
X38602380Y-87028571D01*
X38507142Y-87076190D01*
X38126190Y-87076190D01*
X29972380Y-82123333D02*
X30686666Y-82123333D01*
X30829523Y-82170952D01*
X30924761Y-82266190D01*
X30972380Y-82409047D01*
X30972380Y-82504285D01*
X30305714Y-81218571D02*
X30972380Y-81218571D01*
X29924761Y-81456666D02*
X30639047Y-81694761D01*
X30639047Y-81075714D01*
G04 #@! TO.C,LED_I1*
X22527142Y-70807619D02*
X22574761Y-70760000D01*
X22670000Y-70712380D01*
X22908095Y-70712380D01*
X23003333Y-70760000D01*
X23050952Y-70807619D01*
X23098571Y-70902857D01*
X23098571Y-70998095D01*
X23050952Y-71140952D01*
X22479523Y-71712380D01*
X23098571Y-71712380D01*
X23384285Y-70712380D02*
X23717619Y-71712380D01*
X24050952Y-70712380D01*
X25098571Y-70807619D02*
X25146190Y-70760000D01*
X25241428Y-70712380D01*
X25479523Y-70712380D01*
X25574761Y-70760000D01*
X25622380Y-70807619D01*
X25670000Y-70902857D01*
X25670000Y-70998095D01*
X25622380Y-71140952D01*
X25050952Y-71712380D01*
X25670000Y-71712380D01*
X26289047Y-70712380D02*
X26384285Y-70712380D01*
X26479523Y-70760000D01*
X26527142Y-70807619D01*
X26574761Y-70902857D01*
X26622380Y-71093333D01*
X26622380Y-71331428D01*
X26574761Y-71521904D01*
X26527142Y-71617142D01*
X26479523Y-71664761D01*
X26384285Y-71712380D01*
X26289047Y-71712380D01*
X26193809Y-71664761D01*
X26146190Y-71617142D01*
X26098571Y-71521904D01*
X26050952Y-71331428D01*
X26050952Y-71093333D01*
X26098571Y-70902857D01*
X26146190Y-70807619D01*
X26193809Y-70760000D01*
X26289047Y-70712380D01*
X27050952Y-71712380D02*
X27050952Y-71045714D01*
X27050952Y-71140952D02*
X27098571Y-71093333D01*
X27193809Y-71045714D01*
X27336666Y-71045714D01*
X27431904Y-71093333D01*
X27479523Y-71188571D01*
X27479523Y-71712380D01*
X27479523Y-71188571D02*
X27527142Y-71093333D01*
X27622380Y-71045714D01*
X27765238Y-71045714D01*
X27860476Y-71093333D01*
X27908095Y-71188571D01*
X27908095Y-71712380D01*
X28336666Y-71426666D02*
X28812857Y-71426666D01*
X28241428Y-71712380D02*
X28574761Y-70712380D01*
X28908095Y-71712380D01*
G04 #@! TO.C,V1*
X49833333Y-20816666D02*
X50309523Y-20816666D01*
X49738095Y-21102380D02*
X50071428Y-20102380D01*
X50404761Y-21102380D01*
X50690476Y-20816666D02*
X51166666Y-20816666D01*
X50595238Y-21102380D02*
X50928571Y-20102380D01*
X51261904Y-21102380D01*
G04 #@! TO.C,Y1*
X21855952Y-60535238D02*
X21808333Y-60630476D01*
X21760714Y-60678095D01*
X21665476Y-60725714D01*
X21617857Y-60725714D01*
X21522619Y-60678095D01*
X21475000Y-60630476D01*
X21427380Y-60535238D01*
X21427380Y-60344761D01*
X21475000Y-60249523D01*
X21522619Y-60201904D01*
X21617857Y-60154285D01*
X21665476Y-60154285D01*
X21760714Y-60201904D01*
X21808333Y-60249523D01*
X21855952Y-60344761D01*
X21855952Y-60535238D01*
X21903571Y-60630476D01*
X21951190Y-60678095D01*
X22046428Y-60725714D01*
X22236904Y-60725714D01*
X22332142Y-60678095D01*
X22379761Y-60630476D01*
X22427380Y-60535238D01*
X22427380Y-60344761D01*
X22379761Y-60249523D01*
X22332142Y-60201904D01*
X22236904Y-60154285D01*
X22046428Y-60154285D01*
X21951190Y-60201904D01*
X21903571Y-60249523D01*
X21855952Y-60344761D01*
X22427380Y-59725714D02*
X21427380Y-59725714D01*
X22141666Y-59392380D01*
X21427380Y-59059047D01*
X22427380Y-59059047D01*
X22427380Y-58582857D02*
X21427380Y-58582857D01*
X21903571Y-58582857D02*
X21903571Y-58011428D01*
X22427380Y-58011428D02*
X21427380Y-58011428D01*
X21760714Y-57630476D02*
X21760714Y-57106666D01*
X22427380Y-57630476D01*
X22427380Y-57106666D01*
X25476190Y-59416190D02*
X25952380Y-59416190D01*
X24952380Y-59749523D02*
X25476190Y-59416190D01*
X24952380Y-59082857D01*
X25952380Y-58225714D02*
X25952380Y-58797142D01*
X25952380Y-58511428D02*
X24952380Y-58511428D01*
X25095238Y-58606666D01*
X25190476Y-58701904D01*
X25238095Y-58797142D01*
G04 #@! TO.C,C4*
X22752380Y-49847619D02*
X22752380Y-50419047D01*
X22752380Y-50133333D02*
X21752380Y-50133333D01*
X21895238Y-50228571D01*
X21990476Y-50323809D01*
X22038095Y-50419047D01*
X21752380Y-49228571D02*
X21752380Y-49133333D01*
X21800000Y-49038095D01*
X21847619Y-48990476D01*
X21942857Y-48942857D01*
X22133333Y-48895238D01*
X22371428Y-48895238D01*
X22561904Y-48942857D01*
X22657142Y-48990476D01*
X22704761Y-49038095D01*
X22752380Y-49133333D01*
X22752380Y-49228571D01*
X22704761Y-49323809D01*
X22657142Y-49371428D01*
X22561904Y-49419047D01*
X22371428Y-49466666D01*
X22133333Y-49466666D01*
X21942857Y-49419047D01*
X21847619Y-49371428D01*
X21800000Y-49323809D01*
X21752380Y-49228571D01*
X21752380Y-48276190D02*
X21752380Y-48180952D01*
X21800000Y-48085714D01*
X21847619Y-48038095D01*
X21942857Y-47990476D01*
X22133333Y-47942857D01*
X22371428Y-47942857D01*
X22561904Y-47990476D01*
X22657142Y-48038095D01*
X22704761Y-48085714D01*
X22752380Y-48180952D01*
X22752380Y-48276190D01*
X22704761Y-48371428D01*
X22657142Y-48419047D01*
X22561904Y-48466666D01*
X22371428Y-48514285D01*
X22133333Y-48514285D01*
X21942857Y-48466666D01*
X21847619Y-48419047D01*
X21800000Y-48371428D01*
X21752380Y-48276190D01*
X22085714Y-47085714D02*
X22752380Y-47085714D01*
X22085714Y-47514285D02*
X22609523Y-47514285D01*
X22704761Y-47466666D01*
X22752380Y-47371428D01*
X22752380Y-47228571D01*
X22704761Y-47133333D01*
X22657142Y-47085714D01*
X22228571Y-46276190D02*
X22228571Y-46609523D01*
X22752380Y-46609523D02*
X21752380Y-46609523D01*
X21752380Y-46133333D01*
X26407142Y-48466666D02*
X26454761Y-48514285D01*
X26502380Y-48657142D01*
X26502380Y-48752380D01*
X26454761Y-48895238D01*
X26359523Y-48990476D01*
X26264285Y-49038095D01*
X26073809Y-49085714D01*
X25930952Y-49085714D01*
X25740476Y-49038095D01*
X25645238Y-48990476D01*
X25550000Y-48895238D01*
X25502380Y-48752380D01*
X25502380Y-48657142D01*
X25550000Y-48514285D01*
X25597619Y-48466666D01*
X25835714Y-47609523D02*
X26502380Y-47609523D01*
X25454761Y-47847619D02*
X26169047Y-48085714D01*
X26169047Y-47466666D01*
G04 #@! TO.C,C7*
X38283333Y-68185714D02*
X38283333Y-68852380D01*
X38045238Y-67804761D02*
X37807142Y-68519047D01*
X38426190Y-68519047D01*
X38711904Y-67852380D02*
X39378571Y-67852380D01*
X38950000Y-68852380D01*
X40188095Y-68185714D02*
X40188095Y-68852380D01*
X39759523Y-68185714D02*
X39759523Y-68709523D01*
X39807142Y-68804761D01*
X39902380Y-68852380D01*
X40045238Y-68852380D01*
X40140476Y-68804761D01*
X40188095Y-68757142D01*
X40997619Y-68328571D02*
X40664285Y-68328571D01*
X40664285Y-68852380D02*
X40664285Y-67852380D01*
X41140476Y-67852380D01*
X39283333Y-72507142D02*
X39235714Y-72554761D01*
X39092857Y-72602380D01*
X38997619Y-72602380D01*
X38854761Y-72554761D01*
X38759523Y-72459523D01*
X38711904Y-72364285D01*
X38664285Y-72173809D01*
X38664285Y-72030952D01*
X38711904Y-71840476D01*
X38759523Y-71745238D01*
X38854761Y-71650000D01*
X38997619Y-71602380D01*
X39092857Y-71602380D01*
X39235714Y-71650000D01*
X39283333Y-71697619D01*
X39616666Y-71602380D02*
X40283333Y-71602380D01*
X39854761Y-72602380D01*
G04 #@! TO.C,J1*
X53514285Y-52657142D02*
X53466666Y-52704761D01*
X53323809Y-52752380D01*
X53228571Y-52752380D01*
X53085714Y-52704761D01*
X52990476Y-52609523D01*
X52942857Y-52514285D01*
X52895238Y-52323809D01*
X52895238Y-52180952D01*
X52942857Y-51990476D01*
X52990476Y-51895238D01*
X53085714Y-51800000D01*
X53228571Y-51752380D01*
X53323809Y-51752380D01*
X53466666Y-51800000D01*
X53514285Y-51847619D01*
X54085714Y-52752380D02*
X53990476Y-52704761D01*
X53942857Y-52657142D01*
X53895238Y-52561904D01*
X53895238Y-52276190D01*
X53942857Y-52180952D01*
X53990476Y-52133333D01*
X54085714Y-52085714D01*
X54228571Y-52085714D01*
X54323809Y-52133333D01*
X54371428Y-52180952D01*
X54419047Y-52276190D01*
X54419047Y-52561904D01*
X54371428Y-52657142D01*
X54323809Y-52704761D01*
X54228571Y-52752380D01*
X54085714Y-52752380D01*
X54847619Y-52085714D02*
X54847619Y-52752380D01*
X54847619Y-52180952D02*
X54895238Y-52133333D01*
X54990476Y-52085714D01*
X55133333Y-52085714D01*
X55228571Y-52133333D01*
X55276190Y-52228571D01*
X55276190Y-52752380D01*
X55752380Y-52085714D02*
X55752380Y-52752380D01*
X55752380Y-52180952D02*
X55800000Y-52133333D01*
X55895238Y-52085714D01*
X56038095Y-52085714D01*
X56133333Y-52133333D01*
X56180952Y-52228571D01*
X56180952Y-52752380D01*
X56419047Y-52847619D02*
X57180952Y-52847619D01*
X57609523Y-51752380D02*
X57704761Y-51752380D01*
X57800000Y-51800000D01*
X57847619Y-51847619D01*
X57895238Y-51942857D01*
X57942857Y-52133333D01*
X57942857Y-52371428D01*
X57895238Y-52561904D01*
X57847619Y-52657142D01*
X57800000Y-52704761D01*
X57704761Y-52752380D01*
X57609523Y-52752380D01*
X57514285Y-52704761D01*
X57466666Y-52657142D01*
X57419047Y-52561904D01*
X57371428Y-52371428D01*
X57371428Y-52133333D01*
X57419047Y-51942857D01*
X57466666Y-51847619D01*
X57514285Y-51800000D01*
X57609523Y-51752380D01*
X58895238Y-52752380D02*
X58323809Y-52752380D01*
X58609523Y-52752380D02*
X58609523Y-51752380D01*
X58514285Y-51895238D01*
X58419047Y-51990476D01*
X58323809Y-52038095D01*
X59228571Y-52752380D02*
X59752380Y-52085714D01*
X59228571Y-52085714D02*
X59752380Y-52752380D01*
X60323809Y-51752380D02*
X60419047Y-51752380D01*
X60514285Y-51800000D01*
X60561904Y-51847619D01*
X60609523Y-51942857D01*
X60657142Y-52133333D01*
X60657142Y-52371428D01*
X60609523Y-52561904D01*
X60561904Y-52657142D01*
X60514285Y-52704761D01*
X60419047Y-52752380D01*
X60323809Y-52752380D01*
X60228571Y-52704761D01*
X60180952Y-52657142D01*
X60133333Y-52561904D01*
X60085714Y-52371428D01*
X60085714Y-52133333D01*
X60133333Y-51942857D01*
X60180952Y-51847619D01*
X60228571Y-51800000D01*
X60323809Y-51752380D01*
X61514285Y-51752380D02*
X61323809Y-51752380D01*
X61228571Y-51800000D01*
X61180952Y-51847619D01*
X61085714Y-51990476D01*
X61038095Y-52180952D01*
X61038095Y-52561904D01*
X61085714Y-52657142D01*
X61133333Y-52704761D01*
X61228571Y-52752380D01*
X61419047Y-52752380D01*
X61514285Y-52704761D01*
X61561904Y-52657142D01*
X61609523Y-52561904D01*
X61609523Y-52323809D01*
X61561904Y-52228571D01*
X61514285Y-52180952D01*
X61419047Y-52133333D01*
X61228571Y-52133333D01*
X61133333Y-52180952D01*
X61085714Y-52228571D01*
X61038095Y-52323809D01*
X61800000Y-52847619D02*
X62561904Y-52847619D01*
X63133333Y-52228571D02*
X62800000Y-52228571D01*
X62800000Y-52752380D02*
X62800000Y-51752380D01*
X63276190Y-51752380D01*
X64038095Y-52704761D02*
X63942857Y-52752380D01*
X63752380Y-52752380D01*
X63657142Y-52704761D01*
X63609523Y-52609523D01*
X63609523Y-52228571D01*
X63657142Y-52133333D01*
X63752380Y-52085714D01*
X63942857Y-52085714D01*
X64038095Y-52133333D01*
X64085714Y-52228571D01*
X64085714Y-52323809D01*
X63609523Y-52419047D01*
X64514285Y-52752380D02*
X64514285Y-52085714D01*
X64514285Y-52180952D02*
X64561904Y-52133333D01*
X64657142Y-52085714D01*
X64800000Y-52085714D01*
X64895238Y-52133333D01*
X64942857Y-52228571D01*
X64942857Y-52752380D01*
X64942857Y-52228571D02*
X64990476Y-52133333D01*
X65085714Y-52085714D01*
X65228571Y-52085714D01*
X65323809Y-52133333D01*
X65371428Y-52228571D01*
X65371428Y-52752380D01*
X66276190Y-52752380D02*
X66276190Y-52228571D01*
X66228571Y-52133333D01*
X66133333Y-52085714D01*
X65942857Y-52085714D01*
X65847619Y-52133333D01*
X66276190Y-52704761D02*
X66180952Y-52752380D01*
X65942857Y-52752380D01*
X65847619Y-52704761D01*
X65800000Y-52609523D01*
X65800000Y-52514285D01*
X65847619Y-52419047D01*
X65942857Y-52371428D01*
X66180952Y-52371428D01*
X66276190Y-52323809D01*
X66895238Y-52752380D02*
X66800000Y-52704761D01*
X66752380Y-52609523D01*
X66752380Y-51752380D01*
X67657142Y-52704761D02*
X67561904Y-52752380D01*
X67371428Y-52752380D01*
X67276190Y-52704761D01*
X67228571Y-52609523D01*
X67228571Y-52228571D01*
X67276190Y-52133333D01*
X67371428Y-52085714D01*
X67561904Y-52085714D01*
X67657142Y-52133333D01*
X67704761Y-52228571D01*
X67704761Y-52323809D01*
X67228571Y-52419047D01*
X59752380Y-43633333D02*
X60466666Y-43633333D01*
X60609523Y-43680952D01*
X60704761Y-43776190D01*
X60752380Y-43919047D01*
X60752380Y-44014285D01*
X60752380Y-42633333D02*
X60752380Y-43204761D01*
X60752380Y-42919047D02*
X59752380Y-42919047D01*
X59895238Y-43014285D01*
X59990476Y-43109523D01*
X60038095Y-43204761D01*
G04 #@! TO.C,J3*
X23464285Y-46077142D02*
X23416666Y-46124761D01*
X23273809Y-46172380D01*
X23178571Y-46172380D01*
X23035714Y-46124761D01*
X22940476Y-46029523D01*
X22892857Y-45934285D01*
X22845238Y-45743809D01*
X22845238Y-45600952D01*
X22892857Y-45410476D01*
X22940476Y-45315238D01*
X23035714Y-45220000D01*
X23178571Y-45172380D01*
X23273809Y-45172380D01*
X23416666Y-45220000D01*
X23464285Y-45267619D01*
X24035714Y-46172380D02*
X23940476Y-46124761D01*
X23892857Y-46077142D01*
X23845238Y-45981904D01*
X23845238Y-45696190D01*
X23892857Y-45600952D01*
X23940476Y-45553333D01*
X24035714Y-45505714D01*
X24178571Y-45505714D01*
X24273809Y-45553333D01*
X24321428Y-45600952D01*
X24369047Y-45696190D01*
X24369047Y-45981904D01*
X24321428Y-46077142D01*
X24273809Y-46124761D01*
X24178571Y-46172380D01*
X24035714Y-46172380D01*
X24797619Y-45505714D02*
X24797619Y-46172380D01*
X24797619Y-45600952D02*
X24845238Y-45553333D01*
X24940476Y-45505714D01*
X25083333Y-45505714D01*
X25178571Y-45553333D01*
X25226190Y-45648571D01*
X25226190Y-46172380D01*
X25702380Y-45505714D02*
X25702380Y-46172380D01*
X25702380Y-45600952D02*
X25750000Y-45553333D01*
X25845238Y-45505714D01*
X25988095Y-45505714D01*
X26083333Y-45553333D01*
X26130952Y-45648571D01*
X26130952Y-46172380D01*
X26369047Y-46267619D02*
X27130952Y-46267619D01*
X27559523Y-45172380D02*
X27654761Y-45172380D01*
X27750000Y-45220000D01*
X27797619Y-45267619D01*
X27845238Y-45362857D01*
X27892857Y-45553333D01*
X27892857Y-45791428D01*
X27845238Y-45981904D01*
X27797619Y-46077142D01*
X27750000Y-46124761D01*
X27654761Y-46172380D01*
X27559523Y-46172380D01*
X27464285Y-46124761D01*
X27416666Y-46077142D01*
X27369047Y-45981904D01*
X27321428Y-45791428D01*
X27321428Y-45553333D01*
X27369047Y-45362857D01*
X27416666Y-45267619D01*
X27464285Y-45220000D01*
X27559523Y-45172380D01*
X28845238Y-46172380D02*
X28273809Y-46172380D01*
X28559523Y-46172380D02*
X28559523Y-45172380D01*
X28464285Y-45315238D01*
X28369047Y-45410476D01*
X28273809Y-45458095D01*
X29178571Y-46172380D02*
X29702380Y-45505714D01*
X29178571Y-45505714D02*
X29702380Y-46172380D01*
X30273809Y-45172380D02*
X30369047Y-45172380D01*
X30464285Y-45220000D01*
X30511904Y-45267619D01*
X30559523Y-45362857D01*
X30607142Y-45553333D01*
X30607142Y-45791428D01*
X30559523Y-45981904D01*
X30511904Y-46077142D01*
X30464285Y-46124761D01*
X30369047Y-46172380D01*
X30273809Y-46172380D01*
X30178571Y-46124761D01*
X30130952Y-46077142D01*
X30083333Y-45981904D01*
X30035714Y-45791428D01*
X30035714Y-45553333D01*
X30083333Y-45362857D01*
X30130952Y-45267619D01*
X30178571Y-45220000D01*
X30273809Y-45172380D01*
X31464285Y-45172380D02*
X31273809Y-45172380D01*
X31178571Y-45220000D01*
X31130952Y-45267619D01*
X31035714Y-45410476D01*
X30988095Y-45600952D01*
X30988095Y-45981904D01*
X31035714Y-46077142D01*
X31083333Y-46124761D01*
X31178571Y-46172380D01*
X31369047Y-46172380D01*
X31464285Y-46124761D01*
X31511904Y-46077142D01*
X31559523Y-45981904D01*
X31559523Y-45743809D01*
X31511904Y-45648571D01*
X31464285Y-45600952D01*
X31369047Y-45553333D01*
X31178571Y-45553333D01*
X31083333Y-45600952D01*
X31035714Y-45648571D01*
X30988095Y-45743809D01*
X31750000Y-46267619D02*
X32511904Y-46267619D01*
X33083333Y-45648571D02*
X32750000Y-45648571D01*
X32750000Y-46172380D02*
X32750000Y-45172380D01*
X33226190Y-45172380D01*
X33988095Y-46124761D02*
X33892857Y-46172380D01*
X33702380Y-46172380D01*
X33607142Y-46124761D01*
X33559523Y-46029523D01*
X33559523Y-45648571D01*
X33607142Y-45553333D01*
X33702380Y-45505714D01*
X33892857Y-45505714D01*
X33988095Y-45553333D01*
X34035714Y-45648571D01*
X34035714Y-45743809D01*
X33559523Y-45839047D01*
X34464285Y-46172380D02*
X34464285Y-45505714D01*
X34464285Y-45600952D02*
X34511904Y-45553333D01*
X34607142Y-45505714D01*
X34750000Y-45505714D01*
X34845238Y-45553333D01*
X34892857Y-45648571D01*
X34892857Y-46172380D01*
X34892857Y-45648571D02*
X34940476Y-45553333D01*
X35035714Y-45505714D01*
X35178571Y-45505714D01*
X35273809Y-45553333D01*
X35321428Y-45648571D01*
X35321428Y-46172380D01*
X36226190Y-46172380D02*
X36226190Y-45648571D01*
X36178571Y-45553333D01*
X36083333Y-45505714D01*
X35892857Y-45505714D01*
X35797619Y-45553333D01*
X36226190Y-46124761D02*
X36130952Y-46172380D01*
X35892857Y-46172380D01*
X35797619Y-46124761D01*
X35750000Y-46029523D01*
X35750000Y-45934285D01*
X35797619Y-45839047D01*
X35892857Y-45791428D01*
X36130952Y-45791428D01*
X36226190Y-45743809D01*
X36845238Y-46172380D02*
X36750000Y-46124761D01*
X36702380Y-46029523D01*
X36702380Y-45172380D01*
X37607142Y-46124761D02*
X37511904Y-46172380D01*
X37321428Y-46172380D01*
X37226190Y-46124761D01*
X37178571Y-46029523D01*
X37178571Y-45648571D01*
X37226190Y-45553333D01*
X37321428Y-45505714D01*
X37511904Y-45505714D01*
X37607142Y-45553333D01*
X37654761Y-45648571D01*
X37654761Y-45743809D01*
X37178571Y-45839047D01*
X29702380Y-36933333D02*
X30416666Y-36933333D01*
X30559523Y-36980952D01*
X30654761Y-37076190D01*
X30702380Y-37219047D01*
X30702380Y-37314285D01*
X29702380Y-36552380D02*
X29702380Y-35933333D01*
X30083333Y-36266666D01*
X30083333Y-36123809D01*
X30130952Y-36028571D01*
X30178571Y-35980952D01*
X30273809Y-35933333D01*
X30511904Y-35933333D01*
X30607142Y-35980952D01*
X30654761Y-36028571D01*
X30702380Y-36123809D01*
X30702380Y-36409523D01*
X30654761Y-36504761D01*
X30607142Y-36552380D01*
G04 #@! TO.C,J2*
X53464285Y-74907142D02*
X53416666Y-74954761D01*
X53273809Y-75002380D01*
X53178571Y-75002380D01*
X53035714Y-74954761D01*
X52940476Y-74859523D01*
X52892857Y-74764285D01*
X52845238Y-74573809D01*
X52845238Y-74430952D01*
X52892857Y-74240476D01*
X52940476Y-74145238D01*
X53035714Y-74050000D01*
X53178571Y-74002380D01*
X53273809Y-74002380D01*
X53416666Y-74050000D01*
X53464285Y-74097619D01*
X54035714Y-75002380D02*
X53940476Y-74954761D01*
X53892857Y-74907142D01*
X53845238Y-74811904D01*
X53845238Y-74526190D01*
X53892857Y-74430952D01*
X53940476Y-74383333D01*
X54035714Y-74335714D01*
X54178571Y-74335714D01*
X54273809Y-74383333D01*
X54321428Y-74430952D01*
X54369047Y-74526190D01*
X54369047Y-74811904D01*
X54321428Y-74907142D01*
X54273809Y-74954761D01*
X54178571Y-75002380D01*
X54035714Y-75002380D01*
X54797619Y-74335714D02*
X54797619Y-75002380D01*
X54797619Y-74430952D02*
X54845238Y-74383333D01*
X54940476Y-74335714D01*
X55083333Y-74335714D01*
X55178571Y-74383333D01*
X55226190Y-74478571D01*
X55226190Y-75002380D01*
X55702380Y-74335714D02*
X55702380Y-75002380D01*
X55702380Y-74430952D02*
X55750000Y-74383333D01*
X55845238Y-74335714D01*
X55988095Y-74335714D01*
X56083333Y-74383333D01*
X56130952Y-74478571D01*
X56130952Y-75002380D01*
X56369047Y-75097619D02*
X57130952Y-75097619D01*
X57559523Y-74002380D02*
X57654761Y-74002380D01*
X57750000Y-74050000D01*
X57797619Y-74097619D01*
X57845238Y-74192857D01*
X57892857Y-74383333D01*
X57892857Y-74621428D01*
X57845238Y-74811904D01*
X57797619Y-74907142D01*
X57750000Y-74954761D01*
X57654761Y-75002380D01*
X57559523Y-75002380D01*
X57464285Y-74954761D01*
X57416666Y-74907142D01*
X57369047Y-74811904D01*
X57321428Y-74621428D01*
X57321428Y-74383333D01*
X57369047Y-74192857D01*
X57416666Y-74097619D01*
X57464285Y-74050000D01*
X57559523Y-74002380D01*
X58845238Y-75002380D02*
X58273809Y-75002380D01*
X58559523Y-75002380D02*
X58559523Y-74002380D01*
X58464285Y-74145238D01*
X58369047Y-74240476D01*
X58273809Y-74288095D01*
X59178571Y-75002380D02*
X59702380Y-74335714D01*
X59178571Y-74335714D02*
X59702380Y-75002380D01*
X60273809Y-74002380D02*
X60369047Y-74002380D01*
X60464285Y-74050000D01*
X60511904Y-74097619D01*
X60559523Y-74192857D01*
X60607142Y-74383333D01*
X60607142Y-74621428D01*
X60559523Y-74811904D01*
X60511904Y-74907142D01*
X60464285Y-74954761D01*
X60369047Y-75002380D01*
X60273809Y-75002380D01*
X60178571Y-74954761D01*
X60130952Y-74907142D01*
X60083333Y-74811904D01*
X60035714Y-74621428D01*
X60035714Y-74383333D01*
X60083333Y-74192857D01*
X60130952Y-74097619D01*
X60178571Y-74050000D01*
X60273809Y-74002380D01*
X61178571Y-74430952D02*
X61083333Y-74383333D01*
X61035714Y-74335714D01*
X60988095Y-74240476D01*
X60988095Y-74192857D01*
X61035714Y-74097619D01*
X61083333Y-74050000D01*
X61178571Y-74002380D01*
X61369047Y-74002380D01*
X61464285Y-74050000D01*
X61511904Y-74097619D01*
X61559523Y-74192857D01*
X61559523Y-74240476D01*
X61511904Y-74335714D01*
X61464285Y-74383333D01*
X61369047Y-74430952D01*
X61178571Y-74430952D01*
X61083333Y-74478571D01*
X61035714Y-74526190D01*
X60988095Y-74621428D01*
X60988095Y-74811904D01*
X61035714Y-74907142D01*
X61083333Y-74954761D01*
X61178571Y-75002380D01*
X61369047Y-75002380D01*
X61464285Y-74954761D01*
X61511904Y-74907142D01*
X61559523Y-74811904D01*
X61559523Y-74621428D01*
X61511904Y-74526190D01*
X61464285Y-74478571D01*
X61369047Y-74430952D01*
X61750000Y-75097619D02*
X62511904Y-75097619D01*
X63083333Y-74478571D02*
X62750000Y-74478571D01*
X62750000Y-75002380D02*
X62750000Y-74002380D01*
X63226190Y-74002380D01*
X63988095Y-74954761D02*
X63892857Y-75002380D01*
X63702380Y-75002380D01*
X63607142Y-74954761D01*
X63559523Y-74859523D01*
X63559523Y-74478571D01*
X63607142Y-74383333D01*
X63702380Y-74335714D01*
X63892857Y-74335714D01*
X63988095Y-74383333D01*
X64035714Y-74478571D01*
X64035714Y-74573809D01*
X63559523Y-74669047D01*
X64464285Y-75002380D02*
X64464285Y-74335714D01*
X64464285Y-74430952D02*
X64511904Y-74383333D01*
X64607142Y-74335714D01*
X64750000Y-74335714D01*
X64845238Y-74383333D01*
X64892857Y-74478571D01*
X64892857Y-75002380D01*
X64892857Y-74478571D02*
X64940476Y-74383333D01*
X65035714Y-74335714D01*
X65178571Y-74335714D01*
X65273809Y-74383333D01*
X65321428Y-74478571D01*
X65321428Y-75002380D01*
X66226190Y-75002380D02*
X66226190Y-74478571D01*
X66178571Y-74383333D01*
X66083333Y-74335714D01*
X65892857Y-74335714D01*
X65797619Y-74383333D01*
X66226190Y-74954761D02*
X66130952Y-75002380D01*
X65892857Y-75002380D01*
X65797619Y-74954761D01*
X65750000Y-74859523D01*
X65750000Y-74764285D01*
X65797619Y-74669047D01*
X65892857Y-74621428D01*
X66130952Y-74621428D01*
X66226190Y-74573809D01*
X66845238Y-75002380D02*
X66750000Y-74954761D01*
X66702380Y-74859523D01*
X66702380Y-74002380D01*
X67607142Y-74954761D02*
X67511904Y-75002380D01*
X67321428Y-75002380D01*
X67226190Y-74954761D01*
X67178571Y-74859523D01*
X67178571Y-74478571D01*
X67226190Y-74383333D01*
X67321428Y-74335714D01*
X67511904Y-74335714D01*
X67607142Y-74383333D01*
X67654761Y-74478571D01*
X67654761Y-74573809D01*
X67178571Y-74669047D01*
X59702380Y-63443333D02*
X60416666Y-63443333D01*
X60559523Y-63490952D01*
X60654761Y-63586190D01*
X60702380Y-63729047D01*
X60702380Y-63824285D01*
X59797619Y-63014761D02*
X59750000Y-62967142D01*
X59702380Y-62871904D01*
X59702380Y-62633809D01*
X59750000Y-62538571D01*
X59797619Y-62490952D01*
X59892857Y-62443333D01*
X59988095Y-62443333D01*
X60130952Y-62490952D01*
X60702380Y-63062380D01*
X60702380Y-62443333D01*
G04 #@! TO.C,U2*
X32119523Y-65766666D02*
X32595714Y-65766666D01*
X32024285Y-66052380D02*
X32357619Y-65052380D01*
X32690952Y-66052380D01*
X32881428Y-65052380D02*
X33452857Y-65052380D01*
X33167142Y-66052380D02*
X33167142Y-65052380D01*
X33786190Y-66052380D02*
X33786190Y-65385714D01*
X33786190Y-65480952D02*
X33833809Y-65433333D01*
X33929047Y-65385714D01*
X34071904Y-65385714D01*
X34167142Y-65433333D01*
X34214761Y-65528571D01*
X34214761Y-66052380D01*
X34214761Y-65528571D02*
X34262380Y-65433333D01*
X34357619Y-65385714D01*
X34500476Y-65385714D01*
X34595714Y-65433333D01*
X34643333Y-65528571D01*
X34643333Y-66052380D01*
X35500476Y-66004761D02*
X35405238Y-66052380D01*
X35214761Y-66052380D01*
X35119523Y-66004761D01*
X35071904Y-65909523D01*
X35071904Y-65528571D01*
X35119523Y-65433333D01*
X35214761Y-65385714D01*
X35405238Y-65385714D01*
X35500476Y-65433333D01*
X35548095Y-65528571D01*
X35548095Y-65623809D01*
X35071904Y-65719047D01*
X36405238Y-65385714D02*
X36405238Y-66195238D01*
X36357619Y-66290476D01*
X36310000Y-66338095D01*
X36214761Y-66385714D01*
X36071904Y-66385714D01*
X35976666Y-66338095D01*
X36405238Y-66004761D02*
X36310000Y-66052380D01*
X36119523Y-66052380D01*
X36024285Y-66004761D01*
X35976666Y-65957142D01*
X35929047Y-65861904D01*
X35929047Y-65576190D01*
X35976666Y-65480952D01*
X36024285Y-65433333D01*
X36119523Y-65385714D01*
X36310000Y-65385714D01*
X36405238Y-65433333D01*
X37310000Y-66052380D02*
X37310000Y-65528571D01*
X37262380Y-65433333D01*
X37167142Y-65385714D01*
X36976666Y-65385714D01*
X36881428Y-65433333D01*
X37310000Y-66004761D02*
X37214761Y-66052380D01*
X36976666Y-66052380D01*
X36881428Y-66004761D01*
X36833809Y-65909523D01*
X36833809Y-65814285D01*
X36881428Y-65719047D01*
X36976666Y-65671428D01*
X37214761Y-65671428D01*
X37310000Y-65623809D01*
X37690952Y-65052380D02*
X38310000Y-65052380D01*
X37976666Y-65433333D01*
X38119523Y-65433333D01*
X38214761Y-65480952D01*
X38262380Y-65528571D01*
X38310000Y-65623809D01*
X38310000Y-65861904D01*
X38262380Y-65957142D01*
X38214761Y-66004761D01*
X38119523Y-66052380D01*
X37833809Y-66052380D01*
X37738571Y-66004761D01*
X37690952Y-65957142D01*
X38690952Y-65147619D02*
X38738571Y-65100000D01*
X38833809Y-65052380D01*
X39071904Y-65052380D01*
X39167142Y-65100000D01*
X39214761Y-65147619D01*
X39262380Y-65242857D01*
X39262380Y-65338095D01*
X39214761Y-65480952D01*
X38643333Y-66052380D01*
X39262380Y-66052380D01*
X39833809Y-65480952D02*
X39738571Y-65433333D01*
X39690952Y-65385714D01*
X39643333Y-65290476D01*
X39643333Y-65242857D01*
X39690952Y-65147619D01*
X39738571Y-65100000D01*
X39833809Y-65052380D01*
X40024285Y-65052380D01*
X40119523Y-65100000D01*
X40167142Y-65147619D01*
X40214761Y-65242857D01*
X40214761Y-65290476D01*
X40167142Y-65385714D01*
X40119523Y-65433333D01*
X40024285Y-65480952D01*
X39833809Y-65480952D01*
X39738571Y-65528571D01*
X39690952Y-65576190D01*
X39643333Y-65671428D01*
X39643333Y-65861904D01*
X39690952Y-65957142D01*
X39738571Y-66004761D01*
X39833809Y-66052380D01*
X40024285Y-66052380D01*
X40119523Y-66004761D01*
X40167142Y-65957142D01*
X40214761Y-65861904D01*
X40214761Y-65671428D01*
X40167142Y-65576190D01*
X40119523Y-65528571D01*
X40024285Y-65480952D01*
X40643333Y-65671428D02*
X41405238Y-65671428D01*
X41881428Y-66052380D02*
X41881428Y-65052380D01*
X42262380Y-65052380D01*
X42357619Y-65100000D01*
X42405238Y-65147619D01*
X42452857Y-65242857D01*
X42452857Y-65385714D01*
X42405238Y-65480952D01*
X42357619Y-65528571D01*
X42262380Y-65576190D01*
X41881428Y-65576190D01*
X42881428Y-65052380D02*
X42881428Y-65861904D01*
X42929047Y-65957142D01*
X42976666Y-66004761D01*
X43071904Y-66052380D01*
X43262380Y-66052380D01*
X43357619Y-66004761D01*
X43405238Y-65957142D01*
X43452857Y-65861904D01*
X43452857Y-65052380D01*
X37048095Y-46212380D02*
X37048095Y-47021904D01*
X37095714Y-47117142D01*
X37143333Y-47164761D01*
X37238571Y-47212380D01*
X37429047Y-47212380D01*
X37524285Y-47164761D01*
X37571904Y-47117142D01*
X37619523Y-47021904D01*
X37619523Y-46212380D01*
X38048095Y-46307619D02*
X38095714Y-46260000D01*
X38190952Y-46212380D01*
X38429047Y-46212380D01*
X38524285Y-46260000D01*
X38571904Y-46307619D01*
X38619523Y-46402857D01*
X38619523Y-46498095D01*
X38571904Y-46640952D01*
X38000476Y-47212380D01*
X38619523Y-47212380D01*
G04 #@! TD*
M02*
