G04 #@! TF.GenerationSoftware,KiCad,Pcbnew,5.0.1-33cea8e~68~ubuntu18.04.1*
G04 #@! TF.CreationDate,2018-11-21T16:18:05-05:00*
G04 #@! TF.ProjectId,samn,73616D6E2E6B696361645F7063620000,5*
G04 #@! TF.SameCoordinates,Original*
G04 #@! TF.FileFunction,Copper,L1,Top,Mixed*
G04 #@! TF.FilePolarity,Positive*
%FSLAX46Y46*%
G04 Gerber Fmt 4.6, Leading zero omitted, Abs format (unit mm)*
G04 Created by KiCad (PCBNEW 5.0.1-33cea8e~68~ubuntu18.04.1) date Wed 21 Nov 2018 04:18:05 PM EST*
%MOMM*%
%LPD*%
G01*
G04 APERTURE LIST*
G04 #@! TA.AperFunction,ComponentPad*
%ADD10R,1.700000X1.700000*%
G04 #@! TD*
G04 #@! TA.AperFunction,ComponentPad*
%ADD11O,1.700000X1.700000*%
G04 #@! TD*
G04 #@! TA.AperFunction,ComponentPad*
%ADD12C,1.900000*%
G04 #@! TD*
G04 #@! TA.AperFunction,ComponentPad*
%ADD13C,1.800000*%
G04 #@! TD*
G04 #@! TA.AperFunction,ComponentPad*
%ADD14R,1.800000X1.800000*%
G04 #@! TD*
G04 #@! TA.AperFunction,ComponentPad*
%ADD15C,3.400000*%
G04 #@! TD*
G04 #@! TA.AperFunction,ComponentPad*
%ADD16C,1.500000*%
G04 #@! TD*
G04 #@! TA.AperFunction,ComponentPad*
%ADD17C,1.600000*%
G04 #@! TD*
G04 #@! TA.AperFunction,ComponentPad*
%ADD18R,1.600000X1.600000*%
G04 #@! TD*
G04 #@! TA.AperFunction,ComponentPad*
%ADD19O,2.400000X1.600000*%
G04 #@! TD*
G04 #@! TA.AperFunction,ComponentPad*
%ADD20R,2.400000X1.600000*%
G04 #@! TD*
G04 #@! TA.AperFunction,ViaPad*
%ADD21C,3.000000*%
G04 #@! TD*
G04 #@! TA.AperFunction,ViaPad*
%ADD22C,1.200000*%
G04 #@! TD*
G04 #@! TA.AperFunction,Conductor*
%ADD23C,0.400000*%
G04 #@! TD*
G04 #@! TA.AperFunction,Conductor*
%ADD24C,0.600000*%
G04 #@! TD*
G04 #@! TA.AperFunction,Conductor*
%ADD25C,0.700000*%
G04 #@! TD*
G04 APERTURE END LIST*
D10*
G04 #@! TO.P,J5,1*
G04 #@! TO.N,+1V5*
X63650000Y-29350000D03*
D11*
G04 #@! TO.P,J5,2*
G04 #@! TO.N,Net-(J5-Pad2)*
X63650000Y-26810000D03*
G04 #@! TD*
D12*
G04 #@! TO.P,U3,1*
G04 #@! TO.N,GND*
X38250000Y-77500000D03*
G04 #@! TO.P,U3,2*
G04 #@! TO.N,+3V3*
X40790000Y-77500000D03*
G04 #@! TO.P,U3,3*
G04 #@! TO.N,Net-(U2-Pad12)*
X38250000Y-80040000D03*
G04 #@! TO.P,U3,4*
G04 #@! TO.N,Net-(U2-Pad13)*
X40790000Y-80040000D03*
G04 #@! TO.P,U3,5*
G04 #@! TO.N,SCK*
X38250000Y-82580000D03*
G04 #@! TO.P,U3,6*
G04 #@! TO.N,MOSI*
X40790000Y-82580000D03*
G04 #@! TO.P,U3,7*
G04 #@! TO.N,MISO*
X38250000Y-85120000D03*
G04 #@! TO.P,U3,8*
G04 #@! TO.N,Net-(J3-Pad4)*
X40790000Y-85120000D03*
G04 #@! TD*
D11*
G04 #@! TO.P,J4,6*
G04 #@! TO.N,MISO*
X31790000Y-84330000D03*
G04 #@! TO.P,J4,5*
G04 #@! TO.N,+3V3*
X29250000Y-84330000D03*
G04 #@! TO.P,J4,4*
G04 #@! TO.N,SCK*
X31790000Y-81790000D03*
G04 #@! TO.P,J4,3*
G04 #@! TO.N,MOSI*
X29250000Y-81790000D03*
G04 #@! TO.P,J4,2*
G04 #@! TO.N,Reset*
X31790000Y-79250000D03*
D10*
G04 #@! TO.P,J4,1*
G04 #@! TO.N,GND*
X29250000Y-79250000D03*
G04 #@! TD*
D13*
G04 #@! TO.P,LED_I1,2*
G04 #@! TO.N,Net-(LED_I1-Pad2)*
X26940000Y-68300000D03*
D14*
G04 #@! TO.P,LED_I1,1*
G04 #@! TO.N,GND*
X24400000Y-68300000D03*
G04 #@! TD*
D15*
G04 #@! TO.P,V1,2*
G04 #@! TO.N,GND*
X50500000Y-70700000D03*
X50500000Y-64700000D03*
G04 #@! TO.P,V1,1*
G04 #@! TO.N,Net-(J5-Pad2)*
X50500000Y-30150000D03*
X50500000Y-24150000D03*
G04 #@! TD*
D16*
G04 #@! TO.P,Y1,2*
G04 #@! TO.N,Net-(C6-Pad1)*
X25500000Y-61380000D03*
G04 #@! TO.P,Y1,1*
G04 #@! TO.N,Net-(C5-Pad1)*
X25500000Y-56500000D03*
G04 #@! TD*
D17*
G04 #@! TO.P,C4,2*
G04 #@! TO.N,GND*
X26050000Y-49300000D03*
D18*
G04 #@! TO.P,C4,1*
G04 #@! TO.N,+3V3*
X26050000Y-47300000D03*
G04 #@! TD*
D17*
G04 #@! TO.P,C7,2*
G04 #@! TO.N,GND*
X38450000Y-72150000D03*
D18*
G04 #@! TO.P,C7,1*
G04 #@! TO.N,+3V3*
X40450000Y-72150000D03*
G04 #@! TD*
D11*
G04 #@! TO.P,J1,6*
G04 #@! TO.N,Net-(J1-Pad6)*
X60300000Y-36950000D03*
G04 #@! TO.P,J1,5*
G04 #@! TO.N,Net-(J1-Pad5)*
X60300000Y-39490000D03*
G04 #@! TO.P,J1,4*
G04 #@! TO.N,Net-(J1-Pad4)*
X60300000Y-42030000D03*
G04 #@! TO.P,J1,3*
G04 #@! TO.N,Net-(J1-Pad3)*
X60300000Y-44570000D03*
G04 #@! TO.P,J1,2*
G04 #@! TO.N,Net-(J1-Pad2)*
X60300000Y-47110000D03*
D10*
G04 #@! TO.P,J1,1*
G04 #@! TO.N,Net-(J1-Pad1)*
X60300000Y-49650000D03*
G04 #@! TD*
D11*
G04 #@! TO.P,J3,6*
G04 #@! TO.N,Net-(J3-Pad6)*
X30250000Y-42950000D03*
G04 #@! TO.P,J3,5*
G04 #@! TO.N,Net-(J3-Pad5)*
X30250000Y-40410000D03*
G04 #@! TO.P,J3,4*
G04 #@! TO.N,Net-(J3-Pad4)*
X30250000Y-37870000D03*
G04 #@! TO.P,J3,3*
G04 #@! TO.N,Net-(J3-Pad3)*
X30250000Y-35330000D03*
G04 #@! TO.P,J3,2*
G04 #@! TO.N,Net-(J3-Pad2)*
X30250000Y-32790000D03*
D10*
G04 #@! TO.P,J3,1*
G04 #@! TO.N,Reset*
X30250000Y-30250000D03*
G04 #@! TD*
D11*
G04 #@! TO.P,J2,8*
G04 #@! TO.N,GND*
X60250000Y-54220000D03*
G04 #@! TO.P,J2,7*
G04 #@! TO.N,+3V3*
X60250000Y-56760000D03*
G04 #@! TO.P,J2,6*
G04 #@! TO.N,SCK*
X60250000Y-59300000D03*
G04 #@! TO.P,J2,5*
G04 #@! TO.N,MISO*
X60250000Y-61840000D03*
G04 #@! TO.P,J2,4*
G04 #@! TO.N,MOSI*
X60250000Y-64380000D03*
G04 #@! TO.P,J2,3*
G04 #@! TO.N,Net-(J2-Pad3)*
X60250000Y-66920000D03*
G04 #@! TO.P,J2,2*
G04 #@! TO.N,Net-(J2-Pad2)*
X60250000Y-69460000D03*
D10*
G04 #@! TO.P,J2,1*
G04 #@! TO.N,Net-(J2-Pad1)*
X60250000Y-72000000D03*
G04 #@! TD*
D19*
G04 #@! TO.P,U2,28*
G04 #@! TO.N,Net-(J1-Pad6)*
X41620000Y-30250000D03*
G04 #@! TO.P,U2,14*
G04 #@! TO.N,Net-(J2-Pad1)*
X34000000Y-63270000D03*
G04 #@! TO.P,U2,27*
G04 #@! TO.N,Net-(J1-Pad5)*
X41620000Y-32790000D03*
G04 #@! TO.P,U2,13*
G04 #@! TO.N,Net-(U2-Pad13)*
X34000000Y-60730000D03*
G04 #@! TO.P,U2,26*
G04 #@! TO.N,Net-(R7-Pad1)*
X41620000Y-35330000D03*
G04 #@! TO.P,U2,12*
G04 #@! TO.N,Net-(U2-Pad12)*
X34000000Y-58190000D03*
G04 #@! TO.P,U2,25*
G04 #@! TO.N,Net-(J1-Pad3)*
X41620000Y-37870000D03*
G04 #@! TO.P,U2,11*
G04 #@! TO.N,Net-(R4-Pad2)*
X34000000Y-55650000D03*
G04 #@! TO.P,U2,24*
G04 #@! TO.N,Net-(J1-Pad2)*
X41620000Y-40410000D03*
G04 #@! TO.P,U2,10*
G04 #@! TO.N,Net-(C6-Pad1)*
X34000000Y-53110000D03*
G04 #@! TO.P,U2,23*
G04 #@! TO.N,Net-(J1-Pad1)*
X41620000Y-42950000D03*
G04 #@! TO.P,U2,9*
G04 #@! TO.N,Net-(C5-Pad1)*
X34000000Y-50570000D03*
G04 #@! TO.P,U2,22*
G04 #@! TO.N,GND*
X41620000Y-45490000D03*
G04 #@! TO.P,U2,8*
X34000000Y-48030000D03*
G04 #@! TO.P,U2,21*
G04 #@! TO.N,Net-(C3-Pad2)*
X41620000Y-48030000D03*
G04 #@! TO.P,U2,7*
G04 #@! TO.N,+3V3*
X34000000Y-45490000D03*
G04 #@! TO.P,U2,20*
X41620000Y-50570000D03*
G04 #@! TO.P,U2,6*
G04 #@! TO.N,Net-(J3-Pad6)*
X34000000Y-42950000D03*
G04 #@! TO.P,U2,19*
G04 #@! TO.N,SCK*
X41620000Y-53110000D03*
G04 #@! TO.P,U2,5*
G04 #@! TO.N,Net-(J3-Pad5)*
X34000000Y-40410000D03*
G04 #@! TO.P,U2,18*
G04 #@! TO.N,MISO*
X41620000Y-55650000D03*
G04 #@! TO.P,U2,4*
G04 #@! TO.N,Net-(J3-Pad4)*
X34000000Y-37870000D03*
G04 #@! TO.P,U2,17*
G04 #@! TO.N,MOSI*
X41620000Y-58190000D03*
G04 #@! TO.P,U2,3*
G04 #@! TO.N,Net-(J3-Pad3)*
X34000000Y-35330000D03*
G04 #@! TO.P,U2,16*
G04 #@! TO.N,Net-(J2-Pad3)*
X41620000Y-60730000D03*
G04 #@! TO.P,U2,2*
G04 #@! TO.N,Net-(J3-Pad2)*
X34000000Y-32790000D03*
G04 #@! TO.P,U2,15*
G04 #@! TO.N,Net-(J2-Pad2)*
X41620000Y-63270000D03*
D20*
G04 #@! TO.P,U2,1*
G04 #@! TO.N,Reset*
X34000000Y-30250000D03*
G04 #@! TD*
D21*
G04 #@! TO.N,*
X23500000Y-22500000D03*
X23500000Y-87500000D03*
X63500000Y-55000000D03*
X63500000Y-22500000D03*
D22*
G04 #@! TO.N,Reset*
X31750000Y-77000030D03*
X23400010Y-76750000D03*
G04 #@! TO.N,+3V3*
X58500000Y-88500000D03*
X40000000Y-74750000D03*
G04 #@! TO.N,Net-(U2-Pad12)*
X34500000Y-67000000D03*
X35500000Y-78250000D03*
G04 #@! TO.N,SCK*
X34500000Y-80000000D03*
X35050004Y-86450000D03*
G04 #@! TO.N,MOSI*
X26610000Y-81790000D03*
X48550000Y-85850000D03*
G04 #@! TO.N,Net-(J3-Pad4)*
X44250000Y-85150000D03*
X25550000Y-39350000D03*
G04 #@! TO.N,Net-(J2-Pad1)*
X37000000Y-67470000D03*
X43750000Y-68500000D03*
G04 #@! TO.N,Net-(R7-Pad1)*
X56850000Y-35000000D03*
X45100000Y-36950000D03*
G04 #@! TD*
D23*
G04 #@! TO.N,Reset*
X31499970Y-76750000D02*
X31750000Y-77000030D01*
D24*
X31499970Y-76750000D02*
X23400010Y-76750000D01*
D25*
G04 #@! TO.N,+3V3*
X58500000Y-87651472D02*
X58500000Y-88500000D01*
X40000000Y-74750000D02*
X46600002Y-74750000D01*
X46600002Y-74750000D02*
X58500000Y-86649998D01*
X58500000Y-86649998D02*
X58500000Y-87651472D01*
D24*
G04 #@! TO.N,Net-(U2-Pad12)*
X34500000Y-67000000D02*
X35500000Y-68000000D01*
X35500000Y-68000000D02*
X35500000Y-78250000D01*
G04 #@! TO.N,SCK*
X34500000Y-80000000D02*
X34500000Y-85899996D01*
X34500000Y-85899996D02*
X35050004Y-86450000D01*
G04 #@! TO.N,MOSI*
X46050000Y-88350000D02*
X47950001Y-86449999D01*
X26610000Y-84666482D02*
X30293518Y-88350000D01*
X47950001Y-86449999D02*
X48550000Y-85850000D01*
X26610000Y-81790000D02*
X26610000Y-84666482D01*
X30293518Y-88350000D02*
X46050000Y-88350000D01*
D25*
G04 #@! TO.N,Net-(J3-Pad4)*
X45700000Y-83700000D02*
X44250000Y-85150000D01*
X51250000Y-86850000D02*
X51250000Y-84900000D01*
X30700000Y-90100000D02*
X48000000Y-90100000D01*
X51250000Y-84900000D02*
X50050000Y-83700000D01*
X21950000Y-42101472D02*
X21950000Y-81350000D01*
X24701472Y-39350000D02*
X21950000Y-42101472D01*
X48000000Y-90100000D02*
X51250000Y-86850000D01*
X50050000Y-83700000D02*
X45700000Y-83700000D01*
X21950000Y-81350000D02*
X30700000Y-90100000D01*
X25550000Y-39350000D02*
X24701472Y-39350000D01*
D24*
G04 #@! TO.N,Net-(J2-Pad1)*
X43750000Y-68500000D02*
X38030000Y-68500000D01*
X38030000Y-68500000D02*
X37000000Y-67470000D01*
G04 #@! TO.N,Net-(R7-Pad1)*
X45100000Y-36950000D02*
X54900000Y-36950000D01*
X54900000Y-36950000D02*
X56850000Y-35000000D01*
G04 #@! TD*
M02*
