<?xml version="1.0" standalone="no"?>
 <!DOCTYPE svg PUBLIC "-//W3C//DTD SVG 1.1//EN" 
 "http://www.w3.org/Graphics/SVG/1.1/DTD/svg11.dtd"> 
<svg xmlns="http://www.w3.org/2000/svg" version="1.1" 
    width="27.94cm" height="21.59cm" viewBox="0 0 110000 85000 ">
<title>SVG Picture created as samn-F.SilkS.svg date 2018/11/23 15:10:11 </title>
  <desc>Picture generated by PCBNEW </desc>
<g style="fill:#000000; fill-opacity:1;stroke:#000000; stroke-opacity:1;
stroke-linecap:round; stroke-linejoin:round; "
 transform="translate(0 0) scale(1 1)">
</g>
<g style="fill:#000000; fill-opacity:0.0; 
stroke:#000000; stroke-width:-0.000393701; stroke-opacity:1; 
stroke-linecap:round; stroke-linejoin:round;">
</g>
<g style="fill:#000000; fill-opacity:0.0; 
stroke:#000000; stroke-width:19.685; stroke-opacity:1; 
stroke-linecap:round; stroke-linejoin:round;">
</g>
<g style="fill:#000000; fill-opacity:0.0; 
stroke:#000000; stroke-width:59.0551; stroke-opacity:1; 
stroke-linecap:round; stroke-linejoin:round;">
<rect x="62755.9" y="67677.2" width="42519.7" height="12598.4" rx="0" />
</g>
<g style="fill:#000000; fill-opacity:0.0; 
stroke:#000000; stroke-width:19.685; stroke-opacity:1; 
stroke-linecap:round; stroke-linejoin:round;">
</g>
<g style="fill:#000000; fill-opacity:0.0; 
stroke:#000000; stroke-width:59.0551; stroke-opacity:1; 
stroke-linecap:round; stroke-linejoin:round;">
<rect x="3937.01" y="3937.01" width="102126" height="77126" rx="0" />
</g>
<g style="fill:#000000; fill-opacity:0.0; 
stroke:#000000; stroke-width:19.685; stroke-opacity:1; 
stroke-linecap:round; stroke-linejoin:round;">
</g>
<g style="fill:#000000; fill-opacity:0.0; 
stroke:#000000; stroke-width:59.0551; stroke-opacity:1; 
stroke-linecap:round; stroke-linejoin:round;">
<rect x="4724.41" y="4724.41" width="100551" height="75551.2" rx="0" />
</g>
<g style="fill:#000000; fill-opacity:0.0; 
stroke:#000000; stroke-width:19.685; stroke-opacity:1; 
stroke-linecap:round; stroke-linejoin:round;">
</g>
<g style="fill:#000000; fill-opacity:0.0; 
stroke:#000000; stroke-width:59.0551; stroke-opacity:1; 
stroke-linecap:round; stroke-linejoin:round;">
<path d="M23622 4724
L23622 3937
" />
</g>
<g style="fill:#000000; fill-opacity:0.0; 
stroke:#000000; stroke-width:19.685; stroke-opacity:1; 
stroke-linecap:round; stroke-linejoin:round;">
</g>
<g style="fill:#000000; fill-opacity:0.0; 
stroke:#000000; stroke-width:59.0551; stroke-opacity:1; 
stroke-linecap:round; stroke-linejoin:round;">
<path d="M43307 4724
L43307 3937
" />
</g>
<g style="fill:#000000; fill-opacity:0.0; 
stroke:#000000; stroke-width:19.685; stroke-opacity:1; 
stroke-linecap:round; stroke-linejoin:round;">
</g>
<g style="fill:#000000; fill-opacity:0.0; 
stroke:#000000; stroke-width:59.0551; stroke-opacity:1; 
stroke-linecap:round; stroke-linejoin:round;">
<path d="M62992 4724
L62992 3937
" />
</g>
<g style="fill:#000000; fill-opacity:0.0; 
stroke:#000000; stroke-width:19.685; stroke-opacity:1; 
stroke-linecap:round; stroke-linejoin:round;">
</g>
<g style="fill:#000000; fill-opacity:0.0; 
stroke:#000000; stroke-width:59.0551; stroke-opacity:1; 
stroke-linecap:round; stroke-linejoin:round;">
<path d="M82677 4724
L82677 3937
" />
</g>
<g style="fill:#000000; fill-opacity:0.0; 
stroke:#000000; stroke-width:19.685; stroke-opacity:1; 
stroke-linecap:round; stroke-linejoin:round;">
</g>
<g style="fill:#000000; fill-opacity:0.0; 
stroke:#000000; stroke-width:59.0551; stroke-opacity:1; 
stroke-linecap:round; stroke-linejoin:round;">
<path d="M102362 4724
L102362 3937
" />
</g>
<g style="fill:#000000; fill-opacity:0.0; 
stroke:#000000; stroke-width:19.685; stroke-opacity:1; 
stroke-linecap:round; stroke-linejoin:round;">
</g>
<g style="fill:#000000; fill-opacity:0.0; 
stroke:#000000; stroke-width:59.0551; stroke-opacity:1; 
stroke-linecap:round; stroke-linejoin:round;">
<path d="M14199 4562
L13906 4562
" />
<path d="M14052 4562
L14052 4050
L14004 4123
L13955 4172
L13906 4196
" />
</g>
<g style="fill:#000000; fill-opacity:0.0; 
stroke:#000000; stroke-width:19.685; stroke-opacity:1; 
stroke-linecap:round; stroke-linejoin:round;">
</g>
<g style="fill:#000000; fill-opacity:0.0; 
stroke:#000000; stroke-width:59.0551; stroke-opacity:1; 
stroke-linecap:round; stroke-linejoin:round;">
<path d="M33591 4099
L33615 4074
L33664 4050
L33786 4050
L33835 4074
L33859 4099
L33884 4147
L33884 4196
L33859 4269
L33567 4562
L33884 4562
" />
</g>
<g style="fill:#000000; fill-opacity:0.0; 
stroke:#000000; stroke-width:19.685; stroke-opacity:1; 
stroke-linecap:round; stroke-linejoin:round;">
</g>
<g style="fill:#000000; fill-opacity:0.0; 
stroke:#000000; stroke-width:59.0551; stroke-opacity:1; 
stroke-linecap:round; stroke-linejoin:round;">
<path d="M53252 4050
L53569 4050
L53398 4245
L53471 4245
L53520 4269
L53544 4294
L53569 4342
L53569 4464
L53544 4513
L53520 4537
L53471 4562
L53325 4562
L53276 4537
L53252 4513
" />
</g>
<g style="fill:#000000; fill-opacity:0.0; 
stroke:#000000; stroke-width:19.685; stroke-opacity:1; 
stroke-linecap:round; stroke-linejoin:round;">
</g>
<g style="fill:#000000; fill-opacity:0.0; 
stroke:#000000; stroke-width:59.0551; stroke-opacity:1; 
stroke-linecap:round; stroke-linejoin:round;">
<path d="M73205 4221
L73205 4562
" />
<path d="M73083 4026
L72961 4391
L73278 4391
" />
</g>
<g style="fill:#000000; fill-opacity:0.0; 
stroke:#000000; stroke-width:19.685; stroke-opacity:1; 
stroke-linecap:round; stroke-linejoin:round;">
</g>
<g style="fill:#000000; fill-opacity:0.0; 
stroke:#000000; stroke-width:59.0551; stroke-opacity:1; 
stroke-linecap:round; stroke-linejoin:round;">
<path d="M92914 4050
L92671 4050
L92646 4294
L92671 4269
L92719 4245
L92841 4245
L92890 4269
L92914 4294
L92939 4342
L92939 4464
L92914 4513
L92890 4537
L92841 4562
L92719 4562
L92671 4537
L92646 4513
" />
</g>
<g style="fill:#000000; fill-opacity:0.0; 
stroke:#000000; stroke-width:19.685; stroke-opacity:1; 
stroke-linecap:round; stroke-linejoin:round;">
</g>
<g style="fill:#000000; fill-opacity:0.0; 
stroke:#000000; stroke-width:59.0551; stroke-opacity:1; 
stroke-linecap:round; stroke-linejoin:round;">
<path d="M23622 80275
L23622 81062
" />
</g>
<g style="fill:#000000; fill-opacity:0.0; 
stroke:#000000; stroke-width:19.685; stroke-opacity:1; 
stroke-linecap:round; stroke-linejoin:round;">
</g>
<g style="fill:#000000; fill-opacity:0.0; 
stroke:#000000; stroke-width:59.0551; stroke-opacity:1; 
stroke-linecap:round; stroke-linejoin:round;">
<path d="M43307 80275
L43307 81062
" />
</g>
<g style="fill:#000000; fill-opacity:0.0; 
stroke:#000000; stroke-width:19.685; stroke-opacity:1; 
stroke-linecap:round; stroke-linejoin:round;">
</g>
<g style="fill:#000000; fill-opacity:0.0; 
stroke:#000000; stroke-width:59.0551; stroke-opacity:1; 
stroke-linecap:round; stroke-linejoin:round;">
<path d="M62992 80275
L62992 81062
" />
</g>
<g style="fill:#000000; fill-opacity:0.0; 
stroke:#000000; stroke-width:19.685; stroke-opacity:1; 
stroke-linecap:round; stroke-linejoin:round;">
</g>
<g style="fill:#000000; fill-opacity:0.0; 
stroke:#000000; stroke-width:59.0551; stroke-opacity:1; 
stroke-linecap:round; stroke-linejoin:round;">
<path d="M82677 80275
L82677 81062
" />
</g>
<g style="fill:#000000; fill-opacity:0.0; 
stroke:#000000; stroke-width:19.685; stroke-opacity:1; 
stroke-linecap:round; stroke-linejoin:round;">
</g>
<g style="fill:#000000; fill-opacity:0.0; 
stroke:#000000; stroke-width:59.0551; stroke-opacity:1; 
stroke-linecap:round; stroke-linejoin:round;">
<path d="M102362 80275
L102362 81062
" />
</g>
<g style="fill:#000000; fill-opacity:0.0; 
stroke:#000000; stroke-width:19.685; stroke-opacity:1; 
stroke-linecap:round; stroke-linejoin:round;">
</g>
<g style="fill:#000000; fill-opacity:0.0; 
stroke:#000000; stroke-width:59.0551; stroke-opacity:1; 
stroke-linecap:round; stroke-linejoin:round;">
<path d="M14199 80900
L13906 80900
" />
<path d="M14052 80900
L14052 80389
L14004 80462
L13955 80510
L13906 80535
" />
</g>
<g style="fill:#000000; fill-opacity:0.0; 
stroke:#000000; stroke-width:19.685; stroke-opacity:1; 
stroke-linecap:round; stroke-linejoin:round;">
</g>
<g style="fill:#000000; fill-opacity:0.0; 
stroke:#000000; stroke-width:59.0551; stroke-opacity:1; 
stroke-linecap:round; stroke-linejoin:round;">
<path d="M33591 80437
L33615 80413
L33664 80389
L33786 80389
L33835 80413
L33859 80437
L33884 80486
L33884 80535
L33859 80608
L33567 80900
L33884 80900
" />
</g>
<g style="fill:#000000; fill-opacity:0.0; 
stroke:#000000; stroke-width:19.685; stroke-opacity:1; 
stroke-linecap:round; stroke-linejoin:round;">
</g>
<g style="fill:#000000; fill-opacity:0.0; 
stroke:#000000; stroke-width:59.0551; stroke-opacity:1; 
stroke-linecap:round; stroke-linejoin:round;">
<path d="M53252 80389
L53569 80389
L53398 80583
L53471 80583
L53520 80608
L53544 80632
L53569 80681
L53569 80803
L53544 80852
L53520 80876
L53471 80900
L53325 80900
L53276 80876
L53252 80852
" />
</g>
<g style="fill:#000000; fill-opacity:0.0; 
stroke:#000000; stroke-width:19.685; stroke-opacity:1; 
stroke-linecap:round; stroke-linejoin:round;">
</g>
<g style="fill:#000000; fill-opacity:0.0; 
stroke:#000000; stroke-width:59.0551; stroke-opacity:1; 
stroke-linecap:round; stroke-linejoin:round;">
<path d="M73205 80559
L73205 80900
" />
<path d="M73083 80364
L72961 80730
L73278 80730
" />
</g>
<g style="fill:#000000; fill-opacity:0.0; 
stroke:#000000; stroke-width:19.685; stroke-opacity:1; 
stroke-linecap:round; stroke-linejoin:round;">
</g>
<g style="fill:#000000; fill-opacity:0.0; 
stroke:#000000; stroke-width:59.0551; stroke-opacity:1; 
stroke-linecap:round; stroke-linejoin:round;">
<path d="M92914 80389
L92671 80389
L92646 80632
L92671 80608
L92719 80583
L92841 80583
L92890 80608
L92914 80632
L92939 80681
L92939 80803
L92914 80852
L92890 80876
L92841 80900
L92719 80900
L92671 80876
L92646 80852
" />
</g>
<g style="fill:#000000; fill-opacity:0.0; 
stroke:#000000; stroke-width:19.685; stroke-opacity:1; 
stroke-linecap:round; stroke-linejoin:round;">
</g>
<g style="fill:#000000; fill-opacity:0.0; 
stroke:#000000; stroke-width:59.0551; stroke-opacity:1; 
stroke-linecap:round; stroke-linejoin:round;">
<path d="M3937 23622
L4724 23622
" />
</g>
<g style="fill:#000000; fill-opacity:0.0; 
stroke:#000000; stroke-width:19.685; stroke-opacity:1; 
stroke-linecap:round; stroke-linejoin:round;">
</g>
<g style="fill:#000000; fill-opacity:0.0; 
stroke:#000000; stroke-width:59.0551; stroke-opacity:1; 
stroke-linecap:round; stroke-linejoin:round;">
<path d="M3937 43307
L4724 43307
" />
</g>
<g style="fill:#000000; fill-opacity:0.0; 
stroke:#000000; stroke-width:19.685; stroke-opacity:1; 
stroke-linecap:round; stroke-linejoin:round;">
</g>
<g style="fill:#000000; fill-opacity:0.0; 
stroke:#000000; stroke-width:59.0551; stroke-opacity:1; 
stroke-linecap:round; stroke-linejoin:round;">
<path d="M3937 62992
L4724 62992
" />
</g>
<g style="fill:#000000; fill-opacity:0.0; 
stroke:#000000; stroke-width:19.685; stroke-opacity:1; 
stroke-linecap:round; stroke-linejoin:round;">
</g>
<g style="fill:#000000; fill-opacity:0.0; 
stroke:#000000; stroke-width:59.0551; stroke-opacity:1; 
stroke-linecap:round; stroke-linejoin:round;">
<path d="M4208 13864
L4452 13864
" />
<path d="M4160 14011
L4330 13499
L4501 14011
" />
</g>
<g style="fill:#000000; fill-opacity:0.0; 
stroke:#000000; stroke-width:19.685; stroke-opacity:1; 
stroke-linecap:round; stroke-linejoin:round;">
</g>
<g style="fill:#000000; fill-opacity:0.0; 
stroke:#000000; stroke-width:59.0551; stroke-opacity:1; 
stroke-linecap:round; stroke-linejoin:round;">
<path d="M4367 33428
L4440 33452
L4464 33476
L4489 33525
L4489 33598
L4464 33647
L4440 33671
L4391 33696
L4196 33696
L4196 33184
L4367 33184
L4416 33208
L4440 33233
L4464 33281
L4464 33330
L4440 33379
L4416 33403
L4367 33428
L4196 33428
" />
</g>
<g style="fill:#000000; fill-opacity:0.0; 
stroke:#000000; stroke-width:19.685; stroke-opacity:1; 
stroke-linecap:round; stroke-linejoin:round;">
</g>
<g style="fill:#000000; fill-opacity:0.0; 
stroke:#000000; stroke-width:59.0551; stroke-opacity:1; 
stroke-linecap:round; stroke-linejoin:round;">
<path d="M4489 53332
L4464 53356
L4391 53381
L4342 53381
L4269 53356
L4221 53308
L4196 53259
L4172 53161
L4172 53088
L4196 52991
L4221 52942
L4269 52893
L4342 52869
L4391 52869
L4464 52893
L4489 52918
" />
</g>
<g style="fill:#000000; fill-opacity:0.0; 
stroke:#000000; stroke-width:19.685; stroke-opacity:1; 
stroke-linecap:round; stroke-linejoin:round;">
</g>
<g style="fill:#000000; fill-opacity:0.0; 
stroke:#000000; stroke-width:59.0551; stroke-opacity:1; 
stroke-linecap:round; stroke-linejoin:round;">
<path d="M4196 73066
L4196 72554
L4318 72554
L4391 72578
L4440 72627
L4464 72676
L4489 72773
L4489 72846
L4464 72944
L4440 72993
L4391 73041
L4318 73066
L4196 73066
" />
</g>
<g style="fill:#000000; fill-opacity:0.0; 
stroke:#000000; stroke-width:19.685; stroke-opacity:1; 
stroke-linecap:round; stroke-linejoin:round;">
</g>
<g style="fill:#000000; fill-opacity:0.0; 
stroke:#000000; stroke-width:59.0551; stroke-opacity:1; 
stroke-linecap:round; stroke-linejoin:round;">
<path d="M106062 23622
L105275 23622
" />
</g>
<g style="fill:#000000; fill-opacity:0.0; 
stroke:#000000; stroke-width:19.685; stroke-opacity:1; 
stroke-linecap:round; stroke-linejoin:round;">
</g>
<g style="fill:#000000; fill-opacity:0.0; 
stroke:#000000; stroke-width:59.0551; stroke-opacity:1; 
stroke-linecap:round; stroke-linejoin:round;">
<path d="M106062 43307
L105275 43307
" />
</g>
<g style="fill:#000000; fill-opacity:0.0; 
stroke:#000000; stroke-width:19.685; stroke-opacity:1; 
stroke-linecap:round; stroke-linejoin:round;">
</g>
<g style="fill:#000000; fill-opacity:0.0; 
stroke:#000000; stroke-width:59.0551; stroke-opacity:1; 
stroke-linecap:round; stroke-linejoin:round;">
<path d="M106062 62992
L105275 62992
" />
</g>
<g style="fill:#000000; fill-opacity:0.0; 
stroke:#000000; stroke-width:19.685; stroke-opacity:1; 
stroke-linecap:round; stroke-linejoin:round;">
</g>
<g style="fill:#000000; fill-opacity:0.0; 
stroke:#000000; stroke-width:59.0551; stroke-opacity:1; 
stroke-linecap:round; stroke-linejoin:round;">
<path d="M105547 13864
L105791 13864
" />
<path d="M105498 14011
L105669 13499
L105839 14011
" />
</g>
<g style="fill:#000000; fill-opacity:0.0; 
stroke:#000000; stroke-width:19.685; stroke-opacity:1; 
stroke-linecap:round; stroke-linejoin:round;">
</g>
<g style="fill:#000000; fill-opacity:0.0; 
stroke:#000000; stroke-width:59.0551; stroke-opacity:1; 
stroke-linecap:round; stroke-linejoin:round;">
<path d="M105705 33428
L105778 33452
L105803 33476
L105827 33525
L105827 33598
L105803 33647
L105778 33671
L105730 33696
L105535 33696
L105535 33184
L105705 33184
L105754 33208
L105778 33233
L105803 33281
L105803 33330
L105778 33379
L105754 33403
L105705 33428
L105535 33428
" />
</g>
<g style="fill:#000000; fill-opacity:0.0; 
stroke:#000000; stroke-width:19.685; stroke-opacity:1; 
stroke-linecap:round; stroke-linejoin:round;">
</g>
<g style="fill:#000000; fill-opacity:0.0; 
stroke:#000000; stroke-width:59.0551; stroke-opacity:1; 
stroke-linecap:round; stroke-linejoin:round;">
<path d="M105827 53332
L105803 53356
L105730 53381
L105681 53381
L105608 53356
L105559 53308
L105535 53259
L105510 53161
L105510 53088
L105535 52991
L105559 52942
L105608 52893
L105681 52869
L105730 52869
L105803 52893
L105827 52918
" />
</g>
<g style="fill:#000000; fill-opacity:0.0; 
stroke:#000000; stroke-width:19.685; stroke-opacity:1; 
stroke-linecap:round; stroke-linejoin:round;">
</g>
<g style="fill:#000000; fill-opacity:0.0; 
stroke:#000000; stroke-width:59.0551; stroke-opacity:1; 
stroke-linecap:round; stroke-linejoin:round;">
<path d="M105535 73066
L105535 72554
L105657 72554
L105730 72578
L105778 72627
L105803 72676
L105827 72773
L105827 72846
L105803 72944
L105778 72993
L105730 73041
L105657 73066
L105535 73066
" />
</g>
<g style="fill:#000000; fill-opacity:0.0; 
stroke:#000000; stroke-width:19.685; stroke-opacity:1; 
stroke-linecap:round; stroke-linejoin:round;">
</g>
<g style="fill:#000000; fill-opacity:0.0; 
stroke:#000000; stroke-width:59.0551; stroke-opacity:1; 
stroke-linecap:round; stroke-linejoin:round;">
<path d="M71981 78613
L71981 78023
L72121 78023
L72206 78051
L72262 78107
L72290 78163
L72318 78276
L72318 78360
L72290 78473
L72262 78529
L72206 78585
L72121 78613
L71981 78613
" />
<path d="M72824 78613
L72824 78304
L72796 78248
L72740 78219
L72627 78219
L72571 78248
" />
<path d="M72824 78585
L72768 78613
L72627 78613
L72571 78585
L72543 78529
L72543 78473
L72571 78416
L72627 78388
L72768 78388
L72824 78360
" />
<path d="M73021 78219
L73246 78219
" />
<path d="M73106 78023
L73106 78529
L73134 78585
L73190 78613
L73246 78613
" />
<path d="M73668 78585
L73612 78613
L73499 78613
L73443 78585
L73415 78529
L73415 78304
L73443 78248
L73499 78219
L73612 78219
L73668 78248
L73696 78304
L73696 78360
L73415 78416
" />
<path d="M73949 78557
L73977 78585
L73949 78613
L73921 78585
L73949 78557
L73949 78613
" />
<path d="M73949 78248
L73977 78276
L73949 78304
L73921 78276
L73949 78248
L73949 78304
" />
<path d="M74652 78079
L74680 78051
L74737 78023
L74877 78023
L74933 78051
L74962 78079
L74990 78135
L74990 78191
L74962 78276
L74624 78613
L74990 78613
" />
<path d="M75355 78023
L75411 78023
L75468 78051
L75496 78079
L75524 78135
L75552 78248
L75552 78388
L75524 78501
L75496 78557
L75468 78585
L75411 78613
L75355 78613
L75299 78585
L75271 78557
L75243 78501
L75215 78388
L75215 78248
L75243 78135
L75271 78079
L75299 78051
L75355 78023
" />
<path d="M76115 78613
L75777 78613
" />
<path d="M75946 78613
L75946 78023
L75890 78107
L75833 78163
L75777 78191
" />
<path d="M76452 78276
L76396 78248
L76368 78219
L76339 78163
L76339 78135
L76368 78079
L76396 78051
L76452 78023
L76564 78023
L76621 78051
L76649 78079
L76677 78135
L76677 78163
L76649 78219
L76621 78248
L76564 78276
L76452 78276
L76396 78304
L76368 78332
L76339 78388
L76339 78501
L76368 78557
L76396 78585
L76452 78613
L76564 78613
L76621 78585
L76649 78557
L76677 78501
L76677 78388
L76649 78332
L76621 78304
L76564 78276
" />
<path d="M76930 78388
L77380 78388
" />
<path d="M77971 78613
L77633 78613
" />
<path d="M77802 78613
L77802 78023
L77746 78107
L77689 78163
L77633 78191
" />
<path d="M78533 78613
L78196 78613
" />
<path d="M78364 78613
L78364 78023
L78308 78107
L78252 78163
L78196 78191
" />
<path d="M78786 78388
L79236 78388
" />
<path d="M79489 78079
L79517 78051
L79573 78023
L79714 78023
L79770 78051
L79798 78079
L79827 78135
L79827 78191
L79798 78276
L79461 78613
L79827 78613
" />
<path d="M80023 78023
L80389 78023
L80192 78248
L80276 78248
L80333 78276
L80361 78304
L80389 78360
L80389 78501
L80361 78557
L80333 78585
L80276 78613
L80108 78613
L80052 78585
L80023 78557
" />
</g>
<g style="fill:#000000; fill-opacity:0.0; 
stroke:#000000; stroke-width:19.685; stroke-opacity:1; 
stroke-linecap:round; stroke-linejoin:round;">
</g>
<g style="fill:#000000; fill-opacity:0.0; 
stroke:#000000; stroke-width:59.0551; stroke-opacity:1; 
stroke-linecap:round; stroke-linejoin:round;">
<path d="M62755 78897
L105275 78897
" />
</g>
<g style="fill:#000000; fill-opacity:0.0; 
stroke:#000000; stroke-width:19.685; stroke-opacity:1; 
stroke-linecap:round; stroke-linejoin:round;">
</g>
<g style="fill:#000000; fill-opacity:0.0; 
stroke:#000000; stroke-width:59.0551; stroke-opacity:1; 
stroke-linecap:round; stroke-linejoin:round;">
<path d="M63319 79715
L63319 79125
" />
<path d="M63657 79715
L63404 79378
" />
<path d="M63657 79125
L63319 79462
" />
<path d="M63910 79715
L63910 79322
" />
<path d="M63910 79125
L63882 79153
L63910 79181
L63938 79153
L63910 79125
L63910 79181
" />
<path d="M64528 79659
L64500 79687
L64416 79715
L64360 79715
L64275 79687
L64219 79631
L64191 79575
L64163 79462
L64163 79378
L64191 79266
L64219 79209
L64275 79153
L64360 79125
L64416 79125
L64500 79153
L64528 79181
" />
<path d="M65035 79715
L65035 79406
L65007 79350
L64950 79322
L64838 79322
L64782 79350
" />
<path d="M65035 79687
L64978 79715
L64838 79715
L64782 79687
L64753 79631
L64753 79575
L64782 79519
L64838 79491
L64978 79491
L65035 79462
" />
<path d="M65569 79715
L65569 79125
" />
<path d="M65569 79687
L65513 79715
L65400 79715
L65344 79687
L65316 79659
L65288 79603
L65288 79434
L65316 79378
L65344 79350
L65400 79322
L65513 79322
L65569 79350
" />
<path d="M66300 79406
L66497 79406
" />
<path d="M66581 79715
L66300 79715
L66300 79125
L66581 79125
" />
<path d="M66834 79659
L66863 79687
L66834 79715
L66806 79687
L66834 79659
L66834 79715
" />
<path d="M67116 79715
L67116 79125
L67256 79125
L67341 79153
L67397 79209
L67425 79266
L67453 79378
L67453 79462
L67425 79575
L67397 79631
L67341 79687
L67256 79715
L67116 79715
" />
<path d="M67706 79659
L67734 79687
L67706 79715
L67678 79687
L67706 79659
L67706 79715
" />
<path d="M67959 79547
L68241 79547
" />
<path d="M67903 79715
L68100 79125
L68297 79715
" />
<path d="M68494 79659
L68522 79687
L68494 79715
L68465 79687
L68494 79659
L68494 79715
" />
<path d="M69675 79715
L69675 79125
" />
<path d="M69731 79491
L69900 79715
" />
<path d="M69900 79322
L69675 79547
" />
<path d="M70153 79715
L70153 79322
" />
<path d="M70153 79125
L70125 79153
L70153 79181
L70181 79153
L70153 79125
L70153 79181
" />
<path d="M70687 79687
L70631 79715
L70518 79715
L70462 79687
L70434 79659
L70406 79603
L70406 79434
L70434 79378
L70462 79350
L70518 79322
L70631 79322
L70687 79350
" />
<path d="M71193 79715
L71193 79406
L71165 79350
L71109 79322
L70996 79322
L70940 79350
" />
<path d="M71193 79687
L71137 79715
L70996 79715
L70940 79687
L70912 79631
L70912 79575
L70940 79519
L70996 79491
L71137 79491
L71193 79462
" />
<path d="M71728 79715
L71728 79125
" />
<path d="M71728 79687
L71671 79715
L71559 79715
L71503 79687
L71474 79659
L71446 79603
L71446 79434
L71474 79378
L71503 79350
L71559 79322
L71671 79322
L71728 79350
" />
<path d="M72740 79125
L72459 79125
L72431 79406
L72459 79378
L72515 79350
L72656 79350
L72712 79378
L72740 79406
L72768 79462
L72768 79603
L72740 79659
L72712 79687
L72656 79715
L72515 79715
L72459 79687
L72431 79659
" />
<path d="M73021 79659
L73049 79687
L73021 79715
L72993 79687
L73021 79659
L73021 79715
" />
<path d="M73415 79125
L73471 79125
L73527 79153
L73555 79181
L73584 79237
L73612 79350
L73612 79491
L73584 79603
L73555 79659
L73527 79687
L73471 79715
L73415 79715
L73359 79687
L73330 79659
L73302 79603
L73274 79491
L73274 79350
L73302 79237
L73330 79181
L73359 79153
L73415 79125
" />
<path d="M73865 79659
L73893 79687
L73865 79715
L73837 79687
L73865 79659
L73865 79715
" />
<path d="M74455 79715
L74118 79715
" />
<path d="M74287 79715
L74287 79125
L74230 79209
L74174 79266
L74118 79294
" />
<path d="M74708 79491
L75158 79491
" />
<path d="M75383 79125
L75749 79125
L75552 79350
L75636 79350
L75693 79378
L75721 79406
L75749 79462
L75749 79603
L75721 79659
L75693 79687
L75636 79715
L75468 79715
L75411 79687
L75383 79659
" />
<path d="M75946 79125
L76311 79125
L76115 79350
L76199 79350
L76255 79378
L76283 79406
L76311 79462
L76311 79603
L76283 79659
L76255 79687
L76199 79715
L76030 79715
L75974 79687
L75946 79659
" />
<path d="M76818 79687
L76761 79715
L76649 79715
L76593 79687
L76564 79659
L76536 79603
L76536 79434
L76564 79378
L76593 79350
L76649 79322
L76761 79322
L76818 79350
" />
<path d="M77296 79687
L77239 79715
L77127 79715
L77071 79687
L77043 79631
L77043 79406
L77071 79350
L77127 79322
L77239 79322
L77296 79350
L77324 79406
L77324 79462
L77043 79519
" />
<path d="M77830 79715
L77830 79406
L77802 79350
L77746 79322
L77633 79322
L77577 79350
" />
<path d="M77830 79687
L77774 79715
L77633 79715
L77577 79687
L77549 79631
L77549 79575
L77577 79519
L77633 79491
L77774 79491
L77830 79462
" />
<path d="M78196 79378
L78139 79350
L78111 79322
L78083 79266
L78083 79237
L78111 79181
L78139 79153
L78196 79125
L78308 79125
L78364 79153
L78392 79181
L78420 79237
L78420 79266
L78392 79322
L78364 79350
L78308 79378
L78196 79378
L78139 79406
L78111 79434
L78083 79491
L78083 79603
L78111 79659
L78139 79687
L78196 79715
L78308 79715
L78364 79687
L78392 79659
L78420 79603
L78420 79491
L78392 79434
L78364 79406
L78308 79378
" />
<path d="M78899 79687
L78842 79715
L78730 79715
L78674 79687
L78645 79631
L78645 79406
L78674 79350
L78730 79322
L78842 79322
L78899 79350
L78927 79406
L78927 79462
L78645 79519
" />
<path d="M79039 78964
L79602 78964
" />
<path d="M79433 79125
L79320 79125
L79264 79153
L79236 79181
L79180 79266
L79152 79378
L79152 79603
L79180 79659
L79208 79687
L79264 79715
L79377 79715
L79433 79687
L79461 79659
L79489 79603
L79489 79462
L79461 79406
L79433 79378
L79377 79350
L79264 79350
L79208 79378
L79180 79406
L79152 79462
" />
<path d="M79602 78964
L80164 78964
" />
<path d="M79827 79378
L79770 79350
L79742 79322
L79714 79266
L79714 79237
L79742 79181
L79770 79153
L79827 79125
L79939 79125
L79995 79153
L80023 79181
L80052 79237
L80052 79266
L80023 79322
L79995 79350
L79939 79378
L79827 79378
L79770 79406
L79742 79434
L79714 79491
L79714 79603
L79742 79659
L79770 79687
L79827 79715
L79939 79715
L79995 79687
L80023 79659
L80052 79603
L80052 79491
L80023 79434
L79995 79406
L79939 79378
" />
<path d="M80558 79322
L80558 79715
" />
<path d="M80305 79322
L80305 79631
L80333 79687
L80389 79715
L80473 79715
L80530 79687
L80558 79659
" />
<path d="M80839 79715
L80839 79125
" />
<path d="M80839 79350
L80895 79322
L81008 79322
L81064 79350
L81092 79378
L81120 79434
L81120 79603
L81092 79659
L81064 79687
L81008 79715
L80895 79715
L80839 79687
" />
<path d="M81626 79322
L81626 79715
" />
<path d="M81373 79322
L81373 79631
L81401 79687
L81458 79715
L81542 79715
L81598 79687
L81626 79659
" />
<path d="M81908 79322
L81908 79715
" />
<path d="M81908 79378
L81936 79350
L81992 79322
L82076 79322
L82133 79350
L82161 79406
L82161 79715
" />
<path d="M82357 79322
L82582 79322
" />
<path d="M82442 79125
L82442 79631
L82470 79687
L82526 79715
L82582 79715
" />
<path d="M83032 79322
L83032 79715
" />
<path d="M82779 79322
L82779 79631
L82807 79687
L82864 79715
L82948 79715
L83004 79687
L83032 79659
" />
<path d="M83623 79715
L83285 79715
" />
<path d="M83454 79715
L83454 79125
L83398 79209
L83342 79266
L83285 79294
" />
<path d="M83960 79378
L83904 79350
L83876 79322
L83848 79266
L83848 79237
L83876 79181
L83904 79153
L83960 79125
L84073 79125
L84129 79153
L84157 79181
L84185 79237
L84185 79266
L84157 79322
L84129 79350
L84073 79378
L83960 79378
L83904 79406
L83876 79434
L83848 79491
L83848 79603
L83876 79659
L83904 79687
L83960 79715
L84073 79715
L84129 79687
L84157 79659
L84185 79603
L84185 79491
L84157 79434
L84129 79406
L84073 79378
" />
<path d="M84438 79659
L84467 79687
L84438 79715
L84410 79687
L84438 79659
L84438 79715
" />
<path d="M84832 79125
L84888 79125
L84945 79153
L84973 79181
L85001 79237
L85029 79350
L85029 79491
L85001 79603
L84973 79659
L84945 79687
L84888 79715
L84832 79715
L84776 79687
L84748 79659
L84720 79603
L84692 79491
L84692 79350
L84720 79237
L84748 79181
L84776 79153
L84832 79125
" />
<path d="M85535 79322
L85535 79715
" />
<path d="M85395 79097
L85254 79519
L85620 79519
" />
<path d="M85845 79659
L85873 79687
L85845 79715
L85816 79687
L85845 79659
L85845 79715
" />
<path d="M86435 79715
L86098 79715
" />
<path d="M86266 79715
L86266 79125
L86210 79209
L86154 79266
L86098 79294
" />
</g>
<g style="fill:#000000; fill-opacity:0.0; 
stroke:#000000; stroke-width:19.685; stroke-opacity:1; 
stroke-linecap:round; stroke-linejoin:round;">
</g>
<g style="fill:#000000; fill-opacity:0.0; 
stroke:#000000; stroke-width:59.0551; stroke-opacity:1; 
stroke-linecap:round; stroke-linejoin:round;">
<path d="M62755 77716
L105275 77716
" />
</g>
<g style="fill:#000000; fill-opacity:0.0; 
stroke:#000000; stroke-width:19.685; stroke-opacity:1; 
stroke-linecap:round; stroke-linejoin:round;">
</g>
<g style="fill:#000000; fill-opacity:0.0; 
stroke:#000000; stroke-width:118.11; stroke-opacity:1; 
stroke-linecap:round; stroke-linejoin:round;">
<path d="M97169 78613
L96972 78332
" />
<path d="M96831 78613
L96831 78023
L97056 78023
L97112 78051
L97140 78079
L97169 78135
L97169 78219
L97140 78276
L97112 78304
L97056 78332
L96831 78332
" />
<path d="M97647 78585
L97590 78613
L97478 78613
L97422 78585
L97393 78529
L97393 78304
L97422 78248
L97478 78219
L97590 78219
L97647 78248
L97675 78304
L97675 78360
L97393 78416
" />
<path d="M97872 78219
L98012 78613
L98153 78219
" />
<path d="M98378 78557
L98406 78585
L98378 78613
L98350 78585
L98378 78557
L98378 78613
" />
<path d="M98378 78248
L98406 78276
L98378 78304
L98350 78276
L98378 78248
L98378 78304
" />
<path d="M99362 78023
L99250 78023
L99193 78051
L99165 78079
L99109 78163
L99081 78276
L99081 78501
L99109 78557
L99137 78585
L99193 78613
L99306 78613
L99362 78585
L99390 78557
L99418 78501
L99418 78360
L99390 78304
L99362 78276
L99306 78248
L99193 78248
L99137 78276
L99109 78304
L99081 78360
" />
</g>
<g style="fill:#000000; fill-opacity:0.0; 
stroke:#000000; stroke-width:19.685; stroke-opacity:1; 
stroke-linecap:round; stroke-linejoin:round;">
</g>
<g style="fill:#000000; fill-opacity:0.0; 
stroke:#000000; stroke-width:59.0551; stroke-opacity:1; 
stroke-linecap:round; stroke-linejoin:round;">
<path d="M63291 78585
L63375 78613
L63516 78613
L63572 78585
L63600 78557
L63629 78501
L63629 78444
L63600 78388
L63572 78360
L63516 78332
L63404 78304
L63347 78276
L63319 78248
L63291 78191
L63291 78135
L63319 78079
L63347 78051
L63404 78023
L63544 78023
L63629 78051
" />
<path d="M63882 78613
L63882 78219
" />
<path d="M63882 78023
L63854 78051
L63882 78079
L63910 78051
L63882 78023
L63882 78079
" />
<path d="M64107 78219
L64416 78219
L64107 78613
L64416 78613
" />
<path d="M64866 78585
L64810 78613
L64697 78613
L64641 78585
L64613 78529
L64613 78304
L64641 78248
L64697 78219
L64810 78219
L64866 78248
L64894 78304
L64894 78360
L64613 78416
" />
<path d="M65147 78557
L65175 78585
L65147 78613
L65119 78585
L65147 78557
L65147 78613
" />
<path d="M65147 78248
L65175 78276
L65147 78304
L65119 78276
L65147 78248
L65147 78304
" />
<path d="M65878 78023
L65878 78501
L65906 78557
L65935 78585
L65991 78613
L66103 78613
L66160 78585
L66188 78557
L66216 78501
L66216 78023
" />
<path d="M66469 78585
L66553 78613
L66694 78613
L66750 78585
L66778 78557
L66806 78501
L66806 78444
L66778 78388
L66750 78360
L66694 78332
L66581 78304
L66525 78276
L66497 78248
L66469 78191
L66469 78135
L66497 78079
L66525 78051
L66581 78023
L66722 78023
L66806 78051
" />
<path d="M67341 78613
L67059 78613
L67059 78023
" />
<path d="M67762 78585
L67706 78613
L67594 78613
L67537 78585
L67509 78529
L67509 78304
L67537 78248
L67594 78219
L67706 78219
L67762 78248
L67791 78304
L67791 78360
L67509 78416
" />
<path d="M67959 78219
L68184 78219
" />
<path d="M68044 78023
L68044 78529
L68072 78585
L68128 78613
L68184 78613
" />
<path d="M68297 78219
L68522 78219
" />
<path d="M68381 78023
L68381 78529
L68409 78585
L68465 78613
L68522 78613
" />
<path d="M68944 78585
L68887 78613
L68775 78613
L68719 78585
L68690 78529
L68690 78304
L68719 78248
L68775 78219
L68887 78219
L68944 78248
L68972 78304
L68972 78360
L68690 78416
" />
<path d="M69225 78613
L69225 78219
" />
<path d="M69225 78332
L69253 78276
L69281 78248
L69337 78219
L69393 78219
" />
</g>
<g style="fill:#000000; fill-opacity:0.0; 
stroke:#000000; stroke-width:19.685; stroke-opacity:1; 
stroke-linecap:round; stroke-linejoin:round;">
</g>
<g style="fill:#000000; fill-opacity:0.0; 
stroke:#000000; stroke-width:59.0551; stroke-opacity:1; 
stroke-linecap:round; stroke-linejoin:round;">
<path d="M96784 79715
L96784 79125
" />
<path d="M97318 79715
L97318 79125
" />
<path d="M97318 79687
L97262 79715
L97149 79715
L97093 79687
L97065 79659
L97037 79603
L97037 79434
L97065 79378
L97093 79350
L97149 79322
L97262 79322
L97318 79350
" />
<path d="M97599 79659
L97627 79687
L97599 79715
L97571 79687
L97599 79659
L97599 79715
" />
<path d="M97599 79350
L97627 79378
L97599 79406
L97571 79378
L97599 79350
L97599 79406
" />
<path d="M98640 79715
L98302 79715
" />
<path d="M98471 79715
L98471 79125
L98415 79209
L98359 79266
L98302 79294
" />
<path d="M99315 79097
L98809 79856
" />
<path d="M99821 79715
L99483 79715
" />
<path d="M99652 79715
L99652 79125
L99596 79209
L99540 79266
L99483 79294
" />
</g>
<g style="fill:#000000; fill-opacity:0.0; 
stroke:#000000; stroke-width:19.685; stroke-opacity:1; 
stroke-linecap:round; stroke-linejoin:round;">
</g>
<g style="fill:#000000; fill-opacity:0.0; 
stroke:#000000; stroke-width:59.0551; stroke-opacity:1; 
stroke-linecap:round; stroke-linejoin:round;">
<path d="M62755 76141
L105275 76141
" />
</g>
<g style="fill:#000000; fill-opacity:0.0; 
stroke:#000000; stroke-width:19.685; stroke-opacity:1; 
stroke-linecap:round; stroke-linejoin:round;">
</g>
<g style="fill:#000000; fill-opacity:0.0; 
stroke:#000000; stroke-width:157.48; stroke-opacity:1; 
stroke-linecap:round; stroke-linejoin:round;">
<path d="M63430 76419
L63880 76419
" />
<path d="M63556 77206
L63655 76419
" />
<path d="M64044 77206
L64109 76681
" />
<path d="M64142 76419
L64100 76456
L64133 76494
L64175 76456
L64142 76419
L64133 76494
" />
<path d="M64372 76681
L64672 76681
" />
<path d="M64517 76419
L64433 77094
L64461 77169
L64531 77206
L64606 77206
" />
<path d="M64981 77206
L64911 77169
L64883 77094
L64967 76419
" />
<path d="M65586 77169
L65506 77206
L65356 77206
L65286 77169
L65257 77094
L65295 76794
L65342 76719
L65422 76681
L65571 76681
L65642 76719
L65670 76794
L65661 76869
L65276 76944
" />
<path d="M65965 77131
L65998 77169
L65956 77206
L65923 77169
L65965 77131
L65956 77206
" />
<path d="M66017 76719
L66050 76756
L66007 76794
L65975 76756
L66017 76719
L66007 76794
" />
<path d="M66898 77169
L67006 77206
L67193 77206
L67273 77169
L67315 77131
L67362 77056
L67371 76981
L67343 76906
L67310 76869
L67240 76831
L67095 76794
L67024 76756
L66992 76719
L66964 76644
L66973 76569
L67020 76494
L67062 76456
L67142 76419
L67329 76419
L67437 76456
" />
<path d="M68018 77206
L68070 76794
L68041 76719
L67971 76681
L67821 76681
L67742 76719
" />
<path d="M68023 77169
L67943 77206
L67756 77206
L67685 77169
L67657 77094
L67667 77019
L67713 76944
L67793 76906
L67981 76906
L68060 76869
" />
<path d="M68393 77206
L68459 76681
" />
<path d="M68449 76756
L68491 76719
L68571 76681
L68684 76681
L68754 76719
L68782 76794
L68730 77206
" />
<path d="M68782 76794
L68829 76719
L68909 76681
L69021 76681
L69091 76719
L69119 76794
L69068 77206
" />
<path d="M69508 76681
L69443 77206
" />
<path d="M69499 76756
L69541 76719
L69621 76681
L69733 76681
L69804 76719
L69832 76794
L69780 77206
" />
</g>
<g style="fill:#000000; fill-opacity:0.0; 
stroke:#000000; stroke-width:19.685; stroke-opacity:1; 
stroke-linecap:round; stroke-linejoin:round;">
</g>
<g style="fill:#000000; fill-opacity:0.0; 
stroke:#000000; stroke-width:59.0551; stroke-opacity:1; 
stroke-linecap:round; stroke-linejoin:round;">
<path d="M63516 75390
L63319 75390
" />
<path d="M63319 75700
L63319 75109
L63600 75109
" />
<path d="M63825 75700
L63825 75306
" />
<path d="M63825 75109
L63797 75137
L63825 75165
L63854 75137
L63825 75109
L63825 75165
" />
<path d="M64191 75700
L64135 75672
L64107 75615
L64107 75109
" />
<path d="M64641 75672
L64585 75700
L64472 75700
L64416 75672
L64388 75615
L64388 75390
L64416 75334
L64472 75306
L64585 75306
L64641 75334
L64669 75390
L64669 75447
L64388 75503
" />
<path d="M64922 75643
L64950 75672
L64922 75700
L64894 75672
L64922 75643
L64922 75700
" />
<path d="M64922 75334
L64950 75362
L64922 75390
L64894 75362
L64922 75334
L64922 75390
" />
<path d="M65625 75672
L65681 75700
L65794 75700
L65850 75672
L65878 75615
L65878 75587
L65850 75531
L65794 75503
L65710 75503
L65653 75475
L65625 75419
L65625 75390
L65653 75334
L65710 75306
L65794 75306
L65850 75334
" />
<path d="M66384 75700
L66384 75390
L66356 75334
L66300 75306
L66188 75306
L66131 75334
" />
<path d="M66384 75672
L66328 75700
L66188 75700
L66131 75672
L66103 75615
L66103 75559
L66131 75503
L66188 75475
L66328 75475
L66384 75447
" />
<path d="M66666 75700
L66666 75306
" />
<path d="M66666 75362
L66694 75334
L66750 75306
L66834 75306
L66891 75334
L66919 75390
L66919 75700
" />
<path d="M66919 75390
L66947 75334
L67003 75306
L67088 75306
L67144 75334
L67172 75390
L67172 75700
" />
<path d="M67453 75306
L67453 75700
" />
<path d="M67453 75362
L67481 75334
L67537 75306
L67622 75306
L67678 75334
L67706 75390
L67706 75700
" />
<path d="M67987 75643
L68016 75672
L67987 75700
L67959 75672
L67987 75643
L67987 75700
" />
<path d="M68269 75700
L68269 75109
" />
<path d="M68325 75475
L68494 75700
" />
<path d="M68494 75306
L68269 75531
" />
<path d="M68747 75700
L68747 75306
" />
<path d="M68747 75109
L68719 75137
L68747 75165
L68775 75137
L68747 75109
L68747 75165
" />
<path d="M69281 75672
L69225 75700
L69112 75700
L69056 75672
L69028 75643
L69000 75587
L69000 75419
L69028 75362
L69056 75334
L69112 75306
L69225 75306
L69281 75334
" />
<path d="M69787 75700
L69787 75390
L69759 75334
L69703 75306
L69590 75306
L69534 75334
" />
<path d="M69787 75672
L69731 75700
L69590 75700
L69534 75672
L69506 75615
L69506 75559
L69534 75503
L69590 75475
L69731 75475
L69787 75447
" />
<path d="M70321 75700
L70321 75109
" />
<path d="M70321 75672
L70265 75700
L70153 75700
L70097 75672
L70068 75643
L70040 75587
L70040 75419
L70068 75362
L70097 75334
L70153 75306
L70265 75306
L70321 75334
" />
<path d="M70462 75756
L70912 75756
" />
<path d="M71053 75306
L71053 75897
" />
<path d="M71053 75334
L71109 75306
L71221 75306
L71278 75334
L71306 75362
L71334 75419
L71334 75587
L71306 75643
L71278 75672
L71221 75700
L71109 75700
L71053 75672
" />
<path d="M71840 75672
L71784 75700
L71671 75700
L71615 75672
L71587 75643
L71559 75587
L71559 75419
L71587 75362
L71615 75334
L71671 75306
L71784 75306
L71840 75334
" />
<path d="M72093 75700
L72093 75109
" />
<path d="M72093 75334
L72149 75306
L72262 75306
L72318 75334
L72346 75362
L72374 75419
L72374 75587
L72346 75643
L72318 75672
L72262 75700
L72149 75700
L72093 75672
" />
</g>
<g style="fill:#000000; fill-opacity:0.0; 
stroke:#000000; stroke-width:19.685; stroke-opacity:1; 
stroke-linecap:round; stroke-linejoin:round;">
</g>
<g style="fill:#000000; fill-opacity:0.0; 
stroke:#000000; stroke-width:59.0551; stroke-opacity:1; 
stroke-linecap:round; stroke-linejoin:round;">
<path d="M62755 73779
L105275 73779
" />
</g>
<g style="fill:#000000; fill-opacity:0.0; 
stroke:#000000; stroke-width:19.685; stroke-opacity:1; 
stroke-linecap:round; stroke-linejoin:round;">
</g>
<g style="fill:#000000; fill-opacity:0.0; 
stroke:#000000; stroke-width:59.0551; stroke-opacity:1; 
stroke-linecap:round; stroke-linejoin:round;">
<path d="M63291 74609
L63375 74637
L63516 74637
L63572 74609
L63600 74580
L63629 74524
L63629 74468
L63600 74412
L63572 74384
L63516 74356
L63404 74327
L63347 74299
L63319 74271
L63291 74215
L63291 74159
L63319 74102
L63347 74074
L63404 74046
L63544 74046
L63629 74074
" />
<path d="M63882 74637
L63882 74046
" />
<path d="M64135 74637
L64135 74327
L64107 74271
L64050 74243
L63966 74243
L63910 74271
L63882 74299
" />
<path d="M64641 74609
L64585 74637
L64472 74637
L64416 74609
L64388 74552
L64388 74327
L64416 74271
L64472 74243
L64585 74243
L64641 74271
L64669 74327
L64669 74384
L64388 74440
" />
<path d="M65147 74609
L65091 74637
L64978 74637
L64922 74609
L64894 74552
L64894 74327
L64922 74271
L64978 74243
L65091 74243
L65147 74271
L65175 74327
L65175 74384
L64894 74440
" />
<path d="M65344 74243
L65569 74243
" />
<path d="M65428 74046
L65428 74552
L65456 74609
L65513 74637
L65569 74637
" />
<path d="M65766 74580
L65794 74609
L65766 74637
L65738 74609
L65766 74580
L65766 74637
" />
<path d="M65766 74271
L65794 74299
L65766 74327
L65738 74299
L65766 74271
L65766 74327
" />
</g>
<g style="fill:#000000; fill-opacity:0.0; 
stroke:#000000; stroke-width:19.685; stroke-opacity:1; 
stroke-linecap:round; stroke-linejoin:round;">
</g>
<g style="fill:#000000; fill-opacity:0.0; 
stroke:#000000; stroke-width:59.0551; stroke-opacity:1; 
stroke-linecap:round; stroke-linejoin:round;">
<path d="M63291 72246
L63375 72275
L63516 72275
L63572 72246
L63600 72218
L63629 72162
L63629 72106
L63600 72050
L63572 72021
L63516 71993
L63404 71965
L63347 71937
L63319 71909
L63291 71853
L63291 71796
L63319 71740
L63347 71712
L63404 71684
L63544 71684
L63629 71712
" />
<path d="M63882 72275
L63882 71881
" />
<path d="M63882 71684
L63854 71712
L63882 71740
L63910 71712
L63882 71684
L63882 71740
" />
<path d="M64107 72275
L64416 71881
" />
<path d="M64107 71881
L64416 72275
" />
<path d="M64557 71881
L64782 71881
" />
<path d="M64641 71684
L64641 72190
L64669 72246
L64725 72275
L64782 72275
" />
<path d="M64978 72275
L64978 71684
" />
<path d="M65232 72275
L65232 71965
L65203 71909
L65147 71881
L65063 71881
L65007 71909
L64978 71937
" />
<path d="M66160 71965
L66244 71993
L66272 72021
L66300 72078
L66300 72162
L66272 72218
L66244 72246
L66188 72275
L65963 72275
L65963 71684
L66160 71684
L66216 71712
L66244 71740
L66272 71796
L66272 71853
L66244 71909
L66216 71937
L66160 71965
L65963 71965
" />
<path d="M66638 72275
L66581 72246
L66553 72218
L66525 72162
L66525 71993
L66553 71937
L66581 71909
L66638 71881
L66722 71881
L66778 71909
L66806 71937
L66834 71993
L66834 72162
L66806 72218
L66778 72246
L66722 72275
L66638 72275
" />
<path d="M67341 72275
L67341 71965
L67312 71909
L67256 71881
L67144 71881
L67088 71909
" />
<path d="M67341 72246
L67284 72275
L67144 72275
L67088 72246
L67059 72190
L67059 72134
L67088 72078
L67144 72050
L67284 72050
L67341 72021
" />
<path d="M67622 72275
L67622 71881
" />
<path d="M67622 71993
L67650 71937
L67678 71909
L67734 71881
L67791 71881
" />
<path d="M68241 72275
L68241 71684
" />
<path d="M68241 72246
L68184 72275
L68072 72275
L68016 72246
L67987 72218
L67959 72162
L67959 71993
L67987 71937
L68016 71909
L68072 71881
L68184 71881
L68241 71909
" />
<path d="M68550 72246
L68550 72275
L68522 72331
L68494 72359
" />
<path d="M69225 72246
L69309 72275
L69450 72275
L69506 72246
L69534 72218
L69562 72162
L69562 72106
L69534 72050
L69506 72021
L69450 71993
L69337 71965
L69281 71937
L69253 71909
L69225 71853
L69225 71796
L69253 71740
L69281 71712
L69337 71684
L69478 71684
L69562 71712
" />
<path d="M69759 71881
L69872 72275
L69984 71993
L70097 72275
L70209 71881
" />
<path d="M70434 72275
L70434 71881
" />
<path d="M70434 71684
L70406 71712
L70434 71740
L70462 71712
L70434 71684
L70434 71740
" />
<path d="M70631 71881
L70856 71881
" />
<path d="M70715 71684
L70715 72190
L70743 72246
L70800 72275
L70856 72275
" />
<path d="M71306 72246
L71250 72275
L71137 72275
L71081 72246
L71053 72218
L71025 72162
L71025 71993
L71053 71937
L71081 71909
L71137 71881
L71250 71881
L71306 71909
" />
<path d="M71559 72275
L71559 71684
" />
<path d="M71812 72275
L71812 71965
L71784 71909
L71728 71881
L71643 71881
L71587 71909
L71559 71937
" />
<path d="M72318 72246
L72262 72275
L72149 72275
L72093 72246
L72065 72190
L72065 71965
L72093 71909
L72149 71881
L72262 71881
L72318 71909
L72346 71965
L72346 72021
L72065 72078
" />
<path d="M72852 72275
L72852 71684
" />
<path d="M72852 72246
L72796 72275
L72684 72275
L72627 72246
L72599 72218
L72571 72162
L72571 71993
L72599 71937
L72627 71909
L72684 71881
L72796 71881
L72852 71909
" />
<path d="M73499 71881
L73724 71881
" />
<path d="M73584 71684
L73584 72190
L73612 72246
L73668 72275
L73724 72275
" />
<path d="M74005 72275
L73949 72246
L73921 72218
L73893 72162
L73893 71993
L73921 71937
L73949 71909
L74005 71881
L74090 71881
L74146 71909
L74174 71937
L74202 71993
L74202 72162
L74174 72218
L74146 72246
L74090 72275
L74005 72275
" />
<path d="M74821 71881
L75046 71881
" />
<path d="M74905 71684
L74905 72190
L74933 72246
L74990 72275
L75046 72275
" />
<path d="M75243 72275
L75243 71881
" />
<path d="M75243 71993
L75271 71937
L75299 71909
L75355 71881
L75411 71881
" />
<path d="M75861 72275
L75861 71965
L75833 71909
L75777 71881
L75665 71881
L75608 71909
" />
<path d="M75861 72246
L75805 72275
L75665 72275
L75608 72246
L75580 72190
L75580 72134
L75608 72078
L75665 72050
L75805 72050
L75861 72021
" />
<path d="M76396 72246
L76339 72275
L76227 72275
L76171 72246
L76143 72218
L76115 72162
L76115 71993
L76143 71937
L76171 71909
L76227 71881
L76339 71881
L76396 71909
" />
<path d="M76649 72275
L76649 71684
" />
<path d="M76705 72050
L76874 72275
" />
<path d="M76874 71881
L76649 72106
" />
<path d="M77577 72275
L77577 71881
" />
<path d="M77577 71684
L77549 71712
L77577 71740
L77605 71712
L77577 71684
L77577 71740
" />
<path d="M77858 71881
L77858 72275
" />
<path d="M77858 71937
L77886 71909
L77942 71881
L78027 71881
L78083 71909
L78111 71965
L78111 72275
" />
<path d="M78758 71881
L78983 71881
" />
<path d="M78842 72275
L78842 71768
L78870 71712
L78927 71684
L78983 71684
" />
<path d="M79180 72275
L79180 71881
" />
<path d="M79180 71684
L79152 71712
L79180 71740
L79208 71712
L79180 71684
L79180 71740
" />
<path d="M79545 72275
L79489 72246
L79461 72190
L79461 71684
" />
<path d="M79855 72275
L79798 72246
L79770 72190
L79770 71684
" />
<path d="M80305 72246
L80248 72275
L80136 72275
L80080 72246
L80052 72190
L80052 71965
L80080 71909
L80136 71881
L80248 71881
L80305 71909
L80333 71965
L80333 72021
L80052 72078
" />
<path d="M80839 72275
L80839 71684
" />
<path d="M80839 72246
L80783 72275
L80670 72275
L80614 72246
L80586 72218
L80558 72162
L80558 71993
L80586 71937
L80614 71909
L80670 71881
L80783 71881
L80839 71909
" />
<path d="M81514 71881
L81823 71881
L81514 72275
L81823 72275
" />
<path d="M82133 72275
L82076 72246
L82048 72218
L82020 72162
L82020 71993
L82048 71937
L82076 71909
L82133 71881
L82217 71881
L82273 71909
L82301 71937
L82329 71993
L82329 72162
L82301 72218
L82273 72246
L82217 72275
L82133 72275
" />
<path d="M82582 71881
L82582 72275
" />
<path d="M82582 71937
L82611 71909
L82667 71881
L82751 71881
L82807 71909
L82836 71965
L82836 72275
" />
<path d="M83342 72246
L83285 72275
L83173 72275
L83117 72246
L83089 72190
L83089 71965
L83117 71909
L83173 71881
L83285 71881
L83342 71909
L83370 71965
L83370 72021
L83089 72078
" />
<path d="M83595 72246
L83651 72275
L83764 72275
L83820 72246
L83848 72190
L83848 72162
L83820 72106
L83764 72078
L83679 72078
L83623 72050
L83595 71993
L83595 71965
L83623 71909
L83679 71881
L83764 71881
L83820 71909
" />
</g>
<g style="fill:#000000; fill-opacity:0.0; 
stroke:#000000; stroke-width:19.685; stroke-opacity:1; 
stroke-linecap:round; stroke-linejoin:round;">
</g>
<g style="fill:#000000; fill-opacity:0.0; 
stroke:#000000; stroke-width:59.0551; stroke-opacity:1; 
stroke-linecap:round; stroke-linejoin:round;">
<path d="M70629 77716
L70629 78897
" />
</g>
<g style="fill:#000000; fill-opacity:0.0; 
stroke:#000000; stroke-width:19.685; stroke-opacity:1; 
stroke-linecap:round; stroke-linejoin:round;">
</g>
<g style="fill:#000000; fill-opacity:0.0; 
stroke:#000000; stroke-width:59.0551; stroke-opacity:1; 
stroke-linecap:round; stroke-linejoin:round;">
<path d="M95826 77716
L95826 80275
" />
</g>
<g style="fill:#000000; fill-opacity:0.0; 
stroke:#000000; stroke-width:47.2441; stroke-opacity:1; 
stroke-linecap:round; stroke-linejoin:round;">
<path d="M25622 12039
L24574 12039
" />
<path d="M25622 12039
L25622 10015
" />
<path d="M25622 10015
L24574 10015
" />
<path d="M24574 12039
L24574 10015
" />
<path d="M24574 13062
L24574 12539
" />
<path d="M25098 13062
L24574 13062
" />
<path d="M14559 29911
L16659 29911
" />
<path d="M16659 29911
L16659 34111
" />
<path d="M16659 34111
L14559 34111
" />
<path d="M14559 34111
L14559 34111
" />
<path d="M15559 30111
L15559 31011
" />
<path d="M15559 31011
L14659 31011
" />
<path d="M14659 31011
L14659 31011
" />
<path d="M14429 29685
L25925 29685
" />
<path d="M25925 29685
L25925 35767
" />
<path d="M25925 35767
L14429 35767
" />
<path d="M14429 35767
L14429 29685
" />
<path d="M14429 29685
L14429 29685
" />
<path d="M14559 34111
L14559 29911
" />
<path d="M14559 29911
L14559 29911
" />
<path d="M10992 30677
L11515 30677
" />
<path d="M10992 31200
L10992 30677
" />
<path d="M12015 30677
L13039 30677
" />
<path d="M12015 31700
L12015 30677
" />
<path d="M10992 31700
L12015 31700
" />
<path d="M13039 30677
L13039 33724
" />
<path d="M10992 31700
L10992 33724
" />
<path d="M10992 33724
L13039 33724
" />
<path d="M9492 27314
L9492 27376
" />
<path d="M9492 26403
L9492 26464
" />
<path d="M9696.47 27315 A590.551 590.551 0.0 0 0 10516.2 27314.9 " />
<path d="M10516.2 26464.6 A590.551 590.551 0.0 0 0 9696.47 26464.6 " />
<path d="M9492.13 27376.2 A783.465 783.465 0.0 0 0 10764.7 27314.4 " />
<path d="M10764.7 26465.1 A783.465 783.465 0.0 0 0 9492.13 26403.3 " />
</g>
<g style="fill:#000000; fill-opacity:0.0; 
stroke:#000000; stroke-width:59.0551; stroke-opacity:1; 
stroke-linecap:round; stroke-linejoin:round;">
<path d="M22244 27165
L22244 25078
" />
<path d="M17519 27165
L17519 25078
" />
<path d="M17519 12263
L17519 10177
" />
<path d="M21692 12263
L21692 10177
" />
<path d="M21614 25078
L18070 25078
" />
<path d="M18070 25078
L18070 27165
" />
<path d="M21504 27172
L21496 28818
" />
<path d="M18188 27165
L18188 28818
" />
<path d="M21614 25078
L21622 27172
" />
<path d="M18070 27165
L18188 27165
" />
<path d="M18188 28818
L21496 28818
" />
<path d="M21622 27172
L21504 27172
" />
<path d="M18149 12263
L18141 10170
" />
<path d="M18141 10170
L18259 10170
" />
<path d="M18259 10170
L18267 8523
" />
<path d="M21574 8523
L18267 8523
" />
<path d="M21574 10177
L21574 8523
" />
<path d="M21692 10177
L21574 10177
" />
<path d="M22244 12263
L22244 10177
" />
<path d="M18149 12263
L21692 12263
" />
</g>
<g style="fill:#000000; fill-opacity:0.0; 
stroke:#000000; stroke-width:47.2441; stroke-opacity:1; 
stroke-linecap:round; stroke-linejoin:round;">
<path d="M9045.28 24464.6 A994.094 994.094 0.0 0 0 11033.5 24464.6 " />
<path d="M11033.5 21944.9 A994.094 994.094 0.0 0 0 9045.28 21944.9 " />
<path d="M9045 21944
L9045 24464
" />
<path d="M11033 21944
L11033 24464
" />
<path d="M10935 18009
L10738 18009
" />
<path d="M10836 17911
L10836 18108
" />
<path d="M10367 20039
L10144 20039
" />
<path d="M10459 20024
L10051 20024
" />
<path d="M10522 20008
L9989 20008
" />
<path d="M10572 19992
L9938 19992
" />
<path d="M10616 19976
L9895 19976
" />
<path d="M10653 19961
L9857 19961
" />
<path d="M10688 19945
L9823 19945
" />
<path d="M10719 19929
L9792 19929
" />
<path d="M10748 19913
L9763 19913
" />
<path d="M10775 19898
L9736 19898
" />
<path d="M10800 19882
L9711 19882
" />
<path d="M10824 19866
L9687 19866
" />
<path d="M10846 19850
L9665 19850
" />
<path d="M10867 19835
L9644 19835
" />
<path d="M10887 19819
L9624 19819
" />
<path d="M9846 19803
L9605 19803
" />
<path d="M10906 19803
L10665 19803
" />
<path d="M9846 19787
L9587 19787
" />
<path d="M10924 19787
L10665 19787
" />
<path d="M9846 19772
L9569 19772
" />
<path d="M10942 19772
L10665 19772
" />
<path d="M9846 19756
L9553 19756
" />
<path d="M10958 19756
L10665 19756
" />
<path d="M9846 19740
L9537 19740
" />
<path d="M10974 19740
L10665 19740
" />
<path d="M9846 19724
L9522 19724
" />
<path d="M10989 19724
L10665 19724
" />
<path d="M9846 19709
L9507 19709
" />
<path d="M11004 19709
L10665 19709
" />
<path d="M9846 19693
L9493 19693
" />
<path d="M11018 19693
L10665 19693
" />
<path d="M9846 19677
L9479 19677
" />
<path d="M11031 19677
L10665 19677
" />
<path d="M9846 19661
L9466 19661
" />
<path d="M11044 19661
L10665 19661
" />
<path d="M9846 19646
L9454 19646
" />
<path d="M11057 19646
L10665 19646
" />
<path d="M9846 19630
L9442 19630
" />
<path d="M11068 19630
L10665 19630
" />
<path d="M9846 19614
L9431 19614
" />
<path d="M11080 19614
L10665 19614
" />
<path d="M9846 19598
L9420 19598
" />
<path d="M11091 19598
L10665 19598
" />
<path d="M9846 19583
L9409 19583
" />
<path d="M11101 19583
L10665 19583
" />
<path d="M9846 19567
L9399 19567
" />
<path d="M11112 19567
L10665 19567
" />
<path d="M9846 19551
L9389 19551
" />
<path d="M11122 19551
L10665 19551
" />
<path d="M9846 19535
L9380 19535
" />
<path d="M11131 19535
L10665 19535
" />
<path d="M9846 19520
L9371 19520
" />
<path d="M11140 19520
L10665 19520
" />
<path d="M9846 19504
L9362 19504
" />
<path d="M11148 19504
L10665 19504
" />
<path d="M9846 19488
L9354 19488
" />
<path d="M11157 19488
L10665 19488
" />
<path d="M9846 19472
L9346 19472
" />
<path d="M11165 19472
L10665 19472
" />
<path d="M9846 19457
L9338 19457
" />
<path d="M11172 19457
L10665 19457
" />
<path d="M9846 19441
L9331 19441
" />
<path d="M11180 19441
L10665 19441
" />
<path d="M9846 19425
L9324 19425
" />
<path d="M11187 19425
L10665 19425
" />
<path d="M9846 19409
L9318 19409
" />
<path d="M11193 19409
L10665 19409
" />
<path d="M9846 19394
L9311 19394
" />
<path d="M11200 19394
L10665 19394
" />
<path d="M9846 19378
L9305 19378
" />
<path d="M11206 19378
L10665 19378
" />
<path d="M9846 19362
L9300 19362
" />
<path d="M11211 19362
L10665 19362
" />
<path d="M9846 19346
L9294 19346
" />
<path d="M11217 19346
L10665 19346
" />
<path d="M9846 19331
L9289 19331
" />
<path d="M11222 19331
L10665 19331
" />
<path d="M9846 19315
L9284 19315
" />
<path d="M11227 19315
L10665 19315
" />
<path d="M9846 19299
L9279 19299
" />
<path d="M11232 19299
L10665 19299
" />
<path d="M9846 19283
L9275 19283
" />
<path d="M11236 19283
L10665 19283
" />
<path d="M9846 19267
L9271 19267
" />
<path d="M11240 19267
L10665 19267
" />
<path d="M9846 19251
L9267 19251
" />
<path d="M11244 19251
L10665 19251
" />
<path d="M9846 19236
L9263 19236
" />
<path d="M11248 19236
L10665 19236
" />
<path d="M9846 19220
L9260 19220
" />
<path d="M11251 19220
L10665 19220
" />
<path d="M9846 19204
L9257 19204
" />
<path d="M11254 19204
L10665 19204
" />
<path d="M9846 19188
L9254 19188
" />
<path d="M11257 19188
L10665 19188
" />
<path d="M9846 19173
L9251 19173
" />
<path d="M11259 19173
L10665 19173
" />
<path d="M9846 19157
L9249 19157
" />
<path d="M11262 19157
L10665 19157
" />
<path d="M9846 19141
L9247 19141
" />
<path d="M11264 19141
L10665 19141
" />
<path d="M9846 19125
L9246 19125
" />
<path d="M11265 19125
L10665 19125
" />
<path d="M9846 19110
L9244 19110
" />
<path d="M11267 19110
L10665 19110
" />
<path d="M9846 19094
L9242 19094
" />
<path d="M11268 19094
L10665 19094
" />
<path d="M9846 19078
L9241 19078
" />
<path d="M11270 19078
L10665 19078
" />
<path d="M9846 19062
L9240 19062
" />
<path d="M11270 19062
L10665 19062
" />
<path d="M9846 19047
L9240 19047
" />
<path d="M11271 19047
L10665 19047
" />
<path d="M11271 19031
L10665 19031
" />
<path d="M9846 19031
L9240 19031
" />
<path d="M11271 19015
L10665 19015
" />
<path d="M9846 19015
L9240 19015
" />
<circle cx="10255.9" cy="19015.7" r="1031.5" /> 
<path d="M16537 29084
L16537 28887
" />
<path d="M16635 28986
L16438 28986
" />
<path d="M14507 28517
L14507 28293
" />
<path d="M14523 28609
L14523 28201
" />
<path d="M14538 28672
L14538 28138
" />
<path d="M14554 28722
L14554 28088
" />
<path d="M14570 28765
L14570 28045
" />
<path d="M14586 28803
L14586 28007
" />
<path d="M14601 28837
L14601 27973
" />
<path d="M14617 28869
L14617 27941
" />
<path d="M14633 28898
L14633 27912
" />
<path d="M14649 28924
L14649 27886
" />
<path d="M14664 28950
L14664 27861
" />
<path d="M14680 28973
L14680 27837
" />
<path d="M14696 28996
L14696 27814
" />
<path d="M14712 29017
L14712 27793
" />
<path d="M14727 29037
L14727 27773
" />
<path d="M14743 27996
L14743 27754
" />
<path d="M14743 29056
L14743 28814
" />
<path d="M14759 27996
L14759 27736
" />
<path d="M14759 29074
L14759 28814
" />
<path d="M14775 27996
L14775 27719
" />
<path d="M14775 29091
L14775 28814
" />
<path d="M14790 27996
L14790 27702
" />
<path d="M14790 29108
L14790 28814
" />
<path d="M14806 27996
L14806 27686
" />
<path d="M14806 29124
L14806 28814
" />
<path d="M14822 27996
L14822 27671
" />
<path d="M14822 29139
L14822 28814
" />
<path d="M14838 27996
L14838 27657
" />
<path d="M14838 29153
L14838 28814
" />
<path d="M14853 27996
L14853 27642
" />
<path d="M14853 29168
L14853 28814
" />
<path d="M14869 27996
L14869 27629
" />
<path d="M14869 29181
L14869 28814
" />
<path d="M14885 27996
L14885 27616
" />
<path d="M14885 29194
L14885 28814
" />
<path d="M14901 27996
L14901 27604
" />
<path d="M14901 29206
L14901 28814
" />
<path d="M14916 27996
L14916 27592
" />
<path d="M14916 29218
L14916 28814
" />
<path d="M14932 27996
L14932 27580
" />
<path d="M14932 29230
L14932 28814
" />
<path d="M14948 27996
L14948 27570
" />
<path d="M14948 29240
L14948 28814
" />
<path d="M14964 27996
L14964 27559
" />
<path d="M14964 29251
L14964 28814
" />
<path d="M14979 27996
L14979 27549
" />
<path d="M14979 29261
L14979 28814
" />
<path d="M14995 27996
L14995 27539
" />
<path d="M14995 29271
L14995 28814
" />
<path d="M15011 27996
L15011 27529
" />
<path d="M15011 29281
L15011 28814
" />
<path d="M15027 27996
L15027 27520
" />
<path d="M15027 29290
L15027 28814
" />
<path d="M15042 27996
L15042 27512
" />
<path d="M15042 29298
L15042 28814
" />
<path d="M15058 27996
L15058 27503
" />
<path d="M15058 29307
L15058 28814
" />
<path d="M15074 27996
L15074 27496
" />
<path d="M15074 29314
L15074 28814
" />
<path d="M15090 27996
L15090 27488
" />
<path d="M15090 29322
L15090 28814
" />
<path d="M15105 27996
L15105 27481
" />
<path d="M15105 29329
L15105 28814
" />
<path d="M15121 27996
L15121 27474
" />
<path d="M15121 29336
L15121 28814
" />
<path d="M15137 27996
L15137 27467
" />
<path d="M15137 29343
L15137 28814
" />
<path d="M15153 27996
L15153 27461
" />
<path d="M15153 29349
L15153 28814
" />
<path d="M15168 27996
L15168 27455
" />
<path d="M15168 29355
L15168 28814
" />
<path d="M15184 27996
L15184 27449
" />
<path d="M15184 29361
L15184 28814
" />
<path d="M15200 27996
L15200 27444
" />
<path d="M15200 29366
L15200 28814
" />
<path d="M15216 27996
L15216 27438
" />
<path d="M15216 29372
L15216 28814
" />
<path d="M15231 27996
L15231 27433
" />
<path d="M15231 29377
L15231 28814
" />
<path d="M15247 27996
L15247 27429
" />
<path d="M15247 29381
L15247 28814
" />
<path d="M15263 27996
L15263 27424
" />
<path d="M15263 29386
L15263 28814
" />
<path d="M15279 27996
L15279 27420
" />
<path d="M15279 29390
L15279 28814
" />
<path d="M15295 27996
L15295 27416
" />
<path d="M15295 29394
L15295 28814
" />
<path d="M15311 27996
L15311 27413
" />
<path d="M15311 29397
L15311 28814
" />
<path d="M15326 27996
L15326 27410
" />
<path d="M15326 29400
L15326 28814
" />
<path d="M15342 27996
L15342 27407
" />
<path d="M15342 29403
L15342 28814
" />
<path d="M15358 27996
L15358 27404
" />
<path d="M15358 29406
L15358 28814
" />
<path d="M15374 27996
L15374 27401
" />
<path d="M15374 29409
L15374 28814
" />
<path d="M15389 27996
L15389 27399
" />
<path d="M15389 29411
L15389 28814
" />
<path d="M15405 27996
L15405 27397
" />
<path d="M15405 29413
L15405 28814
" />
<path d="M15421 27996
L15421 27395
" />
<path d="M15421 29415
L15421 28814
" />
<path d="M15437 27996
L15437 27394
" />
<path d="M15437 29416
L15437 28814
" />
<path d="M15452 27996
L15452 27392
" />
<path d="M15452 29418
L15452 28814
" />
<path d="M15468 27996
L15468 27391
" />
<path d="M15468 29419
L15468 28814
" />
<path d="M15484 27996
L15484 27390
" />
<path d="M15484 29420
L15484 28814
" />
<path d="M15500 27996
L15500 27390
" />
<path d="M15500 29420
L15500 28814
" />
<path d="M15515 29421
L15515 28814
" />
<path d="M15515 27996
L15515 27389
" />
<path d="M15531 29421
L15531 28814
" />
<path d="M15531 27996
L15531 27389
" />
<circle cx="15531.5" cy="28405.5" r="1031.5" /> 
<path d="M23740 20070
L23216 20070
" />
<path d="M23216 20070
L23216 19547
" />
<path d="M23216 19047
L23216 14023
" />
<path d="M24263 14023
L23216 14023
" />
<path d="M24263 19047
L24263 14023
" />
<path d="M24263 19047
L23216 19047
" />
<path d="M11909 11385
L12433 11385
" />
<path d="M12433 11385
L12433 11909
" />
<path d="M12433 12409
L12433 17433
" />
<path d="M11385 17433
L12433 17433
" />
<path d="M11385 12409
L11385 17433
" />
<path d="M11385 12409
L12433 12409
" />
<path d="M23720 28870
L23196 28870
" />
<path d="M23196 28870
L23196 28346
" />
<path d="M23196 27846
L23196 20822
" />
<path d="M24244 20822
L23196 20822
" />
<path d="M24244 27846
L24244 20822
" />
<path d="M24244 27846
L23196 27846
" />
<path d="M16952 11362
L12818 11362
" />
<path d="M16952 25456
L16952 11362
" />
<path d="M12818 25456
L16952 25456
" />
<path d="M12818 11362
L12818 25456
" />
<path d="M15771 11385
L15279 11385
" />
<path d="M15771 25433
L15771 11385
" />
<path d="M14000 25433
L15771 25433
" />
<path d="M14000 11385
L14000 25433
" />
<path d="M14492 11385
L14000 11385
" />
<path d="M14492.1 11385.8 A393.701 393.701 0.0 0 0 15279.5 11385.8 " />
</g>
<g style="fill:#000000; fill-opacity:0.0; 
stroke:#000000; stroke-width:59.0551; stroke-opacity:1; 
stroke-linecap:round; stroke-linejoin:round;">
<path d="M24967 13414
L24967 13695
L24948 13751
L24910 13789
L24854 13808
L24817 13808
" />
<path d="M25342 13414
L25154 13414
L25135 13601
L25154 13583
L25192 13564
L25285 13564
L25323 13583
L25342 13601
L25360 13639
L25360 13733
L25342 13770
L25323 13789
L25285 13808
L25192 13808
L25154 13789
L25135 13770
" />
<path d="M14188 29154
L14188 29473
L14206 29510
L14225 29529
L14263 29548
L14338 29548
L14375 29529
L14394 29510
L14413 29473
L14413 29154
" />
<path d="M14563 29154
L14806 29154
L14675 29304
L14731 29304
L14769 29323
L14788 29341
L14806 29379
L14806 29473
L14788 29510
L14769 29529
L14731 29548
L14619 29548
L14581 29529
L14563 29510
" />
<path d="M10321 30532
L10321 30813
L10302 30869
L10265 30907
L10209 30926
L10171 30926
" />
<path d="M10677 30663
L10677 30926
" />
<path d="M10583 30513
L10490 30794
L10733 30794
" />
<path d="M9422 25906
L9234 25906
L9234 25512
" />
<path d="M9553 25700
L9684 25700
" />
<path d="M9740 25906
L9553 25906
L9553 25512
L9740 25512
" />
<path d="M9909 25906
L9909 25512
L10003 25512
L10059 25531
L10096 25568
L10115 25606
L10134 25681
L10134 25737
L10115 25812
L10096 25850
L10059 25887
L10003 25906
L9909 25906
" />
<path d="M10209 25943
L10509 25943
" />
<path d="M10603 25906
L10603 25512
" />
<path d="M10996 25906
L10771 25906
" />
<path d="M10884 25906
L10884 25512
L10846 25568
L10809 25606
L10771 25625
" />
<path d="M21886 9193
L22017 9587
L22148 9193
" />
<path d="M22485 9587
L22260 9587
" />
<path d="M22373 9587
L22373 9193
L22335 9250
L22298 9287
L22260 9306
" />
<path d="M11417 23392
L11605 23392
" />
<path d="M11211 23523
L11417 23392
L11211 23260
" />
<path d="M11605 22923
L11605 23148
" />
<path d="M11605 23035
L11211 23035
L11267 23073
L11305 23110
L11324 23148
" />
<path d="M9294 18195
L9312 18214
L9331 18270
L9331 18308
L9312 18364
L9275 18401
L9237 18420
L9162 18439
L9106 18439
L9031 18420
L8994 18401
L8956 18364
L8937 18308
L8937 18270
L8956 18214
L8975 18195
" />
<path d="M9069 17858
L9331 17858
" />
<path d="M8919 17951
L9200 18045
L9200 17801
" />
<path d="M15465 30022
L15447 30041
L15390 30059
L15353 30059
L15297 30041
L15259 30003
L15240 29966
L15222 29891
L15222 29835
L15240 29760
L15259 29722
L15297 29685
L15353 29666
L15390 29666
L15447 29685
L15465 29703
" />
<path d="M15597 29666
L15859 29666
L15690 30059
" />
<path d="M23608 20422
L23608 20703
L23590 20759
L23552 20797
L23496 20815
L23458 20815
" />
<path d="M24002 20815
L23777 20815
" />
<path d="M23890 20815
L23890 20422
L23852 20478
L23815 20515
L23777 20534
" />
<path d="M10715 11241
L10715 11522
L10696 11578
L10658 11616
L10602 11634
L10565 11634
" />
<path d="M10865 11241
L11108 11241
L10977 11391
L11033 11391
L11071 11409
L11090 11428
L11108 11466
L11108 11559
L11090 11597
L11071 11616
L11033 11634
L10921 11634
L10883 11616
L10865 11597
" />
<path d="M23687 29134
L23687 29416
L23668 29472
L23631 29509
L23575 29528
L23537 29528
" />
<path d="M23856 29172
L23875 29153
L23912 29134
L24006 29134
L24043 29153
L24062 29172
L24081 29209
L24081 29247
L24062 29303
L23837 29528
L24081 29528
" />
<path d="M14266 10808
L14266 11126
L14285 11164
L14304 11182
L14341 11201
L14416 11201
L14454 11182
L14473 11164
L14491 11126
L14491 10808
" />
<path d="M14660 10845
L14679 10826
L14716 10808
L14810 10808
L14848 10826
L14866 10845
L14885 10883
L14885 10920
L14866 10976
L14641 11201
L14885 11201
" />
<path d="M7874.02 35137.8 A787.402 787.402 0.0 0 0 8661.42 35925.2 " />
<path d="M8661 35925
L25688 35925
" />
<path d="M7874 8169
L7874 35137
" />
<path d="M25688 7381
L8661 7381
" />
<path d="M26476 35137
L26476 8169
" />
<path d="M26476.4 8169.29 A787.402 787.402 0.0 0 0 25689 7381.89 " />
<path d="M25689 35925.2 A787.402 787.402 0.0 0 0 26476.4 35137.8 " />
<path d="M8661.42 7381.89 A787.402 787.402 0.0 0 0 7874.02 8169.29 " />
</g> 
</svg>
